<svg width="1034" height="799" viewBox="0 0 1034 799" fill="none" xmlns="http://www.w3.org/2000/svg">
<path d="M61.5203 333.449C-84.0877 459.947 68.2911 619.437 143.502 693.325C210.794 759.435 346.388 768.933 408.091 758.392C685.553 809.105 925.213 826.71 1012.94 719.888C1053.34 670.685 1036.52 542.225 950.028 474.247C880.835 419.865 936.588 371.486 950.028 333.449C1032.01 101.438 906.137 74.0987 781.287 96.2654C681.407 113.999 630.364 88.8765 617.328 74.0987C333.783 -99.5402 144.252 74.0987 143.5 187.149C142.898 277.589 88.5962 322.365 61.5203 333.449Z" fill="#F6F8FA"/>
<path fill-rule="evenodd" clip-rule="evenodd" d="M734.432 459.239C732.274 459.221 730.315 460.479 729.283 462.432L723.309 473.746C720.283 479.476 711.979 479.183 709.365 473.254L706.65 467.098C705.498 464.484 702.719 462.985 699.901 463.455L691.281 464.896C690.882 464.963 690.621 465.029 690.42 465.156C689.675 465.631 688.738 466.806 687.894 469.098C687.059 471.368 686.349 474.648 685.989 479.198C685.269 488.297 685.958 502.383 689.76 523.429C689.833 523.837 689.562 524.227 689.155 524.301C688.747 524.374 688.357 524.103 688.283 523.696C684.469 502.58 683.759 488.355 684.493 479.079C684.86 474.442 685.59 471.018 686.487 468.58C687.376 466.164 688.463 464.625 689.614 463.891C690.097 463.584 690.633 463.483 691.034 463.416L699.654 461.976C703.148 461.392 706.593 463.252 708.023 466.493L710.737 472.649C712.846 477.431 719.543 477.667 721.983 473.046L727.957 461.731C729.226 459.328 731.676 457.717 734.444 457.739C740.141 457.784 747.734 458.468 754.945 460.454C762.138 462.434 769.06 465.739 773.285 471.104C778.841 478.161 786.926 488.466 793.978 505.99C801.028 523.507 807.034 548.204 808.5 584.058C808.6 586.507 807.522 588.755 805.89 590.493C804.26 592.23 802.036 593.504 799.733 594.01C792.556 595.588 781.617 599.838 767.75 609.481C747.433 623.611 727.351 614.135 718.133 606.35C716.645 605.094 715.859 603.267 715.737 601.386L713.605 568.293C713.579 567.88 713.892 567.523 714.306 567.497C714.719 567.47 715.076 567.783 715.102 568.197L717.234 601.289C717.333 602.827 717.971 604.25 719.1 605.204C728.075 612.783 747.382 621.819 766.894 608.25C780.889 598.517 792.007 594.173 799.411 592.545C801.413 592.105 803.369 590.987 804.796 589.467C806.223 587.947 807.081 586.074 807.001 584.119C805.541 548.406 799.562 523.882 792.587 506.55C785.615 489.225 777.635 479.054 772.106 472.032C768.172 467.037 761.617 463.846 754.547 461.9C747.494 459.958 740.037 459.283 734.432 459.239ZM702.84 487.066C703.254 487.066 703.59 487.402 703.59 487.816V527.625C703.59 528.039 703.254 528.375 702.84 528.375C702.426 528.375 702.09 528.039 702.09 527.625V487.816C702.09 487.402 702.426 487.066 702.84 487.066ZM746.07 491.981C746.462 492.114 746.672 492.54 746.539 492.932C743.594 501.604 739.022 514.493 734.877 524.976C732.806 530.213 730.834 534.869 729.22 538.1C728.417 539.708 727.684 541.001 727.057 541.839C726.75 542.249 726.424 542.611 726.083 542.832C725.909 542.945 725.685 543.052 725.423 543.074C725.138 543.098 724.862 543.015 724.636 542.835C724.324 542.588 723.465 542.103 722.098 541.415C720.761 540.744 719.01 539.913 716.981 538.982C712.923 537.12 707.772 534.863 702.642 532.681C697.513 530.5 692.41 528.395 688.448 526.837C686.466 526.058 684.776 525.418 683.512 524.973C682.88 524.75 682.362 524.58 681.972 524.465C681.777 524.408 681.622 524.367 681.504 524.342C681.374 524.313 681.332 524.312 681.346 524.312C681.126 524.312 680.836 524.263 680.542 524.203C680.227 524.139 679.839 524.048 679.393 523.937C678.862 523.806 678.232 523.643 677.524 523.46C677.044 523.335 676.529 523.202 675.986 523.063C673.28 522.372 669.805 521.527 666.149 520.895C662.488 520.263 658.676 519.852 655.293 520.016C651.89 520.181 649.041 520.925 647.191 522.487C647.015 522.636 646.836 522.79 646.653 522.948C645.753 523.725 644.768 524.574 643.635 525.167C635.757 529.287 623.417 540.124 624.52 557.637C624.547 558.05 624.232 558.406 623.819 558.432C623.406 558.458 623.049 558.144 623.023 557.731C621.867 539.377 634.802 528.093 642.94 523.837C643.905 523.333 644.733 522.62 645.632 521.847C645.825 521.68 646.022 521.511 646.223 521.341C648.45 519.461 651.701 518.689 655.22 518.518C658.76 518.346 662.694 518.777 666.404 519.417C670.119 520.059 673.64 520.916 676.357 521.61C676.913 521.752 677.432 521.886 677.912 522.011C678.612 522.192 679.229 522.351 679.754 522.481C680.194 522.591 680.558 522.676 680.841 522.733C681.143 522.795 681.296 522.812 681.346 522.812C681.503 522.812 681.676 522.844 681.826 522.877C681.989 522.913 682.181 522.963 682.394 523.026C682.821 523.151 683.367 523.332 684.01 523.558C685.299 524.011 687.009 524.659 688.997 525.441C692.975 527.006 698.092 529.116 703.229 531.301C708.367 533.486 713.532 535.749 717.606 537.618C719.643 538.553 721.412 539.392 722.771 540.075C723.923 540.654 724.836 541.148 725.356 541.505C725.474 541.405 725.641 541.227 725.856 540.94C726.399 540.214 727.083 539.022 727.878 537.429C729.462 534.259 731.414 529.653 733.482 524.424C737.615 513.973 742.178 501.109 745.118 492.45C745.251 492.058 745.677 491.848 746.07 491.981ZM716.657 491.941C717.071 491.941 717.407 492.277 717.407 492.691V534.936C717.407 535.35 717.071 535.686 716.657 535.686C716.243 535.686 715.907 535.35 715.907 534.936V492.691C715.907 492.277 716.243 491.941 716.657 491.941ZM768.189 506.865C768.53 507.101 768.614 507.568 768.378 507.909C764.797 513.078 760.693 522.183 756.355 531.809C755.64 533.395 754.919 534.995 754.193 536.595C751.636 542.223 749.024 547.818 746.423 552.671C743.829 557.511 741.217 561.668 738.651 564.384C734.648 568.62 730.2 569.667 726.131 569.17C722.106 568.678 718.494 566.685 716.041 564.915C715.671 564.649 715.295 564.417 714.901 564.23L670.723 543.302C670.134 543.023 669.588 542.666 669.095 542.283C665.408 539.422 662.829 539.067 661.094 539.531C659.328 540.002 658.186 541.385 657.525 542.523C656.931 543.546 655.53 544.15 654.356 543.48C654.084 543.325 653.799 543.416 653.675 543.612C652.546 545.394 651.179 548.28 650.304 551.15C649.867 552.584 649.56 553.989 649.46 555.234C649.36 556.493 649.478 557.513 649.816 558.229C649.993 558.603 649.833 559.05 649.458 559.227C649.084 559.404 648.637 559.244 648.46 558.869C647.96 557.812 647.856 556.489 647.965 555.115C648.076 553.727 648.412 552.211 648.869 550.713C649.781 547.721 651.203 544.711 652.408 542.809C653.004 541.869 654.202 541.666 655.099 542.177C655.415 542.358 655.96 542.232 656.228 541.77C656.972 540.489 658.38 538.703 660.707 538.081C663.065 537.452 666.123 538.079 670.014 541.098C670.444 541.431 670.898 541.725 671.365 541.947L715.543 562.875C716.037 563.108 716.492 563.391 716.919 563.699C719.267 565.393 722.639 567.232 726.313 567.681C729.943 568.124 733.907 567.22 737.561 563.353C739.984 560.789 742.519 556.78 745.101 551.962C747.677 547.156 750.272 541.599 752.827 535.974C753.547 534.389 754.264 532.797 754.978 531.213C759.305 521.61 763.478 512.347 767.146 507.054C767.381 506.714 767.849 506.629 768.189 506.865ZM636.174 537.446C636.583 537.513 636.86 537.899 636.793 538.308C636.695 538.903 636.587 539.55 636.472 540.237C635.984 543.159 635.377 546.787 634.955 550.068C634.694 552.094 634.506 553.967 634.457 555.445C634.433 556.185 634.445 556.808 634.495 557.292C634.549 557.805 634.637 558.061 634.693 558.149C634.914 558.5 634.809 558.963 634.458 559.184C634.108 559.404 633.645 559.299 633.424 558.949C633.173 558.55 633.061 557.998 633.003 557.447C632.943 556.868 632.933 556.17 632.958 555.396C633.009 553.847 633.204 551.918 633.467 549.876C633.894 546.565 634.506 542.899 634.994 539.977C635.108 539.294 635.216 538.652 635.312 538.064C635.38 537.656 635.765 537.379 636.174 537.446ZM642.272 541.502C642.684 541.545 642.983 541.914 642.94 542.326C642.685 544.754 642.38 548.321 642.291 551.516C642.246 553.115 642.257 554.605 642.351 555.806C642.399 556.407 642.466 556.921 642.554 557.333C642.644 557.758 642.745 558.017 642.828 558.149C643.049 558.5 642.944 558.963 642.593 559.184C642.243 559.404 641.78 559.299 641.559 558.949C641.335 558.594 641.19 558.13 641.087 557.645C640.98 557.146 640.906 556.562 640.856 555.924C640.755 554.647 640.746 553.097 640.791 551.474C640.882 548.225 641.191 544.617 641.448 542.17C641.491 541.758 641.86 541.459 642.272 541.502Z" fill="#033348"/>
<path fill-rule="evenodd" clip-rule="evenodd" d="M669.011 406.334C670.792 409.594 672.611 411.331 674.318 412.093C676.017 412.851 677.716 412.692 679.374 411.927C681.052 411.152 682.662 409.762 684.087 408.118C685.508 406.479 686.712 404.625 687.585 402.975L688.998 403.326C688.998 404.785 689.255 405.646 689.586 406.127C689.885 406.561 690.292 406.755 690.863 406.765C691.476 406.775 692.254 406.565 693.162 406.155C694.058 405.75 695.021 405.179 695.987 404.531C697.537 403.49 699.038 402.293 700.232 401.34C700.53 401.103 700.808 400.88 701.063 400.68C701.38 400.431 701.667 400.211 701.908 400.038C702.132 399.879 702.375 399.718 702.586 399.632C702.644 399.608 702.722 399.581 702.811 399.564C702.894 399.549 703.038 399.533 703.204 399.578C703.395 399.63 703.578 399.756 703.692 399.956C703.792 400.132 703.803 400.303 703.8 400.404C703.794 400.593 703.729 400.763 703.686 400.865C703.635 400.986 703.566 401.119 703.487 401.258C703.315 401.562 703.226 402.094 703.316 402.909C703.404 403.702 703.649 404.662 704.022 405.731C704.769 407.866 705.991 410.334 707.319 412.593C708.649 414.855 710.06 416.865 711.165 418.095C711.595 418.574 711.94 418.89 712.186 419.066C712.467 418.322 713.05 417.758 713.715 417.336C714.479 416.851 715.43 416.502 716.406 416.248C718.048 415.821 719.874 415.636 721.276 415.588V400.888C721.276 395.678 718.646 392.449 715.312 390.486C712.629 388.906 709.499 388.158 706.961 387.917C706.411 387.901 705.757 387.867 705.091 387.826L705.11 387.199C702.581 386.813 698.234 386.232 691.228 385.385C680.694 384.111 674.923 387.429 671.884 391.906C668.828 396.408 668.416 402.253 669.011 406.334ZM708.971 386.676C708.927 386.608 708.881 386.561 708.85 386.532C708.735 386.423 708.606 386.368 708.557 386.347C708.429 386.293 708.266 386.248 708.096 386.206C706.73 385.875 702.132 385.193 691.408 383.896C680.448 382.57 674.065 386.022 670.643 391.064C667.27 396.033 666.891 402.379 667.547 406.688L667.567 406.817L667.629 406.932C669.513 410.421 671.561 412.505 673.707 413.462C675.881 414.432 678.04 414.195 680.003 413.288C681.946 412.391 683.72 410.832 685.221 409.1C686.173 408.001 687.03 406.817 687.763 405.656C687.902 406.168 688.097 406.609 688.352 406.979C688.967 407.872 689.862 408.249 690.838 408.265C691.773 408.28 692.788 407.969 693.779 407.522C694.781 407.07 695.821 406.449 696.823 405.776C698.431 404.697 699.995 403.448 701.19 402.495C701.402 402.326 701.602 402.166 701.788 402.019C701.77 402.361 701.786 402.716 701.825 403.073C701.93 404.021 702.212 405.099 702.606 406.226C703.395 408.483 704.668 411.042 706.026 413.353C707.383 415.661 708.851 417.764 710.049 419.098C710.63 419.744 711.217 420.291 711.744 420.546C712 420.67 712.397 420.8 712.81 420.648C713.268 420.478 713.466 420.074 713.544 419.746C713.635 419.36 713.935 418.973 714.518 418.603C715.099 418.234 715.885 417.934 716.783 417.7C718.578 417.233 720.66 417.074 722.026 417.074H722.776V400.888C722.776 395.05 719.776 391.373 716.073 389.193C713.803 387.857 711.265 387.076 708.971 386.676Z" fill="#033348"/>
<path d="M523.223 226.534L529.331 242.046C529.665 242.895 530.53 243.41 531.437 243.307C536.148 242.77 543.824 242.096 546.02 242.677C547.363 243.032 547.849 244.052 547.931 245.124C548.027 246.394 548.751 247.739 549.939 248.197C551.583 248.831 553.298 249.926 553.696 251.614C553.93 252.604 554.513 256.63 555.341 257.222C557.066 258.454 558.11 259.941 556.767 261.363C556.168 261.997 555.678 262.483 555.28 262.851C554.469 263.602 554.592 263.8 555.696 263.8H559.216C560.623 263.8 561.59 262.386 561.08 261.075L546.553 223.737C546.236 222.922 545.426 222.407 544.553 222.467L524.948 223.806C523.599 223.898 522.728 225.275 523.223 226.534Z" fill="#033348"/>
<path fill-rule="evenodd" clip-rule="evenodd" d="M545.854 224.009C545.656 223.5 545.149 223.178 544.604 223.215L524.999 224.554C524.156 224.611 523.612 225.472 523.921 226.259L530.029 241.771C530.238 242.302 530.779 242.627 531.352 242.561C533.716 242.292 536.827 241.988 539.628 241.824C541.028 241.742 542.359 241.695 543.484 241.705C544.588 241.715 545.563 241.78 546.212 241.952C547.046 242.173 547.658 242.617 548.065 243.205C548.462 243.779 548.631 244.443 548.679 245.067C548.761 246.156 549.379 247.177 550.209 247.498C551.885 248.144 553.935 249.361 554.426 251.441C554.478 251.659 554.544 252.007 554.619 252.403C554.636 252.494 554.654 252.588 554.672 252.684C554.772 253.208 554.891 253.811 555.027 254.398C555.163 254.989 555.313 255.544 555.472 255.976C555.551 256.193 555.627 256.361 555.695 256.481C555.753 256.584 555.787 256.617 555.786 256.618C555.786 256.618 555.784 256.616 555.778 256.612C556.673 257.252 557.5 258.028 557.891 258.919C558.094 259.381 558.187 259.89 558.092 260.421C557.997 260.95 557.727 261.438 557.312 261.878C556.876 262.339 556.494 262.726 556.161 263.05H559.216C560.096 263.05 560.7 262.166 560.381 261.346L545.854 224.009ZM555.46 263.751C555.46 263.751 555.46 263.75 555.461 263.748C555.46 263.75 555.46 263.751 555.46 263.751ZM544.502 221.719C545.702 221.637 546.816 222.344 547.252 223.465L561.779 260.803C562.481 262.605 561.151 264.55 559.216 264.55H555.696C555.411 264.55 555.136 264.538 554.907 264.493C554.792 264.47 554.651 264.433 554.515 264.36C554.375 264.286 554.198 264.154 554.091 263.926C553.87 263.454 554.13 263.036 554.23 262.891C554.364 262.695 554.56 262.496 554.771 262.301C555.153 261.947 555.631 261.473 556.222 260.847C556.478 260.576 556.582 260.345 556.615 260.157C556.649 259.97 556.624 259.764 556.518 259.522C556.292 259.007 555.735 258.425 554.905 257.832C554.671 257.664 554.506 257.426 554.39 257.221C554.267 257.004 554.159 256.753 554.064 256.493C553.873 255.974 553.707 255.349 553.565 254.736C553.423 254.119 553.3 253.493 553.199 252.965C553.179 252.859 553.16 252.759 553.141 252.663C553.067 252.27 553.01 251.968 552.966 251.786C552.661 250.491 551.281 249.519 549.669 248.897C548.123 248.301 547.293 246.632 547.183 245.181C547.149 244.733 547.034 244.35 546.832 244.058C546.639 243.78 546.337 243.537 545.828 243.402C545.378 243.283 544.57 243.215 543.471 243.205C542.392 243.195 541.098 243.241 539.716 243.322C536.952 243.483 533.87 243.784 531.522 244.052C530.281 244.193 529.093 243.489 528.633 242.321L522.526 226.808C521.844 225.078 523.042 223.184 524.897 223.057L544.502 221.719Z" fill="#033348"/>
<path fill-rule="evenodd" clip-rule="evenodd" d="M523.167 275.256C523.569 275.355 523.814 275.762 523.715 276.164C519.422 293.527 517.202 306.626 516.493 316.395C515.781 326.182 516.592 332.547 518.283 336.498C519.124 338.462 520.173 339.807 521.341 340.689C522.506 341.57 523.829 342.022 525.271 342.138C528.187 342.375 531.57 341.239 534.923 339.499C535.291 339.308 535.744 339.451 535.934 339.819C536.125 340.186 535.982 340.639 535.614 340.83C532.186 342.61 528.494 343.905 525.15 343.633C523.46 343.497 521.857 342.959 520.437 341.886C519.02 340.815 517.826 339.24 516.904 337.088C515.071 332.806 514.279 326.153 514.996 316.286C515.715 306.401 517.954 293.212 522.259 275.804C522.358 275.402 522.765 275.157 523.167 275.256ZM556.797 275.235C557.21 275.253 557.531 275.604 557.512 276.018L555.977 310.139C555.958 310.553 555.608 310.873 555.194 310.854C554.78 310.836 554.46 310.485 554.478 310.071L556.014 275.95C556.032 275.536 556.383 275.216 556.797 275.235ZM540.57 280.112C540.982 280.072 541.349 280.374 541.389 280.786C542.414 291.366 544.612 313.43 545.221 317.3C545.286 317.709 545.006 318.093 544.597 318.158C544.188 318.222 543.804 317.943 543.74 317.534C543.121 313.605 540.918 291.474 539.896 280.931C539.856 280.519 540.158 280.152 540.57 280.112Z" fill="#033348"/>
<path fill-rule="evenodd" clip-rule="evenodd" d="M611.959 160.688C612.37 160.64 612.743 160.934 612.792 161.345C613.049 163.527 613.322 166.771 613.296 169.402C613.288 170.217 613.251 170.997 613.17 171.679C614.324 170.757 615.057 169.281 615.485 167.623C615.99 165.665 616.028 163.602 615.906 162.316C615.867 161.904 616.17 161.538 616.582 161.499C616.995 161.46 617.361 161.763 617.399 162.175C617.534 163.597 617.494 165.84 616.938 167.998C616.385 170.139 615.281 172.35 613.165 173.47C613.016 173.549 612.853 173.572 612.699 173.548C612.621 173.698 612.53 173.838 612.421 173.96C612.27 174.129 612.066 174.283 611.803 174.358C611.534 174.435 611.268 174.411 611.03 174.327C610.639 174.189 610.434 173.76 610.572 173.37C610.69 173.035 611.021 172.837 611.359 172.873C611.403 172.789 611.463 172.644 611.522 172.412C611.697 171.731 611.783 170.67 611.796 169.387C611.821 166.846 611.556 163.672 611.302 161.521C611.253 161.11 611.548 160.737 611.959 160.688Z" fill="#033348"/>
<path fill-rule="evenodd" clip-rule="evenodd" d="M611.311 144.214C611.399 143.809 611.799 143.553 612.204 143.642C616.054 144.485 621.155 147.059 623.855 152.104C626.579 157.194 626.748 164.582 621.145 174.794C620.946 175.157 620.49 175.29 620.127 175.091C619.763 174.892 619.631 174.436 619.83 174.073C625.281 164.137 624.938 157.308 622.532 152.812C620.102 148.27 615.453 145.889 611.883 145.107C611.478 145.018 611.222 144.618 611.311 144.214ZM611.328 145.772C611.454 145.377 611.875 145.159 612.27 145.284C613.653 145.723 615.652 146.761 617.238 148.475C618.841 150.209 620.032 152.649 619.698 155.826C619.655 156.238 619.286 156.537 618.874 156.494C618.462 156.451 618.163 156.082 618.206 155.67C618.487 152.997 617.502 150.97 616.137 149.494C614.755 148 612.993 147.087 611.816 146.714C611.421 146.589 611.203 146.167 611.328 145.772ZM608.282 148.144C608.443 147.762 608.884 147.584 609.265 147.746C610.852 148.417 613.446 150.959 612.786 155.848C612.731 156.259 612.353 156.547 611.943 156.491C611.532 156.436 611.245 156.058 611.3 155.648C611.868 151.437 609.652 149.538 608.68 149.127C608.299 148.965 608.12 148.525 608.282 148.144Z" fill="#033348"/>
<path fill-rule="evenodd" clip-rule="evenodd" d="M574.878 132.322C575.253 132.145 575.7 132.305 575.877 132.68C577.179 135.436 583.582 140.678 598.755 135.539L598.804 135.523L598.854 135.513C600.341 135.227 602.679 135.097 604.912 135.643C607.152 136.191 609.394 137.452 610.438 140.03C610.593 140.414 610.408 140.851 610.024 141.007C609.64 141.162 609.203 140.977 609.048 140.593C608.249 138.622 606.525 137.581 604.556 137.1C602.603 136.623 600.517 136.728 599.187 136.977C583.687 142.209 576.287 137.059 574.52 133.32C574.343 132.946 574.504 132.499 574.878 132.322ZM573.139 137.165C573.531 137.3 573.739 137.726 573.605 138.118C573.138 139.478 572.89 141.695 573.677 143.853C574.449 145.969 576.247 148.114 580.037 149.347C580.431 149.476 580.646 149.899 580.518 150.293C580.389 150.687 579.966 150.902 579.572 150.774C575.378 149.408 573.21 146.948 572.268 144.367C571.341 141.826 571.63 139.249 572.186 137.631C572.321 137.239 572.748 137.031 573.139 137.165ZM569.87 142.813C570.283 142.838 570.598 143.194 570.573 143.607C570.332 147.56 571.72 152.649 576.515 155.425C581.336 158.217 589.853 158.825 604.225 153.177C605.348 152.735 606.641 153.523 606.674 154.778C606.753 157.816 607.079 161.861 607.835 165.411C608.213 167.187 608.694 168.812 609.291 170.118C609.895 171.438 610.579 172.342 611.313 172.792C611.315 172.792 611.32 172.793 611.329 172.794C611.349 172.795 611.384 172.793 611.428 172.779C612.685 172.376 614.495 171.972 616.173 171.998C617.8 172.023 619.622 172.466 620.399 174.113C621.195 175.797 621.794 178.655 621.198 181.306C620.896 182.646 620.284 183.956 619.213 185.024C618.139 186.095 616.647 186.879 614.658 187.23C614.463 187.264 614.369 187.42 614.374 187.535L615.063 202.117H618.721C619.688 202.117 620.471 202.901 620.471 203.867V215.698C620.471 215.832 620.579 215.964 620.748 215.976C634.903 217.013 660.389 233.854 660.389 293.045C660.389 311.957 657.183 323.386 652 329.056C649.38 331.922 646.263 333.306 642.865 333.423C639.492 333.539 635.905 332.405 632.305 330.357C625.109 326.264 617.666 318.415 611.406 308.879C605.139 299.333 600.013 288.03 597.496 276.963C597.404 276.559 597.657 276.157 598.061 276.065C598.465 275.973 598.867 276.226 598.958 276.63C601.431 287.498 606.477 298.638 612.66 308.056C618.85 317.486 626.136 325.123 633.046 329.053C636.498 331.016 639.808 332.027 642.814 331.924C645.794 331.822 648.536 330.623 650.893 328.044C655.666 322.822 658.889 311.909 658.889 293.045C658.889 234.224 633.654 218.425 620.638 217.472C619.722 217.405 618.971 216.654 618.971 215.698V203.867C618.971 203.729 618.859 203.617 618.721 203.617H614.595C613.02 204.745 609.934 206.108 605.404 206.954C600.643 207.844 594.245 208.17 586.232 207.033C586.064 207.009 585.927 207.14 585.927 207.286V215.739C585.927 216.663 585.213 217.42 584.302 217.493C579.817 217.851 573.107 218.924 566.723 221.07C560.31 223.225 554.369 226.415 551.249 230.916C551.013 231.257 550.546 231.342 550.206 231.106C549.865 230.87 549.78 230.402 550.016 230.062C553.42 225.151 559.75 221.831 566.245 219.648C572.769 217.456 579.602 216.363 584.183 215.997C584.325 215.986 584.427 215.87 584.427 215.739V207.286C584.427 206.204 585.395 205.399 586.443 205.548C594.307 206.664 600.54 206.337 605.128 205.48C609.388 204.684 612.195 203.439 613.579 202.497L612.876 187.606C612.831 186.656 613.542 185.903 614.398 185.753C616.127 185.447 617.326 184.787 618.154 183.962C618.985 183.133 619.482 182.097 619.734 180.977C620.245 178.707 619.723 176.191 619.043 174.753C618.657 173.935 617.659 173.521 616.15 173.497C614.693 173.475 613.054 173.833 611.886 174.207C611.492 174.333 610.985 174.35 610.531 174.071C609.422 173.392 608.58 172.168 607.927 170.742C607.267 169.299 606.758 167.557 606.368 165.723C605.586 162.053 605.255 157.91 605.174 154.817C605.172 154.733 605.13 154.656 605.047 154.603C604.963 154.549 604.863 154.537 604.773 154.573C590.255 160.278 581.183 159.861 575.763 156.723C570.317 153.57 568.813 147.825 569.076 143.516C569.101 143.102 569.456 142.788 569.87 142.813ZM585.872 240.055C577.104 238.026 568.029 239.224 562.367 240.955C561.971 241.076 561.551 240.853 561.43 240.457C561.309 240.061 561.532 239.642 561.928 239.521C567.781 237.732 577.129 236.492 586.21 238.593C595.324 240.702 604.187 246.187 608.902 257.83C609.057 258.214 608.872 258.651 608.488 258.806C608.104 258.962 607.667 258.777 607.511 258.393C603.014 247.288 594.605 242.076 585.872 240.055ZM582.729 243.881C582.96 244.225 582.869 244.691 582.525 244.922C581.17 245.835 579.203 247.486 577.736 249.442C576.25 251.422 575.399 253.544 575.922 255.478C576.03 255.878 575.793 256.29 575.393 256.398C574.993 256.506 574.581 256.269 574.474 255.869C573.767 253.254 574.964 250.638 576.536 248.542C578.127 246.422 580.228 244.661 581.687 243.678C582.031 243.447 582.497 243.538 582.729 243.881ZM585.84 250.449C586.034 250.815 585.894 251.269 585.528 251.462C584.316 252.104 582.561 253.344 581.27 254.946C579.979 256.549 579.233 258.403 579.76 260.353C579.868 260.753 579.631 261.164 579.231 261.272C578.831 261.38 578.42 261.144 578.312 260.744C577.61 258.144 578.656 255.801 580.102 254.005C581.549 252.209 583.479 250.849 584.826 250.137C585.192 249.943 585.646 250.083 585.84 250.449ZM588.973 255.482C589.079 255.882 588.84 256.293 588.439 256.399C587.565 256.63 586.373 257.3 585.675 258.523C584.997 259.712 584.709 261.558 585.869 264.32C586.029 264.702 585.849 265.142 585.467 265.302C585.086 265.462 584.646 265.283 584.486 264.901C583.189 261.813 583.412 259.462 584.372 257.78C585.312 256.133 586.883 255.259 588.056 254.949C588.456 254.843 588.867 255.082 588.973 255.482ZM590.137 262.36C590.482 262.132 590.948 262.226 591.176 262.572C592.939 265.237 595.859 268.403 598.906 269.511C600.395 270.053 601.873 270.09 603.284 269.383C604.715 268.666 606.188 267.128 607.528 264.29C607.705 263.915 608.152 263.755 608.527 263.932C608.901 264.109 609.062 264.556 608.885 264.931C607.462 267.942 605.794 269.803 603.956 270.724C602.098 271.655 600.179 271.57 598.393 270.921C594.889 269.646 591.744 266.15 589.925 263.399C589.697 263.054 589.791 262.589 590.137 262.36ZM611.591 262.388C611.921 262.138 612.392 262.202 612.642 262.532L644.116 303.965C644.366 304.295 644.302 304.765 643.972 305.016C643.642 305.266 643.172 305.202 642.921 304.872L611.448 263.439C611.197 263.109 611.261 262.639 611.591 262.388ZM632.771 262.236C633.186 262.236 633.521 262.571 633.521 262.986V283.296C633.521 283.71 633.186 284.046 632.771 284.046C632.357 284.046 632.021 283.71 632.021 283.296V262.986C632.021 262.571 632.357 262.236 632.771 262.236Z" fill="#033348"/>
<path fill-rule="evenodd" clip-rule="evenodd" d="M577.596 156.629C578.007 156.682 578.297 157.058 578.244 157.469C577.973 159.574 577.73 161.817 577.533 164.138C577.885 163.753 578.341 163.387 578.9 163.116C580.004 162.582 581.446 162.454 583.166 163.182C583.547 163.343 583.725 163.783 583.564 164.165C583.402 164.546 582.962 164.724 582.581 164.563C581.23 163.991 580.241 164.134 579.554 164.466C578.834 164.814 578.372 165.407 578.178 165.817C578.03 166.131 577.694 166.294 577.368 166.236C577.111 169.821 576.967 173.546 576.993 177.206C577.041 184.007 577.673 190.529 579.214 195.496C580.77 200.509 583.158 203.664 586.528 204.267C589.956 204.881 594.818 202.95 601.552 196.634C601.854 196.351 602.329 196.366 602.612 196.668C602.895 196.97 602.88 197.445 602.578 197.728C595.801 204.085 590.454 206.494 586.263 205.744C582.014 204.983 579.374 201.071 577.782 195.941C576.176 190.767 575.541 184.074 575.493 177.216C575.445 170.347 575.985 163.262 576.756 157.277C576.809 156.866 577.185 156.576 577.596 156.629ZM593.618 166.81C592.258 166.194 590.791 166.12 589.88 166.241C589.47 166.295 589.093 166.006 589.039 165.595C588.984 165.185 589.273 164.808 589.684 164.754C590.82 164.603 592.578 164.692 594.237 165.444C595.926 166.208 597.503 167.66 598.183 170.176C598.291 170.576 598.054 170.988 597.654 171.096C597.254 171.204 596.842 170.967 596.735 170.567C596.186 168.534 594.949 167.413 593.618 166.81ZM585.363 175.332C585.764 175.436 586.006 175.844 585.902 176.246C585.14 179.204 584.439 183.322 584.732 186.178C584.883 187.644 585.272 188.532 585.786 188.899C586.214 189.206 587.032 189.336 588.639 188.407C588.998 188.2 589.457 188.323 589.664 188.682C589.871 189.041 589.748 189.499 589.389 189.707C587.62 190.728 586.077 190.953 584.912 190.119C583.832 189.345 583.397 187.857 583.24 186.331C582.919 183.201 583.677 178.871 584.45 175.871C584.553 175.47 584.962 175.229 585.363 175.332ZM586.772 196.118C586.768 196.129 586.765 196.14 586.762 196.151C586.641 196.547 586.865 196.966 587.261 197.086C588.251 197.387 589.261 196.992 590.054 196.501C590.873 195.994 591.634 195.279 592.212 194.64C592.772 194.021 593.236 193.388 593.401 193.019C593.424 192.966 593.455 192.891 593.475 192.805L593.475 192.804C593.487 192.752 593.538 192.538 593.44 192.3C593.379 192.151 593.263 192.002 593.083 191.907C592.915 191.82 592.755 191.814 592.654 191.822C592.472 191.838 592.337 191.913 592.287 191.941C592.075 192.062 591.816 192.312 591.54 192.604C590.767 193.422 589.466 193.987 588.046 194.341C586.647 194.69 585.251 194.806 584.409 194.806C583.994 194.806 583.659 195.142 583.659 195.556C583.659 195.97 583.994 196.306 584.409 196.306C585.013 196.306 585.849 196.255 586.772 196.118Z" fill="#033348"/>
<path fill-rule="evenodd" clip-rule="evenodd" d="M571.351 367.372C571.765 367.372 572.101 367.708 572.101 368.122V403.156C572.101 404.675 570.87 405.906 569.351 405.906H554.463C554.049 405.906 553.713 405.571 553.713 405.156C553.713 404.742 554.049 404.406 554.463 404.406H569.351C570.042 404.406 570.601 403.847 570.601 403.156V368.122C570.601 367.708 570.937 367.372 571.351 367.372Z" fill="#033348"/>
<path fill-rule="evenodd" clip-rule="evenodd" d="M336.948 317.941C335.639 318.072 334.427 318.525 333.732 318.893C333.366 319.087 332.912 318.947 332.718 318.581C332.524 318.215 332.664 317.761 333.03 317.567C333.87 317.123 335.268 316.601 336.799 316.448C338.329 316.295 340.087 316.503 341.524 317.643C341.848 317.9 341.902 318.372 341.645 318.697C341.387 319.021 340.916 319.075 340.591 318.818C339.571 318.008 338.259 317.81 336.948 317.941ZM348.551 320.258C347.858 320.302 347.102 320.454 346.623 320.58C346.222 320.686 345.812 320.447 345.706 320.047C345.6 319.647 345.839 319.236 346.239 319.13C346.784 318.986 347.64 318.813 348.457 318.761C348.864 318.736 349.291 318.738 349.678 318.803C350.044 318.864 350.493 319 350.814 319.34C351.099 319.641 351.085 320.116 350.784 320.4C350.483 320.685 350.009 320.671 349.724 320.37C349.725 320.372 349.726 320.373 349.726 320.373C349.725 320.374 349.657 320.321 349.431 320.283C349.2 320.244 348.898 320.237 348.551 320.258Z" fill="#033348"/>
<path fill-rule="evenodd" clip-rule="evenodd" d="M254.767 471.092C255.144 470.92 255.589 471.085 255.762 471.461L268.812 499.896C268.985 500.272 268.819 500.717 268.443 500.89C268.067 501.063 267.621 500.898 267.449 500.521L254.398 472.087C254.226 471.71 254.391 471.265 254.767 471.092ZM287.878 472.679C288.276 472.563 288.692 472.79 288.809 473.188L295.718 496.748C295.834 497.145 295.606 497.562 295.209 497.679C294.812 497.795 294.395 497.567 294.278 497.17L287.369 473.61C287.253 473.212 287.481 472.796 287.878 472.679Z" fill="#033348"/>
<path fill-rule="evenodd" clip-rule="evenodd" d="M313.402 329.667C313.816 329.655 314.161 329.981 314.173 330.395C314.302 334.751 314.225 341.489 313.574 347.558C313.249 350.59 312.778 353.481 312.108 355.833C311.773 357.009 311.383 358.069 310.927 358.952C310.473 359.828 309.931 360.575 309.27 361.075C306.322 363.303 302.403 363.259 299.336 362.526C297.787 362.156 296.399 361.598 295.381 361.012C294.875 360.72 294.436 360.408 294.112 360.089C293.824 359.804 293.482 359.375 293.482 358.851C293.482 358.643 293.503 358.44 293.519 358.285C293.522 358.254 293.525 358.225 293.528 358.199C293.545 358.021 293.549 357.906 293.536 357.803C293.517 357.651 293.449 357.4 292.969 356.977C292.468 356.535 291.579 355.96 290.013 355.182C288.457 354.408 286.271 353.452 283.21 352.237C280.679 351.233 278.992 350.033 277.995 348.692C276.982 347.328 276.721 345.871 276.95 344.473C277.394 341.76 279.658 339.334 281.499 337.943C281.829 337.693 282.299 337.759 282.549 338.089C282.799 338.419 282.734 338.89 282.403 339.14C280.661 340.456 278.78 342.58 278.431 344.715C278.263 345.74 278.444 346.781 279.199 347.797C279.971 348.835 281.381 349.897 283.763 350.843C286.842 352.065 289.071 353.038 290.681 353.839C292.281 354.634 293.311 355.278 293.961 355.852C294.633 356.444 294.948 357.006 295.025 357.615C295.06 357.893 295.04 358.146 295.021 358.343C295.017 358.386 295.013 358.426 295.009 358.464C294.996 358.594 294.986 358.695 294.983 358.801C294.997 358.825 295.041 358.898 295.165 359.02C295.366 359.219 295.689 359.458 296.13 359.712C297.008 360.218 298.258 360.726 299.684 361.067C302.566 361.756 305.94 361.712 308.366 359.878C308.779 359.565 309.195 359.034 309.594 358.262C309.99 357.497 310.347 356.539 310.666 355.422C311.302 353.187 311.762 350.391 312.083 347.398C312.724 341.416 312.801 334.749 312.674 330.439C312.662 330.025 312.988 329.68 313.402 329.667Z" fill="#033348"/>
<path fill-rule="evenodd" clip-rule="evenodd" d="M332.492 286.909C329.434 287.303 327.13 288.087 326.143 288.783C322.867 291.095 320.006 290.454 318.387 289.417C317.923 289.12 317.504 288.979 317.153 289.026C309.407 290.049 304.851 294.166 302.111 299.2C299.349 304.273 298.429 310.289 298.055 315.039C297.821 318.019 297.279 319.959 296.549 321.154C295.792 322.394 294.785 322.887 293.764 322.76C293.581 322.737 293.425 322.713 293.281 322.691C293.051 322.655 292.851 322.625 292.624 322.611C292.296 322.592 292.068 322.628 291.889 322.72C286.448 325.551 283.828 328.764 282.717 331.565C281.601 334.376 281.977 336.835 282.631 338.219C282.808 338.594 282.648 339.041 282.274 339.218C281.899 339.395 281.452 339.235 281.275 338.86C280.444 337.1 280.053 334.209 281.323 331.011C282.597 327.801 285.515 324.345 291.197 321.39C291.716 321.12 292.254 321.087 292.713 321.114C293 321.131 293.331 321.181 293.609 321.223C293.736 321.242 293.852 321.259 293.949 321.271C294.263 321.31 294.749 321.223 295.269 320.372C295.816 319.477 296.332 317.816 296.56 314.921C296.938 310.113 297.878 303.839 300.794 298.483C303.732 293.086 308.674 288.633 316.956 287.539C317.829 287.423 318.62 287.785 319.196 288.154C320.348 288.892 322.544 289.487 325.278 287.558C326.569 286.647 329.171 285.824 332.301 285.421C335.466 285.014 339.289 285.02 343.091 285.859C346.894 286.699 350.7 288.379 353.788 291.34C356.883 294.309 359.214 298.523 360.119 304.352C360.224 305.026 360.06 305.711 359.706 306.265C358.439 308.25 356.892 311.167 356.02 314.018C355.585 315.444 355.328 316.821 355.344 318.038C355.359 319.254 355.644 320.261 356.238 321.015C357.648 322.806 359.009 323.634 360.223 324.373C360.58 324.59 360.924 324.799 361.253 325.023C361.975 325.514 362.637 326.096 363.031 327.009C363.418 327.908 363.502 329.028 363.301 330.516C362.98 332.892 362.011 335.024 361.263 336.67C361.075 337.083 360.901 337.466 360.755 337.815C360.568 338.26 360.428 338.638 360.346 338.962C360.263 339.291 360.251 339.513 360.275 339.662C360.296 339.787 360.342 339.869 360.435 339.947C360.548 340.041 360.766 340.156 361.178 340.243C362.359 340.493 363.503 341.335 364.384 342.404C365.274 343.485 365.964 344.879 366.179 346.353C366.395 347.84 366.126 349.422 365.073 350.8C364.027 352.17 362.27 353.256 359.665 353.892C357.265 354.478 355.819 355.338 354.934 356.23C354.055 357.116 353.678 358.085 353.507 358.989C353.385 359.638 353.371 360.18 353.358 360.692C353.352 360.948 353.346 361.197 353.326 361.448C353.313 361.618 353.29 361.802 353.244 361.976C353.2 362.146 353.119 362.363 352.951 362.55C352.527 363.022 351.946 362.943 351.561 362.807C350.826 362.548 350.376 362.711 349.441 363.051C349.302 363.101 349.152 363.156 348.99 363.213C347.745 363.652 346.085 364.082 343.254 363.654C340.925 363.301 338.906 363.759 337.148 364.156C337.003 364.189 336.859 364.222 336.717 364.253C335.822 364.453 334.922 364.635 334.133 364.574C333.277 364.508 332.515 364.154 331.985 363.312C331.764 362.961 331.869 362.498 332.22 362.277C332.57 362.057 333.033 362.162 333.254 362.512C333.491 362.889 333.785 363.043 334.248 363.078C334.779 363.119 335.462 362.996 336.391 362.789C336.535 362.757 336.683 362.723 336.836 362.689C338.578 362.293 340.857 361.774 343.479 362.17C346.022 362.555 347.432 362.172 348.491 361.799C348.623 361.752 348.755 361.702 348.888 361.653C349.755 361.328 350.668 360.987 351.832 361.319C351.841 361.192 351.846 361.022 351.851 360.82C351.867 360.266 351.888 359.479 352.033 358.711C352.246 357.584 352.733 356.319 353.869 355.174C354.999 354.035 356.72 353.067 359.309 352.435C361.694 351.852 363.104 350.907 363.881 349.89C364.651 348.882 364.862 347.722 364.694 346.569C364.525 345.403 363.968 344.258 363.226 343.358C362.476 342.447 361.605 341.867 360.867 341.711C360.32 341.595 359.842 341.406 359.475 341.099C359.089 340.777 358.871 340.365 358.795 339.905C358.724 339.47 358.784 339.02 358.892 338.593C359.002 338.162 359.175 337.703 359.372 337.234C359.544 336.823 359.738 336.395 359.94 335.95C360.681 334.315 361.527 332.448 361.815 330.315C361.998 328.96 361.889 328.15 361.653 327.603C361.423 327.069 361.03 326.685 360.409 326.263C360.151 326.088 359.857 325.909 359.534 325.713C358.302 324.967 356.655 323.969 355.06 321.943C354.199 320.85 353.862 319.485 353.844 318.057C353.826 316.631 354.124 315.092 354.586 313.58C355.51 310.557 357.13 307.513 358.442 305.458C358.613 305.19 358.682 304.871 358.637 304.582C357.777 299.048 355.586 295.143 352.75 292.423C349.906 289.696 346.37 288.12 342.767 287.324C339.162 286.528 335.516 286.52 332.492 286.909Z" fill="#033348"/>
<path fill-rule="evenodd" clip-rule="evenodd" d="M338.301 302.314C338.252 302.336 338.081 302.439 337.956 302.965C337.605 304.455 336.447 306.17 334.936 307.915C333.403 309.685 331.422 311.579 329.294 313.432C325.037 317.14 320.137 320.733 316.921 322.912C316.578 323.144 316.111 323.054 315.879 322.711C315.647 322.368 315.736 321.902 316.079 321.67C319.26 319.516 324.109 315.959 328.309 312.301C330.41 310.472 332.334 308.629 333.802 306.933C335.293 305.211 336.234 303.731 336.497 302.621C336.672 301.879 337.032 301.233 337.699 300.94C338.346 300.657 339.044 300.814 339.642 301.085C340.838 301.628 342.254 302.912 343.683 304.464C346.582 307.612 349.873 312.246 352.11 315.684C352.41 316.144 352.562 316.674 352.547 317.226C352.388 323.098 351.774 329.915 350.519 336.39C349.266 342.852 347.364 349.029 344.599 353.58C341.833 358.133 338.107 361.197 333.209 361.069C328.381 360.943 322.685 357.712 315.949 350.422C315.668 350.117 315.687 349.643 315.991 349.362C316.295 349.081 316.77 349.1 317.051 349.404C323.71 356.611 329.045 359.46 333.248 359.57C337.38 359.677 340.686 357.131 343.317 352.802C345.948 348.471 347.808 342.495 349.046 336.104C350.283 329.726 350.89 322.992 351.047 317.186C351.054 316.942 350.989 316.711 350.853 316.503C348.631 313.088 345.394 308.536 342.579 305.48C341.152 303.93 339.915 302.856 339.022 302.451C338.576 302.249 338.371 302.284 338.301 302.314Z" fill="#033348"/>
<path fill-rule="evenodd" clip-rule="evenodd" d="M310.722 321.45C311.338 320.961 312.134 320.76 312.909 320.896L316.629 321.552C317.037 321.624 317.309 322.013 317.237 322.421C317.165 322.829 316.776 323.101 316.368 323.03L312.649 322.373C312.296 322.311 311.935 322.403 311.654 322.625L310.045 323.903C309.746 324.14 309.572 324.5 309.572 324.882V326.773C309.572 327.236 309.828 327.662 310.238 327.878L313.779 329.752C314.145 329.946 314.285 330.4 314.091 330.766C313.897 331.132 313.444 331.272 313.077 331.078L309.536 329.204C308.636 328.728 308.072 327.792 308.072 326.773V324.882C308.072 324.043 308.455 323.249 309.113 322.728L310.722 321.45Z" fill="#033348"/>
<path d="M329.548 365.348C326.805 367.525 316.098 364.732 311.109 362.181C310.209 361.721 309.075 361.851 308.401 362.603C297.875 374.341 294.262 380.242 293.499 382.695C293.251 383.492 293.979 383.817 294.748 383.492L302.699 380.126C303.874 379.629 305.209 380.342 305.529 381.576C306.635 385.852 308.843 391.62 311.892 392.157C315.242 392.748 315.885 381.296 315.782 373.919C315.766 372.786 316.671 371.847 317.804 371.847H328.121C328.975 371.847 329.735 371.305 329.981 370.487C330.7 368.087 331.85 363.521 329.548 365.348Z" fill="#033348"/>
<path fill-rule="evenodd" clip-rule="evenodd" d="M307.843 362.103C308.778 361.06 310.294 360.922 311.45 361.513C313.873 362.752 317.73 364.068 321.321 364.803C323.115 365.169 324.812 365.385 326.209 365.38C327.651 365.376 328.608 365.137 329.082 364.76C329.402 364.507 329.737 364.3 330.081 364.217C330.469 364.123 330.9 364.187 331.223 364.517C331.492 364.791 331.588 365.153 331.628 365.429C331.672 365.726 331.67 366.057 331.645 366.387C331.549 367.693 331.057 369.507 330.699 370.702C330.354 371.851 329.291 372.597 328.121 372.597H317.804C317.1 372.597 316.522 373.184 316.532 373.909C316.584 377.613 316.449 382.368 315.873 386.139C315.587 388.015 315.183 389.71 314.604 390.918C314.315 391.522 313.956 392.061 313.495 392.431C313.01 392.82 312.419 393.012 311.762 392.896C310.786 392.724 309.941 392.146 309.225 391.397C308.506 390.645 307.872 389.674 307.317 388.617C306.209 386.502 305.363 383.93 304.803 381.764C304.59 380.942 303.716 380.51 302.991 380.817L295.04 384.182C294.523 384.401 293.888 384.46 293.372 384.167C293.099 384.012 292.877 383.765 292.769 383.436C292.663 383.116 292.686 382.782 292.783 382.472C293.202 381.126 294.354 378.958 296.678 375.696C299.014 372.417 302.568 367.984 307.843 362.103ZM310.767 362.848C310.124 362.52 309.373 362.642 308.959 363.104L308.401 362.603L308.959 363.104C303.708 368.96 300.193 373.347 297.9 376.566C295.632 379.749 294.594 381.745 294.232 382.863C294.293 382.856 294.369 382.838 294.455 382.801L302.407 379.435C304.032 378.747 305.829 379.741 306.255 381.389C306.801 383.498 307.612 385.948 308.646 387.92C309.163 388.907 309.722 389.746 310.309 390.36C310.899 390.977 311.473 391.322 312.022 391.419C312.203 391.451 312.365 391.414 312.556 391.261C312.771 391.089 313.011 390.773 313.251 390.27C313.732 389.267 314.11 387.749 314.391 385.913C314.948 382.262 315.083 377.602 315.032 373.93C315.01 372.388 316.243 371.097 317.804 371.097H328.121C328.658 371.097 329.116 370.758 329.262 370.271C329.623 369.067 330.067 367.398 330.15 366.277C330.163 366.099 330.165 365.949 330.16 365.826C330.117 365.856 330.068 365.892 330.014 365.935C329.117 366.648 327.707 366.876 326.214 366.88C324.677 366.885 322.87 366.651 321.021 366.272C317.325 365.516 313.334 364.161 310.767 362.848Z" fill="#033348"/>
<path fill-rule="evenodd" clip-rule="evenodd" d="M350.41 366.966C350.298 366.937 350.168 366.93 350.018 366.951L333.161 369.278C333.335 372.089 333.271 374.191 333.015 375.741C332.739 377.409 332.226 378.517 331.458 379.147C330.668 379.795 329.718 379.854 328.789 379.68C327.87 379.507 326.887 379.091 325.955 378.686L325.763 378.602C324.877 378.216 324.034 377.849 323.247 377.646C322.404 377.429 321.721 377.427 321.179 377.718C320.644 378.005 320.124 378.643 319.761 379.989C319.397 381.334 319.21 383.318 319.288 386.176C319.294 386.393 319.27 386.646 319.218 386.864C318.54 389.67 317.796 391.772 317.003 393.295C316.211 394.815 315.348 395.801 314.406 396.314C313.443 396.839 312.458 396.835 311.519 396.493C310.598 396.159 309.721 395.502 308.911 394.716C307.382 393.234 305.973 391.171 304.856 389.535L304.66 389.248C304.077 388.395 303.591 387.699 303.209 387.264C303.074 387.111 302.969 387.011 302.895 386.952C302.623 387.177 302.255 387.346 301.86 387.478C301.375 387.639 300.785 387.766 300.131 387.857C298.82 388.04 297.203 388.091 295.544 387.988C293.886 387.885 292.168 387.626 290.66 387.181C289.165 386.74 287.817 386.099 286.96 385.192C286.139 384.323 286.24 382.994 286.676 381.666C287.125 380.298 287.997 378.711 289.055 377.1C290.905 374.283 293.378 371.308 295.346 369.148C293.411 368.82 291.198 368.553 288.976 368.636C286.342 368.734 283.751 369.323 281.607 370.835C280.781 371.417 277.972 374.111 274.355 378.833C270.757 383.53 266.399 390.186 262.456 398.648C254.574 415.569 248.356 439.712 253.215 469.882C253.317 470.512 253.877 470.958 254.49 470.917C262.004 470.406 273.476 469.025 279.909 466.507C280.503 466.274 281.228 466.219 281.942 466.265C282.669 466.312 283.446 466.467 284.176 466.708C284.904 466.947 285.615 467.281 286.194 467.7C286.762 468.112 287.275 468.659 287.478 469.347L289.31 475.551C289.416 475.908 289.659 476.184 289.982 476.324C297.338 479.488 309.179 483.146 321.72 484.207C334.273 485.27 347.414 483.723 357.485 476.61C357.785 476.398 357.971 476.044 357.98 475.656L358.615 446.075C358.495 444.028 358.509 441.967 358.58 439.874C358.633 438.302 358.717 436.723 358.803 435.118V435.118V435.118C358.953 432.319 359.107 429.44 359.107 426.38C359.107 416.839 357.595 405.801 349.609 391.715C349.405 391.354 349.531 390.897 349.892 390.692C350.252 390.488 350.71 390.615 350.914 390.975C359.049 405.324 360.607 416.626 360.607 426.38C360.607 429.471 360.449 432.434 360.298 435.265V435.266V435.266C360.213 436.861 360.13 438.414 360.079 439.924C360.073 440.095 360.068 440.265 360.063 440.434C360.168 440.567 360.23 440.735 360.226 440.918L360.116 446.047C360.238 448.09 360.497 450.099 360.971 452.103C362.289 457.683 366.44 461.966 371.476 465.132C376.504 468.295 382.324 470.285 386.79 471.307C387.567 471.485 388.323 470.797 388.174 469.901C385.323 452.642 387.012 439.962 388.476 434.889C388.565 434.58 388.554 434.278 388.445 434.008C384.705 424.692 376.119 403.603 369.532 388.393C363.033 373.387 354.157 367.945 350.41 366.966ZM296.521 369.347C296.878 369.351 297.197 369.098 297.265 368.735C297.341 368.328 297.073 367.936 296.665 367.86C294.475 367.451 291.723 367.032 288.92 367.137C286.116 367.242 283.206 367.872 280.742 369.609C279.724 370.328 276.802 373.172 273.164 377.921C269.508 382.695 265.09 389.443 261.097 398.015C253.108 415.163 246.82 439.609 251.734 470.121C251.955 471.492 253.182 472.509 254.591 472.413C262.1 471.903 273.785 470.515 280.456 467.903C280.764 467.782 281.244 467.723 281.846 467.762C282.436 467.8 283.088 467.928 283.707 468.132C284.329 468.337 284.89 468.609 285.314 468.915C285.748 469.23 285.969 469.53 286.04 469.772L287.872 475.975C288.098 476.74 288.637 477.378 289.389 477.702C296.867 480.919 308.865 484.625 321.593 485.702C334.309 486.778 347.867 485.24 358.35 477.835C359.055 477.337 359.461 476.532 359.479 475.688L359.946 453.977C361.731 459.334 365.917 463.408 370.677 466.402C375.888 469.679 381.877 471.722 386.455 472.769C388.379 473.21 389.958 471.494 389.654 469.656C386.834 452.582 388.524 440.131 389.917 435.305C390.091 434.704 390.081 434.057 389.837 433.449C386.095 424.13 377.504 403.026 370.909 387.797C364.279 372.488 355.096 366.64 350.789 365.515C350.454 365.427 350.121 365.422 349.813 365.465L332.503 367.854C332.093 367.911 331.806 368.29 331.862 368.7C331.891 368.906 332 369.081 332.154 369.196C332.336 372.044 332.272 374.107 332.028 375.578C331.767 377.154 331.314 377.971 330.823 378.374C330.353 378.76 329.751 378.843 328.973 378.697C328.184 378.549 327.304 378.182 326.354 377.769L326.144 377.677C325.279 377.3 324.365 376.901 323.497 376.678C322.557 376.436 321.574 376.371 320.706 376.837C319.831 377.306 319.196 378.246 318.795 379.728C318.395 381.21 318.21 383.305 318.289 386.203C318.292 386.339 318.276 386.503 318.246 386.629C317.578 389.392 316.858 391.408 316.116 392.833C315.371 394.263 314.625 395.056 313.928 395.436C313.253 395.803 312.572 395.812 311.86 395.554C311.129 395.288 310.371 394.74 309.607 393.998C308.154 392.589 306.798 390.604 305.666 388.948L305.486 388.684C304.913 387.847 304.391 387.094 303.96 386.604C303.75 386.365 303.522 386.142 303.288 386.015C303.167 385.95 303.007 385.888 302.822 385.895C302.62 385.903 302.444 385.991 302.313 386.13C302.207 386.242 301.966 386.388 301.543 386.529C301.135 386.665 300.609 386.78 299.992 386.867C298.76 387.039 297.211 387.09 295.607 386.99C294.002 386.89 292.362 386.641 290.943 386.222C289.512 385.8 288.365 385.223 287.687 384.505C287.28 384.075 287.204 383.263 287.626 381.978C288.034 380.734 288.85 379.234 289.891 377.649C291.842 374.678 294.516 371.506 296.521 369.347Z" fill="#033348"/>
<path fill-rule="evenodd" clip-rule="evenodd" d="M383.497 436.935C383.894 437.054 384.119 437.471 384.001 437.868C383.244 440.406 382.216 444.713 381.608 449.349C380.997 454 380.82 458.901 381.709 462.666C381.805 463.069 381.555 463.473 381.152 463.568C380.749 463.664 380.345 463.414 380.249 463.011C379.296 458.977 379.503 453.858 380.121 449.153C380.74 444.433 381.785 440.047 382.564 437.439C382.682 437.043 383.1 436.817 383.497 436.935Z" fill="#033348"/>
<path fill-rule="evenodd" clip-rule="evenodd" d="M428.584 359.664C428.584 359.25 428.92 358.914 429.334 358.914C431.363 358.914 434.426 359.466 437.084 361.141C439.775 362.837 442.038 365.681 442.365 370.171C442.395 370.584 442.084 370.943 441.671 370.973C441.258 371.003 440.899 370.693 440.868 370.279C440.581 366.32 438.622 363.883 436.285 362.411C433.915 360.917 431.144 360.414 429.334 360.414C428.92 360.414 428.584 360.078 428.584 359.664ZM420.95 365.914C421.088 365.523 421.516 365.318 421.907 365.456C425.658 366.779 427.807 369.715 428.966 372.841C430.122 375.956 430.324 379.324 430.155 381.691C430.104 382.408 429.749 383.043 429.232 383.488L418.237 392.943C417.961 393.18 417.802 393.526 417.802 393.891V415.716C418.109 441.784 413.048 456.752 406.444 464.838C399.809 472.962 391.668 474.067 386.141 472.498C385.742 472.385 385.511 471.97 385.624 471.571C385.737 471.173 386.152 470.942 386.551 471.055C391.515 472.464 399.034 471.539 405.282 463.889C411.562 456.2 416.608 441.652 416.302 415.729L416.302 415.72V393.891C416.302 393.089 416.651 392.328 417.259 391.805L428.254 382.351C428.497 382.142 428.638 381.866 428.659 381.584C428.817 379.368 428.622 376.226 427.56 373.363C426.502 370.511 424.614 368.001 421.408 366.87C421.017 366.733 420.813 366.304 420.95 365.914ZM406.995 374.807C407.157 375.189 406.978 375.629 406.597 375.79C405.918 376.077 405.449 376.706 405.135 377.678C404.82 378.654 404.703 379.863 404.655 381.119C404.634 381.682 404.627 382.239 404.62 382.781C404.62 382.839 404.619 382.897 404.618 382.955C404.611 383.545 404.602 384.118 404.57 384.628C404.539 385.13 404.485 385.617 404.371 386.021C404.276 386.36 404.098 386.794 403.711 387.059C403.686 387.102 403.651 387.169 403.606 387.264C403.494 387.504 403.353 387.858 403.184 388.329C402.848 389.265 402.425 390.597 401.935 392.242C400.958 395.528 399.727 400.018 398.413 404.985C395.785 414.917 392.831 426.733 390.912 434.584C390.814 434.986 390.408 435.232 390.006 435.134C389.603 435.036 389.357 434.63 389.455 434.227C391.375 426.372 394.332 414.546 396.963 404.601C398.278 399.63 399.513 395.122 400.498 391.814C400.989 390.162 401.422 388.798 401.772 387.822C401.947 387.336 402.106 386.93 402.248 386.628C402.318 386.478 402.392 386.336 402.469 386.216C402.521 386.136 402.642 385.954 402.842 385.833C402.856 385.812 402.889 385.751 402.927 385.615C402.997 385.368 403.044 385.011 403.073 384.536C403.102 384.068 403.111 383.531 403.118 382.936C403.119 382.878 403.12 382.82 403.12 382.761C403.127 382.222 403.134 381.645 403.156 381.063C403.205 379.78 403.327 378.399 403.708 377.218C404.09 376.032 404.772 374.934 406.012 374.409C406.394 374.247 406.834 374.426 406.995 374.807ZM403.748 387.005C403.748 387.006 403.744 387.011 403.737 387.019C403.744 387.009 403.747 387.005 403.748 387.005Z" fill="#033348"/>
<path fill-rule="evenodd" clip-rule="evenodd" d="M420.219 358.525C420.398 358.152 420.846 357.995 421.22 358.174C424.074 359.548 428.212 361.981 431.341 364.836C432.904 366.262 434.256 367.828 435.054 369.457C435.86 371.099 436.125 372.858 435.404 374.576C435.243 374.958 434.804 375.138 434.422 374.978C434.04 374.817 433.86 374.378 434.021 373.996C434.527 372.789 434.383 371.495 433.708 370.118C433.026 368.727 431.825 367.308 430.33 365.944C427.344 363.22 423.344 360.861 420.569 359.526C420.196 359.347 420.039 358.898 420.219 358.525Z" fill="#033348"/>
<g filter="url(#filter0_d_48_226)">
<path fill-rule="evenodd" clip-rule="evenodd" d="M417.927 327.705C418.911 327.343 420.015 327.572 420.774 328.295L426.847 334.079C427.124 334.343 427.507 334.465 427.886 334.411L453.469 330.752C454.906 330.547 456.256 331.494 456.551 332.916L462.659 362.367C462.974 363.886 461.972 365.365 460.444 365.634L444.05 368.526C443.642 368.598 443.253 368.325 443.181 367.917C443.109 367.51 443.382 367.121 443.79 367.049L460.184 364.157C460.878 364.034 461.334 363.362 461.191 362.672L455.082 333.221C454.948 332.574 454.334 332.144 453.681 332.237L428.098 335.896C427.264 336.015 426.422 335.746 425.812 335.165L419.74 329.381C419.395 329.052 418.893 328.949 418.446 329.113L403.523 334.606C402.957 334.815 402.62 335.398 402.723 335.993L409.007 372.2C409.125 372.877 409.767 373.332 410.445 373.219L423.07 371.109C423.478 371.041 423.865 371.317 423.933 371.726C424.001 372.134 423.726 372.521 423.317 372.589L410.692 374.699C409.201 374.948 407.788 373.946 407.529 372.456L401.245 336.249C401.018 334.941 401.759 333.657 403.005 333.199L417.927 327.705Z" fill="#033348"/>
</g>
<g filter="url(#filter1_d_48_226)">
<path fill-rule="evenodd" clip-rule="evenodd" d="M425.495 228.802C410.686 228.802 398.609 241.519 398.609 257.298C398.609 273.077 410.686 285.795 425.495 285.795C440.304 285.795 452.38 273.077 452.38 257.298C452.38 241.519 440.304 228.802 425.495 228.802ZM397.109 257.298C397.109 240.772 409.778 227.302 425.495 227.302C441.211 227.302 453.88 240.772 453.88 257.298C453.88 273.824 441.211 287.295 425.495 287.295C409.778 287.295 397.109 273.824 397.109 257.298Z" fill="#033348"/>
</g>
<path d="M423.971 245.301C423.971 244.749 424.418 244.301 424.971 244.301H435.253C435.805 244.301 436.253 244.749 436.253 245.301V267.673C436.253 268.225 435.805 268.673 435.253 268.673H424.971C424.418 268.673 423.971 268.225 423.971 267.673V245.301Z" fill="#033348"/>
<path fill-rule="evenodd" clip-rule="evenodd" d="M425.471 245.801V267.173H434.753V245.801H425.471ZM424.971 244.301C424.418 244.301 423.971 244.749 423.971 245.301V267.673C423.971 268.225 424.418 268.673 424.971 268.673H435.253C435.805 268.673 436.253 268.225 436.253 267.673V245.301C436.253 244.749 435.805 244.301 435.253 244.301H424.971Z" fill="#033348"/>
<path d="M416.297 248.55C416.297 247.998 416.745 247.55 417.297 247.55H427.579C428.132 247.55 428.579 247.998 428.579 248.55V270.922C428.579 271.475 428.132 271.922 427.579 271.922H417.297C416.745 271.922 416.297 271.475 416.297 270.922V248.55Z" fill="#FDA94D"/>
<path d="M337.987 326.351C337.987 327.697 336.956 328.789 335.684 328.789C334.412 328.789 333.381 327.697 333.381 326.351C333.381 325.005 334.412 323.914 335.684 323.914C336.956 323.914 337.987 325.005 337.987 326.351Z" fill="#033348"/>
<path d="M350.274 329.603C350.274 330.949 349.243 332.04 347.971 332.04C346.699 332.04 345.668 330.949 345.668 329.603C345.668 328.257 346.699 327.166 347.971 327.166C349.243 327.166 350.274 328.257 350.274 329.603Z" fill="#033348"/>
<path fill-rule="evenodd" clip-rule="evenodd" d="M455.453 264.61C455.453 264.196 455.789 263.86 456.203 263.86H478.054C479.544 263.86 480.762 265.045 480.803 266.534L484.532 402.269C484.574 403.817 483.331 405.094 481.783 405.094H436.244C435.83 405.094 435.494 404.758 435.494 404.344C435.494 403.93 435.83 403.594 436.244 403.594H481.783C482.487 403.594 483.052 403.013 483.032 402.31L479.304 266.575C479.285 265.899 478.731 265.36 478.054 265.36H456.203C455.789 265.36 455.453 265.024 455.453 264.61Z" fill="#033348"/>
<path fill-rule="evenodd" clip-rule="evenodd" d="M341.829 325.605C342.243 325.605 342.579 325.94 342.579 326.355V337.001C342.579 338.238 341.768 339.329 340.65 339.76C340.023 340.001 339.279 340.286 338.558 340.511C337.852 340.73 337.095 340.916 336.455 340.916C336.041 340.916 335.705 340.58 335.705 340.166C335.705 339.751 336.041 339.416 336.455 339.416C336.855 339.416 337.431 339.29 338.112 339.078C338.779 338.871 339.478 338.604 340.111 338.36C340.687 338.138 341.079 337.579 341.079 337.001V326.355C341.079 325.94 341.414 325.605 341.829 325.605Z" fill="#033348"/>
<path fill-rule="evenodd" clip-rule="evenodd" d="M329.395 344.748C329.907 344.554 330.491 344.571 330.994 344.719C332.242 345.088 333.797 345.453 335.214 345.594C335.922 345.664 336.574 345.676 337.125 345.613C337.685 345.549 338.079 345.413 338.324 345.24C338.709 344.968 339.174 344.793 339.661 344.897C340.159 345.003 340.482 345.358 340.663 345.721C341.008 346.413 340.992 347.389 340.723 348.299C340.161 350.205 338.36 352.29 334.918 352.29C330.484 352.29 328.051 348.679 328.305 346.143C328.378 345.419 328.851 344.955 329.395 344.748ZM329.824 346.214C329.817 346.222 329.803 346.24 329.798 346.293C329.635 347.911 331.336 350.79 334.918 350.79C337.618 350.79 338.888 349.219 339.285 347.875C339.496 347.16 339.431 346.613 339.321 346.391C339.32 346.39 339.32 346.389 339.319 346.388C339.288 346.402 339.245 346.426 339.189 346.466C338.655 346.843 337.98 347.024 337.297 347.103C336.604 347.183 335.838 347.163 335.066 347.087C333.522 346.933 331.869 346.542 330.569 346.158C330.313 346.082 330.073 346.096 329.928 346.151C329.862 346.176 329.834 346.202 329.824 346.214ZM339.381 346.367C339.381 346.367 339.38 346.368 339.378 346.368ZM339.289 346.338C339.287 346.336 339.286 346.335 339.286 346.335C339.286 346.335 339.287 346.336 339.289 346.338Z" fill="#033348"/>
<path fill-rule="evenodd" clip-rule="evenodd" d="M482.326 383.223C482.326 382.809 482.662 382.473 483.076 382.473H600.83C602.349 382.473 603.58 383.704 603.58 385.223V447.404C603.58 447.818 603.244 448.154 602.83 448.154C602.416 448.154 602.08 447.818 602.08 447.404V385.223C602.08 384.533 601.52 383.973 600.83 383.973H483.076C482.662 383.973 482.326 383.637 482.326 383.223Z" fill="#033348"/>
<path fill-rule="evenodd" clip-rule="evenodd" d="M512.248 471.024C512.663 471.024 512.998 471.36 512.998 471.774V482.768H593.06C593.475 482.768 593.81 483.103 593.81 483.518C593.81 483.932 593.475 484.268 593.06 484.268H512.248L512.237 484.267L439.806 483.118C439.108 483.107 438.536 483.669 438.536 484.367V530.791C438.536 532.263 437.378 533.474 435.907 533.538L364.125 536.704C363.711 536.722 363.361 536.401 363.343 535.988C363.324 535.574 363.645 535.224 364.059 535.205L435.841 532.04C436.51 532.01 437.036 531.46 437.036 530.791V484.367C437.036 482.832 438.294 481.593 439.83 481.618L511.498 482.756V471.774C511.498 471.36 511.834 471.024 512.248 471.024Z" fill="#033348"/>
<g filter="url(#filter2_d_48_226)">
<path fill-rule="evenodd" clip-rule="evenodd" d="M336.194 508.244C321.385 508.244 309.309 520.962 309.309 536.741C309.309 552.52 321.385 565.238 336.194 565.238C351.003 565.238 363.079 552.52 363.079 536.741C363.079 520.962 351.003 508.244 336.194 508.244ZM307.809 536.741C307.809 520.215 320.478 506.744 336.194 506.744C351.91 506.744 364.579 520.215 364.579 536.741C364.579 553.267 351.91 566.738 336.194 566.738C320.478 566.738 307.809 553.267 307.809 536.741Z" fill="#033348"/>
</g>
<path d="M326.076 533.369H329.99C330.542 533.369 330.99 533.817 330.99 534.369V547.14C330.99 547.693 331.437 548.14 331.99 548.14H340.225C340.777 548.14 341.225 547.693 341.225 547.14V534.369C341.225 533.817 341.673 533.369 342.225 533.369H346.821C347.628 533.369 348.103 532.463 347.643 531.8L337.27 516.83C336.873 516.256 336.024 516.256 335.626 516.83L325.254 531.8C324.794 532.463 325.269 533.369 326.076 533.369Z" fill="#033348"/>
<path fill-rule="evenodd" clip-rule="evenodd" d="M336.654 517.257C336.554 517.114 336.342 517.114 336.243 517.257L325.87 532.227C325.755 532.393 325.874 532.619 326.076 532.619H329.99C330.956 532.619 331.74 533.403 331.74 534.369V547.14C331.74 547.279 331.851 547.39 331.99 547.39H340.225C340.363 547.39 340.475 547.279 340.475 547.14V534.369C340.475 533.403 341.258 532.619 342.225 532.619H346.821C347.023 532.619 347.142 532.393 347.027 532.227L336.654 517.257ZM335.01 516.403C335.706 515.399 337.191 515.399 337.887 516.403L348.26 531.373C349.064 532.533 348.233 534.119 346.821 534.119H342.225C342.087 534.119 341.975 534.231 341.975 534.369V547.14C341.975 548.107 341.191 548.89 340.225 548.89H331.99C331.023 548.89 330.24 548.107 330.24 547.14V534.369C330.24 534.231 330.128 534.119 329.99 534.119H326.076C324.664 534.119 323.833 532.533 324.637 531.373L335.01 516.403Z" fill="#033348"/>
<path d="M330.311 550.767C330.311 550.214 330.758 549.767 331.311 549.767H341.593C342.145 549.767 342.593 550.214 342.593 550.767V553.641C342.593 554.193 342.145 554.641 341.593 554.641H331.311C330.758 554.641 330.311 554.193 330.311 553.641V550.767Z" fill="#FDA94D"/>
<path fill-rule="evenodd" clip-rule="evenodd" d="M292.893 407.682C293.293 407.789 293.532 408.199 293.425 408.6C291.388 416.28 288.823 429.324 287.382 441.822C286.661 448.071 286.223 454.166 286.269 459.377C286.315 464.617 286.852 468.859 288.013 471.471C288.182 471.849 288.011 472.292 287.633 472.461C287.254 472.629 286.811 472.458 286.643 472.08C285.347 469.167 284.816 464.656 284.769 459.39C284.722 454.095 285.167 447.933 285.891 441.65C287.341 429.086 289.918 415.971 291.975 408.215C292.082 407.815 292.492 407.576 292.893 407.682Z" fill="#033348"/>
<path fill-rule="evenodd" clip-rule="evenodd" d="M267.964 463.457C264.146 464.099 260.546 465.182 258.411 465.979C258.023 466.124 257.591 465.927 257.446 465.539C257.301 465.151 257.498 464.719 257.886 464.574C260.1 463.747 263.793 462.637 267.716 461.978C271.614 461.323 275.855 461.094 279.102 462.125C279.497 462.25 279.715 462.672 279.59 463.067C279.464 463.461 279.043 463.68 278.648 463.555C275.753 462.636 271.806 462.812 267.964 463.457Z" fill="#033348"/>
<path fill-rule="evenodd" clip-rule="evenodd" d="M327.136 393.041C327.546 392.984 327.925 393.27 327.983 393.68C329.521 404.666 331.366 421.876 331.905 437.812C332.174 445.778 332.117 453.445 331.528 459.863C330.942 466.242 329.821 471.523 327.875 474.612C327.654 474.963 327.191 475.068 326.84 474.847C326.49 474.626 326.385 474.163 326.606 473.813C328.344 471.053 329.449 466.097 330.034 459.726C330.615 453.395 330.674 445.798 330.406 437.862C329.869 421.992 328.03 404.837 326.497 393.888C326.44 393.478 326.726 393.099 327.136 393.041ZM343.128 404.445C343.522 404.316 343.946 404.532 344.074 404.925C345.365 408.888 347.103 415.51 348.133 422.536C349.16 429.54 349.5 437.049 347.922 442.729C347.811 443.129 347.397 443.362 346.998 443.251C346.599 443.14 346.366 442.727 346.476 442.328C347.968 436.96 347.669 429.709 346.649 422.754C345.632 415.82 343.915 409.281 342.648 405.39C342.519 404.996 342.735 404.573 343.128 404.445ZM307.891 411.736C308.295 411.649 308.695 411.906 308.782 412.311C309.812 417.079 311.047 424.635 311.408 431.828C311.588 435.424 311.551 438.951 311.153 442.004C310.758 445.034 309.995 447.697 308.647 449.48C308.397 449.811 307.927 449.876 307.597 449.626C307.266 449.376 307.201 448.906 307.451 448.576C308.559 447.109 309.281 444.762 309.666 441.81C310.048 438.879 310.088 435.45 309.91 431.903C309.554 424.811 308.333 417.338 307.316 412.628C307.228 412.223 307.486 411.824 307.891 411.736Z" fill="#033348"/>
<path d="M582.106 178.494C582.106 179.84 581.075 180.931 579.803 180.931C578.531 180.931 577.5 179.84 577.5 178.494C577.5 177.148 578.531 176.056 579.803 176.056C581.075 176.056 582.106 177.148 582.106 178.494Z" fill="#033348"/>
<path d="M595.922 176.872C595.922 178.218 594.891 179.309 593.619 179.309C592.347 179.309 591.316 178.218 591.316 176.872C591.316 175.526 592.347 174.434 593.619 174.434C594.891 174.434 595.922 175.526 595.922 176.872Z" fill="#033348"/>
<path fill-rule="evenodd" clip-rule="evenodd" d="M538.848 246.33C536.08 246.282 533.329 246.352 531.564 246.664C530.855 246.789 530.181 247.211 529.543 247.901C528.905 248.592 528.339 249.514 527.853 250.549C526.891 252.597 526.296 254.97 526.043 256.546V275.731C528.394 278.79 530.442 280.285 532.161 280.8C533.864 281.311 535.348 280.89 536.674 279.86C538.027 278.808 539.196 277.128 540.143 275.197C541.085 273.276 541.782 271.164 542.219 269.312C542.314 268.909 542.718 268.66 543.121 268.755C543.524 268.85 543.774 269.254 543.679 269.657C543.221 271.597 542.49 273.818 541.49 275.858C540.494 277.887 539.202 279.795 537.594 281.045C535.958 282.316 533.978 282.911 531.73 282.237C529.533 281.579 527.193 279.742 524.695 276.436L524.543 276.236V256.428L524.552 256.37C524.816 254.695 525.446 252.145 526.495 249.912C527.019 248.795 527.663 247.726 528.441 246.883C529.22 246.04 530.171 245.386 531.304 245.186C533.224 244.848 536.102 244.782 538.874 244.83C541.662 244.878 544.403 245.041 546.08 245.177C546.493 245.211 546.801 245.573 546.767 245.986C546.733 246.399 546.372 246.706 545.959 246.673C544.309 246.538 541.6 246.377 538.848 246.33ZM551.332 252.36C543.52 251.724 537.07 254.223 534.885 255.508C534.528 255.718 534.068 255.599 533.858 255.242C533.648 254.885 533.768 254.425 534.125 254.215C536.545 252.792 543.299 250.201 551.454 250.864C551.867 250.898 552.174 251.26 552.141 251.673C552.107 252.086 551.745 252.393 551.332 252.36ZM545.751 259.57C542.74 259.801 539.697 260.595 537.825 261.256C537.434 261.394 537.006 261.189 536.868 260.798C536.73 260.407 536.935 259.979 537.326 259.841C539.292 259.148 542.467 258.317 545.636 258.074C548.753 257.835 552.104 258.144 554.192 259.986C554.503 260.26 554.533 260.734 554.259 261.045C553.985 261.355 553.511 261.385 553.2 261.111C551.604 259.703 548.813 259.335 545.751 259.57ZM545.162 266.602C542.944 267.338 541.3 268.817 540.483 269.929C540.237 270.263 539.768 270.335 539.434 270.089C539.1 269.844 539.029 269.374 539.274 269.041C540.248 267.715 542.135 266.026 544.689 265.178C547.275 264.32 550.505 264.339 554.071 266.398C554.43 266.605 554.553 267.064 554.346 267.423C554.139 267.781 553.68 267.904 553.321 267.697C550.132 265.857 547.348 265.876 545.162 266.602Z" fill="#033348"/>
<path fill-rule="evenodd" clip-rule="evenodd" d="M558.354 270.913C558.463 270.513 558.876 270.278 559.275 270.387C563.217 271.463 569.712 272.96 576.363 273.943C583.043 274.931 589.771 275.383 594.234 274.439C594.639 274.353 595.037 274.612 595.123 275.017C595.209 275.422 594.95 275.82 594.545 275.906C589.796 276.911 582.834 276.416 576.144 275.427C569.425 274.434 562.871 272.924 558.88 271.834C558.48 271.725 558.245 271.312 558.354 270.913ZM616.902 278.528C617.292 278.666 617.497 279.095 617.358 279.485C616.33 282.388 613.459 284.395 610.408 285.73C607.324 287.08 603.87 287.827 601.381 288.104C600.97 288.15 600.599 287.853 600.553 287.442C600.507 287.03 600.804 286.659 601.215 286.613C603.589 286.349 606.89 285.633 609.806 284.356C612.756 283.065 615.131 281.281 615.944 278.984C616.083 278.594 616.511 278.389 616.902 278.528ZM523.129 289.399C523.348 289.048 523.81 288.94 524.162 289.159C526.347 290.52 528.316 291.666 530.39 292.109C532.414 292.541 534.59 292.31 537.203 290.774C537.56 290.564 538.02 290.683 538.23 291.041C538.44 291.398 538.321 291.857 537.963 292.067C535.049 293.781 532.492 294.092 530.076 293.576C527.711 293.071 525.534 291.78 523.369 290.433C523.018 290.214 522.91 289.751 523.129 289.399ZM556.107 295.141C556.295 294.773 556.747 294.626 557.116 294.815C564.458 298.566 583.734 305.266 601.936 302.056C602.344 301.984 602.733 302.256 602.805 302.664C602.877 303.072 602.604 303.461 602.196 303.533C583.551 306.822 563.932 299.982 556.433 296.151C556.065 295.962 555.918 295.51 556.107 295.141Z" fill="#033348"/>
<g filter="url(#filter3_d_48_226)">
<path fill-rule="evenodd" clip-rule="evenodd" d="M572.891 310.043C558.082 310.043 546.006 322.761 546.006 338.54C546.006 354.319 558.082 367.037 572.891 367.037C587.7 367.037 599.777 354.319 599.777 338.54C599.777 322.761 587.7 310.043 572.891 310.043ZM544.506 338.54C544.506 322.014 557.175 308.543 572.891 308.543C588.608 308.543 601.277 322.014 601.277 338.54C601.277 355.066 588.608 368.537 572.891 368.537C557.175 368.537 544.506 355.066 544.506 338.54Z" fill="#033348"/>
</g>
<g filter="url(#filter4_d_48_226)">
<path fill-rule="evenodd" clip-rule="evenodd" d="M618.952 443.278C604.143 443.278 592.066 455.995 592.066 471.774C592.066 487.553 604.143 500.271 618.952 500.271C633.761 500.271 645.837 487.553 645.837 471.774C645.837 455.995 633.761 443.278 618.952 443.278ZM590.566 471.774C590.566 455.248 603.236 441.778 618.952 441.778C634.668 441.778 647.337 455.248 647.337 471.774C647.337 488.3 634.668 501.771 618.952 501.771C603.236 501.771 590.566 488.3 590.566 471.774Z" fill="#033348"/>
</g>
<path fill-rule="evenodd" clip-rule="evenodd" d="M593.696 222.074C593.857 221.693 594.298 221.515 594.679 221.676C599.213 223.595 602.765 224.246 605.341 224.298C607.944 224.35 609.489 223.792 610.075 223.379C610.413 223.14 610.881 223.221 611.12 223.559C611.359 223.898 611.278 224.366 610.94 224.604C609.99 225.274 608.081 225.853 605.311 225.798C602.513 225.741 598.772 225.038 594.094 223.057C593.713 222.896 593.535 222.456 593.696 222.074ZM638.91 331.292C639.325 331.292 639.66 331.628 639.66 332.042V354.79C639.66 355.204 639.325 355.54 638.91 355.54C638.496 355.54 638.16 355.204 638.16 354.79V332.042C638.16 331.628 638.496 331.292 638.91 331.292Z" fill="#033348"/>
<g filter="url(#filter5_d_48_226)">
<path fill-rule="evenodd" clip-rule="evenodd" d="M497.631 405.524C501.943 399.696 509.725 394.659 522.99 394.659C536.486 394.659 545.028 398.846 550.248 404.763C555.084 410.244 556.986 417.115 557.438 423.251C561.885 420.31 566.268 420.343 569.975 421.675C573.95 423.103 577.13 426.012 578.856 428.261L578.877 428.288L578.896 428.318C585.177 438.289 584.551 446.964 581.138 453.732C577.753 460.445 571.665 465.216 567.089 467.568L566.928 467.651H458.238L458.03 467.478C453.559 463.776 450.942 460.323 449.78 457.17C448.607 453.988 448.93 451.143 450.274 448.761C451.603 446.405 453.893 444.563 456.56 443.263C459.001 442.074 461.799 441.317 464.574 441.035C463.961 435.772 464.698 431.638 466.385 428.439C468.156 425.079 470.936 422.822 474.127 421.373C480.087 418.665 487.554 418.739 492.954 419.669C492.862 418.222 493.024 416.306 493.547 414.193C494.216 411.494 495.486 408.422 497.631 405.524ZM495.003 414.554C494.373 417.099 494.326 419.237 494.556 420.454L494.763 421.549L493.671 421.328C488.374 420.261 480.686 420.041 474.747 422.738C471.797 424.078 469.299 426.128 467.712 429.138C466.123 432.152 465.408 436.203 466.16 441.613L466.27 442.409L465.468 442.464C462.614 442.661 459.702 443.401 457.217 444.612C454.727 445.825 452.715 447.487 451.581 449.498C450.461 451.482 450.161 453.867 451.187 456.651C452.208 459.419 454.552 462.61 458.779 466.151H566.563C570.924 463.871 576.633 459.333 579.798 453.057C582.971 446.765 583.626 438.66 577.645 429.147C576.04 427.066 573.089 424.388 569.467 423.086C565.876 421.796 561.608 421.847 557.227 425.248L556.076 426.141L556.017 424.685C555.766 418.423 554.017 411.302 549.123 405.755C544.248 400.23 536.157 396.159 522.99 396.159C510.156 396.159 502.84 401.005 498.836 406.416C496.823 409.136 495.63 412.022 495.003 414.554Z" fill="#033348"/>
</g>
<path d="M686.714 370.83C687.328 377.979 699.253 384.1 705.138 386.266C708.976 383.829 715.732 376.03 712.047 364.331C708.362 352.632 703.347 365.414 701.3 373.267C696.182 369.476 686.1 363.681 686.714 370.83Z" fill="#033348"/>
<path fill-rule="evenodd" clip-rule="evenodd" d="M706.666 361.908C704.786 364.498 703.048 369.533 702.025 373.457L701.745 374.531L700.853 373.87C698.313 371.988 694.59 369.649 691.62 368.658C690.1 368.15 688.975 368.066 688.31 368.351C688.015 368.478 687.792 368.685 687.642 369.028C687.482 369.392 687.391 369.946 687.462 370.766C687.598 372.355 688.369 373.94 689.609 375.484C690.848 377.025 692.521 378.482 694.384 379.805C697.962 382.347 702.151 384.332 705.043 385.43C708.729 382.905 714.787 375.528 711.332 364.556C710.882 363.128 710.425 362.12 709.984 361.445C709.538 360.763 709.154 360.491 708.874 360.402C708.625 360.323 708.338 360.352 707.962 360.584C707.569 360.828 707.131 361.267 706.666 361.908ZM711.239 360.623C711.785 361.458 712.291 362.609 712.762 364.106C716.578 376.22 709.575 384.337 705.54 386.899L705.227 387.098L704.879 386.97C701.89 385.87 697.375 383.77 693.515 381.028C691.584 379.657 689.794 378.108 688.44 376.423C687.088 374.741 686.138 372.88 685.967 370.894C685.884 369.927 685.973 369.098 686.268 368.426C686.571 367.732 687.075 367.249 687.719 366.973C688.932 366.452 690.532 366.713 692.095 367.235C694.944 368.185 698.331 370.236 700.859 372.023C701.913 368.247 703.571 363.619 705.452 361.027C705.972 360.31 706.545 359.698 707.172 359.309C707.816 358.91 708.557 358.728 709.328 358.973C710.069 359.208 710.697 359.795 711.239 360.623Z" fill="#033348"/>
<path fill-rule="evenodd" clip-rule="evenodd" d="M712.064 376.421C712.116 376.01 712.491 375.718 712.902 375.77C718.338 376.455 727.043 378.422 735.56 382.102C744.062 385.776 752.479 391.203 757.203 398.868C760.154 403.658 761.375 408.488 762.185 413.147C762.426 414.534 762.63 415.894 762.83 417.231C763.31 420.43 763.769 423.496 764.671 426.463C765.931 430.613 768.042 434.489 772.264 437.984C776.504 441.495 782.915 444.657 792.836 447.281L792.952 447.312L793.053 447.378C796.456 449.594 801.052 453.745 803.789 459.036C806.543 464.361 807.421 470.875 803.262 477.646C803.046 477.999 802.584 478.109 802.231 477.892C801.878 477.675 801.768 477.214 801.984 476.861C805.81 470.633 805.024 464.69 802.456 459.725C799.896 454.775 795.574 450.833 792.334 448.7C782.362 446.05 775.758 442.825 771.307 439.14C766.821 435.425 764.566 431.279 763.235 426.899C762.3 423.821 761.815 420.585 761.329 417.339C761.132 416.026 760.934 414.711 760.707 413.404C759.91 408.823 758.732 404.209 755.926 399.655C751.438 392.373 743.351 387.103 734.964 383.479C726.592 379.861 718.026 377.928 712.714 377.258C712.304 377.207 712.012 376.832 712.064 376.421ZM721.351 398.922C721.539 398.553 721.99 398.406 722.36 398.593C729.052 401.993 741.796 415.596 741.195 443.093C741.449 445.051 742.232 448.187 743.762 451.223C745.308 454.292 747.576 457.178 750.748 458.704C751.122 458.884 751.279 459.332 751.099 459.705C750.919 460.079 750.471 460.236 750.098 460.056C746.515 458.332 744.049 455.126 742.422 451.898C740.794 448.666 739.965 445.333 739.7 443.226L739.693 443.171L739.694 443.115C740.303 416.056 727.778 403.028 721.68 399.931C721.311 399.743 721.164 399.291 721.351 398.922ZM675.901 412.325C676.314 412.292 676.676 412.6 676.709 413.013C676.823 414.446 676.97 415.949 677.152 417.501C677.926 417.055 678.88 416.574 679.888 416.19C681.376 415.623 683.13 415.209 684.597 415.597C684.997 415.703 685.236 416.114 685.13 416.514C685.024 416.915 684.614 417.153 684.213 417.048C683.224 416.786 681.848 417.049 680.422 417.592C679.24 418.042 678.127 418.644 677.354 419.131C678.821 430.379 682.067 443.635 687.689 451.724C690.532 455.813 693.908 458.478 697.876 459.013C701.842 459.547 706.616 457.982 712.322 453.122C712.637 452.854 713.111 452.892 713.379 453.207C713.648 453.522 713.61 453.996 713.295 454.264C707.418 459.27 702.23 461.113 697.676 460.5C693.125 459.887 689.424 456.848 686.458 452.58C680.54 444.066 677.25 430.246 675.806 418.854C675.554 416.864 675.358 414.943 675.213 413.132C675.18 412.719 675.488 412.358 675.901 412.325ZM693.239 415.8C691.973 416.041 690.93 416.886 690.368 417.599C690.112 417.924 689.64 417.98 689.315 417.724C688.989 417.468 688.933 416.996 689.189 416.671C689.907 415.759 691.243 414.654 692.958 414.327C694.734 413.988 696.775 414.511 698.768 416.62C699.052 416.921 699.039 417.396 698.738 417.68C698.437 417.964 697.962 417.951 697.678 417.65C695.986 415.859 694.444 415.57 693.239 415.8ZM721.529 415.756C721.842 415.484 722.316 415.518 722.587 415.831C724.06 417.532 725.682 420.39 725.591 423.413C725.545 424.946 725.057 426.506 723.908 427.941C722.833 429.285 721.206 430.485 718.897 431.463C718.713 434.504 719.064 439.101 720.689 443.502C722.395 448.12 725.475 452.454 730.75 454.625C731.133 454.782 731.315 455.221 731.158 455.604C731 455.987 730.562 456.169 730.179 456.012C724.399 453.633 721.082 448.895 719.282 444.021C717.485 439.157 717.171 434.089 717.434 430.884L717.472 430.42L717.905 430.249C720.275 429.308 721.799 428.177 722.737 427.004C723.669 425.839 724.054 424.597 724.091 423.368C724.167 420.866 722.795 418.363 721.453 416.813C721.182 416.5 721.216 416.027 721.529 415.756ZM792.2 455.526C792.534 455.281 793.003 455.353 793.248 455.686C795.971 459.391 799.267 465.309 800.235 471.014C800.72 473.874 800.63 476.741 799.527 479.258C798.415 481.796 796.309 483.896 792.924 485.26C792.714 485.345 792.489 485.328 792.302 485.232C791.309 486.825 789.781 488.214 787.605 489.298C787.234 489.483 786.784 489.332 786.599 488.961C786.414 488.591 786.565 488.14 786.936 487.956C789.406 486.725 790.845 485.117 791.596 483.348C792.353 481.565 792.442 479.548 792.078 477.463C791.346 473.275 788.817 469.003 786.686 466.349C786.426 466.026 786.478 465.554 786.801 465.295C787.124 465.035 787.596 465.087 787.855 465.41C790.073 468.172 792.764 472.674 793.555 477.205C793.928 479.339 793.886 481.518 793.137 483.532C795.733 482.311 797.298 480.607 798.153 478.656C799.1 476.496 799.211 473.95 798.756 471.265C797.843 465.881 794.691 460.182 792.04 456.575C791.794 456.241 791.866 455.771 792.2 455.526Z" fill="#033348"/>
<path fill-rule="evenodd" clip-rule="evenodd" d="M689.101 426.142C689.513 426.187 689.81 426.557 689.765 426.969C689.383 430.471 689.122 435.44 689.553 439.025C689.66 439.916 689.809 440.704 690.001 441.351C690.196 442.008 690.422 442.471 690.657 442.756C690.876 443.022 691.066 443.096 691.249 443.096C691.471 443.095 691.842 442.985 692.392 442.548C692.716 442.291 693.188 442.345 693.445 442.669C693.703 442.994 693.649 443.466 693.324 443.723C692.646 444.261 691.952 444.594 691.253 444.596C690.515 444.598 689.929 444.232 689.498 443.708C689.083 443.203 688.785 442.524 688.563 441.778C688.339 441.023 688.177 440.147 688.064 439.204C687.612 435.449 687.888 430.345 688.274 426.806C688.319 426.394 688.689 426.097 689.101 426.142Z" fill="#033348"/>
<path d="M698.995 428.51C698.995 430.305 697.62 431.76 695.924 431.76C694.228 431.76 692.854 430.305 692.854 428.51C692.854 426.715 694.228 425.26 695.924 425.26C697.62 425.26 698.995 426.715 698.995 428.51Z" fill="#033348"/>
<path d="M685.178 430.137C685.178 431.932 683.804 433.387 682.108 433.387C680.412 433.387 679.037 431.932 679.037 430.137C679.037 428.342 680.412 426.887 682.108 426.887C683.804 426.887 685.178 428.342 685.178 430.137Z" fill="#033348"/>
<path fill-rule="evenodd" clip-rule="evenodd" d="M701.404 442.392C701.814 442.447 702.102 442.825 702.047 443.236C701.708 445.746 700.469 447.14 698.963 447.768C697.521 448.368 695.952 448.22 694.945 447.915C694.549 447.795 694.324 447.377 694.444 446.98C694.564 446.584 694.983 446.359 695.379 446.479C696.163 446.717 697.357 446.812 698.386 446.383C699.349 445.982 700.285 445.074 700.56 443.035C700.615 442.624 700.993 442.337 701.404 442.392Z" fill="#033348"/>
<path fill-rule="evenodd" clip-rule="evenodd" d="M639.865 526.791C639.877 527.205 639.551 527.55 639.137 527.562C629.65 527.834 609.376 528.537 603.891 529.182C598.653 529.798 594.883 533.571 593.678 535.356C593.447 535.7 592.98 535.79 592.637 535.558C592.294 535.327 592.203 534.86 592.435 534.517C593.789 532.511 597.9 528.376 603.716 527.692C609.285 527.038 629.646 526.333 639.094 526.063C639.508 526.051 639.854 526.377 639.865 526.791ZM608.438 549.382C606.624 551.179 605.209 553.345 604.47 554.778C604.281 555.146 603.828 555.291 603.46 555.101C603.092 554.911 602.947 554.459 603.137 554.091C603.934 552.545 605.436 550.243 607.383 548.316C609.312 546.406 611.797 544.748 614.551 544.748H624.53C624.944 544.748 625.28 545.084 625.28 545.498C625.28 545.912 624.944 546.248 624.53 546.248H614.551C612.392 546.248 610.27 547.569 608.438 549.382Z" fill="#033348"/>
<g filter="url(#filter6_d_48_226)">
<path fill-rule="evenodd" clip-rule="evenodd" d="M578.147 507.792L605.023 558.99H677.479V567.801H535.782L507.428 510.286L578.147 507.792ZM605.81 560.49L608.861 566.301H675.979V560.49H605.81ZM607.167 566.301L577.257 509.324L509.799 511.704L536.715 566.301H607.167Z" fill="#033348"/>
</g>
<path d="M565.42 537.807C565.42 540.947 560.608 543.494 554.673 543.494C548.737 543.494 543.926 540.947 543.926 537.807C543.926 534.666 548.737 532.12 554.673 532.12C560.608 532.12 565.42 534.666 565.42 537.807Z" fill="#FDA94D"/>
<path fill-rule="evenodd" clip-rule="evenodd" d="M561.571 540.502C563.326 539.573 563.92 538.547 563.92 537.807C563.92 537.066 563.326 536.04 561.571 535.111C559.882 534.218 557.446 533.62 554.673 533.62C551.9 533.62 549.464 534.218 547.775 535.111C546.019 536.04 545.426 537.066 545.426 537.807C545.426 538.547 546.019 539.573 547.775 540.502C549.464 541.396 551.9 541.994 554.673 541.994C557.446 541.994 559.882 541.396 561.571 540.502ZM554.673 543.494C560.608 543.494 565.42 540.947 565.42 537.807C565.42 534.666 560.608 532.12 554.673 532.12C548.737 532.12 543.926 534.666 543.926 537.807C543.926 540.947 548.737 543.494 554.673 543.494Z" fill="#F6F8FA"/>
<path fill-rule="evenodd" clip-rule="evenodd" d="M578.673 328.685C578.916 329.021 578.841 329.49 578.506 329.733L564.831 339.634L578.458 347.983C578.811 348.2 578.922 348.662 578.705 349.015C578.489 349.368 578.027 349.479 577.674 349.262L562.13 339.738L577.626 328.518C577.961 328.275 578.43 328.35 578.673 328.685Z" fill="#033348"/>
<path d="M583.44 328.312C583.44 331.005 581.378 333.187 578.834 333.187C576.291 333.187 574.229 331.005 574.229 328.312C574.229 325.62 576.291 323.438 578.834 323.438C581.378 323.438 583.44 325.62 583.44 328.312Z" fill="#FDA94D"/>
<path d="M568.089 339.687C568.089 342.379 566.027 344.561 563.483 344.561C560.939 344.561 558.877 342.379 558.877 339.687C558.877 336.995 560.939 334.812 563.483 334.812C566.027 334.812 568.089 336.995 568.089 339.687Z" fill="#FDA94D"/>
<path d="M583.44 347.809C583.44 350.501 581.378 352.684 578.834 352.684C576.291 352.684 574.229 350.501 574.229 347.809C574.229 345.117 576.291 342.935 578.834 342.935C581.378 342.935 583.44 345.117 583.44 347.809Z" fill="#FDA94D"/>
<path d="M629.79 474.506L625.876 474.506C625.323 474.506 624.876 474.059 624.876 473.506L624.876 460.735C624.876 460.183 624.428 459.735 623.876 459.735L615.64 459.735C615.088 459.735 614.64 460.183 614.64 460.735L614.64 473.506C614.64 474.059 614.193 474.506 613.64 474.506L609.044 474.506C608.237 474.506 607.762 475.413 608.222 476.076L618.595 491.045C618.993 491.619 619.841 491.619 620.239 491.045L630.612 476.076C631.071 475.413 630.597 474.506 629.79 474.506Z" fill="#033348"/>
<path fill-rule="evenodd" clip-rule="evenodd" d="M619.211 490.618C619.311 490.762 619.523 490.762 619.622 490.618L629.995 475.649C630.11 475.483 629.991 475.256 629.79 475.256L625.876 475.256C624.909 475.256 624.126 474.473 624.126 473.506L624.126 460.735C624.126 460.597 624.014 460.485 623.876 460.485L615.64 460.485C615.502 460.485 615.39 460.597 615.39 460.735L615.39 473.506C615.39 474.473 614.607 475.256 613.64 475.256L609.044 475.256C608.842 475.256 608.724 475.483 608.838 475.649L619.211 490.618ZM620.855 491.473C620.159 492.477 618.674 492.477 617.978 491.473L607.606 476.503C606.801 475.342 607.632 473.756 609.044 473.756L613.64 473.756C613.778 473.756 613.89 473.644 613.89 473.506L613.89 460.735C613.89 459.769 614.674 458.985 615.64 458.985L623.876 458.985C624.842 458.985 625.626 459.769 625.626 460.735L625.626 473.506C625.626 473.644 625.738 473.756 625.876 473.756L629.79 473.756C631.202 473.756 632.032 475.342 631.228 476.503L620.855 491.473Z" fill="#033348"/>
<path d="M625.555 457.111C625.555 457.664 625.107 458.111 624.555 458.111L614.272 458.111C613.72 458.111 613.272 457.664 613.272 457.111L613.272 454.237C613.272 453.685 613.72 453.237 614.272 453.237L624.555 453.237C625.107 453.237 625.555 453.685 625.555 454.237L625.555 457.111Z" fill="#FDA94D"/>
<defs>
<filter id="filter0_d_48_226" x="397.205" y="327.536" width="69.5128" height="55.2006" filterUnits="userSpaceOnUse" color-interpolation-filters="sRGB">
<feFlood flood-opacity="0" result="BackgroundImageFix"/>
<feColorMatrix in="SourceAlpha" type="matrix" values="0 0 0 0 0 0 0 0 0 0 0 0 0 0 0 0 0 0 127 0" result="hardAlpha"/>
<feOffset dy="4"/>
<feGaussianBlur stdDeviation="2"/>
<feComposite in2="hardAlpha" operator="out"/>
<feColorMatrix type="matrix" values="0 0 0 0 0.992157 0 0 0 0 0.662745 0 0 0 0 0.301961 0 0 0 0.5 0"/>
<feBlend mode="normal" in2="BackgroundImageFix" result="effect1_dropShadow_48_226"/>
<feBlend mode="normal" in="SourceGraphic" in2="effect1_dropShadow_48_226" result="shape"/>
</filter>
<filter id="filter1_d_48_226" x="393.109" y="227.302" width="64.7709" height="67.9935" filterUnits="userSpaceOnUse" color-interpolation-filters="sRGB">
<feFlood flood-opacity="0" result="BackgroundImageFix"/>
<feColorMatrix in="SourceAlpha" type="matrix" values="0 0 0 0 0 0 0 0 0 0 0 0 0 0 0 0 0 0 127 0" result="hardAlpha"/>
<feOffset dy="4"/>
<feGaussianBlur stdDeviation="2"/>
<feComposite in2="hardAlpha" operator="out"/>
<feColorMatrix type="matrix" values="0 0 0 0 0.992157 0 0 0 0 0.662745 0 0 0 0 0.301961 0 0 0 0.5 0"/>
<feBlend mode="normal" in2="BackgroundImageFix" result="effect1_dropShadow_48_226"/>
<feBlend mode="normal" in="SourceGraphic" in2="effect1_dropShadow_48_226" result="shape"/>
</filter>
<filter id="filter2_d_48_226" x="303.809" y="506.744" width="64.7709" height="67.9935" filterUnits="userSpaceOnUse" color-interpolation-filters="sRGB">
<feFlood flood-opacity="0" result="BackgroundImageFix"/>
<feColorMatrix in="SourceAlpha" type="matrix" values="0 0 0 0 0 0 0 0 0 0 0 0 0 0 0 0 0 0 127 0" result="hardAlpha"/>
<feOffset dy="4"/>
<feGaussianBlur stdDeviation="2"/>
<feComposite in2="hardAlpha" operator="out"/>
<feColorMatrix type="matrix" values="0 0 0 0 0.992157 0 0 0 0 0.662745 0 0 0 0 0.301961 0 0 0 0.5 0"/>
<feBlend mode="normal" in2="BackgroundImageFix" result="effect1_dropShadow_48_226"/>
<feBlend mode="normal" in="SourceGraphic" in2="effect1_dropShadow_48_226" result="shape"/>
</filter>
<filter id="filter3_d_48_226" x="540.506" y="308.543" width="64.7709" height="67.9935" filterUnits="userSpaceOnUse" color-interpolation-filters="sRGB">
<feFlood flood-opacity="0" result="BackgroundImageFix"/>
<feColorMatrix in="SourceAlpha" type="matrix" values="0 0 0 0 0 0 0 0 0 0 0 0 0 0 0 0 0 0 127 0" result="hardAlpha"/>
<feOffset dy="4"/>
<feGaussianBlur stdDeviation="2"/>
<feComposite in2="hardAlpha" operator="out"/>
<feColorMatrix type="matrix" values="0 0 0 0 0.992157 0 0 0 0 0.662745 0 0 0 0 0.301961 0 0 0 0.5 0"/>
<feBlend mode="normal" in2="BackgroundImageFix" result="effect1_dropShadow_48_226"/>
<feBlend mode="normal" in="SourceGraphic" in2="effect1_dropShadow_48_226" result="shape"/>
</filter>
<filter id="filter4_d_48_226" x="586.566" y="441.778" width="64.7709" height="67.9935" filterUnits="userSpaceOnUse" color-interpolation-filters="sRGB">
<feFlood flood-opacity="0" result="BackgroundImageFix"/>
<feColorMatrix in="SourceAlpha" type="matrix" values="0 0 0 0 0 0 0 0 0 0 0 0 0 0 0 0 0 0 127 0" result="hardAlpha"/>
<feOffset dy="4"/>
<feGaussianBlur stdDeviation="2"/>
<feComposite in2="hardAlpha" operator="out"/>
<feColorMatrix type="matrix" values="0 0 0 0 0.992157 0 0 0 0 0.662745 0 0 0 0 0.301961 0 0 0 0.5 0"/>
<feBlend mode="normal" in2="BackgroundImageFix" result="effect1_dropShadow_48_226"/>
<feBlend mode="normal" in="SourceGraphic" in2="effect1_dropShadow_48_226" result="shape"/>
</filter>
<filter id="filter5_d_48_226" x="445.059" y="394.659" width="142.619" height="80.9921" filterUnits="userSpaceOnUse" color-interpolation-filters="sRGB">
<feFlood flood-opacity="0" result="BackgroundImageFix"/>
<feColorMatrix in="SourceAlpha" type="matrix" values="0 0 0 0 0 0 0 0 0 0 0 0 0 0 0 0 0 0 127 0" result="hardAlpha"/>
<feOffset dy="4"/>
<feGaussianBlur stdDeviation="2"/>
<feComposite in2="hardAlpha" operator="out"/>
<feColorMatrix type="matrix" values="0 0 0 0 0.992157 0 0 0 0 0.662745 0 0 0 0 0.301961 0 0 0 0.5 0"/>
<feBlend mode="normal" in2="BackgroundImageFix" result="effect1_dropShadow_48_226"/>
<feBlend mode="normal" in="SourceGraphic" in2="effect1_dropShadow_48_226" result="shape"/>
</filter>
<filter id="filter6_d_48_226" x="503.428" y="507.792" width="178.051" height="68.0096" filterUnits="userSpaceOnUse" color-interpolation-filters="sRGB">
<feFlood flood-opacity="0" result="BackgroundImageFix"/>
<feColorMatrix in="SourceAlpha" type="matrix" values="0 0 0 0 0 0 0 0 0 0 0 0 0 0 0 0 0 0 127 0" result="hardAlpha"/>
<feOffset dy="4"/>
<feGaussianBlur stdDeviation="2"/>
<feComposite in2="hardAlpha" operator="out"/>
<feColorMatrix type="matrix" values="0 0 0 0 0.992157 0 0 0 0 0.662745 0 0 0 0 0.301961 0 0 0 0.5 0"/>
<feBlend mode="normal" in2="BackgroundImageFix" result="effect1_dropShadow_48_226"/>
<feBlend mode="normal" in="SourceGraphic" in2="effect1_dropShadow_48_226" result="shape"/>
</filter>
</defs>
</svg>
