<svg width="915" height="736" viewBox="0 0 915 736" fill="none" xmlns="http://www.w3.org/2000/svg">
<path opacity="0.1" d="M42.4034 480.134C-46.9792 533.044 26.6468 669.585 74.6327 731.242L813.221 731.242C845.45 658.114 878.216 544.658 786.363 506.481C712.88 475.939 717.07 390.157 728.35 351.084L764.34 287.634C777.849 259.242 773.041 201.602 745.539 192.998C711.161 182.244 697.732 182.782 677.32 163.962C662.461 150.262 660.244 117.648 646.165 91.3719C531.214 -123.173 413.04 102.126 367.919 149.444C331.822 187.299 271.349 131.818 231.482 129.012C25.2144 114.493 74.6327 320.973 74.6327 405.392C74.6327 472.928 55.349 467.742 42.4034 480.134Z" fill="#022737" fill-opacity="0.56"/>
<path opacity="0.1" d="M110.188 480.134C20.805 533.044 94.431 669.585 142.417 731.242L881.005 731.242C913.234 658.114 946.001 544.658 854.147 506.481C780.664 475.939 784.854 390.157 796.134 351.084L832.124 287.634C845.633 259.242 840.826 201.602 813.323 192.998C778.945 182.244 765.517 182.782 745.105 163.962C730.246 150.262 727.2 116.102 713.95 91.3719C598.999 -123.173 480.824 102.126 435.703 149.444C399.607 187.299 339.133 131.818 299.266 129.012C92.9986 114.493 142.417 320.973 142.417 405.392C142.417 472.928 123.133 467.742 110.188 480.134Z" fill="#022737" fill-opacity="0.56"/>
<path d="M557.072 403.651C551.69 397.047 557.275 387.65 560.741 383.776C562.27 382.655 566.075 378.806 569.685 377.554C574.418 375.911 583.917 377.118 596.417 382.214C609.26 387.449 611.199 391.804 613.34 401.589C615.48 411.374 605.689 423.526 609.97 429.947C614.251 436.368 622.201 434.84 629.234 446.765C636.212 458.598 624.222 471.335 619.257 476.609L619.143 476.73C614.251 481.928 592.947 490.073 590.806 486.098C588.666 482.123 591.318 473.367 591.93 466.334C592.541 459.301 587.721 459.48 579.771 455.811C571.821 452.141 568.997 448.293 568.385 443.401C567.774 438.509 571.749 426.278 571.137 423.526C570.526 420.774 563.799 411.907 557.072 403.651Z" fill="#12B9B4"/>
<path d="M563.96 396.232C557.29 389.627 557.997 385.511 562.291 381.638C564.186 380.517 569.284 377.067 574.795 377.067C580.47 377.067 575.302 374.291 590.794 379.387C606.711 384.622 606.78 386.866 611.902 395.083C617.48 404.031 608.81 416.595 608.81 424.93C608.81 432.647 611.847 430.88 623.196 439.45C635.723 448.91 631.948 465.04 625.885 470.238C619.821 475.436 607.031 488.728 604.378 484.753C601.726 480.778 610.134 475.451 610.892 468.418C611.65 461.385 601.946 452.06 592.093 448.391C582.24 444.722 578.739 440.874 577.981 435.982C577.223 431.089 583.041 423.807 581.392 416.107C579.23 406.011 572.297 404.487 563.96 396.232Z" fill="white" fill-opacity="0.29"/>
<path d="M117.359 571.353C112.836 536.817 138.425 511.326 151.445 506.186C162.742 518.367 178.169 522.283 178.169 581.221C178.169 596.439 154.796 626.311 142.193 635.699C136.026 626.448 121.881 605.89 117.359 571.353Z" fill="#054A68"/>
<path d="M664.581 656.944C660.728 646.967 661.069 626.059 664.581 623.582C668.835 626.398 680.393 633.422 684.665 651.009C685.768 655.55 687.745 676.738 684.665 680.453C682.154 678.14 674.485 682.592 664.581 656.944Z" fill="#054A68"/>
<path d="M706.949 648.758C712.198 639.439 733.986 633.463 738 635C738.032 640.101 741.5 658.5 727.417 671.886C724.03 675.105 704.995 682.813 700.195 682.324C700.717 678.951 696.92 666.565 706.949 648.758Z" fill="#054A68"/>
<path d="M732.534 688.67C752.388 686.418 763.955 692.769 765.283 696.857C761.335 700.088 757.723 718.323 729.055 713.437C711.043 710.367 704.47 702.331 701.832 698.29C704.785 696.576 712.227 690.972 732.534 688.67Z" fill="#054A68"/>
<path d="M170.591 633.684C177.673 613.724 200.614 600.368 210.353 600.987C213.869 612.025 219.358 634.405 206.739 658.412C201.627 668.136 180.955 677.868 170.218 680.054C169.071 672.387 162.472 656.572 170.591 633.684Z" fill="#054A68"/>
<path d="M546.972 721.375H551.241" stroke="#123E60" stroke-width="3"/>
<path d="M33.349 732.032H200.351" stroke="#022737" stroke-width="7" stroke-linecap="round"/>
<path d="M255.349 732.032H886.633" stroke="#022737" stroke-width="7" stroke-linecap="round"/>
<ellipse cx="390.909" cy="279.559" rx="64.5599" ry="67.3167" fill="white"/>
<ellipse cx="391.176" cy="255.929" rx="23.7431" ry="23.9043" fill="#054A68"/>
<path d="M338.888 318.301C357.464 297.08 394.911 274.614 442.13 319.124C430.926 343.304 373.035 365.01 338.888 318.301Z" fill="#054A68" stroke="#054A68" stroke-width="3"/>
<rect x="278.349" y="447.438" width="225.693" height="40" rx="5" fill="white"/>
<circle cx="301.349" cy="468.242" r="5" fill="#054A68"/>
<circle cx="323.349" cy="468.242" r="5" fill="#054A68"/>
<circle cx="345.349" cy="468.242" r="5" fill="#054A68"/>
<circle cx="367.349" cy="468.242" r="5" fill="#054A68"/>
<circle cx="389.349" cy="468.242" r="5" fill="#054A68"/>
<path d="M278.349 392.242C278.349 389.481 280.588 387.242 283.349 387.242H499.042C501.803 387.242 504.042 389.481 504.042 392.242V422.242C504.042 425.004 501.803 427.242 499.042 427.242H283.349C280.588 427.242 278.349 425.004 278.349 422.242V392.242Z" fill="white"/>
<rect x="308.034" y="401.503" width="165.013" height="11.8261" rx="4" fill="#054A68"/>
<path d="M123.865 727.42C134.892 677.23 156.092 568.882 152.677 537.01" stroke="#033348" stroke-width="3" stroke-linecap="round"/>
<path d="M141.739 637.023C121.286 607.623 93.2393 538.273 152.143 504.862C174.642 525.744 202.991 583.169 141.739 637.023Z" stroke="#033348" stroke-width="3"/>
<path d="M135.336 565.31L148.408 591.961" stroke="#033348" stroke-width="3" stroke-linecap="round"/>
<path d="M163.61 550.158C164.195 549.572 164.193 548.622 163.607 548.037C163.02 547.452 162.07 547.454 161.485 548.041L163.61 550.158ZM153.206 560.599L163.61 550.158L161.485 548.041L151.081 558.482L153.206 560.599Z" fill="#033348"/>
<path d="M124.398 727.694C142.751 714.693 183.704 675.389 200.696 622.186" stroke="#033348" stroke-width="3" stroke-linecap="round"/>
<path d="M170.817 679.886C163.525 658.638 160.84 612.02 211.634 599.931C218.214 623.011 219.904 672.193 170.817 679.886Z" stroke="#033348" stroke-width="3"/>
<path d="M190.292 624.659L194.294 639.496" stroke="#033348" stroke-width="3" stroke-linecap="round"/>
<path d="M198.842 654.356C199.614 654.054 199.994 653.184 199.693 652.412C199.391 651.641 198.52 651.26 197.749 651.562L198.842 654.356ZM185.504 659.576L198.842 654.356L197.749 651.562L184.41 656.783L185.504 659.576Z" fill="#033348"/>
<path d="M672.349 728.031C684.977 704.676 714.777 655.425 726.089 650.369" stroke="#033348" stroke-width="3" stroke-linecap="round"/>
<path d="M699.944 683.341C698.255 666.306 703.573 632.73 738.36 634.708C741.917 648.629 739.214 677.846 699.944 683.341Z" stroke="#033348" stroke-width="3"/>
<path d="M691.792 695.026C691.792 691.311 690.026 688.341 688.77 684.978C688.259 683.609 687.091 682.126 686.386 680.834C684.987 678.273 683.625 675.752 682.454 673.073C680.324 668.197 679.08 663.001 677.539 657.925C676.991 656.117 675.808 653.791 675.737 651.907C675.714 651.274 675.175 649.012 674.754 648.795" stroke="#033348" stroke-width="3" stroke-linecap="round"/>
<path d="M687.532 682.877C686.99 682.815 686.133 682.067 685.567 681.79C684.432 681.237 683.104 680.565 681.89 680.253C678.818 679.462 676.228 677.48 673.771 675.528C671.753 673.925 670.329 671.671 669.184 669.379C668.074 667.157 667.05 664.791 666.235 662.443C665.843 661.312 665.485 659.665 664.925 658.656C664.277 657.487 664.01 655.527 663.942 654.194C663.897 653.312 663.287 652.643 663.287 651.757C663.287 650.445 662.98 649.061 662.704 647.782C662.347 646.129 662.668 644.335 662.377 642.646C662.073 640.886 662.304 638.914 662.304 637.134C662.304 633.474 662.116 629.157 663.141 625.66C663.414 624.728 662.992 623.9 663.942 623.411C664.435 623.157 665.478 623.022 665.835 622.736C665.944 622.648 672.999 628.598 673.771 629.372C679.144 634.756 681.365 640.715 683.928 647.857C685.189 651.371 685.608 655.411 686.149 659.106C686.586 662.085 686.877 664.934 686.877 667.955C686.877 672.141 686.55 676.395 686.55 680.515" stroke="#033348" stroke-width="3" stroke-linecap="round"/>
<path d="M692.649 695.602C695.758 698.484 700.178 698.737 704.081 699.393C709.734 700.343 715.51 700.626 721.218 701.057C726.841 701.482 732.907 701.983 738.473 700.837C739.363 700.653 740.571 699.934 741.462 699.934C741.788 699.934 743.254 699.617 742.602 699.393" stroke="#033348" stroke-width="3" stroke-linecap="round"/>
<path d="M701.703 698.569C702.39 696.33 706.083 694.974 708.271 694.203C711.131 693.196 713.719 691.176 716.749 690.616C719.155 690.172 721.539 689.568 723.961 689.127C726.483 688.668 728.979 688.401 731.523 688.061C736.344 687.417 741.215 687.604 746.083 687.604C749.14 687.604 752.269 687.895 755.029 689.059C756.714 689.77 757.916 690.812 759.375 691.868C760.665 692.802 762.04 693.751 763.273 694.762C763.945 695.313 764.952 696.404 765.729 696.742" stroke="#033348" stroke-width="3" stroke-linecap="round"/>
<path d="M700.636 698.229C700.636 699.035 701.454 699.639 701.919 700.264C702.825 701.482 704.128 702.177 705.252 703.172C708.03 705.633 711.389 707.747 714.771 709.351C718.578 711.157 723.104 711.303 727.201 712.059C729.535 712.49 731.974 712.516 734.345 712.631C737.402 712.78 740.552 712.984 743.615 712.75C745.635 712.595 747.503 712.27 749.418 711.641C750.973 711.13 752.713 710.632 754.034 709.678C755.303 708.762 756.605 707.955 757.865 707.025C759.161 706.068 764.957 698.047 765.996 696.92" stroke="#033348" stroke-width="3" stroke-linecap="round"/>
<path d="M604.329 712.583H613.133" stroke="#123E60" stroke-width="3"/>
<path d="M605.93 716.98V720.827M605.93 720.827H612.332M605.93 720.827C600.807 723.904 602.728 726.872 604.329 727.971C607.352 728.612 613.666 729.399 614.733 727.421C615.8 725.443 613.577 722.201 612.332 720.827M612.332 720.827L611.532 716.431" stroke="#123E60" stroke-width="3"/>
<path d="M545.105 712.309H553.375" stroke="#123E60" stroke-width="3"/>
<path d="M547.247 717.379C547.247 717.379 547.045 717.715 547.247 720.397C547.45 723.08 533.319 721.703 532.833 723.849C532.347 725.995 534.959 726.88 535.297 727.103C535.297 727.103 552.841 727.699 554.175 727.699C555.509 727.699 555.509 721.929 553.641 721.929C551.774 721.929 550.974 722.107 550.974 721.101C550.974 720.095 551.24 717.376 551.24 717.376" stroke="#123E60" stroke-width="3"/>
<path d="M615.267 479.31L638.477 529.317C638.477 529.317 644.079 531.79 645.146 529.317C646.213 526.844 627.272 468.045 627.272 468.045" stroke="#033348" stroke-width="3"/>
<path d="M546.349 510.377C564.702 513.798 602.182 513.707 603.076 505.495C603.971 497.283 602.41 487.543 602.037 485.726" stroke="#033348" stroke-width="3"/>
<path d="M546.849 509.929C541.87 522.934 534.327 547.176 540.303 588.94C540.303 588.94 544.571 712.858 545.105 715.88C545.638 718.903 553.642 718.078 553.642 715.88C553.642 713.682 573.65 546.077 579.519 544.978C585.388 543.879 602.195 714.232 604.863 715.88C607.53 717.529 612.866 715.88 612.866 715.88L619.802 557.617C621.314 542.78 620.276 521.566 602.349 506.839" stroke="#033348" stroke-width="3"/>
<path d="M613.399 402.102C613.826 385.397 587.522 375.572 573.116 377.099C554.975 379.022 550.707 399.08 561.645 408.696C572.583 418.313 573.116 428.205 569.114 436.447C565.113 444.69 567.514 451.834 580.052 455.956C592.591 460.077 593.391 458.428 589.389 478.486C585.388 498.544 618.735 478.486 625.137 471.067C631.54 463.649 636.609 444.69 618.735 436.447C600.861 428.205 612.866 422.984 613.399 402.102Z" fill="#054A68" stroke="#033348" stroke-width="3"/>
<path d="M481.849 435.773C481.849 435.773 476.808 442.197 474.467 443.137C472.126 444.078 505.322 471.103 512.7 474.155C520.078 477.207 573.349 453.282 573.349 453.282" stroke="#033348" stroke-width="3"/>
<path d="M475.954 442.243C470.322 441.833 454.861 434.772 458.514 427.803C462.167 420.833 467.19 429.032 465.82 426.981C464.451 424.929 455.774 420.417 457.6 419.595C462.235 417.509 468.56 425.394 469.474 424.929C470.844 424.232 470.85 420.665 473.127 420.826C475.817 421.016 473.228 424.669 474.04 426.981C475.173 430.204 481.849 437.743 481.849 437.743" stroke="#033348" stroke-width="3"/>
<path d="M638.688 530.614C638.688 531.773 638.83 532.907 638.83 534.066C638.83 535.047 638.562 536.084 638.233 536.974C637.693 538.437 636.516 539.45 635.972 540.921C635.667 541.748 635.187 542.904 635.403 543.83C635.463 544.088 635.462 544.505 635.756 544.583C636.125 544.68 636.407 544.756 636.796 544.756C637.252 544.756 637.838 544.879 638.257 544.63C638.448 544.516 638.561 544.178 638.72 543.998C639.128 543.536 639.274 542.88 639.677 542.399C639.897 542.137 640.204 542.014 640.415 541.763C640.593 541.551 640.696 541.237 640.949 541.136" stroke="#033348" stroke-width="3" stroke-linecap="round"/>
<path d="M640.949 541.135C640.949 543.149 641.318 545.356 641.318 547.373C641.318 548.882 642.14 550.133 642.753 551.397C643.454 552.839 645.97 552.001 647.039 552.001C648.582 552.001 649.864 549.765 650.217 548.379C651.147 544.73 652.47 539.611 649.623 536.507C647.887 534.613 646.885 532.382 646.116 529.866" stroke="#033348" stroke-width="3" stroke-linecap="round"/>
<path d="M543.567 465.743C543.567 467.987 542.544 489.063 542.943 491.257C543.266 493.032 542.518 495.42 543.415 497.034C543.803 497.733 543.538 498.895 543.567 499.679C543.622 501.178 544.173 502.636 544.173 504.159C544.173 505.082 544.734 505.821 544.779 506.585C544.843 507.664 546.084 509.685 546.349 510.743" stroke="#123E60" stroke-width="3" stroke-linecap="round"/>
<path d="M480.849 436.743C480.849 436.743 511.5 457 517.5 458.5C523.5 460 559.849 429.743 567.849 440.243" stroke="#033348" stroke-width="3"/>
<path d="M558.391 407.243C555.057 410.576 552.808 418.843 560.808 437.243" stroke="#033348" stroke-width="3"/>
<path d="M541.349 446.743L552.349 462.243" stroke="#033348" stroke-width="3"/>
</svg>
