<svg width="51" height="45" viewBox="0 0 51 45" fill="none" xmlns="http://www.w3.org/2000/svg">
<path d="M48.5822 5.64792C48.3519 5.35335 48.1171 5.06995 47.8733 4.7977C45.2391 1.61774 41.1401 -0.200981 37.0545 0.0177115C36.1891 0.0556479 35.3259 0.185078 34.4807 0.401539C34.8317 0.658167 35.1538 0.968353 35.4288 1.32763C35.9677 2.03057 36.2808 2.83839 36.377 3.66184C36.5514 3.63729 36.7303 3.61721 36.9092 3.59935C37.3475 3.55695 37.7813 3.54357 38.2039 3.55919C43.9778 3.80912 48.2781 9.19163 46.905 15.0628C46.7619 15.6743 46.5517 16.3058 46.2744 16.9217C45.9122 17.6559 45.1809 18.8766 43.8191 19.9187C42.3611 21.0367 40.8427 21.4362 39.8095 21.5857C39.7402 21.5812 39.6687 21.5812 39.5882 21.5901C38.7295 21.695 37.8685 21.7597 37.0098 21.7887C36.9785 21.7887 36.9472 21.791 36.9159 21.791C34.3219 21.8735 31.7368 21.6392 29.1607 21.271C28.5256 21.1795 27.8905 21.0769 27.2554 20.9698C27.3248 20.2066 27.4075 19.4478 27.5014 18.6913C27.5327 18.5976 27.5529 18.4927 27.573 18.3856C27.933 16.3951 28.2483 14.3934 28.7023 12.4251C28.7716 12.1261 28.8521 11.8271 28.9371 11.5325C28.946 11.4991 28.9572 11.4656 28.9662 11.4299C28.993 11.3406 29.0198 11.2514 29.0467 11.1621C29.0847 11.0416 29.1227 10.9233 29.1585 10.8028C29.391 10.082 29.6571 9.36792 29.921 8.66052C29.1048 8.35479 28.3691 7.82592 27.8212 7.0895C27.5685 6.75254 27.3695 6.39103 27.2197 6.01836C27.1615 6.12994 27.1079 6.24151 27.052 6.35532C27.0296 6.38656 27.0072 6.42227 26.9849 6.46021C26.7724 6.85965 26.6002 7.28142 26.4303 7.70318C25.0058 11.2647 24.2969 14.9937 23.8788 18.7851C23.8206 19.305 23.7714 19.8294 23.7245 20.3516C23.199 20.2624 22.6757 20.1753 22.1502 20.0995C18.371 19.5371 14.5761 19.2693 10.7612 19.7357C10.3094 19.7915 9.85772 19.8518 9.41495 19.9544C9.33445 19.9745 9.29643 19.9923 9.1958 20.0147C7.67965 20.3226 6.23729 20.856 4.96936 21.8356C3.4152 23.0362 2.21211 24.5202 1.38248 26.1693C1.36682 26.1983 1.34894 26.2295 1.33105 26.263C-0.840316 30.5387 -0.29468 35.8632 2.52742 39.7416C2.72197 40.0317 2.9277 40.3196 3.14461 40.603C6.17244 44.1467 10.6024 45.7512 15.9805 44.6644C16.1661 44.6265 16.3114 44.5796 16.4232 44.5216C16.5462 44.4792 16.6737 44.4323 16.8056 44.3832C17.642 44.1177 18.4582 43.7606 19.2431 43.3143C19.7194 43.0443 20.1734 42.7319 20.6363 42.4395C22.5997 40.96 23.6574 38.8824 24.4937 36.6687C25.2988 34.5398 25.8176 32.3418 26.2111 30.1169C26.5533 28.2759 26.7903 26.4148 26.9625 24.5425C27.8637 24.6942 28.7649 24.8281 29.6683 24.9442C29.7287 24.962 29.7935 24.9776 29.8673 24.9843C33.0159 25.3503 36.1712 25.598 39.3377 25.2677C41.6969 25.0245 43.9801 24.5336 45.9122 23.0161C46.3147 22.6434 46.7329 22.2864 47.1152 21.8959C47.851 21.1461 48.4793 20.3248 48.9981 19.4501C49.0786 19.3586 49.1591 19.2358 49.2396 19.0729C49.3336 18.881 49.4253 18.6891 49.5102 18.4994C50.0268 17.4328 50.3891 16.3058 50.5926 15.1499C51.2679 11.6887 50.5188 8.44182 48.5755 5.65238L48.5822 5.64792ZM23.237 25.8457C23.1721 26.4036 23.1006 26.9593 23.0201 27.5149C22.9575 27.9054 22.8993 28.296 22.8412 28.6865C22.6735 29.7041 22.4744 30.7172 22.2329 31.7169C21.9377 32.8416 21.6023 33.9596 21.2356 35.0643C21.1238 35.3744 21.0097 35.6802 20.8867 35.9859C20.8554 36.0595 20.8375 36.1309 20.8241 36.1979C20.4171 37.1552 19.6411 38.5165 18.1876 39.6412C17.1344 40.4557 16.0722 40.8752 15.2716 41.0984C14.3928 41.3059 13.5072 41.3818 12.6798 41.3572C7.38671 41.2077 3.56949 36.9499 3.53371 32.1097C3.53371 31.0318 3.72379 29.9228 4.13302 28.8114C5.27349 25.7274 7.39118 23.7034 10.8126 23.3642C12.1297 23.2326 13.458 23.1054 14.7774 23.1455C16.8012 23.2102 18.8003 23.3821 20.8196 23.5427C20.9605 23.5539 21.079 23.5584 21.2378 23.5762C21.969 23.6744 22.698 23.786 23.4293 23.9087C23.3711 24.5536 23.3085 25.1986 23.2347 25.8412L23.237 25.8457Z" fill="#033348"/>
<path d="M30.7141 6.99325C31.6175 7.28112 32.6484 7.14499 33.449 6.53801C34.2674 5.91764 34.6766 4.95138 34.623 3.99627C34.5939 3.41607 34.3949 2.83586 34.0147 2.34269C33.5317 1.71339 32.8385 1.32956 32.1028 1.21575C31.3134 1.09079 30.477 1.27378 29.8062 1.79596C29.1711 2.29136 28.7864 2.99653 28.6813 3.7441C28.5762 4.50283 28.7551 5.30173 29.2449 5.96004C29.6228 6.4666 30.1416 6.81695 30.7141 6.99548V6.99325Z" fill="#033348"/>
</svg>
