<svg width="203" height="187" viewBox="0 0 203 187" fill="none" xmlns="http://www.w3.org/2000/svg">
<path d="M161.697 96.9289L183.374 102.312L170.558 111.148L174.837 132.722L156.799 128.212L159.663 119.406L154.949 117.889L161.697 96.9289Z" fill="#225676"/>
<path d="M30.0309 113.616L35.344 81.6248L18.841 82.0952L23.1516 98.4389L13.3198 111.771L30.0309 113.616Z" fill="#225676"/>
<path d="M83.5922 37.4383C97.3439 33.9537 108.782 26.6371 115.205 22.5114C116.093 21.9409 117.262 22.1614 117.878 23.0186C124.908 32.8066 135.289 48.3082 146.07 57.4797C156.048 65.968 162.655 70.037 168.599 72.3237C169.818 72.7929 170.368 74.2547 169.719 75.3885C166.458 81.0806 160.25 93.0737 154.864 106.329C147.231 125.118 135.408 141.131 115.723 153.329C102.004 161.831 93.3324 162.233 81.3142 164.259C80.7373 164.356 80.1458 164.199 79.6896 163.833C71.6883 157.41 58.2859 149.697 49.1846 129.655C42.7978 115.591 38.721 79.4137 46.3162 43.8337C46.5165 42.8954 47.3573 42.2407 48.3167 42.2391C55.6207 42.2267 69.7595 40.9434 83.5922 37.4383Z" stroke="#033348" stroke-width="3"/>
<path d="M87.8356 57.0273C96.994 54.7066 104.667 49.9251 109.181 47.0315C110.069 46.4619 111.241 46.6818 111.854 47.5403C116.701 54.3181 123.712 64.6804 130.987 70.8693C137.468 76.3822 141.889 79.1961 145.807 80.8255C147.014 81.3272 147.565 82.7956 146.926 83.9352C144.593 88.0952 140.574 95.963 137.061 104.608C131.789 117.585 123.623 128.645 110.027 137.07C100.659 142.875 94.6988 143.213 86.5431 144.572C85.9659 144.668 85.3771 144.511 84.9187 144.148C79.3693 139.746 70.274 134.378 64.0712 120.719C59.69 111.071 56.8825 86.3569 61.9844 61.9446C62.1807 61.0055 63.024 60.3513 63.9834 60.3393C69.157 60.2746 78.5952 59.3687 87.8356 57.0273Z" stroke="#033348" stroke-width="3"/>
<path d="M108.967 128.737C108.785 128.458 108.822 128.092 108.818 127.771C108.8 126.325 109.038 124.88 109.156 123.441C109.283 121.87 109.355 120.29 109.433 118.715C109.447 118.434 109.267 116.491 109.582 116.286C109.739 116.184 110.126 117.406 110.139 117.436C110.943 119.415 111.974 121.389 113.08 123.214C113.69 124.22 114.432 125.144 115.015 126.166C115.431 126.895 114.503 125.955 114.273 125.803C111.36 123.884 108.103 123.207 104.729 122.614C103.68 122.43 105.149 122.205 105.399 122.155C107.183 121.796 108.955 121.409 110.715 120.943C110.95 120.88 117.024 119.108 117.031 119.24C117.075 120.052 115.389 121.581 114.964 122.105C113.538 123.868 112.099 125.562 110.433 127.089" stroke="#FD9320" stroke-opacity="0.8" stroke-width="3" stroke-linecap="round"/>
<path d="M30.9386 100.438L37.5854 72.3821C51.1912 81.9465 87.9654 86.864 99.6872 87.335C111.409 87.8061 148.733 90.8511 164.783 92.4059L157.936 121.713C137.945 122.495 97.2472 117.604 87.1205 116.202C76.9937 114.8 45.4464 105.108 30.9386 100.438Z" fill="#033348"/>
<path d="M92.3318 130.514C91.2465 130.284 90.8668 126.53 90.9684 126.54C91.2205 126.565 91.4697 126.912 91.6414 127.06C92.3031 127.63 93.0129 128.136 93.7417 128.616C94.0412 128.814 96.3728 130.348 94.8379 130.074C93.2797 129.795 91.6788 129.493 90.0933 129.713C89.0475 129.859 91.7838 128.148 92.001 128.001C93.0324 127.3 94.0815 126.615 95.1526 125.976C95.6405 125.685 96.7574 124.984 95.998 126.033C94.7637 127.738 93.3622 129.28 92.4294 131.175" stroke="#FD9320" stroke-opacity="0.8" stroke-width="3" stroke-linecap="round"/>
<path d="M37.4124 71.154C38.1352 72.7099 40.1876 74.124 41.876 75.1798C49.651 80.0415 59.5055 80.3418 68.369 81.9171C81.7795 84.3006 95.4363 85.5785 108.937 87.2729C121.254 88.8189 133.6 90.0728 145.955 91.2174C150.556 91.6437 155.141 92.0025 159.747 92.1189C161.533 92.1641 163.576 92.5178 165.327 92.0117C166.76 91.5973 166.12 90.453 164.96 90.0795" stroke="#033348" stroke-width="3" stroke-linecap="round"/>
<path d="M165.498 92.2689C164.326 97.3636 159.875 114.792 158.271 119.774" stroke="#033348" stroke-width="3" stroke-linecap="round"/>
<path d="M37.062 71.1539C35.911 74.7294 36.2072 79.1321 35.8154 82.8021C35.3433 87.2251 34.9024 91.7046 33.954 96.046C33.723 97.1032 33.5088 97.6231 32.8552 98.3597" stroke="#033348" stroke-width="3" stroke-linecap="round"/>
<path d="M31.1067 100.602C31.6697 101.541 32.3321 101.907 33.3981 102.347C41.4004 105.652 49.8535 108.126 58.2413 110.233C69.3762 113.03 80.9049 114.877 92.2379 116.631C105.392 118.666 118.885 121.499 132.208 121.772C139.101 121.913 146.25 122.233 153.108 121.535C154.144 121.43 155.277 121.103 156.301 120.906C156.696 120.831 158.909 120.38 158.555 120.266" stroke="#033348" stroke-width="3" stroke-linecap="round"/>
<path d="M166.315 96.1596C165.836 98.7401 184.018 100.9 187.051 101.222" stroke="#033348" stroke-width="3" stroke-linecap="round"/>
<path d="M157.846 128.905C158.352 129.738 159.553 129.866 160.431 130.096C164.888 131.262 169.389 132.336 173.96 132.884" stroke="#033348" stroke-width="3" stroke-linecap="round"/>
<path d="M187.426 101.343C186.939 102.38 183.212 103.952 182.646 104.328C179.159 106.648 175.103 108.96 172.176 111.976C171.649 112.519 171.672 113.08 171.885 113.74C171.885 116.796 172.859 119.949 173.861 123.842C174.693 127.077 176.395 132.01 176.395 132.01" stroke="#033348" stroke-width="3" stroke-linecap="round"/>
<path d="M33.9612 80.1568C29.5721 82.0216 23.7744 81.5361 19.0625 81.4071" stroke="#033348" stroke-width="3" stroke-linecap="round"/>
<path d="M14.4055 110.591C19.6048 112.544 25.9637 113.238 31.2377 114.35" stroke="#033348" stroke-width="3" stroke-linecap="round"/>
<path d="M18.827 82.1379C18.1246 82.0025 18.2918 83.7422 18.3536 84.1801C19.0503 89.1128 22.5394 93.4055 23.5176 98.1593C23.5938 98.5295 22.0509 100.436 21.8656 100.718C19.7446 103.941 17.3563 106.936 14.8648 109.885" stroke="#033348" stroke-width="3" stroke-linecap="round"/>
<path d="M30.7318 100.482C29.9982 100.34 31.4487 111.941 31.5903 113.254" stroke="#033348" stroke-width="3" stroke-linecap="round"/>
<path d="M36.0326 103.545C34.166 106.507 33.3502 109.321 33.0186 112.907" stroke="#033348" stroke-width="3" stroke-linecap="round"/>
<path d="M157.85 122.457C157.28 122.783 157.202 123.185 157.005 123.798C156.402 125.671 156.442 126.57 156.837 128.178" stroke="#033348" stroke-width="3" stroke-linecap="round"/>
<path d="M62.5433 88.9799C62.2614 89.2079 62.1743 89.5388 62.0488 89.8706C61.4804 91.3742 60.9721 92.8985 60.4575 94.421C59.5861 96.9987 58.6611 99.5628 57.9564 102.193" stroke="white" stroke-width="3" stroke-linecap="round"/>
<path d="M63.3388 88.356C62.9674 90.105 63.424 93.501 64.6101 94.8943C65.7248 96.2037 70.3668 91.5933 71.1973 90.8803C71.8216 90.3442 72.6011 89.7499 72.9916 89.0006C73.3377 88.3365 72.6121 90.4494 72.4319 91.1762C71.7207 94.046 71.1572 96.9496 70.4746 99.8262C70.1734 101.096 69.982 102.915 69.2065 103.951" stroke="white" stroke-width="3" stroke-linecap="round"/>
<path d="M77.4615 94.233C77.0908 95.2134 76.5143 96.0252 76.2202 97.0864C75.4488 99.8698 75.1102 103.03 76.4349 105.702C76.6967 106.23 77.0621 106.899 77.553 107.257C78.8626 108.213 80.5211 105.783 81.0213 104.989C82.2685 103.01 82.9197 100.772 82.453 98.4309C82.0513 96.4162 80.8993 95.4866 79.5713 94.1704" stroke="white" stroke-width="3" stroke-linecap="round"/>
<path d="M89.5066 95.3674C90.5893 91.3268 87.6768 103.532 86.8483 107.632" stroke="white" stroke-width="3" stroke-linecap="round"/>
<path d="M90.3398 95.3815C91.473 95.6851 93.1145 109.733 94.6442 109C95.3462 108.664 95.6494 106.722 95.8175 106.14C96.309 104.439 96.6617 102.719 97.0457 100.992C97.4772 99.0517 97.7988 96.6578 98.8313 94.9358" stroke="white" stroke-width="3" stroke-linecap="round"/>
<path d="M106.147 97.3148C105.045 101.429 104.534 105.678 103.437 109.775" stroke="white" stroke-width="3" stroke-linecap="round"/>
<path d="M103.351 94.4724C103.327 95.8911 112.14 96.0424 113.181 96.0599" stroke="white" stroke-width="3" stroke-linecap="round"/>
<path d="M117.216 98.1876C116.151 102.16 115.677 106.275 114.61 110.257" stroke="white" stroke-width="3" stroke-linecap="round"/>
<path d="M115.932 104.541C118.271 104.114 120.841 104.583 123.185 104.81" stroke="white" stroke-width="3" stroke-linecap="round"/>
<path d="M124.274 98.4044C123.673 100.649 123.344 102.938 123.07 105.244C122.809 107.441 122.393 109.74 122.526 111.959" stroke="white" stroke-width="3" stroke-linecap="round"/>
<path d="M133.194 98.7017C132.749 100.365 132.573 102.159 132.279 103.852C131.938 105.823 131.668 107.802 131.433 109.788C131.359 110.414 131.128 111.232 131.235 111.874C131.454 113.196 136.323 112.696 137.371 112.798" stroke="white" stroke-width="3" stroke-linecap="round"/>
<path d="M140.11 98.6705C139.964 99.5603 140.953 100.614 141.369 101.264C142.176 102.525 143.361 103.858 143.774 105.304" stroke="white" stroke-width="3" stroke-linecap="round"/>
<path d="M145.487 99.6931C144.672 104.675 143.301 109.599 142.539 114.601" stroke="white" stroke-width="3" stroke-linecap="round"/>
<path d="M64.2048 53.5469C66.5942 54.1872 69.5756 53.5158 71.9781 53.3163C76.769 52.9185 81.0995 51.9952 85.6432 50.4582" stroke="#033348" stroke-width="3" stroke-linecap="round"/>
<path d="M91.1554 47.939C92.0969 48.0693 93.9022 47.0808 94.8208 46.818" stroke="#033348" stroke-width="3" stroke-linecap="round"/>
<path d="M101.314 44.5618C102.062 44.3745 102.756 43.9927 103.448 43.6614" stroke="#033348" stroke-width="3" stroke-linecap="round"/>
<path d="M86.5485 157.75C88.183 158.188 89.9967 157.217 91.5427 156.728C94.6261 155.753 97.763 154.882 100.77 153.686C103.634 152.547 106.36 151.095 109.105 149.703" stroke="#033348" stroke-width="3" stroke-linecap="round"/>
<path d="M114.186 146.438C114.757 146.531 115.347 146.133 115.838 145.899C117.529 145.094 119.126 144.083 120.746 143.148" stroke="#033348" stroke-width="3" stroke-linecap="round"/>
<path d="M125.043 139.672C125.269 139.095 126.396 138.612 126.89 138.274" stroke="#033348" stroke-width="3" stroke-linecap="round"/>
<path d="M93.8742 75.0887C93.7406 74.7836 93.8358 74.4291 93.8841 74.112C94.1019 72.682 94.5717 71.2946 94.921 69.894C95.3026 68.3642 95.6297 66.8174 95.9625 65.2762C96.0219 65.0011 96.1603 63.0542 96.5051 62.9032C96.676 62.8283 96.8597 64.0969 96.8669 64.1288C97.3386 66.212 98.0356 68.3272 98.8304 70.3073C99.2688 71.3995 99.8509 72.4317 100.26 73.5352C100.552 74.3219 99.7886 73.2432 99.5862 73.0562C97.0243 70.6889 93.9202 69.4917 90.6874 68.3586C89.6827 68.0064 91.1682 68.0237 91.4231 68.0147C93.242 67.9505 95.0537 67.856 96.8661 67.6823C97.1081 67.6591 103.389 66.897 103.374 67.0291C103.286 67.8365 101.374 69.0711 100.87 69.5198C99.1762 71.0273 97.4805 72.4646 95.5891 73.7014" stroke="#033348" stroke-width="3" stroke-linecap="round"/>
<path d="M77.1717 74.1389C76.1383 73.7352 76.3735 69.9702 76.4721 69.9966C76.7168 70.0622 76.9065 70.4445 77.0518 70.6183C77.612 71.2886 78.2301 71.9036 78.8713 72.4956C79.1347 72.7389 81.1859 74.6322 79.7161 74.1118C78.2238 73.5834 76.6933 73.0249 75.0931 72.985C74.0375 72.9587 77.0154 71.7155 77.2537 71.6052C78.3853 71.0813 79.5317 70.5766 80.6924 70.1201C81.221 69.9122 82.437 69.4017 81.5174 70.3132C80.0225 71.7948 78.3889 73.0889 77.1605 74.8075" stroke="#033348" stroke-width="3" stroke-linecap="round"/>
<path d="M126.106 55.2892C126.3 55.4766 126.46 55.657 126.606 55.8861C127.854 57.8458 129.52 59.5965 131.098 61.2797C135.778 66.2702 141.133 70.4897 146.931 74.1103C148.7 75.2144 150.516 76.2421 152.363 77.2091C152.517 77.2902 153.878 77.7685 154.127 78.0524C154.27 78.2142 154.348 78.5101 154.415 78.7081" stroke="#FDA94D" stroke-width="3" stroke-linecap="round"/>
<path d="M154.557 78.9546C154.339 79.1147 154.279 79.2755 154.195 79.5289C153.621 81.2417 152.884 82.9008 152.217 84.5777" stroke="#FDA94D" stroke-width="3" stroke-linecap="round"/>
<path d="M55.4381 115.314C55.0716 116.215 51.4024 114.205 51.324 115.16C51.2265 116.347 51.9622 117.86 52.247 118.972C52.9657 121.78 53.8073 124.553 54.9175 127.234C57.0496 132.384 60.1108 136.522 63.3536 140.977" stroke="#FDA94D" stroke-width="3" stroke-linecap="round"/>
<path d="M101.569 168.37C101.956 168.335 102.337 168.222 102.701 168.087C106.249 166.771 109.731 165.19 113.171 163.622C120.018 160.502 126.152 156.478 131.942 151.69C136.114 148.24 139.738 144.574 142.837 140.119C144.701 137.439 146.703 134.909 148.826 132.432" stroke="#D9DFE4" stroke-width="7" stroke-linecap="round"/>
<path d="M151.94 134.13C151.516 134.19 152.196 134.525 152.285 134.57C155.943 136.398 160.773 136.845 164.674 137.808" stroke="#D9DFE4" stroke-width="7" stroke-linecap="round"/>
<path d="M25.1646 120.264C29.1337 120.76 33.3355 122.411 37.4899 121.962C39.2664 121.77 38.3576 120.922 37.8986 119.698" stroke="#D9DFE4" stroke-width="7" stroke-linecap="round"/>
<path d="M181.086 114.321C183.493 113.118 185.505 111.17 187.595 109.51" stroke="#D9DFE4" stroke-width="7" stroke-linecap="round"/>
</svg>
