<svg width="162" height="194" viewBox="0 0 162 194" fill="none" xmlns="http://www.w3.org/2000/svg">
<path d="M139.546 163.346C140.336 167.476 111.527 140.217 97.0233 126.071C98.9664 125.7 103.755 124.438 107.364 122.367C111.876 119.777 108.552 119.55 109.017 115.663C109.482 111.775 113.649 114.604 116.013 114.325C117.904 114.101 121.462 110.923 123.005 109.361C133.529 119.549 154.452 140.536 153.952 142.98C153.328 146.034 141.989 141.815 137.921 143.111C133.852 144.407 138.559 158.182 139.546 163.346Z" fill="#FD9320" fill-opacity="0.8"/>
<path d="M45.4799 177.262C41.6013 180.483 48.5009 150.853 52.4356 135.635C53.5039 135.818 56.2156 136.152 58.5155 136.022C61.3904 135.86 63.2757 133.562 66.1312 131.272C68.9867 128.982 68.8826 132.489 71.7688 135.424C74.0777 137.773 79.9574 135.021 82.6087 133.351C80.2619 149.105 74.8215 181.569 71.8337 185.395C68.0989 190.178 65.1012 169.441 62.2313 164.565C59.3614 159.689 50.3282 173.235 45.4799 177.262Z" fill="#FD9320" fill-opacity="0.8"/>
<circle cx="73.2137" cy="73.532" r="44.6121" transform="rotate(-10.8281 73.2137 73.532)" fill="white" stroke="#033348" stroke-width="3.5"/>
<path d="M33.9997 35.4667C32.163 34.497 28.346 35.7868 26.6668 36.3848C23.1652 37.6317 20.1738 40.6222 20.2812 44.6302C20.3321 46.5274 21.3033 48.2386 21.4831 50.1226C21.6789 52.1743 21.4675 53.7133 20.3911 55.4935C19.6809 56.6681 18.6216 57.0722 17.5516 57.8229C15.8544 59.0139 14.5933 60.3865 13.8132 62.3377C12.3089 66.1003 15.2107 70.6834 17.5545 73.4298C18.728 74.8048 19.4619 75.7418 18.8959 77.5936C18.363 79.337 16.6584 81.1837 15.5529 82.5928C13.2225 85.563 11.8089 88.7717 14.4161 92.2413C16.7751 95.3804 20.2838 95.2017 23.4822 96.7441C25.3747 97.6567 25.9768 98.9431 26.3656 100.976C26.7729 103.105 26.6044 105.226 26.3761 107.363C26.1983 109.026 27.5068 110.911 28.6026 112.038C30.6861 114.182 32.958 115.426 35.9432 115.751C37.7839 115.951 39.5191 116.635 40.965 117.788C45.8797 121.707 46.7571 129.006 52.3047 132.119C55.7792 134.069 59.1414 134.99 61.9765 131.874C63.2903 130.43 64.1035 129.981 66.1608 130.165C68.8106 130.403 71.1156 132.191 73.4357 133.376C75.4502 134.405 77.351 134.262 79.5205 133.847C84.2465 132.943 85.6944 129.47 88.2556 125.697C90.3063 122.677 94.1634 124.681 97.1004 124.611C100.092 124.54 103.209 123.272 105.572 121.492C106.559 120.748 107.67 119.69 107.622 118.36C107.587 117.397 107.506 116.321 107.874 115.405C108.799 113.104 111.524 112.804 113.604 112.599C117.055 112.258 120.551 109.938 122.025 106.764C123.715 103.128 122.375 99.8007 122.617 96.0848C122.959 90.8349 126.878 90.2362 130.087 87.1777C131.544 85.7891 132.095 83.6411 131.753 81.9464C131.441 80.4036 130.869 78.4886 129.998 76.3836C129.198 74.4492 128.22 73.0174 127.78 71.1751C127.481 69.9219 128.222 68.6361 128.949 67.2849C129.755 65.7856 129.868 65.4775 130.452 63.8405C132.425 58.3124 131.026 53.3898 127.329 49.0123C126.11 47.5697 124.498 46.577 123.084 45.3431C120.334 42.9416 121.279 39.0702 120.71 35.7759C119.824 30.6522 115.996 27.1413 110.774 27.2008C106.73 27.2468 103.058 28.6654 101.795 23.7105C101.245 21.5516 100.61 19.7137 98.9317 18.1576C96.0722 15.5055 90.5971 15.9181 87.3242 17.3047C82.7175 19.2562 77.7856 22.846 74.4304 17.1671C73.2321 15.1388 71.7536 13.2379 69.4427 12.4594C66.3166 11.4063 62.2847 13.6626 60.3062 15.9781C58.6165 17.9557 57.7829 20.0193 55.2558 21.1525C53.6191 21.8864 51.703 21.8381 49.959 21.6358C46.745 21.2628 43.0833 20.5708 40.1741 22.16C38.7337 22.9469 37.631 24.3098 36.759 25.6743C35.4446 27.7311 35.7654 30.4522 36.1982 32.7149C36.3087 33.2927 35.9899 34.0707 35.5653 34.4709C35.0196 34.985 32.3391 35.9405 31.8465 35.606" stroke="#033348" stroke-width="3.5" stroke-linecap="round"/>
<path d="M91.0743 33.8595L32.3844 87.2829C34.6438 92.2509 39.6592 102.73 41.6457 104.903C43.6323 107.076 52.4845 111.093 56.6624 112.831L114.831 60.2486C113.923 57.6404 111.807 53.6534 110.136 50.0458C108.046 45.5363 103.742 41.6085 100.74 38.7463C98.3385 36.4565 93.1046 34.2075 91.0743 33.8595Z" fill="#033348"/>
<path d="M51.4251 133.349C51.2058 133.672 50.9447 134.008 50.8223 134.383C49.0614 139.779 48.2725 145.649 47.159 151.202C45.7472 158.243 44.285 165.244 43.0881 172.325C42.9642 173.058 41.4229 178.169 43.1264 178.649C44.1063 178.925 45.4011 177.836 46.0112 177.297C49.4267 174.277 52.6403 170.857 56.2799 168.111C58.4751 166.456 60.1436 164.797 61.9634 167.514C63.2344 169.411 63.9315 171.873 64.4905 174.059C65.1791 176.752 65.8936 179.385 67.0206 181.938C67.5628 183.166 68.5982 186.067 70.4415 185.791C75.3674 185.056 75.7963 177.317 76.4978 173.808C78.4764 163.913 79.0442 153.795 81.3618 143.963C81.9519 141.46 81.8602 138.832 82.6368 136.365C82.7039 136.152 83.4862 133.851 82.9791 135.054" stroke="#033348" stroke-width="3" stroke-linecap="round"/>
<path d="M93.138 125.371C93.6857 125.328 94.1431 125.964 94.4815 126.271C100.826 132.022 107.13 137.803 113.266 143.778C120.23 150.558 127.349 157.633 135.339 163.207C136.936 164.321 140.234 166.162 140.773 163.087C141.223 160.524 140.154 157.379 139.82 154.847C139.451 152.055 139.066 149.259 138.808 146.455C138.647 144.71 139.343 144.57 140.89 144.47C143.503 144.301 146.102 143.773 148.675 143.307C150.874 142.91 152.997 143.178 155.209 143.125C155.75 143.112 156.882 143.635 156.46 142.767C155.692 141.19 154.032 139.779 152.759 138.612C149.559 135.678 147.255 131.921 144.149 128.871C138.996 123.812 137.566 123.114 132.678 117.808C130.592 115.545 128.065 113.434 126.169 111.011C125.189 109.759 122.718 107.478 122.045 106.025" stroke="#033348" stroke-width="3" stroke-linecap="round"/>
<path d="M42.2313 89.4665C42.2099 89.3549 42.3439 89.6641 42.4059 89.7593C43.1902 90.9635 44.0658 92.1286 44.8667 93.3219C45.7873 94.6937 47.5093 97.2693 48.4897 98.6195C48.9759 99.2891 49.3206 100.484 50.148 100.467C50.4259 100.462 50.2395 97.9622 50.2331 97.8115C50.144 95.7153 49.9618 93.641 49.7773 91.5523C49.6461 90.0658 49.684 90.1213 50.716 91.3431C52.4078 93.3461 54.2463 95.2427 56.1638 97.0331C57.1105 97.917 57.1682 97.396 56.8487 96.4276C56.0293 93.9443 54.6349 91.6368 53.6588 89.2084C52.8515 87.2 52.1301 85.1618 51.1785 83.2178" stroke="white" stroke-width="3" stroke-linecap="round"/>
<path d="M56.3618 78.2225C57.3105 79.647 61.2872 90.523 62.5576 90.0713C63.5781 89.7084 64.791 88.5091 65.0756 87.4989" stroke="white" stroke-width="3" stroke-linecap="round"/>
<path d="M58.9296 84.6711C60.3387 84.2358 61.4956 82.9285 62.3979 81.8725" stroke="white" stroke-width="3" stroke-linecap="round"/>
<path d="M55.1836 77.6469C56.204 76.4527 58.6854 75.623 59.9886 74.8595" stroke="white" stroke-width="3" stroke-linecap="round"/>
<path d="M63.7642 72.2696C65.5309 72.322 69.007 90.4409 73.2997 81.6558" stroke="white" stroke-width="3" stroke-linecap="round"/>
<path d="M66.2827 78.4602C67.6085 78.0506 68.7705 76.5262 69.751 75.6616" stroke="white" stroke-width="3" stroke-linecap="round"/>
<path d="M63.2603 71.0311C64.9028 70.6213 66.6379 69.0839 68.0652 68.2437" stroke="white" stroke-width="3" stroke-linecap="round"/>
<path d="M71.7148 62.2078C72.0258 62.217 72.1771 62.4309 72.3393 62.6815C73.7466 64.8556 75.0525 67.1062 76.3966 69.3195C77.3869 70.9502 78.4035 72.5758 79.2454 74.2906C79.4622 74.7323 79.4576 74.7801 79.3762 74.3545" stroke="white" stroke-width="3" stroke-linecap="round"/>
<path d="M79.2423 59.7003C78.8544 60.8785 74.582 68.3319 77.452 67.783C79.6448 67.3636 84.9408 72.0982 86.0933 70.4007" stroke="white" stroke-width="3" stroke-linecap="round"/>
<path d="M84.3384 52.8539C84.9588 54.9431 86.56 57.1081 87.5369 59.0334C88.3889 60.7124 89.2217 62.4035 90.2086 64.0087C90.4007 64.3212 90.8195 65.4058 91.2269 65.534C92.3889 65.8998 97.4406 62.5002 96.9637 61.6491" stroke="white" stroke-width="3" stroke-linecap="round"/>
<path d="M91.0669 47.5629C91.1786 47.9243 91.5169 48.2526 91.8047 48.4745C92.3841 48.9214 92.9082 49.2414 93.6157 49.4923C93.9822 49.6224 94.3615 49.7519 94.7502 49.7647C97.1385 49.8432 94.247 49.4561 96.1449 48.9938" stroke="white" stroke-width="3" stroke-linecap="round"/>
<path d="M95.0506 44.666C94.5891 42.2529 96.4531 49.3806 97.3396 51.6719C98.2732 54.0847 99.1557 56.4823 99.9177 58.9487" stroke="white" stroke-width="3" stroke-linecap="round"/>
<path d="M32.4422 85.7338C32.4516 85.4168 32.683 85.2561 32.9049 85.0522C37.0586 81.2343 41.2345 77.4405 45.4201 73.6577C51.4206 68.2348 57.1999 62.5902 63.1487 57.1143C68.6847 52.0183 74.5641 47.2602 79.9313 41.9826C80.6797 41.2467 81.3675 40.4114 82.1526 39.719C83.8688 38.2055 86.1442 37.0123 87.9798 35.6092" stroke="#033348" stroke-width="3" stroke-linecap="round"/>
<path d="M54.5742 113.529C60.6884 107.366 67.2167 101.659 73.5246 95.6994C77.1159 92.3063 80.6513 88.9 84.4058 85.6851C89.0177 81.736 93.8108 77.9803 98.3351 73.9313C100.377 72.1039 102.205 70.0595 104.318 68.3089C106.505 66.4973 108.622 64.5864 110.964 62.9748C111.214 62.8029 113.505 61.4211 112.44 61.6248" stroke="#033348" stroke-width="3" stroke-linecap="round"/>
<path d="M49.3506 47.9517C49.3673 48.0393 48.61 44.8858 48.7815 44.9763C49.9631 45.6001 50.7859 46.8558 52.0575 47.3746C53.1631 47.8257 54.6661 45.9118 55.4794 45.3411C56.8309 44.3928 53.969 48.6401 53.8723 48.9551C53.773 49.2784 55.3018 49.1849 55.5267 49.2318C55.6908 49.2661 58.0225 49.8753 57.8648 50.0598C57.2717 50.7539 55.8233 50.5288 55.0324 50.6016C54.6477 50.637 52.4559 50.4005 52.2836 50.727C51.9161 51.423 51.4352 55.5556 51.1873 55.0737C50.9318 54.5769 49.7201 51.3 49.3212 51.4419C49.1064 51.5183 47.1268 52.3511 47.1088 51.9688C47.0714 51.174 49.0801 49.5411 49.5476 48.9816" stroke="#033348" stroke-width="3" stroke-linecap="round"/>
<path d="M89.0112 97.5469C89.028 97.6345 88.2707 94.481 88.4421 94.5715C89.6237 95.1953 90.4465 96.4509 91.7182 96.9698C92.8238 97.4209 94.3267 95.507 95.14 94.9363C96.4916 93.988 93.6297 98.2353 93.5329 98.5503C93.4337 98.8736 94.9625 98.7801 95.1873 98.827C95.3514 98.8613 97.6831 99.4705 97.5254 99.655C96.9324 100.349 95.4839 100.124 94.6931 100.197C94.3083 100.232 92.1165 99.9957 91.9442 100.322C91.5767 101.018 91.0958 105.151 90.8479 104.669C90.5924 104.172 89.3808 100.895 88.9819 101.037C88.7671 101.113 86.7875 101.946 86.7695 101.564C86.732 100.769 88.7407 99.1363 89.2082 98.5768" stroke="#033348" stroke-width="3" stroke-linecap="round"/>
<path d="M64.159 43.6353C64.0828 43.237 63.5397 41.274 63.9937 41.2203C64.5486 41.1547 66.1136 42.9724 66.0711 42.4688C66.0098 41.7406 67.0755 40.2432 66.9644 40.8597C66.6787 42.4464 66.876 42.6009 68.3181 42.5877C68.5039 42.586 65.6102 43.782 65.3367 44.2107C64.8933 44.9058 65.5836 46.897 65.372 45.7906C65.0301 44.0034 64.6107 44.8535 63.1178 45.169C60.9226 45.6328 63.4546 44.022 64.1098 43.3778" stroke="#033348" stroke-width="3" stroke-linecap="round"/>
<path d="M78.2707 109.443C78.2082 109.116 77.7579 107.395 77.7909 107.399C78.419 107.483 78.5413 108.44 78.9909 108.712C79.2477 108.867 80.0401 107.621 80.1638 107.479C82.196 105.151 79.8249 108.141 79.8078 108.719C79.8027 108.891 81.165 108.717 81.3359 108.723C81.4577 108.727 83.248 108.786 82.8213 109.047C81.8854 109.618 80.3046 108.913 80.5878 110.393C80.8817 111.93 80.6367 110.655 80.2366 110.03C80.1443 109.886 77.9093 111.603 77.6606 111.68C76.7441 111.963 78.5895 109.809 78.7857 109.344" stroke="#033348" stroke-width="3" stroke-linecap="round"/>
<path d="M33.4367 39.2602C32.4207 38.6544 30.0293 39.377 29.063 39.6782C26.3163 40.5343 25.1526 43.3608 24.4983 45.9258C23.5217 49.7545 25.5042 54.3629 23.739 57.9753C23.2464 58.9834 21.9389 59.8331 20.9461 60.2676C19.5153 60.8936 18.9811 62.0574 18.8024 63.5909C18.5532 65.7294 19.4384 68.0218 20.1935 69.9885C21.1071 72.368 23.1165 73.9675 24.0785 76.2943C25.4445 79.5984 22.6908 81.9199 20.9684 84.457C18.2348 88.4836 19.7732 90.7437 23.5006 93.2315C26.0681 94.9452 29.4098 95.8519 30.5053 99.041C31.3305 101.443 31.0868 104.177 31.8866 106.613C33.137 110.42 37.183 111.375 40.0705 113.335" stroke="#FDA94D" stroke-width="3" stroke-linecap="round"/>
<path d="M87.4538 22.2977C87.5122 21.2561 93.3608 21.0442 93.9531 21.0881C95.8971 21.2322 97.052 23.6257 97.7764 25.1453C99.6689 29.1158 100.448 32.6804 105.466 32.699C108.04 32.7086 110.908 32.1554 113.391 33.0753C115.162 33.7316 117.329 35.3254 117.114 37.4864C117.002 38.6171 116.539 39.8675 116.662 40.9885C116.921 43.3525 118.227 45.1461 119.057 47.2946" stroke="#FDA94D" stroke-width="3" stroke-linecap="round"/>
<path d="M122.384 52.0835C123.661 52.0008 124.837 54.9859 125.197 55.7646" stroke="#FDA94D" stroke-width="3" stroke-linecap="round"/>
<path d="M126.075 61.9256C126.381 63.5253 126.045 64.8876 125.746 66.5091" stroke="#FDA94D" stroke-width="3" stroke-linecap="round"/>
<path d="M23.2451 117.569C23.3648 118.766 24.4564 119.266 25.4315 119.791C28.1796 121.27 30.7371 122.341 33.7893 122.718C38.4801 123.297 40.1964 128.345 41.6533 132.169" stroke="#D9DFE4" stroke-width="7" stroke-linecap="round"/>
<path d="M88.3086 138.517C89.0143 138.428 90.5631 134.856 90.8477 134.391" stroke="#D9DFE4" stroke-width="7" stroke-linecap="round"/>
<path d="M91.4824 132.169C91.5449 132.731 92.144 133.191 92.5051 133.58C98.1328 139.64 104.45 145.077 110.49 150.718C116.283 156.128 121.746 161.797 127.347 167.398" stroke="#D9DFE4" stroke-width="7" stroke-linecap="round"/>
<path d="M144.485 149.625C148.899 149.625 153.389 149.885 157.815 149.942" stroke="#D9DFE4" stroke-width="7" stroke-linecap="round"/>
</svg>
