<svg width="166" height="47" viewBox="0 0 166 47" fill="none" xmlns="http://www.w3.org/2000/svg">
<path d="M81.182 19.4343V36.2343H78.422V24.2583L73.31 32.7063H72.974L67.862 24.2343V36.2343H65.102V19.4343H68.078L73.142 27.8343L78.23 19.4343H81.182ZM86.6916 21.9543C86.3716 22.2743 85.9876 22.4343 85.5396 22.4343C85.0916 22.4343 84.6996 22.2743 84.3636 21.9543C84.0436 21.6183 83.8836 21.2263 83.8836 20.7783C83.8836 20.3303 84.0436 19.9463 84.3636 19.6263C84.6836 19.2903 85.0756 19.1223 85.5396 19.1223C86.0036 19.1223 86.3956 19.2903 86.7156 19.6263C87.0356 19.9463 87.1956 20.3303 87.1956 20.7783C87.1956 21.2263 87.0276 21.6183 86.6916 21.9543ZM84.2436 36.2343V24.2343H86.8356V36.2343H84.2436ZM96.4212 26.7303H93.4452V32.4903C93.4452 32.9863 93.5572 33.3463 93.7812 33.5703C94.0052 33.7783 94.3332 33.8983 94.7652 33.9303C95.2132 33.9463 95.7652 33.9383 96.4212 33.9063V36.2343C94.4372 36.4743 93.0132 36.3063 92.1492 35.7303C91.2852 35.1383 90.8532 34.0583 90.8532 32.4903V26.7303H88.6452V24.2343H90.8532V21.6423L93.4452 20.8743V24.2343H96.4212V26.7303ZM104.786 26.7303H101.81V32.4903C101.81 32.9863 101.922 33.3463 102.146 33.5703C102.37 33.7783 102.698 33.8983 103.13 33.9303C103.578 33.9463 104.13 33.9383 104.786 33.9063V36.2343C102.802 36.4743 101.378 36.3063 100.514 35.7303C99.6496 35.1383 99.2176 34.0583 99.2176 32.4903V26.7303H97.0096V24.2343H99.2176V21.6423L101.81 20.8743V24.2343H104.786V26.7303ZM124.126 36.2343L122.95 32.8503H115.798L114.622 36.2343H111.622L117.718 19.4343H121.03L127.102 36.2343H124.126ZM116.71 30.2583H122.038L119.374 22.6743L116.71 30.2583ZM131.212 26.2503C131.868 24.7623 133.1 24.0183 134.908 24.0183V26.8263C133.916 26.7623 133.052 27.0023 132.316 27.5463C131.58 28.0743 131.212 28.9543 131.212 30.1863V36.2343H128.62V24.2343H131.212V26.2503ZM144.839 24.2343H147.671L142.991 36.2343H139.991L135.311 24.2343H138.143L141.503 33.3543L144.839 24.2343Z" fill="white"/>
<path d="M50.4715 6.63065C50.2351 6.32918 49.9941 6.03912 49.744 5.76048C47.0404 2.50591 42.8336 0.644524 38.6406 0.868347C37.7524 0.907173 36.8665 1.03964 35.999 1.26118C36.3593 1.52383 36.6898 1.84129 36.9721 2.209C37.5252 2.92843 37.8465 3.75521 37.9452 4.59797C38.1242 4.57285 38.3078 4.55229 38.4914 4.53402C38.9412 4.49063 39.3865 4.47692 39.8202 4.49291C45.746 4.74871 50.1594 10.2575 48.7502 16.2665C48.6033 16.8923 48.3876 17.5386 48.103 18.169C47.7312 18.9204 46.9807 20.1697 45.5831 21.2363C44.0867 22.3805 42.5284 22.7893 41.4681 22.9423C41.3969 22.9378 41.3235 22.9378 41.2409 22.9469C40.3596 23.0543 39.476 23.1205 38.5947 23.1502C38.5625 23.1502 38.5304 23.1525 38.4983 23.1525C35.836 23.237 33.183 22.9972 30.5391 22.6203C29.8873 22.5267 29.2355 22.4216 28.5837 22.312C28.6549 21.5309 28.7398 20.7544 28.8362 19.9801C28.8683 19.8842 28.889 19.7768 28.9096 19.6672C29.2791 17.63 29.6027 15.5813 30.0686 13.5669C30.1398 13.2608 30.2224 12.9548 30.3096 12.6533C30.3188 12.6191 30.3303 12.5848 30.3394 12.5483C30.367 12.4569 30.3945 12.3656 30.4221 12.2742C30.4611 12.1509 30.5001 12.0298 30.5368 11.9065C30.7755 11.1688 31.0486 10.4379 31.3194 9.71393C30.4817 9.40104 29.7267 8.85975 29.1644 8.10606C28.905 7.76119 28.7008 7.39119 28.547 7.00978C28.4873 7.12398 28.4323 7.23817 28.3749 7.35465C28.3519 7.38663 28.329 7.42317 28.306 7.462C28.088 7.87082 27.9113 8.30247 27.7369 8.73413C26.2749 12.3793 25.5474 16.1957 25.1182 20.076C25.0586 20.6082 25.0081 21.1449 24.9599 21.6793C24.4205 21.588 23.8835 21.4989 23.3442 21.4213C19.4656 20.8457 15.5709 20.5716 11.6556 21.049C11.192 21.1061 10.7284 21.1677 10.2739 21.2728C10.1913 21.2934 10.1523 21.3116 10.049 21.3345C8.49299 21.6496 7.0127 22.1955 5.71141 23.1981C4.11636 24.4269 2.88163 25.9457 2.03017 27.6335C2.01411 27.6632 1.99575 27.6952 1.97739 27.7294C-0.251093 32.1054 0.308896 37.5548 3.20523 41.5242C3.4049 41.8211 3.61604 42.1158 3.83866 42.4058C6.94614 46.0327 11.4926 47.6748 17.0122 46.5625C17.2027 46.5237 17.3518 46.4757 17.4666 46.4164C17.5928 46.373 17.7236 46.325 17.859 46.2748C18.7174 46.003 19.5551 45.6376 20.3606 45.1808C20.8495 44.9044 21.3154 44.5847 21.7904 44.2855C23.8055 42.7712 24.891 40.6449 25.7494 38.3793C26.5756 36.2004 27.108 33.9508 27.512 31.6737C27.8631 29.7895 28.1064 27.8847 28.2831 25.9685C29.208 26.1238 30.1329 26.2609 31.0601 26.3796C31.122 26.3979 31.1886 26.4139 31.2643 26.4207C34.4957 26.7953 37.734 27.0488 40.9838 26.7108C43.4051 26.4618 45.7483 25.9594 47.7312 24.4063C48.1443 24.0249 48.5735 23.6595 48.9659 23.2598C49.721 22.4924 50.3659 21.6519 50.8984 20.7566C50.981 20.663 51.0636 20.5374 51.1462 20.3707C51.2426 20.1742 51.3367 19.9778 51.4239 19.7837C51.9541 18.692 52.3259 17.5386 52.5347 16.3555C53.2278 12.8132 52.459 9.49011 50.4646 6.63522L50.4715 6.63065ZM24.4596 27.3023C24.393 27.8733 24.3196 28.442 24.2369 29.0107C24.1727 29.4104 24.113 29.8101 24.0533 30.2097C23.8812 31.2512 23.677 32.2881 23.4291 33.3113C23.1261 34.4624 22.7819 35.6066 22.4055 36.7372C22.2907 37.0546 22.1737 37.3675 22.0475 37.6804C22.0153 37.7558 21.997 37.8289 21.9832 37.8974C21.5655 38.8772 20.7691 40.2704 19.2774 41.4215C18.1964 42.2551 17.1063 42.6845 16.2846 42.9128C15.3827 43.1253 14.4739 43.2029 13.6247 43.1778C8.19234 43.0248 4.27472 38.6671 4.238 33.7133C4.238 32.6101 4.43308 31.475 4.85307 30.3376C6.02353 27.1813 8.19693 25.1098 11.7083 24.7626C13.0601 24.6279 14.4234 24.4977 15.7774 24.5388C17.8544 24.605 19.9062 24.7809 21.9786 24.9453C22.1232 24.9567 22.2448 24.9613 22.4078 24.9796C23.1583 25.0801 23.9065 25.1943 24.6569 25.3199C24.5973 25.9799 24.533 26.64 24.4573 27.2978L24.4596 27.3023Z" fill="white"/>
<path d="M32.1335 8.00761C33.0607 8.30224 34.1187 8.16292 34.9404 7.5417C35.7803 6.90677 36.2003 5.91784 36.1453 4.94032C36.1154 4.34651 35.9112 3.75269 35.521 3.24795C35.0253 2.60388 34.3138 2.21105 33.5588 2.09457C32.7486 1.96667 31.8903 2.15395 31.2017 2.68839C30.55 3.19542 30.1552 3.91713 30.0473 4.68224C29.9395 5.45877 30.1231 6.27641 30.6257 6.95016C31.0136 7.46861 31.546 7.82719 32.1335 8.0099V8.00761Z" fill="white"/>
<path d="M157.416 20.2343V21.3343H155.446V27.2343H154.296V21.3343H152.316V20.2343H157.416ZM164.916 20.2343V27.2343H163.766V22.2443L161.636 25.7643H161.496L159.366 22.2343V27.2343H158.216V20.2343H159.456L161.566 23.7343L163.686 20.2343H164.916Z" fill="white"/>
</svg>
