<svg width="22" height="22" viewBox="0 0 22 22" fill="none" xmlns="http://www.w3.org/2000/svg">
    <rect width="22" height="22" rx="11" fill="#28A2A2"/>
    <path fill-rule="evenodd" clip-rule="evenodd" d="M9.51248 4.72949H9.56955C10.5042 4.72949 11.2447 4.72948 11.8305 4.79872C12.4319 4.86981 12.9269 5.01905 13.3405 5.35844C13.4808 5.47357 13.6094 5.60224 13.7246 5.74255C14.0463 6.13452 14.1971 6.59996 14.2725 7.15986C14.3337 7.61416 14.3486 8.16093 14.3523 8.81905C14.7948 8.8282 15.1777 8.85129 15.5048 8.91138C15.947 8.9926 16.3232 9.14732 16.6295 9.45353C16.9806 9.80465 17.1316 10.2468 17.2022 10.7718C17.2702 11.2775 17.2702 11.9206 17.2702 12.7183V13.3657C17.2702 14.1634 17.2702 14.8064 17.2022 15.3122C17.1316 15.8372 16.9806 16.2793 16.6295 16.6304C16.2783 16.9816 15.8363 17.1326 15.3112 17.2032C14.8055 17.2712 14.1624 17.2712 13.3647 17.2712H12.7173C11.9196 17.2712 11.2766 17.2712 10.7708 17.2032C10.2458 17.1326 9.80368 16.9816 9.45256 16.6304C9.14635 16.3242 8.99162 15.9479 8.9104 15.5058C8.85032 15.1787 8.82722 14.7958 8.81808 14.3533C8.15995 14.3496 7.61318 14.3347 7.15888 14.2735C6.59898 14.1981 6.13354 14.0472 5.74157 13.7255C5.60127 13.6104 5.47262 13.4818 5.35749 13.3415C5.0181 12.9279 4.86883 12.4328 4.79775 11.8314C4.7285 11.2456 4.72851 10.5052 4.72852 9.57052V9.51346C4.72851 8.57881 4.7285 7.83835 4.79775 7.25256C4.86883 6.65116 5.01807 6.15608 5.35747 5.74253C5.4726 5.60224 5.60124 5.47359 5.74155 5.35844C6.1551 5.01906 6.65018 4.86981 7.25158 4.79872C7.83737 4.72948 8.57783 4.72949 9.51248 4.72949ZM8.81185 13.3343L8.81186 13.4782C8.16468 13.4743 7.67185 13.4597 7.2757 13.4064C6.80417 13.3428 6.51644 13.2295 6.29663 13.0491C6.20063 12.9703 6.11261 12.8823 6.03383 12.7864C5.84359 12.5545 5.72802 12.2475 5.6667 11.7287C5.60423 11.2003 5.60352 10.5116 5.60352 9.54199C5.60352 8.57243 5.60423 7.88372 5.6667 7.35527C5.72802 6.83648 5.8436 6.52944 6.03385 6.29762C6.11264 6.20162 6.20067 6.11359 6.29665 6.03483C6.52847 5.84458 6.8355 5.729 7.35429 5.66767C7.88274 5.60521 8.57145 5.60449 9.54102 5.60449C10.5106 5.60449 11.1993 5.60521 11.7277 5.66767C12.2465 5.72899 12.5535 5.84457 12.7854 6.0348C12.8814 6.11359 12.9694 6.20165 13.0482 6.29764C13.2286 6.51745 13.3419 6.80515 13.4054 7.27668C13.4587 7.67283 13.4733 8.16565 13.4772 8.81284L13.3334 8.81283L12.7173 8.81283C11.9196 8.81281 11.2766 8.8128 10.7708 8.8808C10.2458 8.95139 9.80367 9.10243 9.45255 9.45354C9.10144 9.80466 8.95041 10.2468 8.87982 10.7718C8.81183 11.2775 8.81184 11.9206 8.81185 12.7183L8.81185 13.3343ZM10.8874 9.74799C10.4594 9.80554 10.2327 9.9108 10.0713 10.0722C9.90983 10.2337 9.80456 10.4604 9.74702 10.8884C9.68778 11.329 9.68685 11.913 9.68685 12.7503V13.3337C9.68685 13.541 9.68685 13.7339 9.68786 13.9146C9.69141 14.5524 9.70797 15.0045 9.771 15.3477C9.83174 15.6783 9.92926 15.8697 10.0713 16.0117C10.2327 16.1732 10.4594 16.2784 10.8874 16.336C11.3281 16.3952 11.912 16.3962 12.7493 16.3962H13.3327C14.17 16.3962 14.754 16.3952 15.1946 16.336C15.6226 16.2784 15.8493 16.1732 16.0107 16.0117C16.1722 15.8503 16.2775 15.6236 16.335 15.1956C16.3943 14.755 16.3952 14.171 16.3952 13.3337V12.7503C16.3952 11.913 16.3943 11.329 16.335 10.8884C16.2775 10.4604 16.1722 10.2337 16.0108 10.0723C15.8687 9.93023 15.6773 9.83271 15.3467 9.77198C15.0036 9.70895 14.5514 9.69238 13.9136 9.68883C13.7329 9.68783 13.5401 9.68783 13.3327 9.68783H12.7493C11.912 9.68783 11.3281 9.68875 10.8874 9.74799Z" fill="white"/>
    </svg>
    