<svg width="14" height="14" viewBox="0 0 14 14" fill="none" xmlns="http://www.w3.org/2000/svg">
<path d="M8.01562 4.21875V2.95312C8.01562 2.65888 8.01562 2.51175 7.98328 2.39104C7.89551 2.06348 7.63965 1.80762 7.31208 1.71984C7.19137 1.6875 7.04425 1.6875 6.75 1.6875C6.45575 1.6875 6.30863 1.6875 6.18792 1.71984C5.86035 1.80762 5.60449 2.06348 5.51672 2.39104C5.48437 2.51175 5.48438 2.65888 5.48438 2.95312V4.21875C5.48438 4.81537 5.48438 5.11368 5.29903 5.29903C5.11368 5.48438 4.81537 5.48438 4.21875 5.48438L2.95313 5.48437C2.65888 5.48437 2.51175 5.48437 2.39104 5.51672C2.06348 5.60449 1.80762 5.86035 1.71984 6.18792C1.6875 6.30863 1.6875 6.45575 1.6875 6.75C1.6875 7.04425 1.6875 7.19137 1.71984 7.31208C1.80762 7.63965 2.06347 7.89551 2.39104 7.98328C2.51175 8.01562 2.65888 8.01562 2.95313 8.01562H4.21875C4.81537 8.01562 5.11368 8.01562 5.29903 8.20097C5.48438 8.38632 5.48438 8.68463 5.48438 9.28125V10.5469C5.48438 10.8411 5.48437 10.9882 5.51672 11.109C5.60449 11.4365 5.86035 11.6924 6.18792 11.7802C6.30863 11.8125 6.45575 11.8125 6.75 11.8125C7.04425 11.8125 7.19137 11.8125 7.31208 11.7802C7.63965 11.6924 7.89551 11.4365 7.98328 11.109C8.01562 10.9882 8.01562 10.8411 8.01562 10.5469V9.28125C8.01562 8.68463 8.01562 8.38632 8.20097 8.20097C8.38632 8.01562 8.68463 8.01562 9.28125 8.01562H10.5469C10.8411 8.01562 10.9882 8.01562 11.109 7.98328C11.4365 7.89551 11.6924 7.63965 11.7802 7.31208C11.8125 7.19137 11.8125 7.04425 11.8125 6.75C11.8125 6.45575 11.8125 6.30863 11.7802 6.18792C11.6924 5.86035 11.4365 5.60449 11.109 5.51672C10.9882 5.48437 10.8411 5.48438 10.5469 5.48438H9.28125C8.68463 5.48438 8.38632 5.48438 8.20097 5.29903C8.01562 5.11368 8.01562 4.81537 8.01562 4.21875Z" fill="#676B7E" stroke="#676B7E" stroke-width="0.84375" stroke-linecap="round" stroke-linejoin="round"/>
</svg>
