<svg width="16" height="16" viewBox="0 0 16 16" fill="none" xmlns="http://www.w3.org/2000/svg">
<path d="M7.99902 0.708313C8.34405 0.708489 8.62402 0.988244 8.62402 1.33331V7.37531H14.665C15.0102 7.37531 15.29 7.65513 15.29 8.00031C15.2899 8.34533 15.0101 8.62531 14.665 8.62531H8.62402V14.6663C8.62402 15.0114 8.34405 15.2911 7.99902 15.2913C7.65385 15.2913 7.37402 15.0115 7.37402 14.6663V8.62531H1.33203C0.986962 8.62531 0.707207 8.34533 0.707031 8.00031C0.707031 7.65513 0.986853 7.37531 1.33203 7.37531H7.37402V1.33331C7.37402 0.988135 7.65385 0.708313 7.99902 0.708313Z" fill="#045071"/>
</svg>
