<svg width="20" height="20" viewBox="0 0 20 20" fill="none" xmlns="http://www.w3.org/2000/svg">
<path fill-rule="evenodd" clip-rule="evenodd" d="M5 1.0415C5.34518 1.0415 5.625 1.32133 5.625 1.6665V3.33317C5.625 3.67835 5.34518 3.95817 5 3.95817C4.65482 3.95817 4.375 3.67835 4.375 3.33317V1.6665C4.375 1.32133 4.65482 1.0415 5 1.0415ZM15 1.0415C15.3452 1.0415 15.625 1.32133 15.625 1.6665V3.33317C15.625 3.67835 15.3452 3.95817 15 3.95817C14.6548 3.95817 14.375 3.67835 14.375 3.33317V1.6665C14.375 1.32133 14.6548 1.0415 15 1.0415Z" fill="#454754"/>
<path fill-rule="evenodd" clip-rule="evenodd" d="M5.8335 10.8333C5.8335 10.3731 6.20659 10 6.66683 10H6.6743C7.13454 10 7.50764 10.3731 7.50764 10.8333C7.50764 11.2936 7.13454 11.6667 6.6743 11.6667H6.66683C6.20659 11.6667 5.8335 11.2936 5.8335 10.8333ZM9.16308 10.8333C9.16308 10.3731 9.53618 10 9.99641 10H10.0039C10.4642 10 10.8372 10.3731 10.8372 10.8333C10.8372 11.2936 10.4642 11.6667 10.0039 11.6667H9.99641C9.53618 11.6667 9.16308 11.2936 9.16308 10.8333ZM12.4927 10.8333C12.4927 10.3731 12.8658 10 13.326 10H13.3335C13.7937 10 14.1668 10.3731 14.1668 10.8333C14.1668 11.2936 13.7937 11.6667 13.3335 11.6667H13.326C12.8658 11.6667 12.4927 11.2936 12.4927 10.8333ZM5.8335 14.1667C5.8335 13.7064 6.20659 13.3333 6.66683 13.3333H6.6743C7.13454 13.3333 7.50764 13.7064 7.50764 14.1667C7.50764 14.6269 7.13454 15 6.6743 15H6.66683C6.20659 15 5.8335 14.6269 5.8335 14.1667ZM9.16308 14.1667C9.16308 13.7064 9.53618 13.3333 9.99641 13.3333H10.0039C10.4642 13.3333 10.8372 13.7064 10.8372 14.1667C10.8372 14.6269 10.4642 15 10.0039 15H9.99641C9.53618 15 9.16308 14.6269 9.16308 14.1667Z" fill="#454754"/>
<path fill-rule="evenodd" clip-rule="evenodd" d="M2.2915 6.6665C2.2915 6.32133 2.57133 6.0415 2.9165 6.0415H17.0832C17.4283 6.0415 17.7082 6.32133 17.7082 6.6665C17.7082 7.01168 17.4283 7.2915 17.0832 7.2915H2.9165C2.57133 7.2915 2.2915 7.01168 2.2915 6.6665Z" fill="#454754"/>
<path fill-rule="evenodd" clip-rule="evenodd" d="M5.38936 3.25951C4.4979 3.38908 3.97451 3.63215 3.58574 4.05244C3.19057 4.47965 2.95701 5.06596 2.83415 6.05385C2.70964 7.05505 2.7085 8.37077 2.7085 10.2027V10.6307C2.7085 12.4626 2.70964 13.7783 2.83415 14.7795C2.957 15.7674 3.19056 16.3537 3.58574 16.7809C3.9745 17.2012 4.49789 17.4443 5.38936 17.5738C6.30413 17.7068 7.51006 17.7083 9.2085 17.7083H10.7918C12.4903 17.7083 13.6962 17.7068 14.611 17.5738C15.5025 17.4443 16.0258 17.2012 16.4146 16.7809C16.8098 16.3537 17.0433 15.7674 17.1662 14.7795C17.2907 13.7783 17.2918 12.4626 17.2918 10.6307V10.2027C17.2918 8.37077 17.2907 7.05505 17.1662 6.05385C17.0433 5.06596 16.8098 4.47965 16.4146 4.05243C16.0258 3.63215 15.5025 3.38908 14.611 3.25951C13.6962 3.12655 12.4903 3.125 10.7918 3.125H9.2085C7.51006 3.125 6.30413 3.12655 5.38936 3.25951ZM9.15787 1.875H10.8425C12.4789 1.87498 13.7757 1.87497 14.7908 2.0225C15.8395 2.17494 16.6776 2.49588 17.3322 3.20364C17.9805 3.90446 18.2686 4.78994 18.4066 5.89959C18.5418 6.98692 18.5418 8.38039 18.5418 10.1584V10.675C18.5418 12.453 18.5418 13.8464 18.4066 14.9338C18.2686 16.0434 17.9805 16.9289 17.3322 17.6297C16.6776 18.3375 15.8395 18.6584 14.7908 18.8108C13.7757 18.9584 12.4789 18.9584 10.8425 18.9583H9.15786C7.52145 18.9584 6.2246 18.9584 5.20957 18.8108C4.16081 18.6584 3.32279 18.3375 2.66812 17.6297C2.01987 16.9289 1.7317 16.0434 1.5937 14.9338C1.45848 13.8464 1.45849 12.453 1.4585 10.675V10.1583C1.45849 8.38037 1.45848 6.98691 1.5937 5.89959C1.7317 4.78993 2.01986 3.90445 2.66812 3.20363C3.32278 2.49589 4.1608 2.17494 5.20957 2.0225C6.22459 1.87497 7.52145 1.87498 9.15787 1.875Z" fill="#454754"/>
<path fill-rule="evenodd" clip-rule="evenodd" d="M1.875 6.6665C1.875 6.32133 2.15482 6.0415 2.5 6.0415H17.5C17.8452 6.0415 18.125 6.32133 18.125 6.6665C18.125 7.01168 17.8452 7.2915 17.5 7.2915H2.5C2.15482 7.2915 1.875 7.01168 1.875 6.6665Z" fill="#454754"/>
</svg>
