<svg width="16" height="16" viewBox="0 0 16 16" fill="none" xmlns="http://www.w3.org/2000/svg">
<path fill-rule="evenodd" clip-rule="evenodd" d="M1.16669 5.00033C1.16669 2.88323 2.88293 1.16699 5.00002 1.16699H10C10.2762 1.16699 10.5 1.39085 10.5 1.66699C10.5 1.94313 10.2762 2.16699 10 2.16699H5.00002C3.43521 2.16699 2.16669 3.43552 2.16669 5.00033V11.0003C2.16669 12.5651 3.43521 13.8337 5.00002 13.8337H11C12.5648 13.8337 13.8334 12.5651 13.8334 11.0003V6.66699C13.8334 6.39085 14.0572 6.16699 14.3334 6.16699C14.6095 6.16699 14.8334 6.39085 14.8334 6.66699V11.0003C14.8334 13.1174 13.1171 14.8337 11 14.8337H5.00002C2.88293 14.8337 1.16669 13.1174 1.16669 11.0003V5.00033Z" fill="white"/>
<path fill-rule="evenodd" clip-rule="evenodd" d="M14.3346 1.96202C14.5399 2.14675 14.5565 2.46289 14.3718 2.66815L8.37166 9.33481C8.2799 9.43677 8.15028 9.49655 8.01316 9.50015C7.87604 9.50376 7.74346 9.45087 7.64647 9.35388L5.31313 7.02055C5.11787 6.82528 5.11787 6.5087 5.31313 6.31344C5.5084 6.11818 5.82498 6.11818 6.02024 6.31344L7.98093 8.27413L13.6285 1.99917C13.8132 1.79392 14.1294 1.77728 14.3346 1.96202Z" fill="white"/>
</svg>
