<svg width="20" height="21" viewBox="0 0 20 21" fill="none" xmlns="http://www.w3.org/2000/svg">
<path fill-rule="evenodd" clip-rule="evenodd" d="M11.8755 5.83733C11.8275 4.63004 10.8213 3.59214 9.44496 3.62581C9.14348 3.63318 8.74415 3.74048 7.71229 4.03155C5.37955 4.68954 3.62923 5.7207 3.20462 7.88567C3.12785 8.27712 3.12501 8.72772 3.12501 9.80225V11.1978C3.12501 12.2723 3.12785 12.7229 3.20462 13.1143C3.62923 15.2792 5.37954 16.3104 7.71229 16.9685C8.74406 17.2595 9.14347 17.3668 9.445 17.3742C10.8214 17.4079 11.8275 16.3699 11.8755 15.1627C11.8892 14.8178 12.1799 14.5493 12.5248 14.563C12.8697 14.5767 13.1382 14.8674 13.1245 15.2123C13.0498 17.0916 11.4838 18.6745 9.41438 18.6238C8.93331 18.612 8.36775 18.4524 7.48001 18.2018C4.95748 17.4896 2.52444 16.1411 1.97799 13.3549C1.87216 12.8154 1.87501 12.2184 1.87501 11.1978V9.80225C1.87501 8.78164 1.87217 8.18463 1.97799 7.64509C2.5246 4.85806 4.95855 3.51009 7.48161 2.79783C8.36834 2.5475 8.93357 2.38794 9.4144 2.37618C11.4838 2.32555 13.0498 3.90842 13.1245 5.78769C13.1382 6.1326 12.8697 6.42331 12.5248 6.43702C12.1799 6.45073 11.8892 6.18224 11.8755 5.83733ZM14.9685 7.98105C15.2091 7.73353 15.6048 7.72791 15.8523 7.96849C15.9283 8.04241 16.0799 8.16377 16.306 8.34143C16.518 8.50794 16.7756 8.70881 17.0204 8.91629C17.2626 9.12146 17.514 9.35111 17.7096 9.58067C17.8075 9.69571 17.9042 9.82537 17.9788 9.96486C18.0508 10.0994 18.125 10.2848 18.125 10.5C18.125 10.7152 18.0508 10.9006 17.9788 11.0351C17.9042 11.1746 17.8075 11.3043 17.7096 11.4193C17.514 11.6489 17.2626 11.8785 17.0204 12.0837C16.7756 12.2912 16.518 12.4921 16.306 12.6586C16.0799 12.8362 15.9283 12.9576 15.8523 13.0315C15.6048 13.2721 15.2091 13.2665 14.9685 13.0189C14.7279 12.7714 14.7335 12.3757 14.9811 12.1351C15.1261 11.9942 15.3591 11.8128 15.5813 11.6384C15.7881 11.476 16.0096 11.3021 16.2183 11.125H8.33334C7.98816 11.125 7.70834 10.8452 7.70834 10.5C7.70834 10.1548 7.98816 9.875 8.33334 9.875H16.2183C16.0097 9.69796 15.7881 9.52403 15.5814 9.36173C15.3592 9.18725 15.1261 9.00583 14.9811 8.86485C14.7335 8.62426 14.7279 8.22857 14.9685 7.98105Z" fill="#E3E4E8"/>
</svg>
