<svg width="21" height="21" viewBox="0 0 21 21" fill="none" xmlns="http://www.w3.org/2000/svg">
<path fill-rule="evenodd" clip-rule="evenodd" d="M6.24824 18.3307C7.3076 18.4501 8.69076 18.452 10.6745 18.452C12.6582 18.452 14.0414 18.4501 15.1007 18.3307C16.1349 18.2141 16.7046 17.9989 17.124 17.6771C17.384 17.4776 17.6167 17.2448 17.8162 16.9848C18.138 16.5654 18.3533 15.9957 18.4699 14.9616C18.5893 13.9022 18.5911 12.519 18.5911 10.5353C18.5911 8.5516 18.5893 7.16844 18.4699 6.10908C18.3533 5.07492 18.138 4.50519 17.8162 4.0858C17.6167 3.8258 17.384 3.59308 17.124 3.39358C16.7046 3.07176 16.1349 2.85652 15.1007 2.73994C14.0414 2.62051 12.6582 2.61865 10.6745 2.61865C8.69076 2.61865 7.3076 2.62051 6.24824 2.73994C5.21408 2.85652 4.64435 3.07176 4.22496 3.39358C3.96496 3.59308 3.73224 3.8258 3.53274 4.0858C3.21092 4.50519 2.99568 5.07492 2.8791 6.10908C2.75967 7.16844 2.75781 8.5516 2.75781 10.5353C2.75781 12.519 2.75967 13.9022 2.8791 14.9616C2.99568 15.9957 3.21092 16.5654 3.53274 16.9848C3.73224 17.2448 3.96496 17.4776 4.22496 17.6771C4.64435 17.9989 5.21408 18.2141 6.24824 18.3307ZM2.54105 3.32484C1.50781 4.67138 1.50781 6.62603 1.50781 10.5353C1.50781 14.4446 1.50781 16.3993 2.54105 17.7458C2.80705 18.0925 3.11734 18.4027 3.464 18.6688C4.81054 19.702 6.76519 19.702 10.6745 19.702C14.5838 19.702 16.5384 19.702 17.885 18.6688C18.2316 18.4027 18.5419 18.0925 18.8079 17.7458C19.8411 16.3993 19.8411 14.4446 19.8411 10.5353C19.8411 6.62603 19.8411 4.67138 18.8079 3.32484C18.5419 2.97818 18.2316 2.66789 17.885 2.40189C16.5384 1.36865 14.5838 1.36865 10.6745 1.36865C6.76519 1.36865 4.81054 1.36865 3.464 2.40189C3.11734 2.66789 2.80705 2.97818 2.54105 3.32484Z" fill="#454754"/>
</svg>
