<svg width="18" height="18" viewBox="0 0 18 18" fill="none" xmlns="http://www.w3.org/2000/svg">
    <path fill-rule="evenodd" clip-rule="evenodd" d="M0.458252 5.24967C0.458252 2.60331 2.60355 0.458008 5.24992 0.458008H11.4999C11.8451 0.458008 12.1249 0.73783 12.1249 1.08301C12.1249 1.42819 11.8451 1.70801 11.4999 1.70801H5.24992C3.29391 1.70801 1.70825 3.29367 1.70825 5.24967V12.7497C1.70825 14.7057 3.29391 16.2913 5.24992 16.2913H12.7499C14.7059 16.2913 16.2916 14.7057 16.2916 12.7497V7.33301C16.2916 6.98783 16.5714 6.70801 16.9166 6.70801C17.2618 6.70801 17.5416 6.98783 17.5416 7.33301V12.7497C17.5416 15.396 15.3963 17.5413 12.7499 17.5413H5.24992C2.60355 17.5413 0.458252 15.396 0.458252 12.7497V5.24967Z" fill="#454754"/>
    <path fill-rule="evenodd" clip-rule="evenodd" d="M16.9182 1.45179C17.1748 1.6827 17.1956 2.07788 16.9646 2.33445L9.46447 10.6678C9.34977 10.7952 9.18775 10.87 9.01634 10.8745C8.84494 10.879 8.67922 10.8129 8.55798 10.6916L5.64131 7.77495C5.39723 7.53087 5.39723 7.13514 5.64131 6.89107C5.88539 6.64699 6.28112 6.64699 6.52519 6.89107L8.97605 9.34192L16.0355 1.49823C16.2664 1.24167 16.6616 1.22087 16.9182 1.45179Z" fill="#454754"/>
    </svg>
