<svg width="16" height="16" viewBox="0 0 16 16" fill="none" xmlns="http://www.w3.org/2000/svg">
<path fill-rule="evenodd" clip-rule="evenodd" d="M1.16699 4.99996C1.16699 2.88287 2.88323 1.16663 5.00033 1.16663H10.0003C10.2765 1.16663 10.5003 1.39048 10.5003 1.66663C10.5003 1.94277 10.2765 2.16663 10.0003 2.16663H5.00033C3.43552 2.16663 2.16699 3.43515 2.16699 4.99996V11C2.16699 12.5648 3.43552 13.8333 5.00033 13.8333H11.0003C12.5651 13.8333 13.8337 12.5648 13.8337 11V6.66663C13.8337 6.39048 14.0575 6.16663 14.3337 6.16663C14.6098 6.16663 14.8337 6.39048 14.8337 6.66663V11C14.8337 13.1171 13.1174 14.8333 11.0003 14.8333H5.00033C2.88323 14.8333 1.16699 13.1171 1.16699 11V4.99996Z" fill="#033348"/>
<path fill-rule="evenodd" clip-rule="evenodd" d="M14.3349 1.96165C14.5402 2.14638 14.5568 2.46253 14.3721 2.66778L8.37197 9.33445C8.28021 9.4364 8.15059 9.49618 8.01347 9.49979C7.87635 9.50339 7.74376 9.45051 7.64677 9.35351L5.31344 7.02018C5.11818 6.82492 5.11818 6.50834 5.31344 6.31307C5.5087 6.11781 5.82528 6.11781 6.02055 6.31307L7.98123 8.27376L13.6288 1.99881C13.8135 1.79355 14.1297 1.77692 14.3349 1.96165Z" fill="#033348"/>
</svg>
