<svg width="20" height="20" viewBox="0 0 20 20" fill="none" xmlns="http://www.w3.org/2000/svg">
<path fill-rule="evenodd" clip-rule="evenodd" d="M10.0002 3.95825C6.66344 3.95825 3.9585 6.6632 3.9585 9.99992C3.9585 13.3366 6.66344 16.0416 10.0002 16.0416C13.3369 16.0416 16.0418 13.3366 16.0418 9.99992C16.0418 6.6632 13.3369 3.95825 10.0002 3.95825ZM2.7085 9.99992C2.7085 5.97284 5.97309 2.70825 10.0002 2.70825C14.0272 2.70825 17.2918 5.97284 17.2918 9.99992C17.2918 14.027 14.0272 17.2916 10.0002 17.2916C5.97309 17.2916 2.7085 14.027 2.7085 9.99992ZM9.55572 5.81936C9.9009 5.81936 10.1807 6.09919 10.1807 6.44436V10.1855L11.7754 11.7802C12.0195 12.0243 12.0195 12.42 11.7754 12.6641C11.5314 12.9082 11.1356 12.9082 10.8916 12.6641L9.11378 10.8863C8.99657 10.7691 8.93072 10.6101 8.93072 10.4444V6.44436C8.93072 6.09919 9.21054 5.81936 9.55572 5.81936Z" fill="#454754"/>
</svg>
