<svg width="12" height="12" viewBox="0 0 12 12" fill="none" xmlns="http://www.w3.org/2000/svg">
<path fill-rule="evenodd" clip-rule="evenodd" d="M0.905662 0.487893C1.11741 0.276147 1.46072 0.276147 1.67246 0.487893L11.0741 9.8895C11.2858 10.1012 11.2858 10.4446 11.0741 10.6563C10.8623 10.868 10.519 10.868 10.3073 10.6563L0.905662 1.25469C0.693915 1.04295 0.693915 0.699639 0.905662 0.487893Z" fill="#525252" stroke="#525252" stroke-width="0.5" stroke-linecap="round"/>
<path fill-rule="evenodd" clip-rule="evenodd" d="M0.906838 10.6563C0.695092 10.4446 0.695092 10.1013 0.906838 9.88955L10.3084 0.487941C10.5202 0.276195 10.8635 0.276195 11.0752 0.487941C11.287 0.699688 11.287 1.043 11.0752 1.25474L1.67364 10.6563C1.46189 10.8681 1.11858 10.8681 0.906838 10.6563Z" fill="#525252" stroke="#525252" stroke-width="0.5" stroke-linecap="round"/>
</svg>
