<svg width="22" height="22" viewBox="0 0 22 22" fill="none" xmlns="http://www.w3.org/2000/svg">
<rect width="22" height="22" rx="11" fill="#C2F0F0"/>
<g clip-path="url(#clip0_1736_2843)">
<path d="M5.31493 13.1186C5.33473 12.9301 5.47136 12.7782 5.74461 12.4743L6.34607 11.8019C6.49308 11.6157 6.59741 11.2915 6.59741 10.9997C6.59741 10.7082 6.49305 10.3839 6.34605 10.1978L5.74461 9.52535C5.47136 9.22147 5.33473 9.06953 5.31493 8.88098C5.29512 8.69244 5.39717 8.51532 5.60129 8.16109L5.88922 7.66141C6.10697 7.28351 6.21585 7.09456 6.4011 7.01921C6.58635 6.94386 6.79587 7.00332 7.21489 7.12223L7.9267 7.32272C8.19422 7.38441 8.47489 7.34941 8.71916 7.22391L8.91567 7.11052C9.12514 6.97637 9.28625 6.77856 9.37544 6.54605L9.57024 5.96424C9.69833 5.57923 9.76237 5.38672 9.91484 5.27661C10.0673 5.1665 10.2698 5.1665 10.6749 5.1665H11.3252C11.7302 5.1665 11.9327 5.1665 12.0852 5.27661C12.2377 5.38672 12.3017 5.57923 12.4298 5.96424L12.6246 6.54605C12.7138 6.77856 12.8749 6.97637 13.0844 7.11052L13.2809 7.22391C13.5251 7.34941 13.8058 7.38441 14.0733 7.32272L14.7851 7.12223C15.2042 7.00332 15.4137 6.94386 15.5989 7.01921C15.7842 7.09456 15.8931 7.28351 16.1108 7.66141L16.3987 8.16109C16.6029 8.51532 16.7049 8.69244 16.6851 8.88098C16.6653 9.06953 16.5287 9.22147 16.2554 9.52535L15.654 10.1978C15.507 10.3839 15.4026 10.7082 15.4026 10.9997C15.4026 11.2915 15.5069 11.6157 15.654 11.8019L16.2554 12.4743C16.5287 12.7782 16.6653 12.9301 16.6851 13.1186C16.7049 13.3072 16.6029 13.4843 16.3987 13.8385L16.1108 14.3382C15.8931 14.7161 15.7842 14.9051 15.5989 14.9804C15.4137 15.0558 15.2042 14.9963 14.7851 14.8774L14.0734 14.6769C13.8058 14.6152 13.5251 14.6502 13.2808 14.7757L13.0843 14.8891C12.8749 15.0233 12.7138 15.2211 12.6246 15.4536L12.4298 16.0354C12.3017 16.4204 12.2377 16.613 12.0852 16.7231C11.9327 16.8332 11.7302 16.8332 11.3252 16.8332H10.6749C10.2698 16.8332 10.0673 16.8332 9.91484 16.7231C9.76237 16.613 9.69833 16.4204 9.57024 16.0354" stroke="#141B34" stroke-width="0.7" stroke-linecap="round"/>
<path d="M13.0235 12.9997L13.271 13.2472L13.0235 12.9997ZM13.4791 10.2127L13.1291 10.2112V10.2127H13.4791ZM13.0904 10.0509L13.3378 10.2984V10.2984L13.0904 10.0509ZM12.0073 11.1335L11.7598 10.886V10.886L12.0073 11.1335ZM11.0118 11.1335L11.2593 10.8859L11.0118 11.1335ZM9.14607 9.12206L9.39354 9.36956L9.14607 9.12206ZM11.9335 8.66661V9.01661L11.935 9.01661L11.9335 8.66661ZM12.0953 9.05523L12.3428 9.3027L12.3428 9.3027L12.0953 9.05523ZM11.0125 10.1381L10.765 9.89065L10.765 9.89065L11.0125 10.1381ZM5.64314 14.906L5.89063 15.1535L5.89064 15.1535L5.64314 14.906ZM7.23963 16.5025L7.48712 16.75L7.48714 16.75L7.23963 16.5025ZM8.69246 11.0308L8.3425 11.0259L8.69246 11.0308ZM8.60771 11.8374L8.2853 11.7012L8.60771 11.8374ZM11.1144 13.4532L11.1095 13.1032L11.1144 13.4532ZM9.70005 14.0418L9.45254 13.7943L9.70005 14.0418ZM10.3077 13.538L10.4439 13.8604L10.3077 13.538ZM11.1144 13.4532L11.1193 13.8032C11.577 13.7968 11.99 13.7762 12.342 13.7036C12.6976 13.6303 13.0199 13.4982 13.271 13.2472L13.0235 12.9997L12.7761 12.7522C12.6559 12.8723 12.479 12.9606 12.2006 13.0181C11.9185 13.0763 11.5625 13.0969 11.1095 13.1032L11.1144 13.4532ZM13.0235 12.9997L13.271 13.2472C13.3981 13.1201 13.5135 12.9901 13.6023 12.8271C13.6926 12.6614 13.7443 12.4823 13.7757 12.2671C13.8349 11.8601 13.8291 11.2455 13.8291 10.2127H13.4791H13.1291C13.1291 11.2826 13.1328 11.8242 13.083 12.1663C13.0598 12.3257 13.0273 12.4194 12.9876 12.4922C12.9465 12.5677 12.8863 12.6419 12.7761 12.7522L13.0235 12.9997ZM13.4791 10.2127L13.8291 10.2142C13.8313 9.69778 13.2072 9.43924 12.8429 9.80334L13.0904 10.0509L13.3378 10.2984C13.261 10.3752 13.1286 10.3212 13.1291 10.2112L13.4791 10.2127ZM13.0904 10.0509L12.8429 9.80334L11.7598 10.886L12.0073 11.1335L12.2547 11.3811L13.3378 10.2984L13.0904 10.0509ZM12.0073 11.1335L11.7598 10.886C11.6216 11.0241 11.3975 11.0241 11.2593 10.8859L11.0118 11.1335L10.7643 11.381C11.1759 11.7924 11.8431 11.7925 12.2547 11.3811L12.0073 11.1335ZM8.69246 11.0308L9.04243 11.0357C9.04877 10.5829 9.06942 10.2271 9.12763 9.94499C9.18509 9.66651 9.2734 9.48969 9.39354 9.36956L9.14607 9.12206L8.89861 8.87455C8.64755 9.12556 8.51543 9.44798 8.44207 9.80353C8.36945 10.1555 8.3489 10.5684 8.3425 11.0259L8.69246 11.0308ZM9.14607 9.12206L9.39354 9.36956C9.50382 9.25931 9.57801 9.19915 9.65353 9.15803C9.72637 9.11837 9.82015 9.08589 9.9796 9.06269C10.3218 9.01288 10.8635 9.01661 11.9335 9.01661V8.66661V8.31661C10.9005 8.31661 10.2859 8.31073 9.87878 8.36998C9.66359 8.40131 9.48449 8.45303 9.31878 8.54326C9.15574 8.63204 9.0257 8.74748 8.89861 8.87455L9.14607 9.12206ZM11.9335 8.66661L11.935 9.01661C11.8253 9.01708 11.7709 8.88474 11.8478 8.80775L12.0953 9.05523L12.3428 9.3027C12.7072 8.9383 12.4482 8.3144 11.932 8.31661L11.9335 8.66661ZM12.0953 9.05523L11.8479 8.80775L10.765 9.89065L11.0125 10.1381L11.26 10.3856L12.3428 9.3027L12.0953 9.05523ZM11.0125 10.1381L10.765 9.89065C10.354 10.3017 10.3523 10.9689 10.7643 11.381L11.0118 11.1335L11.2593 10.8859C11.1216 10.7483 11.1214 10.5243 11.26 10.3856L11.0125 10.1381ZM5.64314 16.5025L5.89063 16.255C5.58646 15.9509 5.58646 15.4577 5.89063 15.1535L5.64314 14.906L5.39566 14.6585C4.81811 15.2361 4.81811 16.1725 5.39566 16.75L5.64314 16.5025ZM7.23963 16.5025L6.99215 16.255C6.68797 16.5592 6.19481 16.5592 5.89063 16.255L5.64314 16.5025L5.39566 16.75C5.9732 17.3276 6.90958 17.3276 7.48712 16.75L7.23963 16.5025ZM9.70005 14.0418L9.45254 13.7943L6.99213 16.2551L7.23963 16.5025L7.48714 16.75L9.94755 14.2892L9.70005 14.0418ZM5.64314 14.906L5.89064 15.1535L8.35154 12.6925L8.10404 12.445L7.85655 12.1975L5.39565 14.6586L5.64314 14.906ZM8.69246 11.0308L8.3425 11.0259C8.33623 11.4736 8.32833 11.5993 8.2853 11.7012L8.60771 11.8374L8.93012 11.9736C9.03906 11.7157 9.037 11.4237 9.04243 11.0357L8.69246 11.0308ZM8.10404 12.445L8.35154 12.6925C8.61671 12.4273 8.82134 12.2311 8.93012 11.9736L8.60771 11.8374L8.2853 11.7012C8.24211 11.8035 8.16162 11.8924 7.85655 12.1975L8.10404 12.445ZM11.1144 13.4532L11.1095 13.1032C10.7215 13.1087 10.4294 13.1066 10.1715 13.2156L10.3077 13.538L10.4439 13.8604C10.5458 13.8173 10.6716 13.8094 11.1193 13.8032L11.1144 13.4532ZM9.70005 14.0418L9.94755 14.2892C10.2527 13.9841 10.3416 13.9036 10.4439 13.8604L10.3077 13.538L10.1715 13.2156C9.91391 13.3244 9.71774 13.5291 9.45254 13.7943L9.70005 14.0418Z" fill="#141B34"/>
</g>
<defs>
<clipPath id="clip0_1736_2843">
<rect width="14" height="14" fill="white" transform="translate(4 4)"/>
</clipPath>
</defs>
</svg>