<svg width="24" height="24" viewBox="0 0 24 24" fill="none" xmlns="http://www.w3.org/2000/svg">
<path d="M2 16.7525V8.25434C2 6.0452 3.79086 4.25434 6 4.25434H18C20.2091 4.25434 22 6.0452 22 8.25434V16.7525C22 18.9617 20.2091 20.7525 18 20.7525H6C3.79086 20.7525 2 18.9617 2 16.7525Z" stroke="#FFFFFF" stroke-width="1.5"/>
<path d="M18.9964 18.8444H5.00357L12 17.2477L13.999 15.651L15.4982 17.2477L18.9964 14.5866V18.8444Z" fill="#FFFFFF" stroke="#FFFFFF" stroke-width="0.481614" stroke-linejoin="round"/>
<path d="M10.7443 11.8864C9.88915 13.9131 7.10824 14.5037 5.51422 12.9244C3.95121 11.376 4.43511 8.57061 6.49029 7.67189" stroke="#FFFFFF" stroke-width="0.963228" stroke-linecap="round"/>
<path d="M9.78133 10.7487C10.4267 10.7487 10.7493 10.7487 10.9577 10.4598C10.9655 10.449 10.9785 10.4297 10.9854 10.4183C11.1726 10.1153 11.0761 9.88243 10.8833 9.41672C10.7083 8.99443 10.4519 8.61072 10.1287 8.28751C9.80551 7.9643 9.42182 7.70791 8.99951 7.53299C8.53382 7.3401 8.30097 7.24364 7.9979 7.4308C7.98659 7.43779 7.9672 7.45074 7.9564 7.45852C7.66752 7.6669 7.66752 7.98957 7.66752 8.6349V9.35645C7.66752 10.0128 7.66752 10.3409 7.87141 10.5448C8.0753 10.7487 8.40346 10.7487 9.05978 10.7487H9.78133Z" stroke="#FFFFFF" stroke-width="0.963228"/>
<path d="M16.018 8.07292V11.5845C16.018 11.7206 16.018 11.7886 16.033 11.8444C16.0736 11.9959 16.1919 12.1142 16.3434 12.1548C16.3992 12.1698 16.4672 12.1698 16.6033 12.1698C16.7394 12.1698 16.8074 12.1698 16.8632 12.1548C17.0147 12.1142 17.133 11.9959 17.1736 11.8444C17.1885 11.7886 17.1885 11.7206 17.1885 11.5845V8.07292C17.1885 7.93685 17.1885 7.86882 17.1736 7.81301C17.133 7.66152 17.0147 7.54321 16.8632 7.50262C16.8074 7.48766 16.7394 7.48766 16.6033 7.48766C16.4672 7.48766 16.3992 7.48766 16.3434 7.50262C16.1919 7.54321 16.0736 7.66152 16.033 7.81301C16.018 7.86882 16.018 7.93685 16.018 8.07292Z" fill="#FFFFFF" stroke="#FFFFFF" stroke-width="0.770583" stroke-linecap="round" stroke-linejoin="round"/>
<path d="M13.5509 10.9992V11.5845C13.5509 11.7206 13.5509 11.7886 13.5659 11.8444C13.6065 11.9959 13.7248 12.1142 13.8763 12.1548C13.9321 12.1698 14.0001 12.1698 14.1362 12.1698C14.2722 12.1698 14.3403 12.1698 14.3961 12.1548C14.5476 12.1142 14.6659 11.9959 14.7065 11.8444C14.7214 11.7886 14.7214 11.7206 14.7214 11.5845V10.9992C14.7214 10.8632 14.7214 10.7951 14.7065 10.7393C14.6659 10.5878 14.5476 10.4695 14.3961 10.4289C14.3403 10.414 14.2722 10.414 14.1362 10.414C14.0001 10.414 13.9321 10.414 13.8763 10.4289C13.7248 10.4695 13.6065 10.5878 13.5659 10.7393C13.5509 10.7951 13.5509 10.8632 13.5509 10.9992Z" fill="#FFFFFF" stroke="#FFFFFF" stroke-width="0.770583" stroke-linecap="round" stroke-linejoin="round"/>
<path d="M18.4851 9.82871V11.5845C18.4851 11.7206 18.4851 11.7886 18.5001 11.8444C18.5407 11.9959 18.659 12.1142 18.8105 12.1548C18.8663 12.1698 18.9343 12.1698 19.0704 12.1698C19.2065 12.1698 19.2745 12.1698 19.3303 12.1548C19.4818 12.1142 19.6001 11.9959 19.6407 11.8444C19.6556 11.7886 19.6556 11.7206 19.6556 11.5845V9.82871C19.6556 9.69263 19.6556 9.6246 19.6407 9.56879C19.6001 9.4173 19.4818 9.29899 19.3303 9.2584C19.2745 9.24345 19.2065 9.24345 19.0704 9.24345C18.9343 9.24345 18.8663 9.24345 18.8105 9.2584C18.659 9.29899 18.5407 9.4173 18.5001 9.56879C18.4851 9.6246 18.4851 9.69263 18.4851 9.82871Z" fill="#FFFFFF" stroke="#FFFFFF" stroke-width="0.770583" stroke-linecap="round" stroke-linejoin="round"/>
</svg>
