<svg width="27" height="27" viewBox="0 0 27 27" fill="none" xmlns="http://www.w3.org/2000/svg">
<path d="M0 7.54685C0 3.37884 3.37884 0 7.54684 0H18.5156C22.6836 0 26.0625 3.37884 26.0625 7.54684V18.5156C26.0625 22.6836 22.6836 26.0625 18.5156 26.0625H7.54685C3.37884 26.0625 0 22.6836 0 18.5156V7.54685Z" fill="white"/>
<path d="M6.375 16.6975C7.84138 16.6975 9.03012 17.8862 9.03012 19.3526" stroke="white" stroke-linecap="round" stroke-linejoin="round"/>
<path d="M17.0312 19.3526V19.2913C17.0312 17.8588 18.1926 16.6975 19.6251 16.6975" stroke="white" stroke-linecap="round" stroke-linejoin="round"/>
<path d="M9.03012 10.0422C9.03012 11.5086 7.84138 12.6974 6.375 12.6974" stroke="white" stroke-linecap="round" stroke-linejoin="round"/>
<path d="M17.0312 10.0422C17.0312 11.4958 18.2106 12.6765 19.6595 12.6971" stroke="white" stroke-linecap="round" stroke-linejoin="round"/>
<path d="M16.3652 10.032C17.8152 10.04 18.6005 10.1043 19.1128 10.6166C19.6986 11.2024 19.6986 12.1452 19.6986 14.0308V15.3641C19.6986 17.2498 19.6986 18.1926 19.1128 18.7784C18.527 19.3641 17.5842 19.3641 15.6986 19.3641H10.3652C8.47961 19.3641 7.53681 19.3641 6.95102 18.7784C6.36523 18.1926 6.36523 17.2498 6.36523 15.3641V14.0308C6.36523 12.1452 6.36523 11.2024 6.95102 10.6166C7.46327 10.1043 8.24855 10.04 9.69857 10.032" stroke="#2E3038" stroke-linecap="round" stroke-linejoin="round"/>
<path d="M15.0313 14.6975C15.0313 15.802 14.1359 16.6975 13.0313 16.6975C11.9266 16.6975 11.0312 15.802 11.0312 14.6975C11.0312 13.5929 11.9266 12.6975 13.0313 12.6975C14.1359 12.6975 15.0313 13.5929 15.0313 14.6975Z" stroke="#28A2A2" stroke-linecap="round" stroke-linejoin="round"/>
<path d="M11.3652 8.36515C11.3652 8.36515 12.5651 6.69849 13.0319 6.69849C13.4987 6.69849 14.6986 8.36515 14.6986 8.36515M13.0319 10.3652V7.03182" stroke="#28A2A2" stroke-linecap="round" stroke-linejoin="round"/>
</svg>
