<svg width="12" height="12" viewBox="0 0 12 12" fill="none" xmlns="http://www.w3.org/2000/svg">
    <path d="M6.49994 10.875C6.49994 10.6679 6.66784 10.5 6.87494 10.5H10.8749C11.0821 10.5 11.2499 10.6679 11.2499 10.875C11.2499 11.0821 11.0821 11.25 10.8749 11.25H6.87494C6.66784 11.25 6.49994 11.0821 6.49994 10.875Z" fill="#045071"/>
    <path fill-rule="evenodd" clip-rule="evenodd" d="M7.47695 0.772162C8.06924 0.419897 8.79976 0.408863 9.40216 0.743296C9.65199 0.882008 9.87988 1.11497 10.2188 1.46139L10.2654 1.50905L10.3112 1.55581C10.6512 1.90292 10.8789 2.13532 11.014 2.38938C11.3383 2.99892 11.3277 3.7363 10.9859 4.33603C10.8434 4.58599 10.6092 4.8115 10.2593 5.14825C8.65574 6.69188 7.0527 8.23609 5.44989 9.78053C4.75945 10.4458 4.33391 10.8558 3.79542 11.0661C3.19167 11.302 2.52238 11.273 1.87413 11.2449C1.74086 11.2391 1.60848 11.2334 1.47774 11.23C1.33872 11.2264 1.19817 11.2228 1.08213 11.2034C0.948871 11.1811 0.790615 11.13 0.665412 10.988C0.541278 10.8471 0.50943 10.6845 0.501978 10.5508C0.495389 10.4326 0.506458 10.291 0.517581 10.1486C0.527455 10.0222 0.535175 9.89464 0.542921 9.76668C0.577541 9.19476 0.612665 8.61451 0.842857 8.08467C1.04374 7.62229 1.3869 7.2506 1.94671 6.64424L2.37335 6.18212C3.80956 4.62649 5.24578 3.07086 6.68126 1.51457C7.01021 1.15795 7.23127 0.918286 7.47695 0.772162ZM2.54523 7.10159L6.63746 2.66785L9.14746 5.17784L4.9901 9.18206C4.21884 9.92493 3.90441 10.2184 3.52253 10.3676C3.0329 10.5588 2.45983 10.5279 1.92177 10.4989C1.78404 10.4915 1.6486 10.4842 1.51745 10.4808C1.39634 10.4776 1.306 10.4746 1.24989 10.4692C1.25008 10.4091 1.25619 10.3241 1.26685 10.1872C1.27658 10.0624 1.28326 9.93449 1.29003 9.8051C1.31528 9.32212 1.34159 8.8189 1.53074 8.38353C1.67498 8.05152 1.92317 7.77558 2.54523 7.10159ZM9.03811 1.39901C8.66922 1.19423 8.22335 1.20087 7.86034 1.41677L7.14655 2.11628L9.68774 4.65746L9.69195 4.65341C10.1062 4.25438 10.2525 4.10811 10.3343 3.96467C10.5487 3.58851 10.5554 3.12419 10.3518 2.74155C10.2742 2.59564 10.1321 2.445 9.72947 2.03371C9.32635 1.6219 9.17949 1.47751 9.03811 1.39901Z" fill="#045071"/>
    </svg>
    