<svg width="16" height="17" viewBox="0 0 16 17" fill="none" xmlns="http://www.w3.org/2000/svg">
<path d="M11.8439 1.8877C12.3728 1.8877 12.8209 1.88661 13.1727 1.93457C13.5369 1.98423 13.8853 2.0962 14.1519 2.38965L14.2437 2.50358C14.438 2.77514 14.4946 3.08818 14.4995 3.40723C14.5022 3.58167 14.4895 3.77774 14.4676 3.99382L14.3824 4.7002C14.3599 4.87468 14.3263 5.04359 14.256 5.21257C14.2026 5.34123 14.1341 5.45568 14.0516 5.56608L13.9644 5.67546C13.3113 6.45137 12.0968 7.85297 10.3876 9.12988L10.3882 9.13054C10.3674 9.14606 10.3423 9.17738 10.3283 9.22298L10.3185 9.27376C10.153 11.104 9.9996 12.1181 9.90123 12.6429C9.78696 13.2523 9.31577 13.6774 8.9149 13.9678C8.70425 14.1204 8.48127 14.2574 8.28404 14.3773C8.18153 14.4396 8.08787 14.4961 8.00279 14.5492L7.77298 14.7002C7.40969 14.9571 6.99243 14.9277 6.68118 14.7464C6.42305 14.596 6.22437 14.3367 6.14993 14.0316L6.12519 13.8981C6.05651 13.3179 5.94305 12.2922 5.81139 10.8499L5.67467 9.26921C5.67014 9.21443 5.64959 9.17298 5.62779 9.14681L5.60566 9.12533C4.11317 8.00943 2.99901 6.79828 2.30683 5.99382L2.036 5.67546C1.91379 5.53026 1.81562 5.3841 1.74433 5.21257C1.69164 5.08572 1.65914 4.95888 1.63691 4.82975L1.61803 4.7002C1.5526 4.19154 1.49544 3.75604 1.50084 3.40723C1.50649 3.04258 1.57962 2.68566 1.8485 2.38965L1.95266 2.28809C2.20285 2.06944 2.50907 1.97802 2.82766 1.93457C3.17948 1.88661 3.62761 1.8877 4.15644 1.8877H11.8439ZM4.15644 2.8877C3.59858 2.8877 3.2315 2.88889 2.96308 2.92546C2.77086 2.95167 2.67929 2.9904 2.62845 3.02702L2.58873 3.06218C2.55038 3.10443 2.50396 3.17915 2.50019 3.42285C2.49619 3.68259 2.5402 4.03338 2.60957 4.57259L2.63691 4.72949C2.64648 4.77036 2.65638 4.80162 2.66751 4.82845C2.68875 4.87959 2.7234 4.93941 2.80097 5.03158L3.06464 5.34147C3.7353 6.1208 4.79411 7.26997 6.20462 8.32455L6.30227 8.40723C6.51841 8.61108 6.6473 8.89336 6.67141 9.18783L6.80748 10.7588C6.93833 12.1922 7.05101 13.2093 7.11868 13.7809L7.12584 13.8096C7.12956 13.8194 7.13479 13.8295 7.14147 13.8395C7.15528 13.8603 7.17145 13.8749 7.18444 13.8825C7.18692 13.8839 7.18919 13.8849 7.19095 13.8857C7.19207 13.885 7.19391 13.8849 7.1955 13.8838L7.4735 13.7008C7.57045 13.6403 7.6695 13.5802 7.76451 13.5225C7.96239 13.4021 8.15398 13.2842 8.32832 13.1579C8.69727 12.8906 8.87971 12.6634 8.91816 12.4587L8.99628 11.9971C9.08443 11.4323 9.19963 10.5411 9.32246 9.18327L9.34003 9.05957C9.39523 8.7732 9.55041 8.5083 9.78925 8.32975L10.0868 8.10189C11.547 6.95853 12.5997 5.74409 13.1994 5.03158L13.2873 4.91504C13.3083 4.8822 13.3222 4.85407 13.3329 4.82845C13.3551 4.77479 13.3739 4.70376 13.3908 4.57259L13.4728 3.89291C13.492 3.70535 13.5022 3.55274 13.5002 3.42285C13.4974 3.2398 13.4704 3.15204 13.4409 3.10189L13.4116 3.06218C13.371 3.01738 13.2934 2.96037 13.0373 2.92546C12.7689 2.88889 12.4018 2.8877 11.8439 2.8877H4.15644Z" stroke="#033348" stroke-width="1.5" stroke-linecap="round" stroke-linejoin="round"/>
</svg>
