<svg width="24" height="24" viewBox="0 0 24 24" fill="none" xmlns="http://www.w3.org/2000/svg">
<path fill-rule="evenodd" clip-rule="evenodd" d="M20.6391 3.36089C19.7809 2.5027 18.6886 2.11567 17.3119 1.93058C15.5585 1.69484 13.7645 1.74999 12 1.74999C10.2354 1.74999 8.44146 1.69484 6.68801 1.93058C5.31136 2.11567 4.2191 2.50271 3.3609 3.3609C2.5027 4.2191 2.11567 5.31136 1.93058 6.68801C1.69484 8.44146 1.74999 10.2354 1.74999 12C1.74999 13.7645 1.69484 15.5585 1.93058 17.3119C2.11567 18.6886 2.50272 19.7809 3.36091 20.6391C4.21911 21.4973 5.31136 21.8843 6.68802 22.0694C8.44147 22.3051 10.2354 22.25 12 22.25C13.7645 22.25 15.5585 22.3051 17.3119 22.0694C18.6886 21.8843 19.7809 21.4973 20.6391 20.6391C21.4973 19.7809 21.8843 18.6886 22.0694 17.3119C22.3051 15.5585 22.25 13.7645 22.25 12C22.25 10.2354 22.3051 8.44147 22.0694 6.68802C21.8843 5.31136 21.4973 4.21909 20.6391 3.36089ZM6.88789 3.41721C5.67756 3.57993 4.95461 3.88851 4.42156 4.42156C3.88852 4.9546 3.57993 5.67756 3.41721 6.88789C3.25158 8.11979 3.24999 9.73962 3.24999 12C3.24999 12.4477 3.25005 12.8703 3.25144 13.2697C6.97182 13.0954 10.7506 14.1576 13.5376 16.7081C15.679 15.3689 18.2656 14.877 20.7071 15.5812C20.7494 14.6007 20.75 13.4282 20.75 12C20.75 9.73962 20.7484 8.11978 20.5828 6.88788C20.4201 5.67757 20.1115 4.95462 19.5785 4.42157C19.0454 3.88853 18.3224 3.57993 17.1121 3.41721C15.8802 3.25158 14.2603 3.24999 12 3.24999C9.73962 3.24999 8.11979 3.25158 6.88789 3.41721ZM3.41721 17.1121C3.32884 16.4548 3.28717 15.6872 3.26752 14.7707C7.77964 14.5419 12.665 16.4844 14.7218 20.7335C13.9322 20.7497 13.033 20.75 12 20.75C9.73962 20.75 8.11978 20.7484 6.88788 20.5828C5.67757 20.4201 4.95459 20.1115 4.42155 19.5784C3.88851 19.0454 3.57993 18.3224 3.41721 17.1121ZM16.3326 20.6631C16.609 20.6419 16.8681 20.6156 17.1121 20.5828C18.3224 20.4201 19.0454 20.1115 19.5784 19.5785C20.1113 19.0455 20.4199 18.3228 20.5827 17.113C18.5782 16.444 16.4199 16.7631 14.6018 17.8177L16.3326 20.6631Z" fill="#2E3038"/>
<path fill-rule="evenodd" clip-rule="evenodd" d="M16.5 5.24999C15.2573 5.24999 14.25 6.25735 14.25 7.49999C14.25 8.74263 15.2573 9.74999 16.5 9.74999C17.7426 9.74999 18.75 8.74263 18.75 7.49999C18.75 6.25735 17.7426 5.24999 16.5 5.24999ZM16.5 6.74999C16.0858 6.74999 15.75 7.08577 15.75 7.49999C15.75 7.9142 16.0858 8.24999 16.5 8.24999C16.9142 8.24999 17.25 7.9142 17.25 7.49999C17.25 7.08577 16.9142 6.74999 16.5 6.74999Z" fill="#2E3038"/>
</svg>
