<svg width="22" height="22" viewBox="0 0 22 22" fill="none" xmlns="http://www.w3.org/2000/svg">
    <rect width="22" height="22" rx="11" fill="#C2F0F0"/>
    <path fill-rule="evenodd" clip-rule="evenodd" d="M10.9993 13.1875C10.2745 13.1875 9.68685 13.7751 9.68685 14.5C9.68685 15.2249 10.2745 15.8125 10.9993 15.8125C11.7242 15.8125 12.3118 15.2249 12.3118 14.5C12.3118 13.7751 11.7242 13.1875 10.9993 13.1875ZM8.81185 14.5C8.81185 13.2919 9.79123 12.3125 10.9993 12.3125C12.2075 12.3125 13.1868 13.2919 13.1868 14.5C13.1868 15.7081 12.2075 16.6875 10.9993 16.6875C9.79123 16.6875 8.81185 15.7081 8.81185 14.5Z" fill="#2E3038"/>
    <path fill-rule="evenodd" clip-rule="evenodd" d="M10.9993 9.39583C11.241 9.39583 11.4368 9.59171 11.4368 9.83333V12.75C11.4368 12.9916 11.241 13.1875 10.9993 13.1875C10.7577 13.1875 10.5618 12.9916 10.5618 12.75V9.83333C10.5618 9.59171 10.7577 9.39583 10.9993 9.39583Z" fill="#2E3038"/>
    <path fill-rule="evenodd" clip-rule="evenodd" d="M4.72852 11.5833C4.72852 8.12005 7.53606 5.3125 10.9993 5.3125C14.4626 5.3125 17.2702 8.12004 17.2702 11.5833C17.2702 11.825 17.0743 12.0208 16.8327 12.0208C16.5911 12.0208 16.3952 11.825 16.3952 11.5833C16.3952 8.6033 13.9794 6.1875 10.9993 6.1875C8.01931 6.1875 5.60352 8.6033 5.60352 11.5833C5.60352 11.825 5.40764 12.0208 5.16602 12.0208C4.92439 12.0208 4.72852 11.825 4.72852 11.5833Z" fill="#2E3038"/>
    </svg>
    