<svg width="22" height="22" viewBox="0 0 22 22" fill="none" xmlns="http://www.w3.org/2000/svg">
    <rect width="22" height="22" rx="11" fill="#C2F0F0"/>
    <path fill-rule="evenodd" clip-rule="evenodd" d="M9.51248 4.72913H9.56955C10.5042 4.72912 11.2447 4.72911 11.8305 4.79836C12.4319 4.86944 12.9269 5.01868 13.3405 5.35807C13.4808 5.4732 13.6094 5.60188 13.7246 5.74218C14.0463 6.13415 14.1971 6.59959 14.2725 7.15949C14.3337 7.61379 14.3486 8.16056 14.3523 8.81869C14.7948 8.82784 15.1777 8.85093 15.5048 8.91101C15.947 8.99223 16.3232 9.14695 16.6295 9.45316C16.9806 9.80429 17.1316 10.2464 17.2022 10.7715C17.2702 11.2772 17.2702 11.9202 17.2702 12.718V13.3653C17.2702 14.1631 17.2702 14.8061 17.2022 15.3118C17.1316 15.8369 16.9806 16.279 16.6295 16.6301C16.2783 16.9812 15.8363 17.1322 15.3112 17.2028C14.8055 17.2708 14.1624 17.2708 13.3647 17.2708H12.7173C11.9196 17.2708 11.2766 17.2708 10.7708 17.2028C10.2458 17.1322 9.80368 16.9812 9.45256 16.6301C9.14635 16.3239 8.99162 15.9476 8.9104 15.5054C8.85032 15.1783 8.82722 14.7955 8.81808 14.3529C8.15995 14.3492 7.61318 14.3344 7.15888 14.2732C6.59898 14.1977 6.13354 14.0469 5.74157 13.7252C5.60127 13.61 5.47262 13.4814 5.35749 13.3411C5.0181 12.9276 4.86883 12.4325 4.79775 11.8311C4.7285 11.2453 4.72851 10.5048 4.72852 9.57016V9.51309C4.72851 8.57844 4.7285 7.83798 4.79775 7.25219C4.86883 6.65079 5.01807 6.15572 5.35747 5.74216C5.4726 5.60187 5.60124 5.47322 5.74155 5.35808C6.1551 5.01869 6.65018 4.86944 7.25158 4.79836C7.83737 4.72911 8.57783 4.72912 9.51248 4.72913ZM8.81185 13.334L8.81186 13.4778C8.16468 13.4739 7.67185 13.4594 7.2757 13.406C6.80417 13.3425 6.51644 13.2292 6.29663 13.0487C6.20063 12.97 6.11261 12.882 6.03383 12.786C5.84359 12.5542 5.72802 12.2471 5.6667 11.7284C5.60423 11.1999 5.60352 10.5112 5.60352 9.54163C5.60352 8.57206 5.60423 7.88335 5.6667 7.3549C5.72802 6.83611 5.8436 6.52908 6.03385 6.29726C6.11264 6.20125 6.20067 6.11323 6.29665 6.03446C6.52847 5.84421 6.8355 5.72863 7.35429 5.66731C7.88274 5.60484 8.57145 5.60413 9.54102 5.60413C10.5106 5.60413 11.1993 5.60484 11.7277 5.66731C12.2465 5.72863 12.5535 5.8442 12.7854 6.03444C12.8814 6.11323 12.9694 6.20129 13.0482 6.29727C13.2286 6.51708 13.3419 6.80478 13.4054 7.27631C13.4587 7.67246 13.4733 8.16529 13.4772 8.81247L13.3334 8.81246L12.7173 8.81246C11.9196 8.81245 11.2766 8.81244 10.7708 8.88043C10.2458 8.95102 9.80367 9.10206 9.45255 9.45317C9.10144 9.8043 8.95041 10.2464 8.87982 10.7715C8.81183 11.2772 8.81184 11.9202 8.81185 12.718L8.81185 13.334ZM10.8874 9.74763C10.4594 9.80517 10.2327 9.91043 10.0713 10.0719C9.90983 10.2333 9.80456 10.46 9.74702 10.888C9.68778 11.3287 9.68685 11.9126 9.68685 12.75V13.3333C9.68685 13.5407 9.68685 13.7335 9.68786 13.9142C9.69141 14.5521 9.70797 15.0042 9.771 15.3473C9.83174 15.678 9.92926 15.8693 10.0713 16.0114C10.2327 16.1728 10.4594 16.2781 10.8874 16.3356C11.3281 16.3949 11.912 16.3958 12.7493 16.3958H13.3327C14.17 16.3958 14.754 16.3949 15.1946 16.3356C15.6226 16.2781 15.8493 16.1728 16.0107 16.0114C16.1722 15.8499 16.2775 15.6232 16.335 15.1952C16.3943 14.7546 16.3952 14.1706 16.3952 13.3333V12.75C16.3952 11.9126 16.3943 11.3287 16.335 10.888C16.2775 10.46 16.1722 10.2333 16.0108 10.0719C15.8687 9.92987 15.6773 9.83235 15.3467 9.77161C15.0036 9.70858 14.5514 9.69202 13.9136 9.68847C13.7329 9.68746 13.5401 9.68746 13.3327 9.68746H12.7493C11.912 9.68746 11.3281 9.68839 10.8874 9.74763Z" fill="#2E3038"/>
    </svg>
    