<svg width="25" height="24" viewBox="0 0 25 24" fill="none" xmlns="http://www.w3.org/2000/svg">
<path fill-rule="evenodd" clip-rule="evenodd" d="M12.1429 19.5C16.285 19.5 19.6429 16.1421 19.6429 12C19.6429 7.8579 16.285 4.5 12.1429 4.5C8.00084 4.5 4.64294 7.8579 4.64294 12C4.64294 16.1421 8.00084 19.5 12.1429 19.5ZM12.1429 21C17.1135 21 21.1429 16.9706 21.1429 12C21.1429 7.0294 17.1135 3 12.1429 3C7.17234 3 3.14294 7.0294 3.14294 12C3.14294 16.9706 7.17234 21 12.1429 21ZM13.1429 8C13.1429 8.5523 12.6952 9 12.1429 9C11.5906 9 11.1429 8.5523 11.1429 8C11.1429 7.4477 11.5906 7 12.1429 7C12.6952 7 13.1429 7.4477 13.1429 8ZM12.8929 11C12.8929 10.5858 12.5571 10.25 12.1429 10.25C11.7287 10.25 11.3929 10.5858 11.3929 11V16C11.3929 16.4142 11.7287 16.75 12.1429 16.75C12.5571 16.75 12.8929 16.4142 12.8929 16V11Z" fill="#033348"/>
</svg>
