<svg width="28" height="28" viewBox="0 0 28 28" fill="none" xmlns="http://www.w3.org/2000/svg">
<path d="M12.8368 2.33337H11.6739C7.84521 2.33337 5.93084 2.33337 4.57383 3.28283C4.07178 3.6341 3.6351 4.07043 3.28356 4.5721C2.33337 5.92806 2.33337 7.84094 2.33337 11.6667C2.33337 15.4925 2.33337 17.4054 3.28356 18.7613C3.6351 19.263 4.07178 19.6993 4.57383 20.0506C5.93084 21 7.84521 21 11.6739 21H16.3442C20.173 21 22.0873 21 23.4443 20.0506C23.9464 19.6993 24.3831 19.263 24.7346 18.7613C25.4515 17.7383 25.6274 16.4432 25.6667 15.1667" stroke="#C7C9D1" stroke-width="1.75" stroke-linecap="round"/>
<path d="M21 11.3334V12.8334M21 11.3334C19.6505 11.3334 18.4614 10.6705 17.7641 9.66391M21 11.3334C22.3496 11.3334 23.5386 10.6705 24.236 9.66391M21 3.83337C22.3497 3.83337 23.5388 4.49638 24.2362 5.50306M21 3.83337C19.6504 3.83337 18.4613 4.49638 17.7639 5.50306M21 3.83337V2.33337M25.6667 4.58337L24.2362 5.50306M16.3339 10.5834L17.7641 9.66391M16.3334 4.58337L17.7639 5.50306M25.6662 10.5834L24.236 9.66391M24.2362 5.50306C24.6485 6.09834 24.8889 6.81378 24.8889 7.58337C24.8889 8.35306 24.6485 9.06859 24.236 9.66391M17.7639 5.50306C17.3516 6.09834 17.1112 6.81378 17.1112 7.58337C17.1112 8.35306 17.3516 9.06859 17.7641 9.66391" stroke="#C7C9D1" stroke-width="1.75" stroke-linecap="round"/>
<path d="M12.8334 17.5H15.1667" stroke="#C7C9D1" stroke-width="1.75" stroke-linecap="round" stroke-linejoin="round"/>
<path d="M14 21V25.6667" stroke="#C7C9D1" stroke-width="1.75"/>
<path d="M9.33337 25.6667H18.6667" stroke="#C7C9D1" stroke-width="1.75" stroke-linecap="round"/>
</svg>
