<svg width="22" height="22" viewBox="0 0 22 22" fill="none" xmlns="http://www.w3.org/2000/svg">
<rect width="22" height="22" rx="11" fill="#28A2A2"/>
<g clip-path="url(#clip0_1736_4040)">
<path d="M16.8337 10.7082V6.98299C16.8337 6.52158 16.8337 6.29088 16.7204 6.05297C16.6558 5.91728 16.5088 5.73271 16.3909 5.63946C16.1843 5.47597 16.0119 5.43648 15.667 5.35749C15.1305 5.23461 14.5388 5.1665 13.917 5.1665C12.7987 5.1665 11.7776 5.38679 11.0003 5.74984C10.223 6.11288 9.20195 6.33317 8.08366 6.33317C7.46187 6.33317 6.87014 6.26507 6.33366 6.14219C5.77368 6.01393 5.16699 6.4085 5.16699 6.98299V13.2667C5.16699 13.7281 5.16699 13.9588 5.28023 14.1967C5.34481 14.3324 5.49189 14.517 5.60973 14.6102C5.81636 14.7737 5.98879 14.8132 6.33366 14.8922C6.87014 15.0151 7.46187 15.0832 8.08366 15.0832C8.94048 15.0832 9.74023 14.9539 10.417 14.7301" stroke="#141B34" stroke-width="0.8" stroke-linecap="round"/>
<path d="M12.4587 10.1248C12.4587 10.9303 11.8057 11.5832 11.0003 11.5832C10.1949 11.5832 9.54199 10.9303 9.54199 10.1248C9.54199 9.31942 10.1949 8.6665 11.0003 8.6665C11.8057 8.6665 12.4587 9.31942 12.4587 10.1248Z" stroke="#141B34" stroke-width="0.8"/>
<path d="M7.20801 10.7085L7.20801 10.7137" stroke="#141B34" stroke-width="0.8" stroke-linecap="round" stroke-linejoin="round"/>
<path d="M14.792 9.53711L14.792 9.54235" stroke="#141B34" stroke-width="0.8" stroke-linecap="round" stroke-linejoin="round"/>
<path d="M15.2781 12.1665L15.7583 12.6086C15.8628 12.7113 15.9151 12.7627 15.8967 12.8064C15.8783 12.85 15.8044 12.85 15.6565 12.85H13.8456C12.9186 12.85 12.167 13.5887 12.167 14.4998C12.167 14.7052 12.2052 14.9018 12.2749 15.0832M13.7225 16.8332L13.2424 16.3911C13.1378 16.2883 13.0856 16.237 13.104 16.1933C13.1224 16.1497 13.1963 16.1497 13.3441 16.1497H15.155C16.0821 16.1497 16.8337 15.411 16.8337 14.4998C16.8337 14.2945 16.7955 14.0979 16.7257 13.9165" stroke="#141B34" stroke-width="0.8" stroke-linecap="round" stroke-linejoin="round"/>
</g>
<defs>
<clipPath id="clip0_1736_4040">
<rect width="14" height="14" fill="white" transform="translate(4 4)"/>
</clipPath>
</defs>
</svg>