<svg width="22" height="22" viewBox="0 0 22 22" fill="none" xmlns="http://www.w3.org/2000/svg">
<rect width="22" height="22" rx="11" fill="#28A2A2"/>
<path d="M7.51658 11.7283C7.51658 11.4925 7.71478 11.3014 7.95927 11.3014H10.3202C10.5647 11.3014 10.7629 11.4925 10.7629 11.7283C10.7629 11.964 10.5647 12.1552 10.3202 12.1552H7.95927C7.71478 12.1552 7.51658 11.964 7.51658 11.7283Z" fill="white"/>
<path d="M7.51658 14.005C7.51658 13.7693 7.71478 13.5781 7.95927 13.5781H12.6812C12.9257 13.5781 13.1239 13.7693 13.1239 14.005C13.1239 14.2408 12.9257 14.4319 12.6812 14.4319H7.95927C7.71478 14.4319 7.51658 14.2408 7.51658 14.005Z" fill="white"/>
<path fill-rule="evenodd" clip-rule="evenodd" d="M13.7286 4.88724C11.853 4.88724 10.3318 6.35217 10.3318 8.16012C10.3318 9.96805 11.853 11.433 13.7286 11.433C15.6042 11.433 17.1253 9.96805 17.1253 8.16012C17.1253 6.35217 15.6042 4.88724 13.7286 4.88724ZM13.7286 5.74103C12.3412 5.74103 11.2172 6.82448 11.2172 8.16012C11.2172 9.49576 12.3412 10.5792 13.7286 10.5792C15.116 10.5792 16.24 9.49576 16.24 8.16012C16.24 6.82448 15.116 5.74103 13.7286 5.74103ZM15.0482 7.70873C15.2787 7.63002 15.3994 7.38605 15.3177 7.16381C15.2361 6.94157 14.9831 6.82521 14.7527 6.90392C14.4681 7.00111 14.2039 7.18317 13.9803 7.37224C13.7522 7.56519 13.5407 7.7876 13.3626 7.99338C13.2916 8.07549 13.2251 8.15596 13.164 8.23219C13.1339 8.19043 13.1051 8.15218 13.0781 8.11743C13.0156 8.03718 12.9625 7.97551 12.9233 7.93236C12.7461 7.73709 12.4519 7.64084 12.2264 7.85825C12.0238 8.05369 12.0887 8.30907 12.257 8.49459C12.2824 8.5226 12.3215 8.56765 12.3698 8.6297C12.4663 8.75387 12.5994 8.94563 12.7337 9.20482C12.8051 9.34244 12.9477 9.43238 13.1071 9.44025C13.3055 9.45005 13.4395 9.33436 13.54 9.18887C13.5654 9.15222 13.603 9.09873 13.6509 9.0333C13.747 8.90202 13.8829 8.72487 14.0425 8.5403C14.203 8.35476 14.3821 8.16806 14.5641 8.01416C14.7507 7.85637 14.9162 7.75384 15.0482 7.70873Z" fill="white"/>
<path fill-rule="evenodd" clip-rule="evenodd" d="M9.74154 4.88787C9.9923 4.88787 10.1956 5.07899 10.1956 5.31475C10.1956 5.5505 9.9923 5.74162 9.74154 5.74162C9.17118 5.74162 8.27794 5.71918 7.95928 5.73962C7.6447 5.7598 7.44759 5.79824 7.28963 5.85976C6.80754 6.0475 6.42452 6.40761 6.22483 6.86086C6.1594 7.00937 6.11852 7.19469 6.09705 7.49045C6.07531 7.79005 6.07507 8.17085 6.07507 8.70709V12.1221C6.07507 13.2074 6.07603 13.9784 6.15967 14.5634C6.24156 15.136 6.39513 15.4659 6.65133 15.7068C6.90754 15.9477 7.25844 16.092 7.86751 16.169C8.48964 16.2477 8.57205 16.2712 9.72641 16.2712H10.9372C12.0915 16.2712 12.9116 16.2703 13.5337 16.1917C14.1428 16.1147 14.4937 15.9703 14.7499 15.7295C15.0061 15.4886 15.1597 15.1587 15.2416 14.586C15.3252 14.0011 15.3262 13.2301 15.3262 12.1448C15.3262 11.909 15.5295 11.7179 15.7802 11.7179C16.031 11.7179 16.2343 11.909 16.2343 12.1448C16.2343 12.9934 16.2621 13.8567 16.1416 14.6998C16.0461 15.3671 15.8451 15.9072 15.392 16.3331C14.939 16.7591 14.3645 16.9481 13.6547 17.0378C12.9651 17.125 12.0839 17.125 10.9713 17.125H9.69226C8.57971 17.125 8.43617 17.1023 7.74651 17.0152C7.03675 16.9255 6.46227 16.7364 6.00923 16.3105C5.55618 15.8845 5.35512 15.3444 5.2597 14.6771C5.16698 14.0287 5.16698 13.2002 5.16699 12.1542L5.16699 8.69151C5.16699 8.17431 5.16699 7.7644 5.19109 7.43233C5.21571 7.0931 5.26698 6.80402 5.38588 6.53414C5.67773 5.8717 6.23753 5.34539 6.94213 5.07099C7.22918 4.95921 7.53665 4.911 7.89746 4.88785C8.34832 4.85893 9.28994 4.88787 9.74154 4.88787Z" fill="white"/>
</svg>