<svg width="24" height="24" viewBox="0 0 24 24" fill="none" xmlns="http://www.w3.org/2000/svg">
<path fill-rule="evenodd" clip-rule="evenodd" d="M12.2886 1.25664C12.6003 1.27636 12.9662 1.33215 13.3236 1.50308C14.3751 2.00594 15.9476 3.28717 17.3289 4.64774C18.0312 5.33948 18.7069 6.07412 19.2659 6.77487C19.8164 7.46502 20.2867 8.16265 20.5407 8.77615C20.7633 9.31353 20.75 9.90057 20.75 10.6569V13C20.75 13.4142 20.4142 13.75 20 13.75C19.5858 13.75 19.25 13.4142 19.25 13V10.6569C19.25 10.2639 19.2473 10.0006 19.2371 9.81182C18.0599 9.80624 16.9645 9.77891 16.0412 9.6662C15.0006 9.53917 13.9825 9.28576 13.3484 8.65169C12.7464 8.04978 12.4875 7.2919 12.3665 6.39179C12.2052 5.19167 12.25 3.96583 12.25 2.75778C12.0112 2.73759 11.7789 2.75004 11.4558 2.75004C9.81519 2.75004 8.64982 2.75123 7.75479 2.85573C6.87593 2.95835 6.35466 3.15183 5.96008 3.46997C5.77969 3.61542 5.61538 3.77973 5.46993 3.96012C5.1518 4.3547 4.95831 4.87596 4.8557 5.75483C4.7512 6.64986 4.75 7.81524 4.75 9.45588V13C4.75 13.4142 4.41421 13.75 4 13.75C3.58579 13.75 3.25 13.4142 3.25 13L3.25 9.40762C3.24999 7.82603 3.24998 6.57303 3.36582 5.58088C3.48472 4.56249 3.73427 3.72302 4.30221 3.01862C4.51478 2.75497 4.75493 2.51482 5.01858 2.30225C5.72298 1.73431 6.56246 1.48476 7.58084 1.36585C8.92686 1.2087 10.2868 1.26581 11.6389 1.24837C11.8325 1.24587 12.07 1.24281 12.2886 1.25664ZM13.7503 3.53181C13.7521 4.68845 13.7646 5.53354 13.8532 6.19191C13.9518 6.92568 14.1323 7.31425 14.409 7.59102C14.6536 7.83564 15.2059 8.05309 16.223 8.17726C16.8863 8.25823 17.6655 8.29187 18.5422 8.30512C17.8796 7.36877 17.0919 6.51976 16.2763 5.7164C15.4 4.85327 14.4984 4.07841 13.7503 3.53181ZM3.5 16C3.5 15.5858 3.83579 15.25 4.25 15.25H6C7.38071 15.25 8.5 16.3693 8.5 17.75C8.5 19.1308 7.38071 20.25 6 20.25H5V22C5 22.4142 4.66421 22.75 4.25 22.75C3.83579 22.75 3.5 22.4142 3.5 22V16ZM5 18.75H6C6.55229 18.75 7 18.3023 7 17.75C7 17.1978 6.55229 16.75 6 16.75H5V18.75ZM9.5 16C9.5 15.5858 9.83579 15.25 10.25 15.25H11.75C13.2688 15.25 14.5 16.4812 14.5 18V20C14.5 21.5189 13.2688 22.75 11.75 22.75H10.25C9.83579 22.75 9.5 22.4142 9.5 22V16ZM11 16.75V21.25H11.75C12.4404 21.25 13 20.6904 13 20V18C13 17.3097 12.4404 16.75 11.75 16.75H11ZM15.5 17C15.5 16.0335 16.2835 15.25 17.25 15.25H19.75C20.1642 15.25 20.5 15.5858 20.5 16C20.5 16.4142 20.1642 16.75 19.75 16.75H17.25C17.1119 16.75 17 16.8619 17 17V18.25H19.25C19.6642 18.25 20 18.5858 20 19C20 19.4142 19.6642 19.75 19.25 19.75H17V22C17 22.4142 16.6642 22.75 16.25 22.75C15.8358 22.75 15.5 22.4142 15.5 22V17Z" fill="#2E3038"/>
</svg>
