<svg width="20" height="20" viewBox="0 0 20 20" fill="none" xmlns="http://www.w3.org/2000/svg">
    <path d="M9.99902 2.70801C10.3441 2.70818 10.624 2.98794 10.624 3.33301V9.375H16.665C17.0102 9.375 17.29 9.65482 17.29 10C17.2899 10.345 17.0101 10.625 16.665 10.625H10.624V16.666C10.624 17.0111 10.3441 17.2908 9.99902 17.291C9.65385 17.291 9.37402 17.0112 9.37402 16.666V10.625H3.33203C2.98696 10.625 2.70721 10.345 2.70703 10C2.70703 9.65482 2.98685 9.375 3.33203 9.375H9.37402V3.33301C9.37402 2.98783 9.65385 2.70801 9.99902 2.70801Z" fill="white"/>
    </svg>
    