<svg width="30" height="30" viewBox="0 0 30 30" fill="none" xmlns="http://www.w3.org/2000/svg">
    <rect x="0.5" y="0.5" width="29" height="29" rx="8.5" fill="white"/>
    <rect x="0.5" y="0.5" width="29" height="29" rx="8.5" stroke="#8F92A3"/>
    <path fill-rule="evenodd" clip-rule="evenodd" d="M9.55806 9.55806C9.80214 9.31398 10.1979 9.31398 10.4419 9.55806L15 14.1161L19.5581 9.55806C19.8021 9.31398 20.1979 9.31398 20.4419 9.55806C20.686 9.80214 20.686 10.1979 20.4419 10.4419L15.8839 15L20.4419 19.5581C20.686 19.8021 20.686 20.1979 20.4419 20.4419C20.1979 20.686 19.8021 20.686 19.5581 20.4419L15 15.8839L10.4419 20.4419C10.1979 20.686 9.80214 20.686 9.55806 20.4419C9.31398 20.1979 9.31398 19.8021 9.55806 19.5581L14.1161 15L9.55806 10.4419C9.31398 10.1979 9.31398 9.80214 9.55806 9.55806Z" fill="#8F92A3"/>
    </svg>
    