<svg width="20" height="21" viewBox="0 0 20 21" fill="none" xmlns="http://www.w3.org/2000/svg">
<mask id="path-1-inside-1_268_8956" fill="white">
<path fill-rule="evenodd" clip-rule="evenodd" d="M10 20.6201C15.5228 20.6201 20 16.143 20 10.6201C20 5.09727 15.5228 0.620117 10 0.620117C4.47715 0.620117 0 5.09727 0 10.6201C0 16.143 4.47715 20.6201 10 20.6201ZM15.2773 8.80633C15.5702 8.51344 15.5702 8.03856 15.2773 7.74567C14.9844 7.45278 14.5095 7.45278 14.2166 7.74567L8.72574 13.2366L5.78338 10.2942C5.49049 10.0013 5.01561 10.0013 4.72272 10.2942C4.42983 10.5871 4.42983 11.062 4.72272 11.3549L7.84186 14.474C8.33001 14.9622 9.12147 14.9622 9.60962 14.474L15.2773 8.80633Z"/>
</mask>
<path fill-rule="evenodd" clip-rule="evenodd" d="M10 20.6201C15.5228 20.6201 20 16.143 20 10.6201C20 5.09727 15.5228 0.620117 10 0.620117C4.47715 0.620117 0 5.09727 0 10.6201C0 16.143 4.47715 20.6201 10 20.6201ZM15.2773 8.80633C15.5702 8.51344 15.5702 8.03856 15.2773 7.74567C14.9844 7.45278 14.5095 7.45278 14.2166 7.74567L8.72574 13.2366L5.78338 10.2942C5.49049 10.0013 5.01561 10.0013 4.72272 10.2942C4.42983 10.5871 4.42983 11.062 4.72272 11.3549L7.84186 14.474C8.33001 14.9622 9.12147 14.9622 9.60962 14.474L15.2773 8.80633Z" fill="#033348"/>
<path d="M15.2773 7.74567L14.2166 8.80633L14.2166 8.80633L15.2773 7.74567ZM15.2773 8.80633L14.2166 7.74567L14.2166 7.74567L15.2773 8.80633ZM14.2166 7.74567L15.2773 8.80633L15.2773 8.80633L14.2166 7.74567ZM8.72574 13.2366L7.66508 14.2972L8.72574 15.3579L9.7864 14.2972L8.72574 13.2366ZM5.78338 10.2942L4.72272 11.3549L4.72272 11.3549L5.78338 10.2942ZM4.72272 10.2942L5.78338 11.3549L5.78339 11.3549L4.72272 10.2942ZM4.72272 11.3549L5.78338 10.2942H5.78338L4.72272 11.3549ZM7.84186 14.474L8.90251 13.4133V13.4133L7.84186 14.474ZM9.60962 14.474L10.6703 15.5347L9.60962 14.474ZM18.5 10.6201C18.5 15.3145 14.6944 19.1201 10 19.1201V22.1201C16.3513 22.1201 21.5 16.9714 21.5 10.6201H18.5ZM10 2.12012C14.6944 2.12012 18.5 5.9257 18.5 10.6201H21.5C21.5 4.26884 16.3513 -0.879883 10 -0.879883V2.12012ZM1.5 10.6201C1.5 5.9257 5.30558 2.12012 10 2.12012V-0.879883C3.64873 -0.879883 -1.5 4.26884 -1.5 10.6201H1.5ZM10 19.1201C5.30558 19.1201 1.5 15.3145 1.5 10.6201H-1.5C-1.5 16.9714 3.64873 22.1201 10 22.1201V19.1201ZM14.2166 8.80633C13.9237 8.51344 13.9237 8.03856 14.2166 7.74567L16.3379 9.86699C17.2166 8.98831 17.2166 7.56369 16.3379 6.68501L14.2166 8.80633ZM15.2773 8.80633C14.9844 9.09923 14.5095 9.09923 14.2166 8.80633L16.3379 6.68501C15.4593 5.80633 14.0346 5.80633 13.156 6.68501L15.2773 8.80633ZM9.7864 14.2972L15.2773 8.80633L13.156 6.68501L7.66508 12.1759L9.7864 14.2972ZM4.72272 11.3549L7.66508 14.2972L9.78639 12.1759L6.84404 9.23357L4.72272 11.3549ZM5.78339 11.3549C5.49049 11.6478 5.01562 11.6478 4.72272 11.3549L6.84404 9.23357C5.96535 8.35489 4.54073 8.3549 3.66205 9.23358L5.78339 11.3549ZM5.78338 10.2942C6.07627 10.5871 6.07628 11.062 5.78338 11.3549L3.66205 9.23358C2.78338 10.1123 2.78339 11.5369 3.66207 12.4156L5.78338 10.2942ZM8.90251 13.4133L5.78338 10.2942L3.66207 12.4156L6.7812 15.5347L8.90251 13.4133ZM8.54896 13.4133C8.64659 13.3157 8.80488 13.3157 8.90251 13.4133L6.7812 15.5347C7.85515 16.6086 9.59634 16.6086 10.6703 15.5347L8.54896 13.4133ZM14.2166 7.74567L8.54896 13.4133L10.6703 15.5347L16.3379 9.86699L14.2166 7.74567Z" fill="#033348" mask="url(#path-1-inside-1_268_8956)"/>
</svg>
