<svg width="22" height="22" viewBox="0 0 22 22" fill="none" xmlns="http://www.w3.org/2000/svg">
<rect width="22" height="22" rx="11" fill="#28A2A2"/>
<g clip-path="url(#clip0_3047_340)">
<path d="M10.7082 12.1738C9.51431 12.1182 8.30679 12.404 7.25342 13.0312C6.42814 13.5227 4.2643 14.5261 5.58222 15.7817C6.22602 16.395 6.94304 16.8337 7.84451 16.8337H10.9998" stroke="white" stroke-width="0.7" stroke-linecap="round" stroke-linejoin="round"/>
<path d="M13.0415 7.79199C13.0415 9.24174 11.8663 10.417 10.4165 10.417C8.96676 10.417 7.7915 9.24174 7.7915 7.79199C7.7915 6.34224 8.96676 5.16699 10.4165 5.16699C11.8663 5.16699 13.0415 6.34224 13.0415 7.79199Z" stroke="white" stroke-width="0.7"/>
<path d="M14.4998 16.083V16.833M14.4998 16.083C13.825 16.083 13.2305 15.7516 12.8819 15.2483M14.4998 16.083C15.1746 16.083 15.7691 15.7516 16.1178 15.2483M14.4998 12.333C15.1747 12.333 15.7692 12.6645 16.1179 13.1679M14.4998 12.333C13.825 12.333 13.2305 12.6645 12.8818 13.1679M14.4998 12.333V11.583M16.8332 12.708L16.1179 13.1679M12.1668 15.708L12.8819 15.2483M12.1665 12.708L12.8818 13.1679M16.8329 15.708L16.1178 15.2483M16.1179 13.1679C16.3241 13.4655 16.4443 13.8232 16.4443 14.208C16.4443 14.5929 16.324 14.9506 16.1178 15.2483M12.8818 13.1679C12.6756 13.4655 12.5554 13.8232 12.5554 14.208C12.5554 14.5929 12.6756 14.9506 12.8819 15.2483" stroke="white" stroke-width="0.7" stroke-linecap="round"/>
</g>
<defs>
<clipPath id="clip0_3047_340">
<rect width="14" height="14" fill="white" transform="translate(4 4)"/>
</clipPath>
</defs>
</svg>
