<svg width="16" height="17" viewBox="0 0 16 17" fill="none" xmlns="http://www.w3.org/2000/svg">
<path fill-rule="evenodd" clip-rule="evenodd" d="M10.3133 2.70083C10.5085 2.50557 10.8251 2.50557 11.0204 2.70083L13.0204 4.70083C13.2156 4.89609 13.2156 5.21267 13.0204 5.40794C12.8251 5.6032 12.5085 5.6032 12.3133 5.40794L11.1668 4.26149V9.72105C11.1668 9.99719 10.943 10.221 10.6668 10.221C10.3907 10.221 10.1668 9.99719 10.1668 9.72105V4.26149L9.02038 5.40794C8.82512 5.6032 8.50854 5.6032 8.31328 5.40794C8.11801 5.21267 8.11801 4.89609 8.31328 4.70083L10.3133 2.70083ZM5.3335 6.55438C5.60964 6.55438 5.8335 6.77824 5.8335 7.05438V12.5139L6.97994 11.3675C7.17521 11.1722 7.49179 11.1722 7.68705 11.3675C7.88231 11.5628 7.88231 11.8793 7.68705 12.0746L5.68705 14.0746C5.49179 14.2699 5.1752 14.2699 4.97994 14.0746L2.97994 12.0746C2.78468 11.8793 2.78468 11.5628 2.97994 11.3675C3.1752 11.1722 3.49179 11.1722 3.68705 11.3675L4.8335 12.5139V7.05438C4.8335 6.77824 5.05735 6.55438 5.3335 6.55438Z" fill="#033348"/>
</svg>
