<svg width="36" height="36" viewBox="0 0 36 36" fill="none" xmlns="http://www.w3.org/2000/svg">
<rect x="0.5" y="0.5" width="35" height="35" rx="17.5" fill="white"/>
<rect x="0.5" y="0.5" width="35" height="35" rx="17.5" stroke="#676B7E"/>
<path d="M8.4541 17.9989C8.4541 16.9446 9.30883 16.0898 10.3632 16.0898C11.9447 16.0898 13.2268 17.3719 13.2268 18.9535V22.7717C13.2268 24.3532 11.9447 25.6353 10.3632 25.6353C9.30883 25.6353 8.4541 24.7806 8.4541 23.7262V17.9989Z" stroke="#676B7E" stroke-width="0.981818" stroke-linecap="round" stroke-linejoin="round"/>
<path d="M21.3209 13.5187L21.0667 14.3397C20.8584 15.0124 20.7542 15.3488 20.8343 15.6145C20.8991 15.8294 21.0414 16.0146 21.2352 16.1365C21.4748 16.2872 21.8373 16.2872 22.5622 16.2872H22.9478C25.401 16.2872 26.6276 16.2872 27.207 17.0134C27.2732 17.0963 27.3321 17.1846 27.383 17.2772C27.8288 18.0871 27.322 19.1781 26.3086 21.3602C25.3786 23.3626 24.9136 24.3638 24.0502 24.9531C23.9666 25.0102 23.8807 25.064 23.7927 25.1144C22.8838 25.6355 21.7575 25.6355 19.505 25.6355H19.0165C16.2875 25.6355 14.9231 25.6355 14.0753 24.8141C13.2275 23.9926 13.2275 22.6706 13.2275 20.0265V19.0972C13.2275 17.7076 13.2275 17.0129 13.4741 16.377C13.7207 15.741 14.1929 15.2182 15.1373 14.1724L19.0427 9.84783C19.1407 9.73937 19.1897 9.68513 19.2328 9.64756C19.6359 9.29679 20.258 9.33627 20.6104 9.73499C20.6481 9.7777 20.6894 9.83766 20.7719 9.95758C20.901 10.1452 20.9655 10.2389 21.0217 10.3319C21.5252 11.1637 21.6776 12.1519 21.4469 13.09C21.4212 13.1948 21.3877 13.3028 21.3209 13.5187Z" stroke="#676B7E" stroke-width="0.981818" stroke-linecap="round" stroke-linejoin="round"/>
</svg>
