<svg width="12" height="12" viewBox="0 0 12 12" fill="none" xmlns="http://www.w3.org/2000/svg">
<path fill-rule="evenodd" clip-rule="evenodd" d="M4.80841 1.67106C5.51879 1.54257 6.25249 1.68514 6.86105 2.07071C7.37119 2.39392 7.76183 2.86796 7.97965 3.42181C8.23102 3.39623 8.48542 3.40657 8.73493 3.45302C9.09866 3.52073 9.44403 3.66369 9.74825 3.87277C10.0525 4.08186 10.3088 4.3524 10.4999 4.66683C10.6911 4.98129 10.8128 5.3324 10.8566 5.69707C10.9005 6.06174 10.8656 6.4314 10.7542 6.78163C10.6428 7.13185 10.4575 7.45445 10.211 7.72834C9.96448 8.00221 9.66225 8.22114 9.3244 8.37103C8.98657 8.52091 8.6206 8.59845 8.25052 8.5987C8.04342 8.59884 7.87541 8.43106 7.87527 8.22395C7.87513 8.01684 8.04291 7.84884 8.25002 7.8487C8.51574 7.84852 8.77826 7.79283 9.02025 7.68547C9.26223 7.57812 9.47801 7.42161 9.65358 7.22657C9.82914 7.03154 9.96053 6.80238 10.0394 6.5543C10.1183 6.30624 10.143 6.04464 10.112 5.78664C10.081 5.52864 9.99486 5.27978 9.85908 5.05646C9.7233 4.83312 9.54085 4.64028 9.32345 4.49087C9.10604 4.34145 8.8587 4.23894 8.59767 4.19035C8.33839 4.14208 8.07171 4.14815 7.81504 4.20813L7.22186 4.36736C7.02184 4.42105 6.81616 4.30243 6.76246 4.1024C6.70877 3.90238 6.82739 3.6967 7.02742 3.643L7.2351 3.58726C7.06947 3.2286 6.80164 2.92093 6.45965 2.70426C6.01061 2.41976 5.46793 2.31394 4.9419 2.40909C4.41594 2.50422 3.94763 2.79281 3.63112 3.2147C3.3285 3.61808 3.13296 4.20272 3.24177 4.70924C3.27275 4.85344 3.30876 5.01081 3.38839 5.13626C3.49938 5.31112 3.4476 5.54284 3.27274 5.65383C3.09789 5.76481 2.86616 5.71304 2.75517 5.53818C2.69239 5.43927 2.64391 5.32575 2.60731 5.22192C2.41528 5.32709 2.24933 5.47513 2.1238 5.65564C1.92796 5.93725 1.84356 6.27891 1.88552 6.6166C1.92749 6.95433 2.09317 7.26643 2.35294 7.49375C2.61271 7.72107 2.94858 7.84775 3.29761 7.84878H3.7474C3.95451 7.84878 4.1224 8.01668 4.1224 8.22378C4.1224 8.43089 3.95451 8.59878 3.7474 8.59878H3.29715L3.29617 8.59878C2.76715 8.5974 2.25606 8.40559 1.85904 8.05816C1.46188 7.71062 1.2061 7.23106 1.14125 6.70908C1.07638 6.18705 1.20716 5.66011 1.50806 5.22743C1.7484 4.88184 2.08381 4.61564 2.47075 4.45761C2.4673 3.85068 2.66241 3.25617 3.03119 2.76461C3.46235 2.1899 4.09797 1.79956 4.80841 1.67106ZM5.76638 5.70911C5.90259 5.60164 6.09473 5.60164 6.23094 5.70911L7.35657 6.59722C7.51917 6.7255 7.54698 6.9613 7.41869 7.1239C7.29041 7.28649 7.05461 7.3143 6.89202 7.18602L6.37366 6.77705V10C6.37366 10.2071 6.20577 10.375 5.99866 10.375C5.79156 10.375 5.62366 10.2071 5.62366 10V6.77705L5.10531 7.18602C4.94272 7.3143 4.70691 7.28649 4.57863 7.1239C4.45035 6.9613 4.47816 6.7255 4.64075 6.59722L5.76638 5.70911Z" fill="#045071"/>
</svg>
