<svg width="12" height="12" viewBox="0 0 12 12" fill="none" xmlns="http://www.w3.org/2000/svg">
<path d="M5.92438 1.49932C5.92475 1.70643 5.75716 1.87463 5.55006 1.875C4.63162 1.87665 3.96738 1.88946 3.45886 1.97179C2.96131 2.05234 2.65444 2.19352 2.4241 2.4239C2.17592 2.67212 2.0308 3.00973 1.95402 3.58087C1.8758 4.16279 1.875 4.92853 1.875 5.99979C1.875 7.07106 1.8758 7.83681 1.95402 8.41874C2.0308 8.98988 2.17592 9.32749 2.4241 9.57569C2.67227 9.82391 3.0098 9.96907 3.58082 10.0459C4.16265 10.1241 4.92825 10.1249 5.99938 10.1249C7.07046 10.1249 7.83605 10.1241 8.41787 10.0459C8.9889 9.96907 9.32642 9.82392 9.57458 9.57571C9.80492 9.34534 9.9461 9.03839 10.0266 8.54072C10.109 8.03209 10.1218 7.36773 10.1234 6.44916C10.1238 6.24206 10.292 6.07447 10.4991 6.07484C10.7062 6.07522 10.8738 6.24341 10.8734 6.45052C10.8718 7.3567 10.8606 8.08251 10.767 8.66054C10.6717 9.24951 10.4852 9.7257 10.105 10.106C9.69424 10.5168 9.17204 10.7012 8.51783 10.7892C7.88023 10.8749 7.06418 10.8749 6.02784 10.8749H5.99938H5.97092C4.93453 10.8749 4.11847 10.8749 3.48087 10.7892C2.82666 10.7012 2.30447 10.5168 1.89373 10.106C1.48299 9.6952 1.29866 9.17295 1.21071 8.51866C1.12499 7.88097 1.12499 7.0648 1.125 6.02826V5.99979V5.97132C1.12499 4.93479 1.12499 4.11863 1.21071 3.48095C1.29866 2.82666 1.48299 2.30442 1.89373 1.89362C2.27396 1.51332 2.75009 1.32677 3.339 1.23143C3.91695 1.13786 4.64266 1.12663 5.54871 1.125C5.75581 1.12463 5.92401 1.29222 5.92438 1.49932Z" fill="#045071"/>
<path d="M10.2416 1.31124C10.3258 1.33901 10.4483 1.38799 10.5432 1.483C10.638 1.57797 10.6869 1.70049 10.7146 1.78472C10.7459 1.87997 10.769 1.98747 10.7869 2.0956C10.8228 2.31274 10.8438 2.57155 10.8563 2.82276C10.8815 3.32737 10.8742 3.84259 10.8717 4.01883C10.8688 4.22592 10.6985 4.39141 10.4915 4.38847C10.2844 4.38553 10.1189 4.21527 10.1218 4.00819C10.1243 3.83223 10.1311 3.33834 10.1073 2.86008C10.1006 2.72652 10.0917 2.59733 10.0801 2.47873L5.79011 6.79364C5.64409 6.94051 5.40665 6.94119 5.25978 6.79517C5.11291 6.64915 5.11223 6.41171 5.25825 6.26484L9.55226 1.94591C9.43265 1.93409 9.30212 1.92504 9.1671 1.91829C8.6895 1.89443 8.19629 1.90121 8.02057 1.90371C7.81348 1.90666 7.64322 1.74117 7.64027 1.53409C7.63732 1.327 7.80281 1.15673 8.0099 1.15379C8.18592 1.15128 8.70051 1.14404 9.20453 1.16923C9.45543 1.18176 9.71397 1.20278 9.93091 1.23876C10.0389 1.25667 10.1464 1.27984 10.2416 1.31124Z" fill="#045071"/>
</svg>
