<svg width="40" height="40" viewBox="0 0 40 40" fill="none" xmlns="http://www.w3.org/2000/svg">
<path d="M21.6667 5.83325H23.3333C24.8833 5.83325 25.6583 5.83325 26.2942 6.00362C28.0195 6.46595 29.3673 7.8137 29.8297 9.53915C30 10.175 30 10.95 30 12.4999H8.33333C6.49238 12.4999 5 11.0075 5 9.16659C5 7.32564 6.49238 5.83325 8.33333 5.83325H13.3333" stroke="white" stroke-width="2.4" stroke-linecap="round" stroke-linejoin="round"/>
<path d="M5 9.16675V25.8334C5 30.5474 5 32.9044 6.46447 34.3689C7.92893 35.8334 10.2859 35.8334 15 35.8334H25C29.714 35.8334 32.071 35.8334 33.5355 34.3689C35 32.9044 35 30.5474 35 25.8334V22.5001C35 17.7861 35 15.429 33.5355 13.9645C32.071 12.5001 29.714 12.5001 25 12.5001H11.6667" stroke="white" stroke-width="2.4" stroke-linecap="round" stroke-linejoin="round"/>
<path d="M34.9948 20.8333H31.6615C30.8865 20.8333 30.499 20.8333 30.1811 20.9184C29.3183 21.1496 28.6445 21.8234 28.4133 22.6863C28.3281 23.0041 28.3281 23.3916 28.3281 24.1666C28.3281 24.9416 28.3281 25.3291 28.4133 25.6469C28.6445 26.5098 29.3183 27.1836 30.1811 27.4148C30.499 27.4999 30.8865 27.4999 31.6615 27.4999H34.9948" stroke="white" stroke-width="2.4" stroke-linecap="round" stroke-linejoin="round"/>
<path d="M17.5052 4.16675C20.7269 4.16675 23.3385 6.77841 23.3385 10.0001C23.3385 10.8947 23.1372 11.7424 22.7772 12.5001H12.2332C11.8733 11.7424 11.6719 10.8947 11.6719 10.0001C11.6719 6.77841 14.2835 4.16675 17.5052 4.16675Z" stroke="white" stroke-width="2.4" stroke-linecap="round" stroke-linejoin="round"/>
</svg>
