<svg width="27" height="27" viewBox="0 0 27 27" fill="none" xmlns="http://www.w3.org/2000/svg">
<rect width="26.0625" height="26.0625" rx="7.54684" fill="#454754"/>
<path d="M13.6979 7.3645H14.3646C14.9846 7.3645 15.2946 7.3645 15.5489 7.43265C16.2391 7.61758 16.7782 8.15668 16.9631 8.84686C17.0313 9.1012 17.0313 9.41119 17.0313 10.0312H8.36458C7.6282 10.0312 7.03125 9.43422 7.03125 8.69784C7.03125 7.96146 7.6282 7.3645 8.36458 7.3645H10.3646" stroke="white" stroke-linecap="round" stroke-linejoin="round"/>
<path d="M7.03125 8.698V15.3647C7.03125 17.2503 7.03125 18.1931 7.61704 18.7789C8.20282 19.3647 9.14563 19.3647 11.0313 19.3647H15.0313C16.9169 19.3647 17.8597 19.3647 18.4455 18.7789C19.0313 18.1931 19.0313 17.2503 19.0313 15.3647V14.0313C19.0313 12.1457 19.0313 11.2029 18.4455 10.6171C17.8597 10.0313 16.9169 10.0313 15.0313 10.0313H9.69792" stroke="white" stroke-linecap="round" stroke-linejoin="round"/>
<path d="M19.0299 13.3645H17.6966C17.3866 13.3645 17.2316 13.3645 17.1045 13.3986C16.7593 13.491 16.4898 13.7606 16.3973 14.1057C16.3633 14.2328 16.3633 14.3878 16.3633 14.6978C16.3633 15.0078 16.3633 15.1628 16.3973 15.29C16.4898 15.6351 16.7593 15.9046 17.1045 15.9971C17.2316 16.0312 17.3866 16.0312 17.6966 16.0312H19.0299" stroke="white" stroke-linecap="round" stroke-linejoin="round"/>
<path d="M12.0326 6.698C13.3212 6.698 14.3659 7.74266 14.3659 9.03133C14.3659 9.3892 14.2854 9.72824 14.1414 10.0313H9.92377C9.77979 9.72824 9.69922 9.3892 9.69922 9.03133C9.69922 7.74266 10.7439 6.698 12.0326 6.698Z" stroke="#5CD6D6" stroke-linecap="round" stroke-linejoin="round"/>
</svg>
