<svg width="22" height="22" viewBox="0 0 22 22" fill="none" xmlns="http://www.w3.org/2000/svg">
    <rect width="22" height="22" rx="11" fill="#28A2A2"/>
    <path fill-rule="evenodd" clip-rule="evenodd" d="M7.5 4.72949C7.74162 4.72949 7.9375 4.92537 7.9375 5.16699V6.33366C7.9375 6.57528 7.74162 6.77116 7.5 6.77116C7.25838 6.77116 7.0625 6.57528 7.0625 6.33366V5.16699C7.0625 4.92537 7.25838 4.72949 7.5 4.72949ZM14.5 4.72949C14.7416 4.72949 14.9375 4.92537 14.9375 5.16699V6.33366C14.9375 6.57528 14.7416 6.77116 14.5 6.77116C14.2584 6.77116 14.0625 6.57528 14.0625 6.33366V5.16699C14.0625 4.92537 14.2584 4.72949 14.5 4.72949Z" fill="white"/>
    <path fill-rule="evenodd" clip-rule="evenodd" d="M8.08398 11.5833C8.08398 11.2612 8.34515 11 8.66732 11H8.67255C8.99472 11 9.25588 11.2612 9.25588 11.5833C9.25588 11.9055 8.99472 12.1667 8.67255 12.1667H8.66732C8.34515 12.1667 8.08398 11.9055 8.08398 11.5833ZM10.4147 11.5833C10.4147 11.2612 10.6759 11 10.998 11H11.0033C11.3254 11 11.5866 11.2612 11.5866 11.5833C11.5866 11.9055 11.3254 12.1667 11.0033 12.1667H10.998C10.6759 12.1667 10.4147 11.9055 10.4147 11.5833ZM12.7454 11.5833C12.7454 11.2612 13.0066 11 13.3287 11H13.334C13.6562 11 13.9173 11.2612 13.9173 11.5833C13.9173 11.9055 13.6562 12.1667 13.334 12.1667H13.3287C13.0066 12.1667 12.7454 11.9055 12.7454 11.5833ZM8.08398 13.9167C8.08398 13.5945 8.34515 13.3333 8.66732 13.3333H8.67255C8.99472 13.3333 9.25588 13.5945 9.25588 13.9167C9.25588 14.2388 8.99472 14.5 8.67255 14.5H8.66732C8.34515 14.5 8.08398 14.2388 8.08398 13.9167ZM10.4147 13.9167C10.4147 13.5945 10.6759 13.3333 10.998 13.3333H11.0033C11.3254 13.3333 11.5866 13.5945 11.5866 13.9167C11.5866 14.2388 11.3254 14.5 11.0033 14.5H10.998C10.6759 14.5 10.4147 14.2388 10.4147 13.9167Z" fill="white"/>
    <path fill-rule="evenodd" clip-rule="evenodd" d="M5.60352 8.66699C5.60352 8.42537 5.79939 8.22949 6.04102 8.22949H15.9577C16.1993 8.22949 16.3952 8.42537 16.3952 8.66699C16.3952 8.90862 16.1993 9.10449 15.9577 9.10449H6.04102C5.79939 9.10449 5.60352 8.90862 5.60352 8.66699Z" fill="white"/>
    <path fill-rule="evenodd" clip-rule="evenodd" d="M7.77309 6.28165C7.14906 6.37235 6.78269 6.5425 6.51056 6.8367C6.23393 7.13575 6.07044 7.54617 5.98444 8.2377C5.89728 8.93854 5.89648 9.85954 5.89648 11.1419V11.4415C5.89648 12.7238 5.89728 13.6448 5.98444 14.3456C6.07044 15.0372 6.23393 15.4476 6.51055 15.7466C6.78269 16.0408 7.14906 16.211 7.77309 16.3017C8.41343 16.3948 9.25758 16.3958 10.4465 16.3958H11.5548C12.7437 16.3958 13.5879 16.3948 14.2282 16.3017C14.8523 16.211 15.2186 16.0408 15.4908 15.7467C15.7674 15.4476 15.9309 15.0372 16.0169 14.3456C16.104 13.6448 16.1048 12.7238 16.1048 11.4415V11.1419C16.1048 9.85954 16.104 8.93853 16.0169 8.2377C15.9309 7.54617 15.7674 7.13575 15.4908 6.8367C15.2186 6.5425 14.8523 6.37236 14.2282 6.28165C13.5879 6.18858 12.7437 6.1875 11.5548 6.1875H10.4465C9.25758 6.1875 8.41343 6.18858 7.77309 6.28165ZM10.411 5.3125H11.5903C12.7357 5.31249 13.6436 5.31248 14.3541 5.41575C15.0882 5.52246 15.6748 5.74712 16.1331 6.24255C16.5869 6.73312 16.7886 7.35296 16.8852 8.12971C16.9798 8.89084 16.9798 9.86627 16.9798 11.1108V11.4725C16.9798 12.7171 16.9798 13.6925 16.8852 14.4536C16.7886 15.2304 16.5869 15.8502 16.1331 16.3408C15.6748 16.8362 15.0882 17.0609 14.3541 17.1676C13.6436 17.2709 12.7357 17.2708 11.5903 17.2708H10.411C9.26555 17.2708 8.35775 17.2709 7.64724 17.1676C6.9131 17.0609 6.32649 16.8362 5.86822 16.3408C5.41445 15.8502 5.21273 15.2304 5.11613 14.4536C5.02147 13.6925 5.02148 12.7171 5.02148 11.4725V11.1108C5.02148 9.86626 5.02147 8.89084 5.11613 8.12971C5.21273 7.35295 5.41444 6.73312 5.86822 6.24254C6.32649 5.74712 6.9131 5.52246 7.64723 5.41575C8.35775 5.31248 9.26555 5.31249 10.411 5.3125Z" fill="white"/>
    <path fill-rule="evenodd" clip-rule="evenodd" d="M5.3125 8.66699C5.3125 8.42537 5.50838 8.22949 5.75 8.22949H16.25C16.4916 8.22949 16.6875 8.42537 16.6875 8.66699C16.6875 8.90862 16.4916 9.10449 16.25 9.10449H5.75C5.50838 9.10449 5.3125 8.90862 5.3125 8.66699Z" fill="white"/>
    </svg>
    