<svg width="22" height="22" viewBox="0 0 22 22" fill="none" xmlns="http://www.w3.org/2000/svg">
  <rect width="22" height="22" rx="11" fill="#28A2A2"/>
  <path d="M7.3142 12.4952C8.65719 11.7842 10.201 11.5687 11.6647 11.8464L11.9769 11.913L12.0202 11.9261C12.2292 11.9994 12.3531 12.2204 12.3004 12.4405C12.2476 12.6608 12.0366 12.8023 11.8168 12.7726L11.7729 12.7641L11.5012 12.706C10.2281 12.4645 8.88689 12.6526 7.72378 13.2682L7.47712 13.4067C7.01702 13.6806 6.35009 14.0113 5.92024 14.432C5.71016 14.6377 5.62068 14.8074 5.60635 14.9385C5.59501 15.0425 5.62157 15.2139 5.88435 15.4643L6.11107 15.6699C6.64356 16.1236 7.19506 16.3957 7.84455 16.3957H11.5832L11.6282 16.3979C11.8487 16.4205 12.0207 16.6067 12.0207 16.8332C12.0207 17.0596 11.8487 17.2459 11.6282 17.2684L11.5832 17.2707H7.84455C6.85023 17.2707 6.06739 16.8122 5.41039 16.2185L5.28051 16.0977C4.8845 15.7204 4.68704 15.2959 4.73648 14.8433C4.783 14.4178 5.03911 14.0702 5.30842 13.8066C5.83729 13.289 6.66481 12.8721 7.02994 12.6547L7.3142 12.4952ZM16.3957 14.7915C16.3957 13.9055 15.6775 13.1873 14.7916 13.1873C14.5076 13.1873 14.2414 13.2619 14.01 13.3913L16.1912 15.5725C16.3206 15.3412 16.3957 15.0754 16.3957 14.7915ZM13.1874 7.7915C13.1874 6.58338 12.208 5.604 10.9999 5.604C9.79178 5.604 8.81241 6.58338 8.81241 7.7915C8.81241 8.99963 9.79178 9.979 10.9999 9.979C12.208 9.979 13.1874 8.99963 13.1874 7.7915ZM13.1874 14.7915C13.1874 15.6775 13.9056 16.3957 14.7916 16.3957C15.0754 16.3957 15.3413 16.3205 15.5726 16.1912L13.3913 14.0099C13.2619 14.2413 13.1874 14.5076 13.1874 14.7915ZM17.2707 14.7915C17.2707 16.1607 16.1608 17.2707 14.7916 17.2707C13.4224 17.2707 12.3124 16.1607 12.3124 14.7915C12.3124 13.4223 13.4224 12.3123 14.7916 12.3123C16.1608 12.3123 17.2707 13.4223 17.2707 14.7915ZM14.0624 7.7915C14.0624 9.48287 12.6913 10.854 10.9999 10.854C9.30854 10.854 7.93741 9.48287 7.93741 7.7915C7.93741 6.10013 9.30854 4.729 10.9999 4.729C12.6913 4.729 14.0624 6.10013 14.0624 7.7915Z" fill="white"/>
</svg>
