<svg width="22" height="22" viewBox="0 0 22 22" fill="none" xmlns="http://www.w3.org/2000/svg">
<rect width="22" height="22" rx="11" fill="#28A2A2"/>
<path d="M16.1182 14.5C16.5553 14.5 16.9029 14.2249 17.2151 13.8403C17.8541 13.053 16.8049 12.4238 16.4048 12.1157C15.998 11.8024 15.5438 11.625 15.0833 11.5833M14.5 10.4167C15.3054 10.4167 15.9583 9.76375 15.9583 8.95833C15.9583 8.15292 15.3054 7.5 14.5 7.5" stroke="white" stroke-width="0.7" stroke-linecap="round"/>
<path d="M5.88197 14.5C5.44488 14.5 5.09722 14.2249 4.78506 13.8403C4.14605 13.053 5.19522 12.4238 5.59537 12.1157C6.00215 11.8024 6.45634 11.625 6.91683 11.5833M7.2085 10.4167C6.40308 10.4167 5.75016 9.76375 5.75016 8.95833C5.75016 8.15292 6.40308 7.5 7.2085 7.5" stroke="white" stroke-width="0.7" stroke-linecap="round"/>
<path d="M8.71572 12.8147C8.11968 13.1833 6.5569 13.9358 7.50874 14.8775C7.9737 15.3375 8.49155 15.6665 9.14261 15.6665H12.8577C13.5088 15.6665 14.0266 15.3375 14.4916 14.8775C15.4434 13.9358 13.8806 13.1833 13.2846 12.8147C11.8869 11.9504 10.1134 11.9504 8.71572 12.8147Z" stroke="white" stroke-width="0.7" stroke-linecap="round" stroke-linejoin="round"/>
<path d="M13.0418 8.37516C13.0418 9.50274 12.1277 10.4168 11.0002 10.4168C9.87258 10.4168 8.9585 9.50274 8.9585 8.37516C8.9585 7.24758 9.87258 6.3335 11.0002 6.3335C12.1277 6.3335 13.0418 7.24758 13.0418 8.37516Z" stroke="white" stroke-width="0.7"/>
</svg>

