
<svg width="22" height="22" viewBox="0 0 22 22" fill="none" xmlns="http://www.w3.org/2000/svg">
  <rect width="22" height="22" rx="11" fill="#28A2A2"/>
  <path fill-rule="evenodd" clip-rule="evenodd" d="M11.0001 5.60425C9.79198 5.60425 8.8126 6.58363 8.8126 7.79175C8.8126 8.99987 9.79198 9.97925 11.0001 9.97925C12.2082 9.97925 13.1876 8.99987 13.1876 7.79175C13.1876 6.58362 12.2082 5.60425 11.0001 5.60425ZM7.9376 7.79175C7.9376 6.10038 9.30873 4.72925 11.0001 4.72925C12.6915 4.72925 14.0626 6.10038 14.0626 7.79175C14.0626 9.48312 12.6915 10.8542 11.0001 10.8542C9.30873 10.8542 7.9376 9.48312 7.9376 7.79175ZM7.61319 12.6551C9.68639 11.4206 12.3138 11.4206 14.387 12.6551L14.1632 13.031L14.387 12.6551C14.4549 12.6955 14.5386 12.7428 14.6335 12.7963C15.0493 13.0309 15.6779 13.3855 16.1085 13.807C16.3778 14.0706 16.6337 14.418 16.6802 14.8435C16.7297 15.2961 16.5322 15.7208 16.1361 16.0982L15.8344 15.7814L16.1361 16.0982C15.4528 16.7492 14.6328 17.2709 13.5721 17.2709H8.42811C7.36743 17.2709 6.54739 16.7492 5.86405 16.0982L5.86404 16.0982C5.46795 15.7208 5.27051 15.2961 5.31998 14.8435C5.3665 14.418 5.62238 14.0706 5.89169 13.807C6.32229 13.3855 6.95084 13.0309 7.36665 12.7963C7.46154 12.7428 7.54534 12.6955 7.61319 12.6551ZM13.9393 13.4069C12.142 12.3367 9.85821 12.3367 8.06086 13.4069L8.06085 13.4069C7.96291 13.4652 7.85559 13.5261 7.74318 13.5899C7.32749 13.8257 6.84214 14.1011 6.50375 14.4323C6.29368 14.6379 6.20413 14.8075 6.1898 14.9386C6.17843 15.0427 6.20474 15.2142 6.4676 15.4647C7.07185 16.0403 7.68586 16.3959 8.42811 16.3959H13.5721C14.3144 16.3959 14.9284 16.0403 15.5326 15.4647C15.7955 15.2142 15.8218 15.0427 15.8104 14.9386C15.7961 14.8075 15.7065 14.6379 15.4964 14.4323C15.1581 14.1011 14.6727 13.8257 14.257 13.5899C14.1446 13.5261 14.0373 13.4652 13.9393 13.4069Z" fill="white"/>
</svg>
