<svg width="20" height="20" viewBox="0 0 20 20" fill="none" xmlns="http://www.w3.org/2000/svg">
<path fill-rule="evenodd" clip-rule="evenodd" d="M10 3.125C6.20304 3.125 3.125 6.20304 3.125 10C3.125 13.797 6.20304 16.875 10 16.875C13.797 16.875 16.875 13.797 16.875 10C16.875 6.20304 13.797 3.125 10 3.125ZM1.875 10C1.875 5.51269 5.51269 1.875 10 1.875C14.4873 1.875 18.125 5.51269 18.125 10C18.125 14.4873 14.4873 18.125 10 18.125C5.51269 18.125 1.875 14.4873 1.875 10ZM10 6.04167C10.3452 6.04167 10.625 6.32149 10.625 6.66667V9.375H13.3333C13.6785 9.375 13.9583 9.65482 13.9583 10C13.9583 10.3452 13.6785 10.625 13.3333 10.625H10.625V13.3333C10.625 13.6785 10.3452 13.9583 10 13.9583C9.65482 13.9583 9.375 13.6785 9.375 13.3333V10.625H6.66667C6.32149 10.625 6.04167 10.3452 6.04167 10C6.04167 9.65482 6.32149 9.375 6.66667 9.375H9.375V6.66667C9.375 6.32149 9.65482 6.04167 10 6.04167Z" fill="#045071"/>
</svg>
