<svg width="24" height="27" viewBox="0 0 24 27" fill="none" xmlns="http://www.w3.org/2000/svg">
<g id="Group">
<path id="Vector" fill-rule="evenodd" clip-rule="evenodd" d="M14.3716 1.20897C13.9257 0.483933 13.1212 0 12.203 0C11.2847 0 10.4803 0.483933 10.0343 1.20897H10.0322V3.89303C5.86639 4.86667 2.76558 8.58092 2.76558 13.0142V18.0585C2.33065 18.255 1.93031 18.5286 1.58591 18.8706L0.894879 19.5567C0.58202 19.8674 0.40625 20.2886 0.40625 20.728C0.40625 21.6428 1.15317 22.3845 2.07454 22.3845H22.3312C23.2527 22.3845 23.9995 21.6428 23.9995 20.728C23.9995 20.2886 23.8237 19.8674 23.5109 19.5567L22.8198 18.8706C22.4755 18.5286 22.0751 18.255 21.6402 18.0585V13.0142C21.6402 12.2282 21.5427 11.4649 21.3592 10.7353C20.8533 11.1791 20.2318 11.4955 19.5451 11.6343C19.6298 12.0814 19.6741 12.5427 19.6741 13.0142V17.6993H4.73168V13.0142C4.73168 8.91734 8.07668 5.59611 12.2029 5.59611C13.2574 5.59611 14.2609 5.81306 15.1705 6.2044C15.4544 5.57984 15.8988 5.04275 16.4516 4.64503C15.7988 4.31773 15.1025 4.06343 14.3736 3.89303V1.21217V1.20897H14.3716ZM9.58141 23.4256C9.58141 24.8631 10.755 26.0284 12.2029 26.0284C13.6507 26.0284 14.8244 24.8631 14.8244 23.4256H9.58141Z" fill="#033348"/>
<path id="Vector_2" d="M18.5199 10.6012C19.9677 10.6012 21.1414 9.43586 21.1414 7.99835C21.1414 6.56084 19.9677 5.39551 18.5199 5.39551C17.0721 5.39551 15.8984 6.56084 15.8984 7.99835C15.8984 9.43586 17.0721 10.6012 18.5199 10.6012Z" fill="#FF8B8B"/>
</g>
</svg>
