<svg width="16" height="17" viewBox="0 0 16 17" fill="none" xmlns="http://www.w3.org/2000/svg">
<path d="M4.39368 6.09529C4.47805 6.20279 4.60014 6.35681 4.75016 6.54181C5.05062 6.91233 5.46118 7.40468 5.90405 7.89557C6.34917 8.38894 6.81676 8.86943 7.23215 9.22266C7.44045 9.39977 7.62342 9.53436 7.77441 9.62196C7.96639 9.73334 8.03457 9.7324 8.22494 9.62196C8.37593 9.53436 8.5589 9.39978 8.76719 9.22266C9.18259 8.86943 9.65018 8.38894 10.0953 7.89557C10.5382 7.40469 10.9487 6.91234 11.2492 6.54181C11.3992 6.35681 11.5213 6.20279 11.6057 6.09529C11.8103 5.83457 12.1075 5.57156 12.4614 5.82239C12.8196 6.07628 12.641 6.43404 12.4342 6.69753C12.347 6.80861 12.2216 6.96685 12.0677 7.15656C11.7605 7.53546 11.3379 8.04233 10.8793 8.55067C10.4229 9.05653 9.92063 9.57526 9.4547 9.97146C9.22232 10.1691 8.98677 10.3467 8.761 10.4777C8.54948 10.6004 8.28168 10.7212 8.00029 10.7212C7.71891 10.7212 7.44986 10.6004 7.23834 10.4777C7.01257 10.3467 6.77703 10.1691 6.54465 9.97146C6.07872 9.57526 5.57641 9.05653 5.12003 8.55067C4.66141 8.04233 4.23887 7.53546 3.93161 7.15656C3.77777 6.96685 3.65234 6.80861 3.56516 6.69753C3.35835 6.43404 3.17977 6.07628 3.53799 5.82239C3.89187 5.57156 4.18905 5.83457 4.39368 6.09529Z" stroke="#045071" stroke-linecap="round" stroke-linejoin="round"/>
</svg>
