<svg width="19" height="19" viewBox="0 0 19 19" fill="none" xmlns="http://www.w3.org/2000/svg">
<path fill-rule="evenodd" clip-rule="evenodd" d="M16.9219 8.97388H1.92188V16.4658C1.92188 17.0181 2.3696 17.4658 2.92188 17.4658H15.9219C16.4742 17.4658 16.9219 17.0181 16.9219 16.4658V8.97388ZM0.421875 7.47388V16.4658C0.421875 17.8465 1.54116 18.9658 2.92188 18.9658H15.9219C17.3026 18.9658 18.4219 17.8465 18.4219 16.4658V7.47388H0.421875Z" fill="#033348"/>
<path fill-rule="evenodd" clip-rule="evenodd" d="M15.9219 3.46582H2.92188C2.3696 3.46582 1.92188 3.91354 1.92188 4.46582V7.46582H16.9219V4.46582C16.9219 3.91354 16.4742 3.46582 15.9219 3.46582ZM2.92188 1.96582C1.54116 1.96582 0.421875 3.08511 0.421875 4.46582V8.96582H18.4219V4.46582C18.4219 3.08511 17.3026 1.96582 15.9219 1.96582H2.92188Z" fill="#033348"/>
<path fill-rule="evenodd" clip-rule="evenodd" d="M5.42188 0.21582C5.83608 0.21582 6.17188 0.551606 6.17188 0.96582V4.96582C6.17188 5.38003 5.83608 5.71582 5.42188 5.71582C5.00767 5.71582 4.67188 5.38003 4.67188 4.96582V0.96582C4.67188 0.551606 5.00767 0.21582 5.42188 0.21582Z" fill="#033348"/>
<path fill-rule="evenodd" clip-rule="evenodd" d="M13.4219 0.21582C13.8361 0.21582 14.1719 0.551606 14.1719 0.96582V4.96582C14.1719 5.38003 13.8361 5.71582 13.4219 5.71582C13.0077 5.71582 12.6719 5.38003 12.6719 4.96582V0.96582C12.6719 0.551606 13.0077 0.21582 13.4219 0.21582Z" fill="#033348"/>
</svg>
