<svg width="20" height="20" viewBox="0 0 20 20" fill="none" xmlns="http://www.w3.org/2000/svg">
    <path fill-rule="evenodd" clip-rule="evenodd" d="M5 1.04199C5.34518 1.04199 5.625 1.32181 5.625 1.66699V3.33366C5.625 3.67884 5.34518 3.95866 5 3.95866C4.65482 3.95866 4.375 3.67884 4.375 3.33366V1.66699C4.375 1.32181 4.65482 1.04199 5 1.04199ZM15 1.04199C15.3452 1.04199 15.625 1.32181 15.625 1.66699V3.33366C15.625 3.67884 15.3452 3.95866 15 3.95866C14.6548 3.95866 14.375 3.67884 14.375 3.33366V1.66699C14.375 1.32181 14.6548 1.04199 15 1.04199Z" fill="#2E3038"/>
    <path fill-rule="evenodd" clip-rule="evenodd" d="M5.83398 10.8333C5.83398 10.3731 6.20708 10 6.66732 10H6.67479C7.13503 10 7.50813 10.3731 7.50813 10.8333C7.50813 11.2936 7.13503 11.6667 6.67479 11.6667H6.66732C6.20708 11.6667 5.83398 11.2936 5.83398 10.8333ZM9.16357 10.8333C9.16357 10.3731 9.53666 10 9.9969 10H10.0044C10.4646 10 10.8377 10.3731 10.8377 10.8333C10.8377 11.2936 10.4646 11.6667 10.0044 11.6667H9.9969C9.53666 11.6667 9.16357 11.2936 9.16357 10.8333ZM12.4932 10.8333C12.4932 10.3731 12.8662 10 13.3265 10H13.334C13.7942 10 14.1673 10.3731 14.1673 10.8333C14.1673 11.2936 13.7942 11.6667 13.334 11.6667H13.3265C12.8662 11.6667 12.4932 11.2936 12.4932 10.8333ZM5.83398 14.1667C5.83398 13.7064 6.20708 13.3333 6.66732 13.3333H6.67479C7.13503 13.3333 7.50813 13.7064 7.50813 14.1667C7.50813 14.6269 7.13503 15 6.67479 15H6.66732C6.20708 15 5.83398 14.6269 5.83398 14.1667ZM9.16357 14.1667C9.16357 13.7064 9.53666 13.3333 9.9969 13.3333H10.0044C10.4646 13.3333 10.8377 13.7064 10.8377 14.1667C10.8377 14.6269 10.4646 15 10.0044 15H9.9969C9.53666 15 9.16357 14.6269 9.16357 14.1667Z" fill="#2E3038"/>
    <path fill-rule="evenodd" clip-rule="evenodd" d="M2.29102 6.66699C2.29102 6.32181 2.57084 6.04199 2.91602 6.04199H17.0827C17.4279 6.04199 17.7077 6.32181 17.7077 6.66699C17.7077 7.01217 17.4279 7.29199 17.0827 7.29199H2.91602C2.57084 7.29199 2.29102 7.01217 2.29102 6.66699Z" fill="#2E3038"/>
    <path fill-rule="evenodd" clip-rule="evenodd" d="M5.38985 3.25951C4.49838 3.38908 3.975 3.63215 3.58623 4.05244C3.19106 4.47965 2.95749 5.06596 2.83464 6.05385C2.71012 7.05505 2.70898 8.37077 2.70898 10.2027V10.6307C2.70898 12.4626 2.71012 13.7783 2.83464 14.7795C2.95749 15.7674 3.19105 16.3537 3.58622 16.7809C3.97499 17.2012 4.49838 17.4443 5.38985 17.5738C6.30462 17.7068 7.51055 17.7083 9.20898 17.7083H10.7923C12.4908 17.7083 13.6967 17.7068 14.6115 17.5738C15.5029 17.4443 16.0263 17.2012 16.4151 16.7809C16.8103 16.3537 17.0438 15.7674 17.1667 14.7795C17.2912 13.7783 17.2923 12.4626 17.2923 10.6307V10.2027C17.2923 8.37077 17.2912 7.05505 17.1667 6.05385C17.0438 5.06596 16.8103 4.47965 16.4151 4.05243C16.0263 3.63215 15.5029 3.38908 14.6115 3.25951C13.6967 3.12655 12.4908 3.125 10.7923 3.125H9.20898C7.51055 3.125 6.30462 3.12655 5.38985 3.25951ZM9.15836 1.875H10.8429C12.4794 1.87498 13.7762 1.87497 14.7913 2.0225C15.84 2.17494 16.6781 2.49588 17.3327 3.20364C17.981 3.90446 18.2691 4.78994 18.4071 5.89959C18.5423 6.98692 18.5423 8.38038 18.5423 10.1584V10.675C18.5423 12.453 18.5423 13.8464 18.4071 14.9338C18.2691 16.0434 17.981 16.9289 17.3327 17.6297C16.6781 18.3375 15.84 18.6584 14.7913 18.8108C13.7762 18.9584 12.4794 18.9583 10.843 18.9583H9.15835C7.52194 18.9583 6.22508 18.9584 5.21006 18.8108C4.1613 18.6584 3.32328 18.3375 2.66861 17.6297C2.02036 16.9289 1.73219 16.0434 1.59419 14.9338C1.45897 13.8464 1.45898 12.453 1.45898 10.675V10.1583C1.45898 8.38037 1.45897 6.98691 1.59419 5.89959C1.73219 4.78993 2.02035 3.90445 2.66861 3.20363C3.32327 2.49589 4.16129 2.17494 5.21006 2.0225C6.22508 1.87497 7.52194 1.87498 9.15836 1.875Z" fill="#2E3038"/>
    <path fill-rule="evenodd" clip-rule="evenodd" d="M1.875 6.66699C1.875 6.32181 2.15482 6.04199 2.5 6.04199H17.5C17.8452 6.04199 18.125 6.32181 18.125 6.66699C18.125 7.01217 17.8452 7.29199 17.5 7.29199H2.5C2.15482 7.29199 1.875 7.01217 1.875 6.66699Z" fill="#2E3038"/>
    </svg>
    