<svg width="20" height="21" viewBox="0 0 20 21" fill="none" xmlns="http://www.w3.org/2000/svg">
<path fill-rule="evenodd" clip-rule="evenodd" d="M1.875 10.5C1.875 5.9753 5.77516 2.375 10.5 2.375C10.9247 2.375 11.3426 2.40395 11.7515 2.45997C12.0935 2.50682 12.3327 2.82203 12.2859 3.16402C12.239 3.506 11.9238 3.74525 11.5818 3.6984C11.2291 3.65007 10.8678 3.625 10.5 3.625C6.38829 3.625 3.125 6.74043 3.125 10.5C3.125 14.2596 6.38829 17.375 10.5 17.375C10.8678 17.375 11.2291 17.3499 11.5818 17.3016C11.9238 17.2548 12.239 17.494 12.2859 17.836C12.3327 18.178 12.0935 18.4932 11.7515 18.5401C11.3426 18.5961 10.9247 18.625 10.5 18.625C5.77516 18.625 1.875 15.0247 1.875 10.5Z" fill="#E3E4E8"/>
<path fill-rule="evenodd" clip-rule="evenodd" d="M11.6982 7.98105C11.9388 8.22857 11.9331 8.62426 11.6856 8.86484C11.551 8.99573 11.3367 9.16425 11.1328 9.32445C11.117 9.3368 11.1012 9.34922 11.0853 9.36171C10.8805 9.52247 10.6616 9.69439 10.4543 9.86996C10.4524 9.87164 10.4504 9.87332 10.4484 9.875H17.5C17.8452 9.875 18.125 10.1548 18.125 10.5C18.125 10.8452 17.8452 11.125 17.5 11.125H10.4484C10.4504 11.1267 10.4524 11.1284 10.4544 11.1301C10.6616 11.3056 10.8806 11.4776 11.0854 11.6384C11.1013 11.6508 11.1171 11.6632 11.1328 11.6756C11.3367 11.8358 11.551 12.0043 11.6856 12.1351C11.9331 12.3757 11.9388 12.7714 11.6982 13.0189C11.4576 13.2665 11.0619 13.2721 10.8144 13.0315C10.7383 12.9576 10.5868 12.8362 10.3606 12.6586C10.3443 12.6457 10.3276 12.6327 10.3108 12.6194C10.109 12.461 9.87221 12.2752 9.64625 12.0837C9.40412 11.8785 9.15263 11.6489 8.95711 11.4193C8.85913 11.3043 8.76249 11.1746 8.68785 11.0351C8.61585 10.9006 8.54167 10.7152 8.54167 10.5C8.54167 10.2848 8.61585 10.0994 8.68785 9.96486C8.7625 9.82537 8.85914 9.6957 8.95711 9.58067C9.15263 9.35111 9.40412 9.12146 9.64625 8.91629C9.87219 8.72484 10.1089 8.53903 10.3107 8.38063C10.3276 8.36737 10.3442 8.3543 10.3606 8.34143C10.5868 8.16377 10.7383 8.04241 10.8144 7.96849C11.0619 7.72791 11.4576 7.73353 11.6982 7.98105Z" fill="#E3E4E8"/>
</svg>
