<svg width="21" height="21" viewBox="0 0 21 21" fill="none" xmlns="http://www.w3.org/2000/svg">
<path fill-rule="evenodd" clip-rule="evenodd" d="M2.13281 6.78532C2.13281 4.13895 4.27811 1.99365 6.92448 1.99365H13.1745C13.5197 1.99365 13.7995 2.27347 13.7995 2.61865C13.7995 2.96383 13.5197 3.24365 13.1745 3.24365H6.92448C4.96847 3.24365 3.38281 4.82931 3.38281 6.78532V14.2853C3.38281 16.2413 4.96847 17.827 6.92448 17.827H14.4245C16.3805 17.827 17.9661 16.2413 17.9661 14.2853V8.86865C17.9661 8.52347 18.246 8.24365 18.5911 8.24365C18.9363 8.24365 19.2161 8.52347 19.2161 8.86865V14.2853C19.2161 16.9317 17.0708 19.077 14.4245 19.077H6.92448C4.27811 19.077 2.13281 16.9317 2.13281 14.2853V6.78532Z" fill="#454754"/>
<path fill-rule="evenodd" clip-rule="evenodd" d="M18.5928 2.98743C18.8493 3.21835 18.8701 3.61353 18.6392 3.87009L11.139 12.2034C11.0243 12.3309 10.8623 12.4056 10.6909 12.4101C10.5195 12.4146 10.3538 12.3485 10.2325 12.2273L7.31587 9.31059C7.07179 9.06652 7.07179 8.67079 7.31587 8.42671C7.55995 8.18263 7.95568 8.18263 8.19975 8.42671L10.6506 10.8776L17.7101 3.03388C17.941 2.77731 18.3362 2.75652 18.5928 2.98743Z" fill="#454754"/>
</svg>
