<svg width="24" height="25" viewBox="0 0 24 25" fill="none" xmlns="http://www.w3.org/2000/svg">
<mask id="mask0_390_442" style="mask-type:luminance" maskUnits="userSpaceOnUse" x="2" y="2" width="20" height="21">
<path d="M22 2.52197H2V22.522H22V2.52197Z" fill="white"/>
</mask>
<g mask="url(#mask0_390_442)">
<path d="M12.5376 2.77197H11.4624V4.27197H12.5376V2.77197ZM14.55 4.82665V4.78441H13.05V4.82665H14.55ZM15.668 5.2477L15.6381 5.27767L16.6987 6.33833L16.7287 6.30836L15.668 5.2477ZM19.2743 6.00767L18.5143 5.2477L17.4536 6.30836L18.2136 7.06833L19.2743 6.00767ZM19.2443 8.88387L19.2743 8.85397L18.2136 7.79327L18.1836 7.82327L19.2443 8.88387ZM19.7376 9.97197H19.6953V11.472H19.7376V9.97197ZM21.75 13.0596V11.9844H20.25V13.0596H21.75ZM19.6953 15.072H19.7376V13.572H19.6953V15.072ZM19.2743 16.19L19.2443 16.16L18.1836 17.2207L18.2136 17.2507L19.2743 16.19ZM18.5144 19.7963L19.2743 19.0363L18.2136 17.9757L17.4537 18.7356L18.5144 19.7963ZM15.6381 19.7663L15.6681 19.7963L16.7287 18.7356L16.6988 18.7056L15.6381 19.7663ZM14.55 20.2596V20.2173H13.05V20.2596H14.55ZM11.4624 22.272H12.5376V20.772H11.4624V22.272ZM9.45 20.2173V20.2596H10.95V20.2173H9.45ZM8.332 19.7963L8.3619 19.7663L7.3013 18.7056L7.2713 18.7356L8.332 19.7963ZM4.72572 19.0363L5.48568 19.7963L6.5463 18.7356L5.78638 17.9757L4.72572 19.0363ZM4.7557 16.1601L4.72572 16.19L5.78638 17.2507L5.81636 17.2207L4.7557 16.1601ZM4.26244 15.072H4.30468V13.572H4.26244V15.072ZM2.25 11.9844V13.0596H3.75V11.9844H2.25ZM4.30466 9.97197H4.26244V11.472H4.30466V9.97197ZM4.72575 8.85387L4.75571 8.88387L5.81637 7.82317L5.78641 7.79327L4.72575 8.85387ZM5.48574 5.24768L4.72575 6.00767L5.78641 7.06833L6.5464 6.30834L5.48574 5.24768ZM8.362 5.27767L8.332 5.24768L7.2714 6.30834L7.3013 6.33833L8.362 5.27767ZM9.45 4.78441V4.82667H10.95V4.78441H9.45ZM9.6036 6.74768C10.3308 6.44549 10.95 5.73589 10.95 4.82667H9.45C9.45 5.01269 9.3122 5.24441 9.028 5.36251L9.6036 6.74768ZM7.3013 6.33833C7.9397 6.97667 8.868 7.05333 9.6036 6.74768L9.028 5.36251C8.7519 5.47723 8.4983 5.41394 8.362 5.27767L7.3013 6.33833ZM6.5464 6.30834C6.7466 6.10816 7.0712 6.10816 7.2714 6.30834L8.332 5.24768C7.546 4.46171 6.2717 4.46171 5.48574 5.24768L6.5464 6.30834ZM5.78641 7.79327C5.58623 7.59307 5.58623 7.26852 5.78641 7.06833L4.72575 6.00767C3.93979 6.79364 3.93979 8.06797 4.72575 8.85387L5.78641 7.79327ZM6.2257 10.1255C6.5314 9.38997 6.4547 8.46157 5.81637 7.82317L4.75571 8.88387C4.892 9.02017 4.95528 9.27377 4.84055 9.54987L6.2257 10.1255ZM4.30466 11.472C5.2139 11.472 5.92353 10.8527 6.2257 10.1255L4.84055 9.54987C4.72244 9.83417 4.49071 9.97197 4.30466 9.97197V11.472ZM3.75 11.9844C3.75 11.7014 3.97943 11.472 4.26244 11.472V9.97197C3.151 9.97197 2.25 10.873 2.25 11.9844H3.75ZM4.26244 13.572C3.97943 13.572 3.75 13.3426 3.75 13.0596H2.25C2.25 14.171 3.151 15.072 4.26244 15.072V13.572ZM6.2257 14.9184C5.92353 14.1912 5.21391 13.572 4.30468 13.572V15.072C4.49071 15.072 4.72244 15.2098 4.84055 15.494L6.2257 14.9184ZM5.81636 17.2207C6.4547 16.5824 6.5314 15.654 6.2257 14.9184L4.84055 15.494C4.95527 15.7701 4.89199 16.0238 4.7557 16.1601L5.81636 17.2207ZM5.78638 17.9757C5.58619 17.7755 5.58619 17.4509 5.78638 17.2507L4.72572 16.19C3.93974 16.976 3.93974 18.2503 4.72572 19.0363L5.78638 17.9757ZM7.2713 18.7356C7.0711 18.9358 6.7465 18.9358 6.5463 18.7356L5.48568 19.7963C6.2717 20.5823 7.546 20.5823 8.332 19.7963L7.2713 18.7356ZM9.6036 18.2963C8.868 17.9906 7.9396 18.0673 7.3013 18.7056L8.3619 19.7663C8.4982 19.63 8.7519 19.5667 9.028 19.6815L9.6036 18.2963ZM10.95 20.2173C10.95 19.3081 10.3308 18.5985 9.6036 18.2963L9.028 19.6815C9.3122 19.7996 9.45 20.0313 9.45 20.2173H10.95ZM11.4624 20.772C11.1794 20.772 10.95 20.5426 10.95 20.2596H9.45C9.45 21.371 10.351 22.272 11.4624 22.272V20.772ZM13.05 20.2596C13.05 20.5426 12.8206 20.772 12.5376 20.772V22.272C13.649 22.272 14.55 21.371 14.55 20.2596H13.05ZM14.3965 18.2963C13.6693 18.5985 13.05 19.3081 13.05 20.2173H14.55C14.55 20.0313 14.6878 19.7996 14.9721 19.6814L14.3965 18.2963ZM16.6988 18.7056C16.0604 18.0673 15.132 17.9906 14.3965 18.2963L14.9721 19.6814C15.2482 19.5667 15.5018 19.63 15.6381 19.7663L16.6988 18.7056ZM17.4537 18.7356C17.2535 18.9358 16.9289 18.9358 16.7287 18.7356L15.6681 19.7963C16.4541 20.5822 17.7284 20.5822 18.5144 19.7963L17.4537 18.7356ZM18.2136 17.2507C18.4138 17.4509 18.4138 17.7755 18.2136 17.9757L19.2743 19.0363C20.0603 18.2503 20.0603 16.976 19.2743 16.19L18.2136 17.2507ZM17.7743 14.9184C17.4686 15.654 17.5453 16.5823 18.1836 17.2207L19.2443 16.16C19.108 16.0237 19.0447 15.7701 19.1595 15.494L17.7743 14.9184ZM19.6953 13.572C18.7861 13.572 18.0765 14.1912 17.7743 14.9184L19.1595 15.494C19.2776 15.2098 19.5093 15.072 19.6953 15.072V13.572ZM20.25 13.0596C20.25 13.3426 20.0206 13.572 19.7376 13.572V15.072C20.849 15.072 21.75 14.171 21.75 13.0596H20.25ZM19.7376 11.472C20.0206 11.472 20.25 11.7014 20.25 11.9844H21.75C21.75 10.873 20.849 9.97197 19.7376 9.97197V11.472ZM17.7743 10.1256C18.0765 10.8528 18.7861 11.472 19.6953 11.472V9.97197C19.5093 9.97197 19.2776 9.83417 19.1595 9.54997L17.7743 10.1256ZM18.1836 7.82327C17.5453 8.46157 17.4686 9.38997 17.7743 10.1256L19.1595 9.54997C19.0447 9.27387 19.108 9.02017 19.2443 8.88387L18.1836 7.82327ZM18.2136 7.06833C18.4138 7.26852 18.4138 7.59307 18.2136 7.79327L19.2743 8.85397C20.0602 8.06797 20.0602 6.79365 19.2743 6.00767L18.2136 7.06833ZM16.7287 6.30836C16.9289 6.10817 17.2534 6.10817 17.4536 6.30836L18.5143 5.2477C17.7283 4.46172 16.454 4.46172 15.668 5.2477L16.7287 6.30836ZM14.3964 6.74768C15.132 7.05334 16.0604 6.97669 16.6987 6.33833L15.6381 5.27767C15.5018 5.41396 15.2481 5.47724 14.972 5.36252L14.3964 6.74768ZM13.05 4.82665C13.05 5.73588 13.6692 6.4455 14.3964 6.74768L14.972 5.36252C14.6878 5.24441 14.55 5.01268 14.55 4.82665H13.05ZM11.4624 2.77197C10.351 2.77197 9.45 3.67297 9.45 4.78441H10.95C10.95 4.5014 11.1794 4.27197 11.4624 4.27197V2.77197ZM12.5376 4.27197C12.8206 4.27197 13.05 4.5014 13.05 4.78441H14.55C14.55 3.67297 13.649 2.77197 12.5376 2.77197V4.27197Z" fill="white"/>
<path d="M12 15.772C13.7949 15.772 15.25 14.3169 15.25 12.522C15.25 10.727 13.7949 9.27197 12 9.27197C10.2051 9.27197 8.75 10.727 8.75 12.522C8.75 14.3169 10.2051 15.772 12 15.772Z" stroke="white" stroke-width="1.5"/>
</g>
</svg>
