<svg width="22" height="22" viewBox="0 0 22 22" fill="none" xmlns="http://www.w3.org/2000/svg">
<rect width="22" height="22" rx="11" fill="#28A2A2"/>
<g clip-path="url(#clip0_1736_3525)">
<path d="M5.31493 13.1191C5.33473 12.9306 5.47136 12.7786 5.74461 12.4748L6.34607 11.8023C6.49308 11.6162 6.59741 11.292 6.59741 11.0002C6.59741 10.7087 6.49305 10.3843 6.34605 10.1982L5.74461 9.52584C5.47136 9.22196 5.33473 9.07001 5.31493 8.88147C5.29512 8.69292 5.39717 8.51581 5.60129 8.16158L5.88922 7.6619C6.10697 7.284 6.21585 7.09505 6.4011 7.0197C6.58635 6.94435 6.79587 7.00381 7.21489 7.12272L7.9267 7.32321C8.19422 7.3849 8.47489 7.3499 8.71916 7.2244L8.91567 7.11101C9.12514 6.97685 9.28625 6.77905 9.37544 6.54653L9.57024 5.96473C9.69833 5.57972 9.76237 5.38721 9.91484 5.2771C10.0673 5.16699 10.2698 5.16699 10.6749 5.16699H11.3252C11.7302 5.16699 11.9327 5.16699 12.0852 5.2771C12.2377 5.38721 12.3017 5.57972 12.4298 5.96473L12.6246 6.54653C12.7138 6.77905 12.8749 6.97685 13.0844 7.11101L13.2809 7.2244C13.5251 7.3499 13.8058 7.3849 14.0733 7.32321L14.7851 7.12272C15.2042 7.00381 15.4137 6.94435 15.5989 7.0197C15.7842 7.09505 15.8931 7.284 16.1108 7.6619L16.3987 8.16158C16.6029 8.51581 16.7049 8.69292 16.6851 8.88147C16.6653 9.07001 16.5287 9.22196 16.2554 9.52584L15.654 10.1982C15.507 10.3843 15.4026 10.7087 15.4026 11.0002C15.4026 11.292 15.5069 11.6162 15.654 11.8023L16.2554 12.4748C16.5287 12.7786 16.6653 12.9306 16.6851 13.1191C16.7049 13.3077 16.6029 13.4848 16.3987 13.839L16.1108 14.3387C15.8931 14.7166 15.7842 14.9056 15.5989 14.9809C15.4137 15.0562 15.2042 14.9968 14.7851 14.8779L14.0734 14.6774C13.8058 14.6157 13.5251 14.6507 13.2808 14.7762L13.0843 14.8896C12.8749 15.0238 12.7138 15.2216 12.6246 15.4541L12.4298 16.0359C12.3017 16.4209 12.2377 16.6134 12.0852 16.7236C11.9327 16.8337 11.7302 16.8337 11.3252 16.8337H10.6749C10.2698 16.8337 10.0673 16.8337 9.91484 16.7236C9.76237 16.6134 9.69833 16.4209 9.57024 16.0359" stroke="#141B34" stroke-width="0.7" stroke-linecap="round"/>
<path d="M13.0235 13.0002L13.271 13.2477L13.0235 13.0002ZM13.4791 10.2132L13.1291 10.2117V10.2132H13.4791ZM13.0904 10.0514L13.3378 10.2989V10.2989L13.0904 10.0514ZM12.0073 11.134L11.7598 10.8865V10.8865L12.0073 11.134ZM11.0118 11.1339L11.2593 10.8864L11.0118 11.1339ZM9.14607 9.12254L9.39354 9.37005L9.14607 9.12254ZM11.9335 8.6671V9.0171L11.935 9.0171L11.9335 8.6671ZM12.0953 9.05572L12.3428 9.30319L12.3428 9.30319L12.0953 9.05572ZM11.0125 10.1386L10.765 9.89113L10.765 9.89114L11.0125 10.1386ZM5.64314 14.9065L5.89063 15.154L5.89064 15.154L5.64314 14.9065ZM7.23963 16.503L7.48712 16.7505L7.48714 16.7505L7.23963 16.503ZM8.69246 11.0313L8.3425 11.0264L8.69246 11.0313ZM8.60771 11.8379L8.2853 11.7017L8.60771 11.8379ZM11.1144 13.4537L11.1095 13.1037L11.1144 13.4537ZM9.70005 14.0423L9.45254 13.7948L9.70005 14.0423ZM10.3077 13.5385L10.4439 13.8609L10.3077 13.5385ZM11.1144 13.4537L11.1193 13.8037C11.577 13.7973 11.99 13.7767 12.342 13.7041C12.6976 13.6308 13.0199 13.4987 13.271 13.2477L13.0235 13.0002L12.7761 12.7527C12.6559 12.8728 12.479 12.9611 12.2006 13.0186C11.9185 13.0768 11.5625 13.0974 11.1095 13.1037L11.1144 13.4537ZM13.0235 13.0002L13.271 13.2477C13.3981 13.1206 13.5135 12.9906 13.6023 12.8276C13.6926 12.6619 13.7443 12.4828 13.7757 12.2676C13.8349 11.8606 13.8291 11.246 13.8291 10.2132H13.4791H13.1291C13.1291 11.283 13.1328 11.8246 13.083 12.1667C13.0598 12.3262 13.0273 12.4199 12.9876 12.4927C12.9465 12.5682 12.8863 12.6424 12.7761 12.7527L13.0235 13.0002ZM13.4791 10.2132L13.8291 10.2147C13.8313 9.69827 13.2072 9.43973 12.8429 9.80383L13.0904 10.0514L13.3378 10.2989C13.261 10.3757 13.1286 10.3217 13.1291 10.2117L13.4791 10.2132ZM13.0904 10.0514L12.8429 9.80383L11.7598 10.8865L12.0073 11.134L12.2547 11.3815L13.3378 10.2989L13.0904 10.0514ZM12.0073 11.134L11.7598 10.8865C11.6216 11.0246 11.3975 11.0246 11.2593 10.8864L11.0118 11.1339L10.7643 11.3814C11.1759 11.7929 11.8431 11.793 12.2547 11.3815L12.0073 11.134ZM8.69246 11.0313L9.04243 11.0362C9.04877 10.5834 9.06942 10.2276 9.12763 9.94547C9.18509 9.667 9.2734 9.49017 9.39354 9.37005L9.14607 9.12254L8.89861 8.87504C8.64755 9.12605 8.51543 9.44847 8.44207 9.80402C8.36945 10.156 8.3489 10.5689 8.3425 11.0264L8.69246 11.0313ZM9.14607 9.12254L9.39354 9.37005C9.50382 9.25979 9.57801 9.19964 9.65353 9.15852C9.72637 9.11885 9.82015 9.08638 9.9796 9.06317C10.3218 9.01337 10.8635 9.0171 11.9335 9.0171V8.6671V8.3171C10.9005 8.3171 10.2859 8.31122 9.87878 8.37047C9.66359 8.40179 9.48449 8.45352 9.31878 8.54375C9.15574 8.63252 9.0257 8.74796 8.89861 8.87504L9.14607 9.12254ZM11.9335 8.6671L11.935 9.0171C11.8253 9.01757 11.7709 8.88523 11.8478 8.80824L12.0953 9.05572L12.3428 9.30319C12.7072 8.93879 12.4482 8.31489 11.932 8.3171L11.9335 8.6671ZM12.0953 9.05572L11.8479 8.80824L10.765 9.89113L11.0125 10.1386L11.26 10.3861L12.3428 9.30319L12.0953 9.05572ZM11.0125 10.1386L10.765 9.89114C10.354 10.3022 10.3523 10.9694 10.7643 11.3814L11.0118 11.1339L11.2593 10.8864C11.1216 10.7488 11.1214 10.5248 11.26 10.3861L11.0125 10.1386ZM5.64314 16.503L5.89063 16.2555C5.58646 15.9514 5.58646 15.4582 5.89063 15.154L5.64314 14.9065L5.39566 14.659C4.81811 15.2366 4.81811 16.173 5.39566 16.7505L5.64314 16.503ZM7.23963 16.503L6.99215 16.2555C6.68797 16.5597 6.19481 16.5597 5.89063 16.2555L5.64314 16.503L5.39566 16.7505C5.9732 17.328 6.90958 17.328 7.48712 16.7505L7.23963 16.503ZM9.70005 14.0423L9.45254 13.7948L6.99213 16.2555L7.23963 16.503L7.48714 16.7505L9.94755 14.2897L9.70005 14.0423ZM5.64314 14.9065L5.89064 15.154L8.35154 12.693L8.10404 12.4455L7.85655 12.198L5.39565 14.659L5.64314 14.9065ZM8.69246 11.0313L8.3425 11.0264C8.33623 11.4741 8.32833 11.5998 8.2853 11.7017L8.60771 11.8379L8.93012 11.9741C9.03906 11.7162 9.037 11.4242 9.04243 11.0362L8.69246 11.0313ZM8.10404 12.4455L8.35154 12.693C8.61671 12.4278 8.82134 12.2316 8.93012 11.9741L8.60771 11.8379L8.2853 11.7017C8.24211 11.8039 8.16162 11.8929 7.85655 12.198L8.10404 12.4455ZM11.1144 13.4537L11.1095 13.1037C10.7215 13.1092 10.4294 13.1071 10.1715 13.2161L10.3077 13.5385L10.4439 13.8609C10.5458 13.8178 10.6716 13.8099 11.1193 13.8037L11.1144 13.4537ZM9.70005 14.0423L9.94755 14.2897C10.2527 13.9846 10.3416 13.9041 10.4439 13.8609L10.3077 13.5385L10.1715 13.2161C9.91391 13.3249 9.71774 13.5295 9.45254 13.7948L9.70005 14.0423Z" fill="#141B34"/>
</g>
<defs>
<clipPath id="clip0_1736_3525">
<rect width="14" height="14" fill="white" transform="translate(4 4)"/>
</clipPath>
</defs>
</svg>