<svg width="140" height="140" viewBox="0 0 140 140" fill="none" xmlns="http://www.w3.org/2000/svg">
<path d="M73.808 0.9375H66.192V11.5625H73.808V0.9375ZM88.0625 15.4915V15.1923H77.4375V15.4915H88.0625ZM95.9817 18.4739L95.7699 18.6862L103.282 26.1992L103.495 25.9869L95.9817 18.4739ZM121.526 23.857L116.143 18.4739L108.63 25.9869L114.013 31.3701L121.526 23.857ZM121.314 44.2301L121.526 44.0183L114.013 36.505L113.8 36.7175L121.314 44.2301ZM124.808 51.9375H124.508V62.5625H124.808V51.9375ZM139.062 73.808V66.192H128.438V73.808H139.062ZM124.508 88.0625H124.808V77.4375H124.508V88.0625ZM121.526 95.9817L121.314 95.7692L113.8 103.282L114.013 103.495L121.526 95.9817ZM116.144 121.526L121.526 116.143L114.013 108.63L108.63 114.013L116.144 121.526ZM95.7699 121.314L95.9824 121.526L103.495 114.013L103.283 113.8L95.7699 121.314ZM88.0625 124.808V124.508H77.4375V124.808H88.0625ZM66.192 139.062H73.808V128.438H66.192V139.062ZM51.9375 124.508V124.808H62.5625V124.508H51.9375ZM44.0183 121.526L44.2301 121.314L36.7175 113.8L36.505 114.013L44.0183 121.526ZM18.4739 116.143L23.8569 121.526L31.3696 114.013L25.9869 108.63L18.4739 116.143ZM18.6862 95.7699L18.4739 95.9817L25.9869 103.495L26.1992 103.282L18.6862 95.7699ZM15.1923 88.0625H15.4915V77.4375H15.1923V88.0625ZM0.9375 66.192V73.808H11.5625V66.192H0.9375ZM15.4913 51.9375H15.1923V62.5625H15.4913V51.9375ZM18.4741 44.0176L18.6863 44.2301L26.1993 36.7168L25.9871 36.505L18.4741 44.0176ZM23.8573 18.4738L18.4741 23.857L25.9871 31.3701L31.3703 25.9868L23.8573 18.4738ZM44.2308 18.6862L44.0183 18.4738L36.5058 25.9868L36.7175 26.1992L44.2308 18.6862ZM51.9375 15.1923V15.4916H62.5625V15.1923H51.9375ZM53.0255 29.0988C58.1765 26.9583 62.5625 21.9319 62.5625 15.4916H51.9375C51.9375 16.8093 50.9614 18.4506 48.9483 19.2872L53.0255 29.0988ZM36.7175 26.1992C41.2395 30.7208 47.815 31.2638 53.0255 29.0988L48.9483 19.2872C46.9926 20.0998 45.1963 19.6515 44.2308 18.6862L36.7175 26.1992ZM31.3703 25.9868C32.7884 24.5688 35.0877 24.5688 36.5058 25.9868L44.0183 18.4738C38.4508 12.9065 29.4245 12.9065 23.8573 18.4738L31.3703 25.9868ZM25.9871 36.505C24.5691 35.087 24.5691 32.7881 25.9871 31.3701L18.4741 23.857C12.9068 29.4243 12.9068 38.4508 18.4741 44.0176L25.9871 36.505ZM29.0987 53.0248C31.2641 47.815 30.7208 41.2388 26.1993 36.7168L18.6863 44.2301C19.6517 45.1956 20.0999 46.9919 19.2872 48.9476L29.0987 53.0248ZM15.4913 62.5625C21.9318 62.5625 26.9583 58.1758 29.0987 53.0248L19.2872 48.9476C18.4506 50.9614 16.8092 51.9375 15.4913 51.9375V62.5625ZM11.5625 66.192C11.5625 64.1874 13.1876 62.5625 15.1923 62.5625V51.9375C7.31958 51.9375 0.9375 58.3196 0.9375 66.192H11.5625ZM15.1923 77.4375C13.1876 77.4375 11.5625 75.8126 11.5625 73.808H0.9375C0.9375 81.6804 7.31958 88.0625 15.1923 88.0625V77.4375ZM29.0987 86.9745C26.9583 81.8235 21.9319 77.4375 15.4915 77.4375V88.0625C16.8092 88.0625 18.4506 89.0386 19.2872 91.0517L29.0987 86.9745ZM26.1992 103.282C30.7208 98.7612 31.2641 92.185 29.0987 86.9745L19.2872 91.0517C20.0998 93.0074 19.6516 94.8044 18.6862 95.7699L26.1992 103.282ZM25.9869 108.63C24.5688 107.212 24.5688 104.913 25.9869 103.495L18.4739 95.9817C12.9065 101.549 12.9065 110.575 18.4739 116.143L25.9869 108.63ZM36.505 114.013C35.087 115.431 32.7877 115.431 31.3696 114.013L23.8569 121.526C29.4245 127.094 38.4508 127.094 44.0183 121.526L36.505 114.013ZM53.0255 110.901C47.815 108.736 41.2388 109.279 36.7175 113.8L44.2301 121.314C45.1956 120.348 46.9926 119.9 48.9483 120.713L53.0255 110.901ZM62.5625 124.508C62.5625 118.068 58.1765 113.042 53.0255 110.901L48.9483 120.713C50.9614 121.55 51.9375 123.191 51.9375 124.508H62.5625ZM66.192 128.438C64.1874 128.438 62.5625 126.813 62.5625 124.808H51.9375C51.9375 132.68 58.3196 139.062 66.192 139.062V128.438ZM77.4375 124.808C77.4375 126.813 75.8126 128.438 73.808 128.438V139.062C81.6804 139.062 88.0625 132.68 88.0625 124.808H77.4375ZM86.9752 110.901C81.8242 113.042 77.4375 118.068 77.4375 124.508H88.0625C88.0625 123.191 89.0386 121.55 91.0524 120.712L86.9752 110.901ZM103.283 113.8C98.7612 109.279 92.185 108.736 86.9752 110.901L91.0524 120.712C93.0081 119.9 94.8044 120.348 95.7699 121.314L103.283 113.8ZM108.63 114.013C107.212 115.431 104.913 115.431 103.495 114.013L95.9824 121.526C101.55 127.093 110.576 127.093 116.144 121.526L108.63 114.013ZM114.013 103.495C115.431 104.913 115.431 107.212 114.013 108.63L121.526 116.143C127.094 110.575 127.094 101.549 121.526 95.9817L114.013 103.495ZM110.901 86.9745C108.736 92.185 109.279 98.7605 113.8 103.282L121.314 95.7692C120.348 94.8037 119.9 93.0074 120.713 91.0517L110.901 86.9745ZM124.508 77.4375C118.068 77.4375 113.042 81.8235 110.901 86.9745L120.713 91.0517C121.55 89.0386 123.191 88.0625 124.508 88.0625V77.4375ZM128.438 73.808C128.438 75.8126 126.813 77.4375 124.808 77.4375V88.0625C132.68 88.0625 139.062 81.6804 139.062 73.808H128.438ZM124.808 62.5625C126.813 62.5625 128.438 64.1874 128.438 66.192H139.062C139.062 58.3196 132.68 51.9375 124.808 51.9375V62.5625ZM110.901 53.0255C113.042 58.1765 118.068 62.5625 124.508 62.5625V51.9375C123.191 51.9375 121.55 50.9614 120.713 48.9483L110.901 53.0255ZM113.8 36.7175C109.279 41.2388 108.736 47.815 110.901 53.0255L120.713 48.9483C119.9 46.9926 120.348 45.1956 121.314 44.2301L113.8 36.7175ZM114.013 31.3701C115.431 32.7881 115.431 35.087 114.013 36.505L121.526 44.0183C127.093 38.4508 127.093 29.4244 121.526 23.857L114.013 31.3701ZM103.495 25.9869C104.913 24.5689 107.212 24.5689 108.63 25.9869L116.143 18.4739C110.575 12.9066 101.549 12.9066 95.9817 18.4739L103.495 25.9869ZM86.9745 29.0988C92.185 31.2639 98.7612 30.7209 103.282 26.1992L95.7699 18.6862C94.8044 19.6516 93.0074 20.0998 91.0517 19.2872L86.9745 29.0988ZM77.4375 15.4915C77.4375 21.9319 81.8235 26.9583 86.9745 29.0988L91.0517 19.2872C89.0386 18.4506 88.0625 16.8092 88.0625 15.4915H77.4375ZM66.192 0.9375C58.3196 0.9375 51.9375 7.31959 51.9375 15.1923H62.5625C62.5625 13.1876 64.1874 11.5625 66.192 11.5625V0.9375ZM73.808 11.5625C75.8126 11.5625 77.4375 13.1876 77.4375 15.1923H88.0625C88.0625 7.31959 81.6804 0.9375 73.808 0.9375V11.5625Z" fill="#033348"/>
<path d="M70.0003 93.0209C82.7144 93.0209 93.0212 82.7141 93.0212 70.0001C93.0212 57.286 82.7144 46.9792 70.0003 46.9792C57.2863 46.9792 46.9795 57.286 46.9795 70.0001C46.9795 82.7141 57.2863 93.0209 70.0003 93.0209Z" stroke="#033348" stroke-width="10.625"/>
</svg>
