<svg width="21" height="21" viewBox="0 0 21 21" fill="none" xmlns="http://www.w3.org/2000/svg">
<path fill-rule="evenodd" clip-rule="evenodd" d="M14.4462 4.49349L14.0481 3.67232C13.8919 3.35006 13.7402 3.02327 13.5557 2.71587C13.3967 2.45112 13.2181 2.21911 12.9666 2.03151C12.6172 1.77094 12.2118 1.64143 11.779 1.60271C11.0829 1.54045 10.2976 1.54045 9.60195 1.60378C9.15952 1.64406 8.74576 1.77896 8.39212 2.05025C8.13753 2.24556 7.95958 2.48643 7.80306 2.76076C7.62107 3.07974 7.47375 3.41819 7.32161 3.75198L6.9836 4.49349H3.1748C2.82963 4.49349 2.5498 4.77331 2.5498 5.11849C2.5498 5.46367 2.82963 5.74349 3.1748 5.74349H3.8364L4.30673 13.5344C4.36959 14.5757 4.41947 15.4021 4.52325 16.0622C4.62968 16.7392 4.80079 17.3029 5.14403 17.7962C5.45802 18.2474 5.86255 18.6283 6.33189 18.9145C6.8449 19.2274 7.41799 19.3642 8.10012 19.4297C9.72894 19.586 11.6052 19.586 13.2341 19.4298C13.9154 19.3645 14.4879 19.2279 15.0006 18.9156C15.4697 18.6298 15.874 18.2495 16.1882 17.7992C16.5315 17.3068 16.7031 16.7438 16.8103 16.0678C16.9149 15.4088 16.9659 14.584 17.0301 13.5446L17.0322 13.5113L17.5124 5.74349H18.1748C18.52 5.74349 18.7998 5.46367 18.7998 5.11849C18.7998 4.77331 18.52 4.49349 18.1748 4.49349H14.4462ZM9.15297 3.04202C9.19864 3.00699 9.24713 2.97579 9.29795 2.94877C9.38157 2.90431 9.49409 2.86877 9.71528 2.84864C10.3515 2.79071 11.0312 2.79082 11.6676 2.84774C11.8835 2.86705 11.9938 2.90112 12.0761 2.94385C12.1262 2.96982 12.1741 2.9998 12.2191 3.03337C12.2934 3.08886 12.3724 3.17341 12.4839 3.35921C12.6015 3.55502 12.7296 3.81789 12.9233 4.21754L13.0571 4.49349H8.35734L8.45901 4.27044C8.64785 3.85618 8.77281 3.58347 8.88878 3.38021C8.99886 3.18727 9.07785 3.09965 9.15297 3.04202ZM15.7846 13.4342L16.26 5.74349H5.08867L5.55251 13.4268C5.61776 14.5077 5.6647 15.2742 5.75808 15.8681C5.84989 16.452 5.97845 16.8069 6.17003 17.0821C6.66609 17.795 7.37442 18.1043 8.2195 18.1854C8.81799 18.2428 9.5859 18.2435 10.6687 18.2435C11.7502 18.2435 12.5171 18.2428 13.1148 18.1855C13.9591 18.1046 14.6665 17.7957 15.1628 17.0842C15.3545 16.8093 15.4833 16.455 15.5758 15.872C15.6698 15.2789 15.7178 14.5135 15.7846 13.4342Z" fill="#C73D45"/>
<path d="M9.21647 9.28516C9.21647 8.93998 8.93665 8.66016 8.59147 8.66016C8.24629 8.66016 7.96647 8.93998 7.96647 9.28516V14.2852C7.96647 14.6303 8.24629 14.9102 8.59147 14.9102C8.93665 14.9102 9.21647 14.6303 9.21647 14.2852V9.28516Z" fill="#C73D45"/>
<path d="M13.3831 9.28516C13.3831 8.93998 13.1033 8.66016 12.7581 8.66016C12.413 8.66016 12.1331 8.93998 12.1331 9.28516V14.2852C12.1331 14.6303 12.413 14.9102 12.7581 14.9102C13.1033 14.9102 13.3831 14.6303 13.3831 14.2852V9.28516Z" fill="#C73D45"/>
<path fill-rule="evenodd" clip-rule="evenodd" d="M9.15297 3.04202C9.19864 3.00699 9.24713 2.97579 9.29795 2.94877L9.15297 3.04202Z" fill="#C73D45"/>
</svg>
