<svg width="18" height="18" viewBox="0 0 18 18" fill="none" xmlns="http://www.w3.org/2000/svg">
<path fill-rule="evenodd" clip-rule="evenodd" d="M12.3942 3.56255L12.036 2.8235C11.8954 2.53346 11.7589 2.23935 11.5928 1.96269C11.4497 1.72441 11.289 1.51561 11.0626 1.34676C10.7482 1.11225 10.3833 0.995695 9.99375 0.960851C9.36725 0.904817 8.66049 0.904818 8.03443 0.961814C7.63625 0.998065 7.26386 1.11947 6.94558 1.36363C6.71646 1.53941 6.5563 1.7562 6.41543 2.0031C6.25164 2.29018 6.11905 2.59478 5.98212 2.89519L5.67792 3.56255H2.25C1.93934 3.56255 1.6875 3.81439 1.6875 4.12505C1.6875 4.43571 1.93934 4.68755 2.25 4.68755H2.84543L3.26873 11.6993C3.3253 12.6366 3.3702 13.3803 3.4636 13.9744C3.55938 14.5837 3.71339 15.0911 4.0223 15.5349C4.30489 15.941 4.66897 16.2838 5.09138 16.5414C5.55309 16.8231 6.06887 16.9462 6.68278 17.0051C8.14873 17.1458 9.83737 17.1458 11.3034 17.0052C11.9166 16.9464 12.4318 16.8235 12.8932 16.5424C13.3154 16.2853 13.6793 15.943 13.962 15.5377C14.271 15.0945 14.4255 14.5878 14.522 13.9794C14.6161 13.3864 14.662 12.644 14.7198 11.7085L14.7217 11.6786L15.1538 4.68755H15.75C16.0607 4.68755 16.3125 4.43571 16.3125 4.12505C16.3125 3.81439 16.0607 3.56255 15.75 3.56255H12.3942ZM7.63035 2.25622C7.67145 2.2247 7.7151 2.19662 7.76084 2.1723C7.83609 2.13229 7.93736 2.1003 8.13643 2.08218C8.70906 2.03005 9.32076 2.03015 9.89353 2.08138C10.0878 2.09875 10.1871 2.12942 10.2612 2.16787C10.3063 2.19125 10.3493 2.21823 10.3898 2.24844C10.4568 2.29838 10.5278 2.37448 10.6282 2.5417C10.734 2.71793 10.8493 2.95451 11.0237 3.31419L11.144 3.56255H6.91428L7.00579 3.36181C7.17574 2.98897 7.28821 2.74353 7.39258 2.5606C7.49165 2.38695 7.56275 2.30809 7.63035 2.25622ZM13.5988 11.6092L14.0267 4.68755H3.97248L4.38994 11.6026C4.44866 12.5753 4.49091 13.2651 4.57495 13.7997C4.65757 14.3252 4.77328 14.6446 4.94571 14.8923C5.39216 15.5339 6.02965 15.8123 6.79022 15.8853C7.32887 15.9369 8.01999 15.9375 8.99452 15.9375C9.96782 15.9375 10.658 15.9369 11.196 15.8854C11.9558 15.8125 12.5926 15.5345 13.0392 14.8942C13.2117 14.6468 13.3276 14.3279 13.4109 13.8032C13.4955 13.2694 13.5387 12.5806 13.5988 11.6092Z" fill="#454754"/>
<path d="M7.6875 7.87505C7.6875 7.56439 7.43566 7.31255 7.125 7.31255C6.81434 7.31255 6.5625 7.56439 6.5625 7.87505V12.375C6.5625 12.6857 6.81434 12.9375 7.125 12.9375C7.43566 12.9375 7.6875 12.6857 7.6875 12.375V7.87505Z" fill="#454754"/>
<path d="M11.4375 7.87505C11.4375 7.56439 11.1857 7.31255 10.875 7.31255C10.5643 7.31255 10.3125 7.56439 10.3125 7.87505V12.375C10.3125 12.6857 10.5643 12.9375 10.875 12.9375C11.1857 12.9375 11.4375 12.6857 11.4375 12.375V7.87505Z" fill="#454754"/>
<path fill-rule="evenodd" clip-rule="evenodd" d="M7.63035 2.25622C7.67145 2.2247 7.7151 2.19662 7.76084 2.1723L7.63035 2.25622Z" fill="#454754"/>
</svg>
