<svg width="21" height="21" viewBox="0 0 21 21" fill="none" xmlns="http://www.w3.org/2000/svg">
<path fill-rule="evenodd" clip-rule="evenodd" d="M10.6031 18.7884C15.2976 18.7884 19.1031 14.9828 19.1031 10.2884C19.1031 5.59397 15.2976 1.78839 10.6031 1.78839C5.90873 1.78839 2.10315 5.59397 2.10315 10.2884C2.10315 14.9828 5.90873 18.7884 10.6031 18.7884ZM10.6031 20.2884C16.126 20.2884 20.6031 15.8112 20.6031 10.2884C20.6031 4.76554 16.126 0.288391 10.6031 0.288391C5.0803 0.288391 0.603149 4.76554 0.603149 10.2884C0.603149 15.8112 5.0803 20.2884 10.6031 20.2884Z" fill="#033348"/>
<path fill-rule="evenodd" clip-rule="evenodd" d="M5.35315 10.2884C5.35315 9.87418 5.68894 9.53839 6.10315 9.53839H15.1031C15.5174 9.53839 15.8531 9.87418 15.8531 10.2884C15.8531 10.7026 15.5174 11.0384 15.1031 11.0384H6.10315C5.68894 11.0384 5.35315 10.7026 5.35315 10.2884Z" fill="#033348"/>
</svg>
