<svg width="20" height="20" viewBox="0 0 20 20" fill="none" xmlns="http://www.w3.org/2000/svg">
<path fill-rule="evenodd" clip-rule="evenodd" d="M5.23915 0C5.04604 3.30174e-05 4.8608 0.0697821 4.72388 0.19401L0.337676 4.19531C0.269988 4.25739 0.216367 4.33103 0.179877 4.41202C0.143386 4.49301 0.12474 4.57976 0.125003 4.66732V14.6673C0.125003 15.7638 1.11616 16.6654 2.31811 16.6654H13.2801C14.482 16.6654 15.4696 15.7638 15.4696 14.6673V2C15.4696 0.903546 14.482 0 13.2801 0H5.23915ZM5.96995 1.33333H13.2801C13.6976 1.33333 14.0109 1.61915 14.0109 2V14.6673C14.0109 15.0482 13.6976 15.3346 13.2801 15.3346H2.31811C1.90061 15.3346 1.5866 15.0482 1.5866 14.6673V5.33464H3.77684C4.97878 5.33464 5.96995 4.43045 5.96995 3.33398V1.33333ZM4.50764 2.27865V3.33398C4.50764 3.71485 4.19435 4.00065 3.77684 4.00065H2.61999L4.50764 2.27865ZM16.9319 2.66732C16.8346 2.66536 16.7378 2.68116 16.6473 2.71378C16.5567 2.74641 16.4742 2.7952 16.4046 2.8573C16.3351 2.9194 16.2798 2.99356 16.242 3.07541C16.2043 3.15727 16.1848 3.24518 16.1848 3.33398C16.1848 3.42279 16.2043 3.5107 16.242 3.59256C16.2798 3.67441 16.3351 3.74857 16.4046 3.81067C16.4742 3.87277 16.5567 3.92156 16.6473 3.95418C16.7378 3.98681 16.8346 4.00261 16.9319 4.00065C17.3494 4.00065 17.6627 4.28647 17.6627 4.66732V17.9993C17.6627 18.3802 17.3494 18.666 16.9319 18.666H5.23915C4.82165 18.666 4.50764 18.3802 4.50764 17.9993C4.51404 17.9084 4.49992 17.8172 4.46617 17.7314C4.43241 17.6456 4.37972 17.567 4.31137 17.5005C4.24301 17.4341 4.16044 17.3811 4.06875 17.3448C3.97705 17.3086 3.87819 17.2899 3.77827 17.2899C3.67835 17.2899 3.57949 17.3086 3.4878 17.3448C3.39611 17.3811 3.31353 17.4341 3.24518 17.5005C3.17682 17.567 3.12414 17.6456 3.09038 17.7314C3.05662 17.8172 3.0425 17.9084 3.0489 17.9993C3.0489 19.0958 4.03721 20 5.23915 20H16.9319C18.1338 20 19.125 19.0958 19.125 17.9993V4.66732C19.125 3.57085 18.1338 2.66732 16.9319 2.66732ZM5.23915 7.99935C5.04817 8.00326 4.86646 8.07522 4.73291 8.19981C4.59936 8.32441 4.52458 8.49175 4.52458 8.66602C4.52458 8.84028 4.59936 9.00762 4.73291 9.13222C4.86646 9.25682 5.04817 9.32877 5.23915 9.33268H10.3562C10.4535 9.33468 10.5503 9.31891 10.6409 9.2863C10.7315 9.25369 10.814 9.2049 10.8836 9.1428C10.9532 9.0807 11.0086 9.00653 11.0463 8.92466C11.0841 8.84278 11.1035 8.75485 11.1035 8.66602C11.1035 8.57719 11.0841 8.48925 11.0463 8.40738C11.0086 8.3255 10.9532 8.25133 10.8836 8.18923C10.814 8.12713 10.7315 8.07834 10.6409 8.04573C10.5503 8.01312 10.4535 7.99736 10.3562 7.99935H5.23915ZM5.23915 10.6667C5.14183 10.6647 5.04506 10.6805 4.95452 10.7131C4.86398 10.7458 4.78149 10.7946 4.7119 10.8567C4.64231 10.9188 4.58702 10.9929 4.54927 11.0748C4.51153 11.1566 4.49208 11.2445 4.49208 11.3333C4.49208 11.4221 4.51153 11.51 4.54927 11.5919C4.58702 11.6738 4.64231 11.7479 4.7119 11.81C4.78149 11.8721 4.86398 11.9209 4.95452 11.9535C5.04506 11.9862 5.14183 12.002 5.23915 12H8.16305C8.26038 12.002 8.35715 11.9862 8.44769 11.9535C8.53823 11.9209 8.62071 11.8721 8.6903 11.81C8.75989 11.7479 8.81518 11.6738 8.85293 11.5919C8.89068 11.51 8.91012 11.4221 8.91012 11.3333C8.91012 11.2445 8.89068 11.1566 8.85293 11.0748C8.81518 10.9929 8.75989 10.9188 8.6903 10.8567C8.62071 10.7946 8.53823 10.7458 8.44769 10.7131C8.35715 10.6805 8.26038 10.6647 8.16305 10.6667H5.23915ZM10.3554 10.6667C9.95184 10.6667 9.62465 10.9651 9.62464 11.3333C9.62464 11.7015 9.95183 12 10.3554 12C10.7591 12 11.0862 11.7015 11.0862 11.3333C11.0862 10.9651 10.759 10.6667 10.3554 10.6667Z" fill="#8CACBA"/>
</svg>
