<svg width="12" height="12" viewBox="0 0 12 12" fill="none" xmlns="http://www.w3.org/2000/svg">
<path fill-rule="evenodd" clip-rule="evenodd" d="M6 2.125C6.20711 2.125 6.375 2.29289 6.375 2.5V6.73096C6.37601 6.72977 6.37702 6.72858 6.37803 6.72739C6.48339 6.60305 6.58655 6.47165 6.68302 6.34877C6.78768 6.21545 6.89652 6.07565 6.98109 5.98864C7.12543 5.84012 7.36285 5.83674 7.51136 5.98109C7.65988 6.12543 7.66326 6.36285 7.51891 6.51136C7.47135 6.5603 7.38949 6.66343 7.27166 6.81355C7.17661 6.93463 7.06511 7.07667 6.95023 7.21225C6.82713 7.35753 6.68934 7.50842 6.5516 7.62573C6.48258 7.68452 6.40478 7.7425 6.32109 7.78729C6.24037 7.83049 6.12914 7.875 6 7.875C5.87086 7.875 5.75963 7.83049 5.67891 7.78729C5.59522 7.7425 5.51742 7.68452 5.4484 7.62573C5.31066 7.50842 5.17288 7.35753 5.04977 7.21225C4.93491 7.07669 4.82342 6.93466 4.72838 6.81358C4.61053 6.66344 4.52866 6.56031 4.48109 6.51137C4.33674 6.36286 4.34012 6.12545 4.48863 5.98109C4.63714 5.83674 4.87455 5.84012 5.01891 5.98863C5.10349 6.07565 5.21235 6.21548 5.31703 6.34883C5.41349 6.47169 5.51663 6.60307 5.62197 6.72739C5.62298 6.72858 5.62399 6.72977 5.625 6.73096V2.5C5.625 2.29289 5.79289 2.125 6 2.125ZM2.125 9.5C2.125 9.29289 2.29289 9.125 2.5 9.125H9.50005C9.70716 9.125 9.87505 9.29289 9.87505 9.5C9.87505 9.70711 9.70716 9.875 9.50005 9.875H2.5C2.29289 9.875 2.125 9.70711 2.125 9.5Z" fill="white"/>
</svg>
