<svg width="62" height="56" viewBox="0 0 62 56" fill="none" xmlns="http://www.w3.org/2000/svg">
<path d="M36.0332 23.5689L38.4292 21.1729C38.5387 21.0634 38.7163 21.0634 38.8258 21.1729L41.2218 23.5689" stroke="#35525F" stroke-width="1.40231" stroke-linecap="round"/>
<path d="M38.627 22.2188L38.627 26.4257" stroke="#35525F" stroke-width="1.40231" stroke-linecap="round"/>
<path d="M20.8887 20.1351L23.5196 17.5041C23.9341 17.0896 24.5979 17.0641 25.043 17.4456L28.1807 20.1351" stroke="#35525F" stroke-width="1.72308" stroke-linecap="round"/>
<path d="M25.375 24.3416L33.5582 15.3913C33.9895 14.9194 34.7273 14.9029 35.1794 15.355L37.9958 18.1714" stroke="#35525F" stroke-width="1.72308" stroke-linecap="round"/>
<circle cx="27.8988" cy="13.9652" r="1.22478" stroke="#35525F" stroke-width="1.47692"/>
<path d="M33.2286 24.6217L21.2851 24.6215C20.6655 24.6215 20.1632 24.1192 20.1632 23.4997L20.1633 10.6515C20.1633 10.0319 20.6655 9.52968 21.2851 9.52968L39.1184 9.52968C39.738 9.52967 40.2402 10.0319 40.2402 10.6515L40.2402 18.1708" stroke="#35525F" stroke-width="1.68277" stroke-linecap="round"/>
<path d="M3.87081 43V36.295H6.07581C6.74181 36.295 7.32081 36.433 7.81281 36.709C8.30481 36.979 8.68581 37.366 8.95581 37.87C9.22581 38.368 9.36081 38.959 9.36081 39.643C9.36081 40.321 9.22581 40.912 8.95581 41.416C8.68581 41.92 8.30481 42.31 7.81281 42.586C7.32081 42.862 6.74181 43 6.07581 43H3.87081ZM4.59081 42.325H6.07581C6.59181 42.325 7.03881 42.217 7.41681 42.001C7.79481 41.779 8.08581 41.467 8.28981 41.065C8.49981 40.663 8.60481 40.189 8.60481 39.643C8.60481 39.097 8.49981 38.626 8.28981 38.23C8.07981 37.828 7.78581 37.519 7.40781 37.303C7.02981 37.081 6.58581 36.97 6.07581 36.97H4.59081V42.325ZM10.8515 43V38.176H11.5265V38.968L11.4365 38.851C11.5505 38.623 11.7215 38.443 11.9495 38.311C12.1835 38.179 12.4655 38.113 12.7955 38.113H13.1015V38.788H12.6785C12.3305 38.788 12.0515 38.896 11.8415 39.112C11.6315 39.328 11.5265 39.634 11.5265 40.03V43H10.8515ZM15.6875 43.108C15.3815 43.108 15.1085 43.051 14.8685 42.937C14.6285 42.817 14.4395 42.655 14.3015 42.451C14.1635 42.247 14.0945 42.013 14.0945 41.749C14.0945 41.497 14.1485 41.269 14.2565 41.065C14.3645 40.855 14.5325 40.678 14.7605 40.534C14.9885 40.39 15.2795 40.288 15.6335 40.228L17.5235 39.913V40.525L15.7955 40.813C15.4475 40.873 15.1955 40.984 15.0395 41.146C14.8895 41.308 14.8145 41.5 14.8145 41.722C14.8145 41.938 14.8985 42.121 15.0665 42.271C15.2405 42.421 15.4625 42.496 15.7325 42.496C16.0625 42.496 16.3505 42.427 16.5965 42.289C16.8425 42.145 17.0345 41.953 17.1725 41.713C17.3105 41.473 17.3795 41.206 17.3795 40.912V39.688C17.3795 39.4 17.2745 39.166 17.0645 38.986C16.8545 38.806 16.5815 38.716 16.2455 38.716C15.9515 38.716 15.6935 38.791 15.4715 38.941C15.2495 39.085 15.0845 39.274 14.9765 39.508L14.3645 39.175C14.4545 38.971 14.5955 38.785 14.7875 38.617C14.9855 38.449 15.2105 38.317 15.4625 38.221C15.7145 38.119 15.9755 38.068 16.2455 38.068C16.5995 38.068 16.9115 38.137 17.1815 38.275C17.4575 38.413 17.6705 38.605 17.8205 38.851C17.9765 39.091 18.0545 39.37 18.0545 39.688V43H17.3795V42.037L17.4785 42.136C17.3945 42.316 17.2625 42.481 17.0825 42.631C16.9085 42.775 16.7015 42.892 16.4615 42.982C16.2275 43.066 15.9695 43.108 15.6875 43.108ZM22.1289 44.98C21.7989 44.98 21.4929 44.929 21.2109 44.827C20.9349 44.725 20.6949 44.584 20.4909 44.404C20.2929 44.23 20.1399 44.026 20.0319 43.792L20.6529 43.459C20.7489 43.687 20.9199 43.885 21.1659 44.053C21.4119 44.221 21.7269 44.305 22.1109 44.305C22.4049 44.305 22.6749 44.248 22.9209 44.134C23.1669 44.02 23.3649 43.852 23.5149 43.63C23.6649 43.408 23.7399 43.135 23.7399 42.811V41.74L23.8479 41.839C23.6799 42.187 23.4309 42.457 23.1009 42.649C22.7709 42.835 22.4109 42.928 22.0209 42.928C21.5709 42.928 21.1659 42.82 20.8059 42.604C20.4459 42.388 20.1609 42.097 19.9509 41.731C19.7469 41.359 19.6449 40.948 19.6449 40.498C19.6449 40.042 19.7469 39.631 19.9509 39.265C20.1609 38.899 20.4429 38.608 20.7969 38.392C21.1569 38.176 21.5649 38.068 22.0209 38.068C22.4109 38.068 22.7649 38.158 23.0829 38.338C23.4069 38.518 23.6619 38.761 23.8479 39.067L23.7399 39.256V38.176H24.4149V42.811C24.4149 43.225 24.3159 43.594 24.1179 43.918C23.9259 44.248 23.6559 44.506 23.3079 44.692C22.9659 44.884 22.5729 44.98 22.1289 44.98ZM22.0569 42.253C22.3689 42.253 22.6509 42.175 22.9029 42.019C23.1549 41.857 23.3559 41.644 23.5059 41.38C23.6619 41.11 23.7399 40.816 23.7399 40.498C23.7399 40.18 23.6619 39.889 23.5059 39.625C23.3559 39.355 23.1549 39.142 22.9029 38.986C22.6509 38.824 22.3689 38.743 22.0569 38.743C21.7389 38.743 21.4509 38.824 21.1929 38.986C20.9349 39.142 20.7309 39.352 20.5809 39.616C20.4369 39.88 20.3649 40.174 20.3649 40.498C20.3649 40.816 20.4369 41.11 20.5809 41.38C20.7309 41.644 20.9319 41.857 21.1839 42.019C21.4419 42.175 21.7329 42.253 22.0569 42.253ZM29.8142 43.108C29.4542 43.108 29.1332 43.039 28.8512 42.901C28.5692 42.763 28.3472 42.568 28.1852 42.316C28.0232 42.064 27.9422 41.77 27.9422 41.434C27.9422 41.146 27.9962 40.891 28.1042 40.669C28.2122 40.447 28.3442 40.255 28.5002 40.093C28.6622 39.925 28.8242 39.784 28.9862 39.67C29.1542 39.556 29.2952 39.463 29.4092 39.391L29.8772 39.103C30.0452 39.001 30.2102 38.887 30.3722 38.761C30.5402 38.629 30.6782 38.479 30.7862 38.311C30.9002 38.137 30.9572 37.945 30.9572 37.735C30.9572 37.483 30.8732 37.273 30.7052 37.105C30.5372 36.937 30.3272 36.853 30.0752 36.853C29.8172 36.853 29.6042 36.937 29.4362 37.105C29.2742 37.273 29.1932 37.486 29.1932 37.744C29.1932 37.912 29.2322 38.077 29.3102 38.239C29.3942 38.401 29.4962 38.557 29.6162 38.707C29.7422 38.851 29.8712 38.992 30.0032 39.13L33.6932 43H32.7302L29.4362 39.598C29.2922 39.448 29.1452 39.283 28.9952 39.103C28.8512 38.917 28.7282 38.716 28.6262 38.5C28.5242 38.278 28.4732 38.035 28.4732 37.771C28.4732 37.459 28.5452 37.186 28.6892 36.952C28.8332 36.712 29.0252 36.526 29.2652 36.394C29.5112 36.256 29.7812 36.187 30.0752 36.187C30.3632 36.187 30.6272 36.253 30.8672 36.385C31.1072 36.517 31.2992 36.7 31.4432 36.934C31.5872 37.168 31.6592 37.435 31.6592 37.735C31.6592 38.053 31.5842 38.332 31.4342 38.572C31.2902 38.806 31.1132 39.007 30.9032 39.175C30.6932 39.343 30.4982 39.484 30.3182 39.598L29.8682 39.877C29.7062 39.979 29.5352 40.102 29.3552 40.246C29.1752 40.384 29.0222 40.549 28.8962 40.741C28.7702 40.927 28.7072 41.152 28.7072 41.416C28.7072 41.74 28.8122 41.992 29.0222 42.172C29.2322 42.352 29.5022 42.442 29.8322 42.442C30.0482 42.442 30.2402 42.406 30.4082 42.334C30.5762 42.262 30.7262 42.169 30.8582 42.055C30.9902 41.935 31.1102 41.803 31.2182 41.659C31.3262 41.509 31.4282 41.362 31.5242 41.218L32.5592 39.679H33.3782L32.1722 41.515C32.0762 41.665 31.9592 41.833 31.8212 42.019C31.6832 42.199 31.5212 42.373 31.3352 42.541C31.1492 42.703 30.9302 42.838 30.6782 42.946C30.4322 43.054 30.1442 43.108 29.8142 43.108ZM39.2479 43.108C38.7979 43.108 38.3929 43 38.0329 42.784C37.6729 42.562 37.3879 42.262 37.1779 41.884C36.9739 41.5 36.8719 41.068 36.8719 40.588C36.8719 40.102 36.9739 39.67 37.1779 39.292C37.3879 38.914 37.6699 38.617 38.0239 38.401C38.3839 38.179 38.7919 38.068 39.2479 38.068C39.6619 38.068 40.0309 38.158 40.3549 38.338C40.6789 38.518 40.9339 38.761 41.1199 39.067L41.0119 39.256V36.187H41.6869V43H41.0119V41.92L41.1199 42.019C40.9519 42.367 40.6999 42.637 40.3639 42.829C40.0339 43.015 39.6619 43.108 39.2479 43.108ZM39.2839 42.433C39.6079 42.433 39.8989 42.352 40.1569 42.19C40.4209 42.028 40.6279 41.809 40.7779 41.533C40.9339 41.251 41.0119 40.936 41.0119 40.588C41.0119 40.24 40.9339 39.928 40.7779 39.652C40.6279 39.37 40.4209 39.148 40.1569 38.986C39.8989 38.824 39.6079 38.743 39.2839 38.743C38.9659 38.743 38.6779 38.824 38.4199 38.986C38.1619 39.148 37.9579 39.367 37.8079 39.643C37.6639 39.919 37.5919 40.234 37.5919 40.588C37.5919 40.936 37.6639 41.251 37.8079 41.533C37.9579 41.809 38.1589 42.028 38.4109 42.19C38.6689 42.352 38.9599 42.433 39.2839 42.433ZM43.4728 43V38.176H44.1478V38.968L44.0578 38.851C44.1718 38.623 44.3428 38.443 44.5708 38.311C44.8048 38.179 45.0868 38.113 45.4168 38.113H45.7228V38.788H45.2998C44.9518 38.788 44.6728 38.896 44.4628 39.112C44.2528 39.328 44.1478 39.634 44.1478 40.03V43H43.4728ZM49.1728 43.108C48.7168 43.108 48.3028 43 47.9308 42.784C47.5588 42.562 47.2618 42.262 47.0398 41.884C46.8238 41.5 46.7158 41.065 46.7158 40.579C46.7158 40.099 46.8238 39.67 47.0398 39.292C47.2558 38.914 47.5468 38.617 47.9128 38.401C48.2848 38.179 48.7048 38.068 49.1728 38.068C49.6408 38.068 50.0578 38.176 50.4238 38.392C50.7958 38.608 51.0868 38.905 51.2968 39.283C51.5128 39.661 51.6208 40.093 51.6208 40.579C51.6208 41.071 51.5098 41.509 51.2878 41.893C51.0658 42.271 50.7688 42.568 50.3968 42.784C50.0308 43 49.6228 43.108 49.1728 43.108ZM49.1728 42.433C49.4968 42.433 49.7878 42.352 50.0458 42.19C50.3098 42.028 50.5168 41.806 50.6668 41.524C50.8228 41.242 50.9008 40.927 50.9008 40.579C50.9008 40.231 50.8228 39.919 50.6668 39.643C50.5168 39.367 50.3098 39.148 50.0458 38.986C49.7878 38.824 49.4968 38.743 49.1728 38.743C48.8488 38.743 48.5548 38.824 48.2908 38.986C48.0328 39.148 47.8258 39.367 47.6698 39.643C47.5138 39.919 47.4358 40.231 47.4358 40.579C47.4358 40.927 47.5138 41.242 47.6698 41.524C47.8258 41.806 48.0328 42.028 48.2908 42.19C48.5548 42.352 48.8488 42.433 49.1728 42.433ZM53.2113 44.8V38.176H53.8863V39.256L53.7783 39.067C53.9703 38.761 54.2253 38.518 54.5433 38.338C54.8673 38.158 55.2363 38.068 55.6503 38.068C56.1063 38.068 56.5113 38.179 56.8653 38.401C57.2253 38.617 57.5073 38.914 57.7113 39.292C57.9213 39.67 58.0263 40.102 58.0263 40.588C58.0263 41.068 57.9213 41.5 57.7113 41.884C57.5073 42.262 57.2253 42.562 56.8653 42.784C56.5113 43 56.1063 43.108 55.6503 43.108C55.2363 43.108 54.8613 43.015 54.5253 42.829C54.1953 42.637 53.9463 42.367 53.7783 42.019L53.8863 41.92V44.8H53.2113ZM55.6143 42.433C55.9383 42.433 56.2263 42.352 56.4783 42.19C56.7363 42.028 56.9373 41.809 57.0813 41.533C57.2313 41.251 57.3063 40.936 57.3063 40.588C57.3063 40.234 57.2313 39.919 57.0813 39.643C56.9373 39.367 56.7363 39.148 56.4783 38.986C56.2263 38.824 55.9383 38.743 55.6143 38.743C55.2903 38.743 54.9963 38.824 54.7323 38.986C54.4743 39.148 54.2673 39.37 54.1113 39.652C53.9613 39.928 53.8863 40.24 53.8863 40.588C53.8863 40.936 53.9613 41.251 54.1113 41.533C54.2673 41.809 54.4743 42.028 54.7323 42.19C54.9963 42.352 55.2903 42.433 55.6143 42.433Z" fill="#033348"/>
<path d="M10.7924 54.108C10.3244 54.108 9.90143 54 9.52343 53.784C9.14543 53.562 8.84543 53.259 8.62343 52.875C8.40143 52.491 8.29043 52.056 8.29043 51.57C8.29043 51.084 8.39843 50.652 8.61443 50.274C8.83643 49.896 9.13643 49.596 9.51443 49.374C9.89243 49.152 10.3184 49.041 10.7924 49.041C11.2604 49.041 11.6834 49.152 12.0614 49.374C12.4394 49.59 12.7364 49.887 12.9524 50.265C13.1744 50.643 13.2854 51.078 13.2854 51.57C13.2854 52.062 13.1714 52.5 12.9434 52.884C12.7154 53.262 12.4124 53.562 12.0344 53.784C11.6624 54 11.2484 54.108 10.7924 54.108ZM10.7924 53.298C11.0924 53.298 11.3624 53.223 11.6024 53.073C11.8484 52.923 12.0404 52.716 12.1784 52.452C12.3224 52.188 12.3944 51.894 12.3944 51.57C12.3944 51.24 12.3224 50.949 12.1784 50.697C12.0404 50.439 11.8484 50.235 11.6024 50.085C11.3624 49.929 11.0924 49.851 10.7924 49.851C10.4864 49.851 10.2104 49.929 9.96443 50.085C9.72443 50.235 9.53243 50.439 9.38843 50.697C9.24443 50.949 9.17243 51.24 9.17243 51.57C9.17243 51.894 9.24443 52.188 9.38843 52.452C9.53243 52.716 9.72443 52.923 9.96443 53.073C10.2104 53.223 10.4864 53.298 10.7924 53.298ZM14.7771 54V49.149H15.5961V50.04L15.5061 49.914C15.6201 49.638 15.7941 49.434 16.0281 49.302C16.2621 49.164 16.5471 49.095 16.8831 49.095H17.1801V49.887H16.7571C16.4151 49.887 16.1391 49.995 15.9291 50.211C15.7191 50.421 15.6141 50.721 15.6141 51.111V54H14.7771ZM22.7902 54.108C22.4002 54.108 22.0432 54.021 21.7192 53.847C21.4012 53.673 21.1552 53.427 20.9812 53.109L21.0982 52.965V54H20.2792V47.187H21.1162V50.193L20.9902 49.986C21.1702 49.698 21.4162 49.47 21.7282 49.302C22.0402 49.128 22.3972 49.041 22.7992 49.041C23.2552 49.041 23.6632 49.152 24.0232 49.374C24.3892 49.596 24.6772 49.899 24.8872 50.283C25.0972 50.661 25.2022 51.093 25.2022 51.579C25.2022 52.053 25.0972 52.482 24.8872 52.866C24.6772 53.25 24.3892 53.553 24.0232 53.775C23.6632 53.997 23.2522 54.108 22.7902 54.108ZM22.7272 53.298C23.0332 53.298 23.3062 53.223 23.5462 53.073C23.7862 52.923 23.9722 52.719 24.1042 52.461C24.2422 52.197 24.3112 51.903 24.3112 51.579C24.3112 51.243 24.2422 50.949 24.1042 50.697C23.9722 50.439 23.7862 50.235 23.5462 50.085C23.3062 49.929 23.0332 49.851 22.7272 49.851C22.4212 49.851 22.1452 49.926 21.8992 50.076C21.6592 50.226 21.4672 50.433 21.3232 50.697C21.1852 50.955 21.1162 51.249 21.1162 51.579C21.1162 51.903 21.1852 52.197 21.3232 52.461C21.4672 52.719 21.6592 52.923 21.8992 53.073C22.1452 53.223 22.4212 53.298 22.7272 53.298ZM26.6998 54V49.149H27.5188V50.04L27.4288 49.914C27.5428 49.638 27.7168 49.434 27.9508 49.302C28.1848 49.164 28.4698 49.095 28.8058 49.095H29.1028V49.887H28.6798C28.3378 49.887 28.0618 49.995 27.8518 50.211C27.6418 50.421 27.5368 50.721 27.5368 51.111V54H26.6998ZM32.5502 54.108C32.0822 54.108 31.6592 54 31.2812 53.784C30.9032 53.562 30.6032 53.259 30.3812 52.875C30.1592 52.491 30.0482 52.056 30.0482 51.57C30.0482 51.084 30.1562 50.652 30.3722 50.274C30.5942 49.896 30.8942 49.596 31.2722 49.374C31.6502 49.152 32.0762 49.041 32.5502 49.041C33.0182 49.041 33.4412 49.152 33.8192 49.374C34.1972 49.59 34.4942 49.887 34.7102 50.265C34.9322 50.643 35.0432 51.078 35.0432 51.57C35.0432 52.062 34.9292 52.5 34.7012 52.884C34.4732 53.262 34.1702 53.562 33.7922 53.784C33.4202 54 33.0062 54.108 32.5502 54.108ZM32.5502 53.298C32.8502 53.298 33.1202 53.223 33.3602 53.073C33.6062 52.923 33.7982 52.716 33.9362 52.452C34.0802 52.188 34.1522 51.894 34.1522 51.57C34.1522 51.24 34.0802 50.949 33.9362 50.697C33.7982 50.439 33.6062 50.235 33.3602 50.085C33.1202 49.929 32.8502 49.851 32.5502 49.851C32.2442 49.851 31.9682 49.929 31.7222 50.085C31.4822 50.235 31.2902 50.439 31.1462 50.697C31.0022 50.949 30.9302 51.24 30.9302 51.57C30.9302 51.894 31.0022 52.188 31.1462 52.452C31.2902 52.716 31.4822 52.923 31.7222 53.073C31.9682 53.223 32.2442 53.298 32.5502 53.298ZM37.563 54L35.898 49.149H36.825L38.148 53.208L37.824 53.199L39.12 49.149H39.912L41.208 53.199L40.884 53.208L42.216 49.149H43.134L41.469 54H40.668L39.39 49.95H39.642L38.364 54H37.563ZM46.0196 54.108C45.5336 54.108 45.1106 53.988 44.7506 53.748C44.3906 53.508 44.1356 53.184 43.9856 52.776L44.6516 52.452C44.7896 52.74 44.9786 52.968 45.2186 53.136C45.4586 53.304 45.7256 53.388 46.0196 53.388C46.2836 53.388 46.5026 53.325 46.6766 53.199C46.8506 53.073 46.9376 52.908 46.9376 52.704C46.9376 52.56 46.8956 52.446 46.8116 52.362C46.7336 52.272 46.6376 52.203 46.5236 52.155C46.4096 52.101 46.3046 52.062 46.2086 52.038L45.4796 51.831C45.0416 51.705 44.7206 51.525 44.5166 51.291C44.3186 51.057 44.2196 50.784 44.2196 50.472C44.2196 50.184 44.2916 49.935 44.4356 49.725C44.5856 49.509 44.7866 49.341 45.0386 49.221C45.2966 49.101 45.5846 49.041 45.9026 49.041C46.3286 49.041 46.7096 49.149 47.0456 49.365C47.3876 49.581 47.6306 49.884 47.7746 50.274L47.0906 50.589C46.9826 50.337 46.8206 50.139 46.6046 49.995C46.3886 49.845 46.1456 49.77 45.8756 49.77C45.6296 49.77 45.4346 49.833 45.2906 49.959C45.1466 50.079 45.0746 50.232 45.0746 50.418C45.0746 50.556 45.1106 50.67 45.1826 50.76C45.2546 50.844 45.3416 50.91 45.4436 50.958C45.5456 51 45.6446 51.036 45.7406 51.066L46.5326 51.3C46.9286 51.414 47.2346 51.591 47.4506 51.831C47.6726 52.071 47.7836 52.359 47.7836 52.695C47.7836 52.965 47.7086 53.208 47.5586 53.424C47.4086 53.64 47.2016 53.808 46.9376 53.928C46.6736 54.048 46.3676 54.108 46.0196 54.108ZM51.5112 54.108C51.0432 54.108 50.6262 53.997 50.2602 53.775C49.8942 53.553 49.6062 53.25 49.3962 52.866C49.1862 52.476 49.0812 52.041 49.0812 51.561C49.0812 51.075 49.1832 50.643 49.3872 50.265C49.5972 49.887 49.8792 49.59 50.2332 49.374C50.5932 49.152 50.9952 49.041 51.4392 49.041C51.7992 49.041 52.1172 49.107 52.3932 49.239C52.6752 49.365 52.9122 49.539 53.1042 49.761C53.3022 49.977 53.4522 50.226 53.5542 50.508C53.6622 50.784 53.7162 51.072 53.7162 51.372C53.7162 51.438 53.7102 51.513 53.6982 51.597C53.6922 51.675 53.6832 51.75 53.6712 51.822H49.6932V51.102H53.1852L52.7892 51.426C52.8432 51.114 52.8132 50.835 52.6992 50.589C52.5852 50.343 52.4172 50.148 52.1952 50.004C51.9732 49.86 51.7212 49.788 51.4392 49.788C51.1572 49.788 50.8992 49.86 50.6652 50.004C50.4312 50.148 50.2482 50.355 50.1162 50.625C49.9902 50.889 49.9392 51.204 49.9632 51.57C49.9392 51.924 49.9932 52.236 50.1252 52.506C50.2632 52.77 50.4552 52.977 50.7012 53.127C50.9532 53.271 51.2262 53.343 51.5202 53.343C51.8442 53.343 52.1172 53.268 52.3392 53.118C52.5612 52.968 52.7412 52.776 52.8792 52.542L53.5812 52.902C53.4852 53.124 53.3352 53.328 53.1312 53.514C52.9332 53.694 52.6962 53.838 52.4202 53.946C52.1502 54.054 51.8472 54.108 51.5112 54.108Z" fill="#84B5D2"/>
</svg>
