<svg width="12" height="7" viewBox="0 0 12 7" fill="none" xmlns="http://www.w3.org/2000/svg">
<path d="M1.49186 1.13413C1.59732 1.2685 1.74993 1.46103 1.93745 1.69228C2.31303 2.15543 2.82623 2.77087 3.37982 3.38448C3.93621 4.00119 4.5207 4.60181 5.03995 5.04334C5.30031 5.26473 5.52903 5.43296 5.71777 5.54246C5.95774 5.68169 6.04297 5.68052 6.28093 5.54246C6.46967 5.43296 6.69838 5.26473 6.95875 5.04334C7.478 4.60181 8.06249 4.00119 8.61888 3.38448C9.17247 2.77087 9.68566 2.15543 10.0612 1.69228C10.2488 1.46103 10.4014 1.26851 10.5068 1.13413C10.7626 0.808224 11.1341 0.47947 11.5765 0.792997C12.0242 1.11037 11.801 1.55756 11.5425 1.88693C11.4335 2.02578 11.2767 2.22358 11.0844 2.46072C10.7004 2.93434 10.1722 3.56793 9.5989 4.20336C9.02843 4.83568 8.40054 5.48409 7.81813 5.97934C7.52766 6.22633 7.23322 6.44842 6.95101 6.61215C6.68661 6.76555 6.35185 6.9165 6.00012 6.9165C5.64839 6.9165 5.31209 6.76555 5.04769 6.61215C4.76547 6.44842 4.47104 6.22633 4.18057 5.97934C3.59816 5.48409 2.97027 4.83568 2.39979 4.20336C1.82651 3.56793 1.29834 2.93434 0.914271 2.46072C0.72197 2.22358 0.565177 2.02578 0.456201 1.88693C0.197698 1.55756 -0.0255332 1.11036 0.422241 0.792996C0.864597 0.479469 1.23607 0.808223 1.49186 1.13413Z" fill="#2E3038"/>
</svg>
