<svg width="17" height="17" viewBox="0 0 17 17" fill="none" xmlns="http://www.w3.org/2000/svg">
<path d="M14.087 2.39979C14.1076 2.42088 14.128 2.44165 14.148 2.46212M14.087 2.39979C14.0659 2.3783 14.0452 2.35711 14.0248 2.33624M14.087 2.39979L14.0248 2.33624M14.087 2.39979L14.148 2.46212M2.99535 9.2467C2.24894 10.0552 1.79139 10.5508 1.52355 11.1673C1.21663 11.8737 1.16979 12.6474 1.12363 13.41C1.11331 13.5806 1.10301 13.7506 1.08985 13.9192C1.07502 14.109 1.06026 14.2978 1.06904 14.4555C1.07898 14.6338 1.12144 14.8505 1.28696 15.0383C1.45389 15.2278 1.6649 15.2959 1.84258 15.3256C1.99731 15.3514 2.1847 15.3562 2.37006 15.361C2.54438 15.3656 2.72089 15.3732 2.89858 15.3809C3.76291 15.4184 4.6553 15.457 5.4603 15.1426C6.17828 14.8622 6.74568 14.3155 7.66626 13.4284C9.80334 11.3692 11.9407 9.31023 14.0788 7.25205C14.5453 6.80306 14.8577 6.50237 15.0476 6.16909C15.5033 5.36945 15.5174 4.38628 15.085 3.57355C14.9049 3.23481 14.6014 2.92494 14.148 2.46212M2.99535 9.2467L3.56421 8.63055M2.99535 9.2467C3.18497 9.04132 3.37459 8.83593 3.56421 8.63055M3.56421 8.63055C5.47916 6.55637 7.39411 4.4822 9.30809 2.40714C9.74668 1.93165 10.0414 1.6121 10.369 1.41726C11.1587 0.947578 12.1327 0.932866 12.936 1.37878C13.2691 1.56373 13.5729 1.87434 14.0248 2.33624M10.8802 2.27674C11.3642 1.98887 11.9587 1.98002 12.4506 2.25307C12.6391 2.35774 12.8349 2.55025 13.3724 3.09932C13.9092 3.64771 14.0987 3.84857 14.2022 4.04312C14.4736 4.5533 14.4646 5.17239 14.1788 5.67394C14.0698 5.8652 13.8747 6.06022 13.3223 6.59226L13.3167 6.59767L9.92848 3.20942L10.8802 2.27674ZM3.79338 9.8565L9.24969 3.94485L12.5964 7.29151L7.0532 12.6305C6.02486 13.621 5.60562 14.0123 5.09645 14.2111C4.4436 14.4661 3.67952 14.425 2.9621 14.3863C2.77846 14.3764 2.59788 14.3666 2.423 14.3621C2.26153 14.3579 2.14107 14.3538 2.06626 14.3466C2.06652 14.2665 2.07466 14.1531 2.08887 13.9707C2.10184 13.8043 2.11076 13.6337 2.11978 13.4612C2.15345 12.8172 2.18852 12.1463 2.44073 11.5658C2.63305 11.1231 2.96396 10.7552 3.79338 9.8565ZM9.56633 14.3877C9.29019 14.3877 9.06633 14.6116 9.06633 14.8877C9.06633 15.1639 9.29019 15.3877 9.56633 15.3877H14.8997C15.1758 15.3877 15.3997 15.1639 15.3997 14.8877C15.3997 14.6116 15.1758 14.3877 14.8997 14.3877H9.56633Z" stroke="#8F92A3" stroke-linecap="round" stroke-linejoin="round"/>
</svg>
