<svg width="20" height="20" viewBox="0 0 20 20" fill="none" xmlns="http://www.w3.org/2000/svg">
<path d="M10.8339 18.1252C10.8339 17.78 11.1137 17.5002 11.4589 17.5002H18.1256C18.4707 17.5002 18.7506 17.78 18.7506 18.1252C18.7506 18.4703 18.4707 18.7502 18.1256 18.7502H11.4589C11.1137 18.7502 10.8339 18.4703 10.8339 18.1252Z" fill="#045071"/>
<path fill-rule="evenodd" clip-rule="evenodd" d="M12.4622 1.2871C13.4494 0.699991 14.6669 0.681601 15.6709 1.23899C16.0873 1.47018 16.4671 1.85844 17.032 2.43582L17.1097 2.51525L17.186 2.59317C17.7527 3.1717 18.1321 3.55903 18.3573 3.98246C18.8978 4.99837 18.8802 6.22733 18.3105 7.22689C18.0731 7.64348 17.6826 8.01934 17.0995 8.58059C14.4269 11.1533 11.7551 13.727 9.0838 16.301C7.93307 17.4098 7.22383 18.0932 6.32635 18.4437C5.32011 18.8368 4.20462 18.7885 3.1242 18.7417C2.90209 18.732 2.68145 18.7225 2.46355 18.7168C2.23185 18.7108 1.99761 18.7048 1.8042 18.6725C1.5821 18.6354 1.31834 18.5502 1.10967 18.3134C0.902781 18.0787 0.849702 17.8077 0.837282 17.5849C0.826299 17.3878 0.844748 17.1518 0.863286 16.9146C0.879743 16.7038 0.89261 16.4912 0.905519 16.278C0.963219 15.3248 1.02176 14.3577 1.40541 13.4746C1.74022 12.704 2.31215 12.0845 3.24517 11.0739L3.95624 10.3037C6.34992 7.71099 8.74361 5.11827 11.1361 2.52445C11.6843 1.93008 12.0528 1.53064 12.4622 1.2871ZM4.2427 11.8361L11.0631 4.44658L15.2464 8.6299L8.31748 15.3036C7.03205 16.5417 6.508 17.0309 5.87154 17.2794C5.05548 17.5982 4.10037 17.5467 3.2036 17.4984C2.97405 17.486 2.74832 17.4738 2.52973 17.4681C2.32789 17.4628 2.17731 17.4578 2.0838 17.4488C2.08412 17.3486 2.0943 17.2069 2.11207 16.9789C2.12828 16.7709 2.13942 16.5577 2.1507 16.342C2.19278 15.537 2.23663 14.6983 2.55189 13.9727C2.79229 13.4194 3.20593 12.9595 4.2427 11.8361ZM15.0642 2.33185C14.4494 1.99054 13.7062 2.00161 13.1012 2.36144L11.9116 3.52729L16.1469 7.7626L16.1539 7.75584C16.8444 7.09079 17.0882 6.84702 17.2245 6.60794C17.5818 5.98101 17.593 5.20714 17.2537 4.56942C17.1243 4.32623 16.8875 4.07516 16.2164 3.38967C15.5446 2.70333 15.2998 2.46269 15.0642 2.33185Z" fill="#045071"/>
</svg>
