<svg width="17" height="17" viewBox="0 0 17 17" fill="none" xmlns="http://www.w3.org/2000/svg">
<path d="M13.8873 2.39985C13.9079 2.42094 13.9283 2.44171 13.9483 2.46219M13.8873 2.39985C13.8662 2.37836 13.8455 2.35717 13.8251 2.3363M13.8873 2.39985L13.8251 2.3363M13.8873 2.39985L13.9483 2.46219M2.79565 9.24676C2.04923 10.0552 1.59169 10.5508 1.32384 11.1673C1.01692 11.8738 0.970087 12.6475 0.923927 13.41C0.9136 13.5806 0.903306 13.7507 0.890141 13.9193C0.87531 14.1091 0.860551 14.2979 0.869337 14.4555C0.879273 14.6338 0.921736 14.8506 1.08725 15.0384C1.25419 15.2278 1.46519 15.296 1.64287 15.3256C1.7976 15.3515 1.985 15.3563 2.17036 15.3611C2.34467 15.3656 2.52118 15.3733 2.69887 15.381C3.56321 15.4184 4.4556 15.4571 5.26059 15.1426C5.97857 14.8622 6.54597 14.3155 7.46655 13.4285C9.60363 11.3692 11.741 9.31029 13.8791 7.25211C14.3456 6.80312 14.658 6.50243 14.8479 6.16916C15.3036 5.36951 15.3177 4.38634 14.8853 3.57361C14.7052 3.23487 14.4017 2.92501 13.9483 2.46219M2.79565 9.24676L3.3645 8.63061M2.79565 9.24676C2.98526 9.04138 3.17488 8.83599 3.3645 8.63061M3.3645 8.63061C5.27945 6.55644 7.1944 4.48226 9.10839 2.4072C9.54697 1.93171 9.84173 1.61216 10.1693 1.41733C10.959 0.94764 11.933 0.932927 12.7362 1.37884C13.0694 1.56379 13.3732 1.8744 13.8251 2.3363M10.6805 2.2768C11.1645 1.98893 11.759 1.98008 12.2508 2.25313C12.4394 2.3578 12.6352 2.55031 13.1727 3.09938C13.7095 3.64777 13.899 3.84863 14.0024 4.04318C14.2739 4.55336 14.2649 5.17245 13.9791 5.674C13.8701 5.86526 13.675 6.06028 13.1226 6.59232L13.117 6.59773L9.72877 3.20948L10.6805 2.2768ZM3.59367 9.85656L9.04998 3.94491L12.3966 7.29157L6.85349 12.6305C5.82515 13.621 5.40591 14.0123 4.89674 14.2112C4.24389 14.4662 3.47981 14.425 2.76239 14.3863C2.57875 14.3764 2.39817 14.3667 2.2233 14.3621C2.06183 14.3579 1.94136 14.3539 1.86655 14.3467C1.86681 14.2665 1.87495 14.1532 1.88917 13.9708C1.90213 13.8044 1.91105 13.6338 1.92007 13.4612C1.95374 12.8173 1.98882 12.1463 2.24102 11.5658C2.43334 11.1231 2.76426 10.7552 3.59367 9.85656ZM9.36663 14.3878C9.09048 14.3878 8.86663 14.6116 8.86663 14.8878C8.86663 15.1639 9.09048 15.3878 9.36663 15.3878H14.7C14.9761 15.3878 15.2 15.1639 15.2 14.8878C15.2 14.6116 14.9761 14.3878 14.7 14.3878H9.36663Z" stroke="#033348" stroke-linecap="round" stroke-linejoin="round"/>
</svg>
