<svg width="20" height="20" viewBox="0 0 20 20" fill="none" xmlns="http://www.w3.org/2000/svg">
<path d="M10.8339 18.1247C10.8339 17.7795 11.1137 17.4997 11.4589 17.4997H18.1256C18.4707 17.4997 18.7506 17.7795 18.7506 18.1247C18.7506 18.4699 18.4707 18.7497 18.1256 18.7497H11.4589C11.1137 18.7497 10.8339 18.4699 10.8339 18.1247Z" fill="#AEB0BC"/>
<path fill-rule="evenodd" clip-rule="evenodd" d="M12.4622 1.28661C13.4494 0.699503 14.6669 0.681113 15.6709 1.2385C16.0873 1.46969 16.4671 1.85795 17.032 2.43533L17.1097 2.51477L17.186 2.59269C17.7527 3.17121 18.1321 3.55854 18.3573 3.98197C18.8978 4.99788 18.8802 6.22684 18.3105 7.2264C18.0731 7.643 17.6826 8.01885 17.0995 8.5801C14.4269 11.1528 11.7551 13.7265 9.0838 16.3006C7.93307 17.4094 7.22383 18.0928 6.32635 18.4433C5.32011 18.8363 4.20462 18.788 3.1242 18.7412C2.90209 18.7315 2.68145 18.722 2.46355 18.7163C2.23185 18.7103 1.99761 18.7043 1.8042 18.672C1.5821 18.6349 1.31834 18.5497 1.10967 18.3129C0.902781 18.0782 0.849702 17.8072 0.837282 17.5844C0.826299 17.3873 0.844748 17.1513 0.863286 16.9141C0.879743 16.7033 0.89261 16.4907 0.905519 16.2775C0.963219 15.3243 1.02176 14.3572 1.40541 13.4741C1.74022 12.7035 2.31215 12.084 3.24517 11.0734L3.95624 10.3032C6.34992 7.7105 8.74361 5.11778 11.1361 2.52396C11.6843 1.92959 12.0528 1.53015 12.4622 1.28661ZM4.2427 11.8357L11.0631 4.44609L15.2464 8.62941L8.31748 15.3031C7.03205 16.5412 6.508 17.0304 5.87154 17.2789C5.05548 17.5977 4.10037 17.5462 3.2036 17.4979C2.97405 17.4855 2.74832 17.4733 2.52973 17.4676C2.32789 17.4624 2.17731 17.4573 2.0838 17.4483C2.08412 17.3481 2.0943 17.2064 2.11207 16.9784C2.12828 16.7704 2.13942 16.5572 2.1507 16.3415C2.19278 15.5365 2.23663 14.6978 2.55189 13.9722C2.79229 13.4189 3.20593 12.959 4.2427 11.8357ZM15.0642 2.33136C14.4494 1.99006 13.7062 2.00112 13.1012 2.36095L11.9116 3.5268L16.1469 7.76212L16.1539 7.75535C16.8444 7.0903 17.0882 6.84653 17.2245 6.60745C17.5818 5.98052 17.593 5.20665 17.2537 4.56893C17.1243 4.32574 16.8875 4.07467 16.2164 3.38918C15.5446 2.70285 15.2998 2.4622 15.0642 2.33136Z" fill="#AEB0BC"/>
</svg>
