<svg width="21" height="16" viewBox="0 0 21 16" fill="none" xmlns="http://www.w3.org/2000/svg">
<path d="M2.56801 3.15197C2.56801 3.15197 2.26241 2.76356 2.56801 2.36962C2.94367 1.88539 3.4577 2.25216 3.4577 2.25216L10.7752 8.44332L18.0097 2.25907C18.0097 2.25907 18.4558 1.87433 18.8803 2.32816C19.2811 2.75657 18.8803 3.19189 18.8803 3.19189L13.6323 7.68382L18.254 12.5868C18.254 12.5868 18.727 13.297 18.3266 13.6164C17.8991 13.9573 17.2798 13.3617 17.2798 13.3617L12.6477 8.56079L11.2588 9.72163C11.1183 9.87595 10.7309 10.092 10.3053 9.72163C9.87965 9.35127 9.19742 8.79342 8.90952 8.56079L3.5268 13.6118C3.3909 13.7546 3.03482 13.9684 2.69762 13.6809C2.27613 13.3216 2.42123 12.8932 2.61471 12.7136C2.76948 12.5698 6.21701 9.32317 7.92142 7.7178L2.56801 3.15197Z" fill="#033348"/>
<path fill-rule="evenodd" clip-rule="evenodd" d="M0.00975168 2.6322C-0.00159272 1.83878 0.432741 0.201549 2.26083 0H18.5083C19.4262 0 20.9314 0.7097 20.9602 2.48018V13.8655C21.0234 14.5269 20.5967 15.8797 18.384 16H2.55542C1.66115 16 0.0962039 15.3897 0 13.6099L0.00975168 2.6322ZM2.63543 1.25715C1.5354 1.30137 1.29263 2.19227 1.30876 2.6322L1.30684 13.5266C1.30684 14.3501 2.13922 14.6522 2.55542 14.7003C7.36669 14.7035 17.2567 14.708 18.3266 14.7003C19.3964 14.6926 19.6797 14.1406 19.6876 13.8655C19.6904 10.4115 19.6942 3.28178 19.6876 2.39468C19.6811 1.50757 18.8987 1.2667 18.5083 1.25715H2.63543Z" fill="#033348"/>
</svg>
