<svg width="14" height="14" viewBox="0 0 14 14" fill="none" xmlns="http://www.w3.org/2000/svg">
<path d="M1.6875 4.34375C1.6875 4.01681 1.6875 3.85334 1.71984 3.71921C1.80762 3.35525 2.06347 3.07096 2.39104 2.97344C2.51175 2.9375 2.65888 2.9375 2.95312 2.9375H10.5469C10.8411 2.9375 10.9882 2.9375 11.109 2.97344C11.4365 3.07096 11.6924 3.35525 11.7802 3.71921C11.8125 3.85334 11.8125 4.01681 11.8125 4.34375C11.8125 4.67069 11.8125 4.83416 11.7802 4.96829C11.6924 5.33225 11.4365 5.61654 11.109 5.71406C10.9882 5.75 10.8411 5.75 10.5469 5.75H2.95312C2.65888 5.75 2.51175 5.75 2.39104 5.71406C2.06347 5.61654 1.80762 5.33225 1.71984 4.96829C1.6875 4.83416 1.6875 4.67069 1.6875 4.34375Z" fill="#676B7E" stroke="#676B7E" stroke-width="0.84375"/>
<path d="M1.6875 9.15625C1.6875 8.82931 1.6875 8.66584 1.71984 8.53171C1.80762 8.16775 2.06347 7.88346 2.39104 7.78594C2.51175 7.75 2.65888 7.75 2.95312 7.75H10.5469C10.8411 7.75 10.9882 7.75 11.109 7.78594C11.4365 7.88346 11.6924 8.16775 11.7802 8.53171C11.8125 8.66584 11.8125 8.82931 11.8125 9.15625C11.8125 9.48319 11.8125 9.64666 11.7802 9.78079C11.6924 10.1448 11.4365 10.429 11.109 10.5266C10.9882 10.5625 10.8411 10.5625 10.5469 10.5625H2.95312C2.65888 10.5625 2.51175 10.5625 2.39104 10.5266C2.06347 10.429 1.80762 10.1448 1.71984 9.78079C1.6875 9.64666 1.6875 9.48319 1.6875 9.15625Z" fill="#676B7E" stroke="#676B7E" stroke-width="0.84375"/>
</svg>
