<svg width="37" height="36" viewBox="0 0 37 36" fill="none" xmlns="http://www.w3.org/2000/svg">
<path d="M2.76208 35H34.2348C34.6259 35.0003 35.0104 34.8992 35.3508 34.7064C35.6912 34.5136 35.976 34.2357 36.1772 33.8999C36.3785 33.5641 36.4895 33.1818 36.4993 32.7902C36.5091 32.3987 36.4174 32.0112 36.2332 31.6657L20.5308 2.19907C20.3382 1.83697 20.0509 1.53413 19.6997 1.32292C19.3485 1.11172 18.9466 1.0001 18.5369 1H18.5346C17.6995 1 16.9345 1.46013 16.5407 2.1968L0.768162 31.6635C0.583662 32.0089 0.491496 32.3962 0.500617 32.7878C0.509738 33.1794 0.619837 33.562 0.820217 33.8984C1.02168 34.234 1.30633 34.5118 1.64656 34.7048C1.98679 34.8979 2.37106 34.9995 2.76208 35ZM18.5346 25.9333C18.8319 25.9334 19.1263 25.9921 19.4009 26.1061C19.6756 26.2201 19.9251 26.3872 20.1352 26.5978C20.3454 26.8084 20.5121 27.0584 20.6258 27.3335C20.7395 27.6086 20.798 27.9034 20.7979 28.2011C20.7978 28.4989 20.7392 28.7937 20.6254 29.0687C20.5115 29.3438 20.3447 29.5937 20.1344 29.8041C19.9242 30.0146 19.6746 30.1816 19.3999 30.2954C19.1252 30.4093 18.8308 30.4679 18.5335 30.4678C17.9331 30.4676 17.3574 30.2286 16.9329 29.8033C16.5085 29.378 16.2701 28.8013 16.2703 28.2C16.2704 27.5987 16.5091 27.0221 16.9337 26.597C17.3584 26.1719 17.9342 25.9332 18.5346 25.9333ZM16.2714 21.4363V12.3696C16.2714 11.7684 16.5098 11.1919 16.9343 10.7668C17.3587 10.3417 17.9344 10.1029 18.5346 10.1029C19.1349 10.1029 19.7106 10.3417 20.135 10.7668C20.5594 11.1919 20.7979 11.7684 20.7979 12.3696V21.4363C20.7979 22.0374 20.5594 22.614 20.135 23.039C19.7106 23.4641 19.1349 23.7029 18.5346 23.7029C17.9344 23.7029 17.3587 23.4641 16.9343 23.039C16.5098 22.614 16.2714 22.0374 16.2714 21.4363Z" fill="#B7BFC6" stroke="#9EB9C4"/>
</svg>
