<svg width="20" height="21" viewBox="0 0 20 21" fill="none" xmlns="http://www.w3.org/2000/svg">
<path d="M15.4167 13.7207C15.8381 14.1303 17.5 15.2205 17.5 15.804M15.4167 17.8874C15.8381 17.4778 17.5 16.3876 17.5 15.804M17.5 15.804L10.8333 15.804" stroke="white" stroke-width="1.5" stroke-linecap="round" stroke-linejoin="round"/>
<path d="M9.16699 18.7207H8.93972C6.22205 18.7207 4.86321 18.7207 3.91955 18.0558C3.64918 17.8653 3.40914 17.6394 3.20674 17.385C2.50033 16.4968 2.50033 15.2179 2.50033 12.6601V10.5389C2.50033 8.06957 2.50033 6.83492 2.89111 5.84883C3.51934 4.26355 4.84794 3.01311 6.53229 2.42183C7.58002 2.05404 8.89184 2.05404 11.5155 2.05404C13.0147 2.05404 13.7643 2.05404 14.363 2.2642C15.3255 2.60208 16.0847 3.31662 16.4437 4.22249C16.667 4.78597 16.667 5.49149 16.667 6.90252V11.2207" stroke="white" stroke-width="1.5" stroke-linecap="round" stroke-linejoin="round"/>
<path d="M2.50065 10.3877C2.50065 8.85357 3.7443 7.60992 5.27843 7.60992C5.83325 7.60992 6.48735 7.70713 7.02679 7.56259C7.50608 7.43417 7.88045 7.05979 8.00888 6.5805C8.15342 6.04106 8.05621 5.38696 8.05621 4.83214C8.05621 3.29802 9.29986 2.05436 10.834 2.05436" stroke="white" stroke-width="1.5" stroke-linecap="round" stroke-linejoin="round"/>
</svg>
