<svg width="16" height="16" viewBox="0 0 16 16" fill="none" xmlns="http://www.w3.org/2000/svg">
<path d="M4.01862 8.8323C4.01862 8.56285 4.24513 8.34442 4.52455 8.34442H7.2228C7.50222 8.34442 7.72873 8.56285 7.72873 8.8323C7.72873 9.10175 7.50222 9.32018 7.2228 9.32018H4.52455C4.24513 9.32018 4.01862 9.10175 4.01862 8.8323Z" fill="#2E3038"/>
<path d="M4.01862 11.4343C4.01862 11.1649 4.24513 10.9465 4.52455 10.9465H9.92108C10.2005 10.9465 10.427 11.1649 10.427 11.4343C10.427 11.7038 10.2005 11.9222 9.92108 11.9222H4.52455C4.24513 11.9222 4.01862 11.7038 4.01862 11.4343Z" fill="#2E3038"/>
<path fill-rule="evenodd" clip-rule="evenodd" d="M11.118 1.01399C8.97449 1.01399 7.23602 2.6882 7.23602 4.75442C7.23602 6.82063 8.97449 8.49487 11.118 8.49487C13.2616 8.49487 15 6.82063 15 4.75442C15 2.6882 13.2616 1.01399 11.118 1.01399ZM11.118 1.98975C9.53241 1.98975 8.24787 3.22798 8.24787 4.75442C8.24787 6.28086 9.53242 7.51911 11.118 7.51911C12.7036 7.51911 13.9882 6.28086 13.9882 4.75442C13.9882 3.22798 12.7036 1.98975 11.118 1.98975ZM12.6262 4.23855C12.8896 4.14859 13.0275 3.86977 12.9342 3.61578C12.8409 3.36179 12.5518 3.22881 12.2884 3.31876C11.9632 3.42984 11.6613 3.63791 11.4058 3.85399C11.145 4.0745 10.9033 4.32869 10.6998 4.56386C10.6187 4.6577 10.5426 4.74967 10.4728 4.83679C10.4384 4.78906 10.4055 4.74534 10.3746 4.70563C10.3033 4.61392 10.2425 4.54344 10.1978 4.49413C9.99526 4.27096 9.65896 4.16097 9.4013 4.40943C9.16968 4.63279 9.24388 4.92465 9.43626 5.13668C9.46531 5.16868 9.50994 5.22017 9.5651 5.29109C9.67547 5.433 9.82751 5.65215 9.9811 5.94837C10.0626 6.10564 10.2256 6.20844 10.4077 6.21743C10.6346 6.22863 10.7877 6.09641 10.9026 5.93014C10.9315 5.88825 10.9745 5.82712 11.0292 5.75235C11.139 5.60231 11.2944 5.39985 11.4768 5.18892C11.6603 4.97687 11.8649 4.76349 12.0729 4.58761C12.2861 4.40728 12.4753 4.2901 12.6262 4.23855Z" fill="#2E3038"/>
<path fill-rule="evenodd" clip-rule="evenodd" d="M6.56143 1.01471C6.84801 1.01471 7.08033 1.23313 7.08033 1.50257C7.08033 1.772 6.84801 1.99043 6.56143 1.99043C5.90959 1.99043 4.88874 1.96478 4.52456 1.98814C4.16504 2.0112 3.93977 2.05514 3.75925 2.12544C3.20829 2.34 2.77055 2.75155 2.54233 3.26956C2.46756 3.43928 2.42083 3.65107 2.3963 3.98909C2.37145 4.33148 2.37117 4.76668 2.37117 5.37953V9.2824C2.37117 10.5227 2.37228 11.4039 2.46787 12.0724C2.56145 12.7268 2.73696 13.1039 3.02976 13.3792C3.32257 13.6545 3.7236 13.8195 4.41968 13.9075C5.13069 13.9973 5.22487 14.0243 6.54413 14.0243H7.92787C9.24713 14.0243 10.1844 14.0232 10.8954 13.9334C11.5915 13.8454 11.9925 13.6804 12.2853 13.4051C12.5781 13.1298 12.7536 12.7528 12.8472 12.0983C12.9428 11.4298 12.9439 10.5487 12.9439 9.30831C12.9439 9.03887 13.1762 8.82045 13.4628 8.82045C13.7494 8.82045 13.9817 9.03887 13.9817 9.30831C13.9817 10.2782 14.0135 11.2649 13.8757 12.2283C13.7667 12.991 13.5369 13.6082 13.0191 14.095C12.5014 14.5818 11.8448 14.7979 11.0337 14.9004C10.2455 15 9.23838 15 7.96689 15H6.50511C5.23362 15 5.06958 14.9741 4.2814 14.8745C3.47024 14.7719 2.81369 14.5559 2.29593 14.0691C1.77816 13.5823 1.54838 12.9651 1.43932 12.2024C1.33335 11.4614 1.33336 10.5145 1.33337 9.3191L1.33337 5.36172C1.33337 4.77064 1.33337 4.30218 1.36091 3.92267C1.38905 3.53497 1.44765 3.2046 1.58353 2.89617C1.91708 2.13908 2.55685 1.53758 3.3621 1.22399C3.69016 1.09624 4.04155 1.04114 4.45391 1.01469C4.96918 0.981632 6.04531 1.0147 6.56143 1.01471Z" fill="#2E3038"/>
</svg>
