<svg width="20" height="21" viewBox="0 0 20 21" fill="none" xmlns="http://www.w3.org/2000/svg">
<path d="M11.667 15.8045C11.667 15.8045 12.5003 15.8045 13.3337 17.4712C13.3337 17.4712 15.9807 13.3045 18.3337 12.4712" stroke="white" stroke-width="1.5" stroke-linecap="round" stroke-linejoin="round"/>
<path d="M4.58301 9.97119H4.57552" stroke="white" stroke-width="2" stroke-linecap="round" stroke-linejoin="round"/>
<path d="M9.16699 16.6375H8.75033C5.61818 16.6375 4.0521 16.6375 3.00654 15.8118C2.83931 15.6797 2.68465 15.5342 2.54433 15.3768C1.66699 14.3927 1.66699 12.9188 1.66699 9.97087C1.66699 7.02296 1.66699 5.54901 2.54433 4.56495C2.68465 4.40755 2.83931 4.26199 3.00654 4.12992C4.0521 3.3042 5.61818 3.3042 8.75033 3.3042H11.2503C14.3825 3.3042 15.9485 3.3042 16.9941 4.12992C17.1613 4.26199 17.316 4.40755 17.4563 4.56495C18.2468 5.45156 18.3251 6.73585 18.3328 9.13753V9.5542" stroke="white" stroke-width="1.5" stroke-linecap="round" stroke-linejoin="round"/>
<path d="M12.0837 9.97103C12.0837 11.1216 11.1509 12.0544 10.0003 12.0544C8.84973 12.0544 7.91699 11.1216 7.91699 9.97103C7.91699 8.82044 8.84973 7.8877 10.0003 7.8877C11.1509 7.8877 12.0837 8.82044 12.0837 9.97103Z" stroke="white" stroke-width="1.5"/>
</svg>
