<svg width="19" height="19" viewBox="0 0 19 19" fill="none" xmlns="http://www.w3.org/2000/svg">
<path id="Vector" fill-rule="evenodd" clip-rule="evenodd" d="M9.44336 16.7361C13.5855 16.7361 16.9434 13.3782 16.9434 9.23608C16.9434 5.09398 13.5855 1.73608 9.44336 1.73608C5.30126 1.73608 1.94336 5.09398 1.94336 9.23608C1.94336 13.3782 5.30126 16.7361 9.44336 16.7361ZM9.44336 18.2361C14.414 18.2361 18.4434 14.2067 18.4434 9.23608C18.4434 4.26548 14.414 0.236084 9.44336 0.236084C4.47276 0.236084 0.443359 4.26548 0.443359 9.23608C0.443359 14.2067 4.47276 18.2361 9.44336 18.2361ZM10.4434 5.23608C10.4434 5.78838 9.99566 6.23608 9.44336 6.23608C8.89106 6.23608 8.44336 5.78838 8.44336 5.23608C8.44336 4.68378 8.89106 4.23608 9.44336 4.23608C9.99566 4.23608 10.4434 4.68378 10.4434 5.23608ZM10.1934 8.23608C10.1934 7.82188 9.85756 7.48608 9.44336 7.48608C9.02916 7.48608 8.69336 7.82188 8.69336 8.23608V13.2361C8.69336 13.6503 9.02916 13.9861 9.44336 13.9861C9.85756 13.9861 10.1934 13.6503 10.1934 13.2361V8.23608Z" fill="white"/>
</svg>
