<svg width="192" height="200" viewBox="0 0 192 200" fill="none" xmlns="http://www.w3.org/2000/svg">
<path d="M135.605 99.4331C131.041 127.787 101.379 157.275 75.1395 150.47C48.9001 152.738 23.8014 127.62 23.8014 99.4331C20.3792 68.8111 46.7863 39.3232 75.1395 39.3232C103.493 39.3232 137.887 63.1404 135.605 99.4331Z" fill="#8CBBCE"/>
<path d="M68.308 29.1157C118.505 29.1157 181.936 86.5036 93.4066 157.274M68.308 29.1157C27.2377 41.1448 -12.0074 89.7272 54.618 154.147M68.308 29.1157C84.2799 34.0303 116.68 50.6645 118.505 77.8841M68.308 29.1157C95.6885 46.1279 87.7026 124.634 78.5758 151.853M68.308 29.1157C44.3504 40.4598 47.7727 129.575 61.4631 152.258M68.308 29.1157V17.7742M68.308 29.1157C48.455 29.1157 30.5449 36.4889 18.1975 48.3962M93.4066 157.274C75.1529 146.387 55.3783 152.738 47.7727 157.274M93.4066 157.274C92.9853 159.787 91.0897 163.846 88.7966 168.046M47.7727 157.274C49.4108 160.206 51.9661 164.189 54.618 168.046M47.7727 157.274C-4.29697 121.827 -7.58095 81.0594 12.1292 55.2011M118.505 85.8231C120.269 89.191 117.894 104.751 116.21 106.238M113.942 114.177C107.477 124.762 91.5815 148.662 84.28 153.199M63.7448 181.092C69.4357 182.226 76.6744 181.47 80.8575 181.092M63.7448 181.092V195.455C63.7448 196.291 64.4232 196.97 65.26 196.97H79.3424C80.1791 196.97 80.8575 196.291 80.8575 195.455V181.092M63.7448 181.092C61.0432 180.553 58.1228 173.143 54.618 168.046M80.8575 181.092C82.9051 178.038 86.1214 172.946 88.7966 168.046M54.618 168.046C60.291 166.344 75.069 163.961 88.7966 168.046M68.308 17.7742V5.41185C68.308 4.30271 69.4605 3.56946 70.4651 4.03945L84.3578 10.5387C85.5849 11.1128 85.4972 12.8777 84.2146 13.3137C78.4715 15.2656 70.5382 17.7742 68.308 17.7742ZM150.449 43.8596L126.119 43.8596C125.636 43.8596 125.173 43.6252 124.906 43.2226C118.722 33.9046 128.262 27.2804 135.963 25.8441C136.459 25.7516 136.9 25.4192 137.127 24.969C151.3 -3.07543 176.315 15.7671 176.815 26.3949C176.856 27.2639 177.417 28.0957 178.261 28.3076C186.884 30.4739 189.774 37.751 190.29 42.3498C190.383 43.1814 189.7 43.8596 188.864 43.8596H158.435" stroke="#2E3038" stroke-width="1.9697" stroke-linecap="round" stroke-linejoin="round"/>
</svg>
