<svg width="37" height="36" viewBox="0 0 37 36" fill="none" xmlns="http://www.w3.org/2000/svg">
<path d="M6.244 22V15.125H4.121V13.805H9.841V15.125H7.751V22H6.244Z" fill="#033348"/>
<path d="M13 15L22 15" stroke="#033348" stroke-width="2" stroke-linecap="round"/>
<path d="M13 18L18 18" stroke="#033348" stroke-width="2" stroke-linecap="round"/>
<path d="M13 21L18 21" stroke="#033348" stroke-width="2" stroke-linecap="round"/>
<rect x="1" y="1" width="26.155" height="27.1376" rx="3" stroke="#033348" stroke-width="2"/>
<path d="M14.5912 27.1063L15.5253 27.4546L14.5912 27.1063L12.5901 32.5378L13.5283 32.8877L12.5901 32.5378C12.1887 33.6271 13.1269 34.7451 14.2697 34.5394L20.1524 33.4803L19.9709 32.4958L20.1525 33.4803C20.4244 33.4313 20.6772 33.308 20.8828 33.1239L22.1982 31.9466L32.3901 22.8245L35.0379 20.4546C35.6394 19.9162 35.7034 18.9953 35.1825 18.3735L31.6759 14.188C31.1312 13.5379 30.1595 13.4644 29.529 14.0254L27.749 15.6095L26.7565 16.4578L16.5062 25.2192L15.0214 26.4883C14.8275 26.654 14.6795 26.8667 14.5912 27.1063Z" fill="white" stroke="white" stroke-width="2" stroke-linecap="round"/>
<path d="M13.5283 32.8877L15.5294 27.4562C15.5588 27.3763 15.6082 27.3054 15.6728 27.2502L17.1577 25.981L27.4079 17.2196L28.408 16.3649L30.1954 14.7743C30.4055 14.5872 30.7294 14.6118 30.911 14.8285L34.4176 19.014C34.5913 19.2212 34.5699 19.5282 34.3694 19.7077L31.7216 22.0775L21.5297 31.1997L20.2143 32.377C20.1458 32.4383 20.0615 32.4794 19.9709 32.4958L14.0881 33.5549C13.7072 33.6235 13.3945 33.2508 13.5283 32.8877Z" fill="white"/>
<path d="M27.4079 17.2196L28.408 16.3649L30.1954 14.7743C30.4055 14.5872 30.7294 14.6118 30.911 14.8285L34.4176 19.014C34.5913 19.2212 34.5699 19.5282 34.3694 19.7077L31.7216 22.0775M27.4079 17.2196L31.7216 22.0775M27.4079 17.2196L17.1577 25.981M31.7216 22.0775L21.5297 31.1997M17.1577 25.981L15.6728 27.2502C15.6082 27.3054 15.5588 27.3763 15.5294 27.4562L13.5283 32.8877C13.3945 33.2508 13.7072 33.6235 14.0881 33.5549L19.9709 32.4958C20.0615 32.4794 20.1458 32.4383 20.2143 32.377L21.5297 31.1997M17.1577 25.981L21.5297 31.1997" stroke="#033348" stroke-width="2" stroke-linecap="round"/>
<path d="M2 8.6001L26.749 8.6001" stroke="#033348" stroke-width="2" stroke-linecap="round"/>
<ellipse cx="13.1359" cy="4.88738" rx="1.23745" ry="1.23748" fill="#033348"/>
<ellipse cx="18.089" cy="4.88738" rx="1.23745" ry="1.23748" fill="#033348"/>
<ellipse cx="23.0382" cy="4.88738" rx="1.23745" ry="1.23748" fill="#033348"/>
</svg>
