<svg width="24" height="25" viewBox="0 0 24 25" fill="none" xmlns="http://www.w3.org/2000/svg">
<path d="M17 2.52148V5.52148M7 2.52148V5.52148" stroke="white" stroke-width="1.5" stroke-linecap="round" stroke-linejoin="round"/>
<path d="M13 4.02148H11C7.22876 4.02148 5.34315 4.02148 4.17157 5.19305C3 6.36463 3 8.25024 3 12.0215V14.5215C3 18.2927 3 20.1784 4.17157 21.3499C5.34315 22.5215 7.22876 22.5215 11 22.5215H13C16.7712 22.5215 18.6569 22.5215 19.8284 21.3499C21 20.1784 21 18.2927 21 14.5215V12.0215C21 8.25024 21 6.36463 19.8284 5.19305C18.6569 4.02148 16.7712 4.02148 13 4.02148Z" stroke="white" stroke-width="1.5" stroke-linecap="round" stroke-linejoin="round"/>
<path d="M3.5 9.02148H20.5" stroke="white" stroke-width="1.5" stroke-linecap="round" stroke-linejoin="round"/>
<path d="M9 16.0215C9 16.0215 10.5 16.5215 11 18.0215C11 18.0215 13.1765 14.0215 16 13.0215" stroke="white" stroke-width="1.5" stroke-linecap="round" stroke-linejoin="round"/>
</svg>
