<svg width="22" height="22" viewBox="0 0 22 22" fill="none" xmlns="http://www.w3.org/2000/svg">
<g id="Group">
<path id="Vector" d="M11.2551 4.52493L12.4471 3.33296C12.8651 2.91454 13.3616 2.58257 13.9079 2.35604C14.4542 2.1295 15.0399 2.01283 15.6313 2.0127C16.2228 2.01255 16.8086 2.12896 17.355 2.35523C17.9015 2.58152 18.3981 2.91325 18.8163 3.33148C19.2345 3.74972 19.5663 4.24625 19.7925 4.79272C20.0188 5.33919 20.1352 5.9249 20.1351 6.51637C20.135 7.10784 20.0183 7.69349 19.7917 8.23986C19.5652 8.78622 19.2332 9.28256 18.8148 9.70062L15.9204 12.5951C15.5023 13.0131 15.0059 13.3449 14.4597 13.5711C13.9134 13.7974 13.3278 13.9139 12.7366 13.9139C12.1453 13.9139 11.5598 13.7974 11.0134 13.5711C10.4671 13.3449 9.9708 13.0131 9.55273 12.5951" stroke="#D2D9DF" stroke-width="2.3" stroke-linecap="round" stroke-linejoin="round"/>
<path id="Vector_2" d="M10.7445 17.771L9.55273 18.9627C9.13467 19.3811 8.63828 19.7131 8.09191 19.9397C7.54555 20.1662 6.9599 20.2828 6.36842 20.283C5.77696 20.2832 5.19126 20.1667 4.64478 19.9404C4.09831 19.7142 3.60177 19.3824 3.18354 18.9642C2.7653 18.546 2.43357 18.0494 2.2073 17.503C1.98101 16.9565 1.86462 16.3707 1.86475 15.7793C1.86489 15.1878 1.98156 14.6022 2.20809 14.0558C2.43463 13.5095 2.76659 13.013 3.18503 12.5951L6.07943 9.70063C6.49753 9.28257 6.9939 8.95086 7.54018 8.72458C8.08646 8.4983 8.67197 8.38184 9.26325 8.38184C9.85454 8.38184 10.44 8.4983 10.9864 8.72458C11.5327 8.95086 12.029 9.28257 12.4471 9.70063" stroke="#D2D9DF" stroke-width="2.3" stroke-linecap="round" stroke-linejoin="round"/>
</g>
</svg>
