<svg width="19" height="19" viewBox="0 0 19 19" fill="none" xmlns="http://www.w3.org/2000/svg">
<path fill-rule="evenodd" clip-rule="evenodd" d="M0.443359 3.76563C0.443359 2.10877 1.7865 0.765625 3.44336 0.765625H8.98183C10.6387 0.765625 11.9818 2.10877 11.9818 3.76563V5.15025H10.5972V3.76563C10.5972 2.87347 9.87399 2.15024 8.98183 2.15024H3.44336C2.55121 2.15024 1.82798 2.87347 1.82798 3.76563V15.7656C1.82798 16.6578 2.55121 17.381 3.44336 17.381H8.98183C9.87399 17.381 10.5972 16.6578 10.5972 15.7656V14.381H11.9818V15.7656C11.9818 17.4225 10.6387 18.7656 8.98183 18.7656H3.44336C1.7865 18.7656 0.443359 17.4225 0.443359 15.7656V3.76563ZM14.6186 5.58825C14.3507 5.31538 13.9124 5.31151 13.6396 5.57939C13.3668 5.84735 13.3629 6.28563 13.6307 6.5584L16.1008 9.07333H6.67414C6.2918 9.07333 5.98183 9.3833 5.98183 9.76564C5.98183 10.148 6.2918 10.4579 6.67414 10.4579H16.1008L13.6307 12.9729C13.3629 13.2456 13.3668 13.6839 13.6396 13.9519C13.9124 14.2198 14.3507 14.2159 14.6186 13.943L18.245 10.2507C18.5095 9.98145 18.5095 9.54982 18.245 9.28056L14.6186 5.58825Z" fill="white"/>
</svg>
