<svg width="130" height="200" viewBox="0 0 130 200" fill="none" xmlns="http://www.w3.org/2000/svg">
<path d="M41.7244 67.8823L41.7289 67.7672C41.7524 67.1544 42.0398 66.5818 42.5169 66.1967C43.1557 65.681 44.0346 65.5798 44.7739 65.9368L66.0266 76.2008C67.7651 77.0404 69.5629 77.7511 71.4056 78.3271L85.2713 82.6612L109.847 87.8369C111.116 88.104 112.414 88.2074 113.709 88.1444L121.985 87.7416C122.841 87.7 123.643 88.1594 124.04 88.9187C124.315 89.4447 124.366 90.0595 124.181 90.6234L123.996 91.1851C123.875 91.5543 123.695 91.9014 123.462 92.213L123.17 92.6049C122.441 93.583 122.337 94.8926 122.902 95.9739L123.2 96.543C123.452 97.0267 123.475 97.5983 123.261 98.1003C123.069 98.5494 122.705 98.9027 122.25 99.0807L120.6 99.7266C119.825 100.03 118.996 100.17 118.165 100.138L115.368 100.03L103.255 98.0446L88.2821 94.9358L69.3496 89.1415L54.4938 82.9974L40.9703 76.7106C40.4847 76.4849 40.0385 76.1825 39.6489 75.8151L38.6003 74.8264C38.2166 74.4647 38.0081 73.9548 38.0284 73.428C38.0563 72.7026 38.5113 72.0626 39.1873 71.7981L39.511 71.6714C40.0999 71.4409 40.5715 70.9834 40.8196 70.4017L41.5355 68.7237C41.6493 68.4571 41.7133 68.172 41.7244 67.8823Z" fill="#2E8698"/>
<path d="M30.1922 82.8889L31.2649 82.3808C36.5198 79.8916 42.5593 79.639 48.0036 81.6807L53.1546 83.6123L68.6646 90.204C73.5028 92.2603 78.5103 93.893 83.6307 95.0838L100.425 98.9894L111.217 100.73C115.605 101.438 119.519 103.892 122.067 107.532C125.723 113.017 127.132 119.697 126.003 126.191L125.484 129.174L109.877 183.53C109.278 185.618 108.25 187.558 106.859 189.227C104.54 192.009 101.328 193.901 97.7696 194.579L95.1507 195.077C92.6101 195.561 90.0063 195.615 87.448 195.236L75.9356 193.53L47.4594 186.696L27.552 179.176C23.7535 177.741 20.1546 175.825 16.8433 173.475L7.10819 166.566C5.20271 165.214 3.77726 163.29 3.03838 161.073C2.29719 158.85 2.28553 156.447 3.00509 154.217L23.5852 90.4185C24.3001 88.2024 25.6142 86.2273 27.3821 84.712C28.2336 83.9821 29.1786 83.369 30.1922 82.8889Z" fill="#EDFDFF"/>
<path d="M21.2615 160.498C17.125 159.907 14.1879 160.253 12.3395 160.928C9.55827 161.944 11.583 164.867 13.8577 166.763L17.1572 169.375C24.0348 174.82 31.6531 179.257 39.7824 182.552C45.6444 184.929 51.7351 186.697 57.9584 187.828L79.0647 191.666C79.6354 191.77 80.2143 191.822 80.7943 191.822H90.9051C93.4474 191.822 95.101 189.146 93.964 186.873C93.719 186.382 93.3598 185.958 92.9166 185.636L87.3263 181.57L79.9225 177.584L67.9625 172.458L53.1548 167.902L42.3339 164.485C39.2964 163.725 30.8295 161.865 21.2615 160.498Z" fill="#AFE5F0"/>
<path d="M40.2113 77.3474C37.3995 80.5805 31.2252 81.1901 27.2421 83.6288C24.3674 85.3876 22.749 88.0295 21.4743 90.7083C19.3608 95.1459 18.0047 99.8533 16.7041 104.564" stroke="#033348" stroke-width="1.51515" stroke-miterlimit="10" stroke-linecap="round"/>
<path d="M118.307 101.609C119.799 105.81 125.412 109.176 127.433 113.333C128.885 116.326 128.294 119.344 127.633 122.197C125.512 131.327 122.855 140.324 119.696 149.17" stroke="#033348" stroke-width="1.51515" stroke-miterlimit="10" stroke-linecap="round"/>
<path d="M118.941 152.566C118.638 153.686 118.335 154.805 118.035 155.925" stroke="#033348" stroke-width="1.51515" stroke-miterlimit="10" stroke-linecap="round"/>
<path d="M14.8955 109.549C11.2116 121.658 7.52775 133.762 3.8439 145.87C2.92386 148.897 2.00012 151.923 1.08008 154.949C0.947064 155.389 0.684724 155.847 0.777097 156.338C0.817742 156.56 0.836216 156.763 0.825132 156.981C0.769707 157.986 0.92859 159.024 1.26852 160.063C1.95578 162.161 3.34508 164.227 5.13713 166.093C5.30709 166.27 5.48076 166.448 5.65811 166.621C8.82468 169.721 12.9778 172.252 17.2011 174.573C36.8914 185.395 59.6005 192.685 82.0473 195.397C86.4923 195.933 90.978 196.295 95.1828 195.896C99.3876 195.497 103.334 194.285 105.828 192.024C108.23 189.848 109.131 186.881 109.981 183.999C112.438 175.681 114.895 167.364 117.352 159.05" stroke="#033348" stroke-width="1.51515" stroke-miterlimit="10" stroke-linecap="round"/>
<path d="M44.5622 59.8523C43.6754 60.765 44.1299 62.2541 45.1977 63.3773C46.2655 64.5006 47.8285 65.3393 49.3545 66.1227C70.1644 76.838 93.8157 84.4828 116.928 86.0162C118.298 86.1086 119.695 86.1751 120.933 85.9275C122.171 85.68 123.25 85.0629 123.512 84.1281C123.763 83.2192 123.205 82.1439 122.33 81.2756C121.454 80.4073 120.29 79.7053 119.137 79.0328C114.608 76.4004 109.869 73.9961 104.981 71.8361M45.497 58.6921C54.1005 58.7673 62.9209 59.6955 71.6832 61.4009" stroke="#033348" stroke-width="1.51515" stroke-miterlimit="10" stroke-linecap="round"/>
<path d="M43.6942 61.9363C41.9502 62.5275 40.8084 63.7394 40.1877 65.0992C39.881 65.7716 39.6926 66.518 39.9771 67.2866C40.232 67.9738 40.838 68.6093 41.4772 69.2005C43.5279 71.096 46.0626 72.7403 48.8486 73.9781" stroke="#033348" stroke-width="1.51515" stroke-miterlimit="10" stroke-linecap="round"/>
<path d="M40.8848 69.0416C39.2849 69.5552 38.0582 70.5233 37.4633 71.7426C37.0421 72.6035 36.946 73.6344 37.5188 74.6062C38.0102 75.445 38.9413 76.1544 39.8872 76.7936C42.2852 78.4157 44.9788 79.7902 47.8203 80.8359" stroke="#033348" stroke-width="1.51515" stroke-miterlimit="10" stroke-linecap="round"/>
<path d="M53.3262 83.5848C68.989 91.1373 86.1151 96.5947 103.326 99.5248" stroke="#033348" stroke-width="1.51515" stroke-miterlimit="10" stroke-linecap="round"/>
<path d="M109.871 100.016C111.6 100.212 113.337 100.456 115.055 100.563C116.773 100.67 118.488 100.641 120.017 100.29C121.543 99.9387 122.881 99.244 123.583 98.2168C124.433 96.9679 124.259 95.2609 123.136 93.8162" stroke="#033348" stroke-width="1.51515" stroke-miterlimit="10" stroke-linecap="round"/>
<path d="M123.412 84.9334C124.65 86.4336 125.13 88.1739 124.713 89.6629C124.295 91.152 122.983 92.3713 121.154 92.9699C119.074 93.6535 116.495 93.5352 114.001 93.3431C98.1385 92.1053 81.8918 88.0963 66.9717 81.7373" stroke="#033348" stroke-width="1.51515" stroke-miterlimit="10" stroke-linecap="round"/>
<path d="M52.7422 67.3864C56.1268 66.4774 60.3057 67.209 64.2187 68.0293C67.1814 68.6511 70.1385 69.3227 73.0868 70.0435M112.297 85.3807C108.567 81.9089 103.469 79.4613 98.1459 77.4812" stroke="#033348" stroke-width="1.51515" stroke-miterlimit="10" stroke-linecap="round"/>
<path d="M10.4512 158.175C12.9453 157.103 16.2485 157.103 19.4336 157.288C25.3344 157.628 31.335 158.511 37.2543 159.911" stroke="#033348" stroke-width="1.51515" stroke-miterlimit="10" stroke-linecap="round"/>
<path d="M45.2314 162.527C46.9939 163.056 48.7638 163.595 50.5263 164.138" stroke="#033348" stroke-width="1.51515" stroke-miterlimit="10" stroke-linecap="round"/>
<path d="M60.0222 167.467C71.4802 170.08 82.6832 174.414 92.6596 180.093C94.3888 181.08 96.1143 182.125 97.4002 183.422C98.686 184.719 99.4915 186.315 99.0998 187.664C98.6934 189.072 97.0492 189.988 95.1647 190.339C93.2803 190.69 91.1705 190.557 89.094 190.376C71.1846 188.806 53.1274 183.821 35.7871 177.717C30.64 175.903 25.4929 173.971 20.7893 171.436C16.0856 168.901 11.7995 165.701 9.11328 161.969" stroke="#033348" stroke-width="1.51515" stroke-miterlimit="10" stroke-linecap="round"/>
<path d="M101.08 169.307C113.099 162.429 107.504 151.893 98.3684 153.73C97.4365 153.917 96.4654 153.35 96.2259 152.434C93.0511 140.298 81.391 146.323 80.9151 154.293C80.5598 160.241 81.9394 164.851 85.3337 169.899C85.5278 170.187 85.8187 170.4 86.1568 170.486C90.023 171.474 94.8052 171.115 98.0955 170.335" stroke="#033348" stroke-width="1.51515" stroke-linecap="round"/>
<path d="M110.434 124.103C118.125 119.701 114.928 113.039 109.247 113.687C108.302 113.795 107.336 113.24 107.048 112.338C104.729 105.088 97.3824 109.01 97.0751 114.157C96.8433 118.038 97.7263 121.059 99.9013 124.343C100.093 124.633 100.385 124.847 100.725 124.927C103.253 125.527 106.327 125.288 108.457 124.784" stroke="#033348" stroke-width="1.51515" stroke-linecap="round"/>
<path d="M97.0408 77.0072C111.529 68.7154 104.563 55.9689 93.4636 58.4961C92.5369 58.7071 91.5619 58.1434 91.337 57.224C87.682 42.2854 73.5555 49.5113 72.9832 59.0949C72.5574 66.2249 74.2209 71.743 78.3124 77.7983C78.5072 78.0865 78.7985 78.2989 79.1361 78.3872C83.7659 79.5978 89.5257 79.1699 93.4797 78.2327" stroke="#033348" stroke-width="1.51515" stroke-linecap="round"/>
<path d="M23.4816 134.544C25.1238 133.279 27.7641 134.033 29.1358 134.816C29.4564 134.154 29.7004 132.761 31.865 131.441C34.0296 130.121 36.06 131.179 36.9028 133.229C37.6599 135.071 37.2364 137.323 36.3079 139.721C35.4102 142.039 33.5145 144.777 32.5131 144.888C31.5117 144.999 24.7848 143.185 22.961 140.818C20.6813 137.858 21.5701 136.017 23.4816 134.544Z" fill="#6BCBDE"/>
<path d="M91.2156 149.127C93.701 150.105 94.8574 153.107 95.1698 155.348C95.2408 155.857 95.6763 156.23 96.1858 156.164C97.3387 156.015 99.0596 155.933 101.586 157.245C104.912 158.972 105.162 162.224 103.252 164.721C101.536 166.962 98.3933 168.042 94.6778 168.603C91.0858 169.146 86.1955 168.758 85.2816 167.604C84.3677 166.449 81.4248 156.876 82.9718 152.946C84.9056 148.034 87.8953 147.82 91.2156 149.127Z" fill="#6BCBDE"/>
<path d="M103.454 110.929C105.088 111.404 106.044 113.153 106.448 114.605C106.586 115.1 107.051 115.417 107.556 115.324C108.321 115.185 109.409 115.135 110.988 115.778C113.349 116.74 113.723 118.927 112.585 120.738C111.563 122.365 109.502 123.293 107.02 123.906C104.621 124.499 101.284 124.543 100.592 123.818C99.9007 123.093 97.3069 116.792 98.1086 114.033C99.1106 110.584 101.123 110.251 103.454 110.929Z" fill="#6BCBDE"/>
<path d="M85.0276 51.3983C88.4143 52.3823 90.2227 56.3806 90.8076 59.3149C90.9098 59.8277 91.3896 60.1712 91.8968 60.0441C93.3526 59.6793 95.5999 59.218 99.1649 60.6846C103.605 62.5113 104.273 66.7527 102.094 70.2882C100.137 73.4638 96.2306 75.3023 91.5356 76.5355C86.9966 77.7277 80.6969 77.8706 79.4043 76.475C78.1116 75.0795 73.3244 62.8892 74.8851 57.518C76.8359 50.8039 80.6391 50.1231 85.0276 51.3983Z" fill="#319BB1"/>
<path d="M37.7921 138.328C39.1436 129.57 31.9409 127.918 28.907 132.765C28.4025 133.571 27.3663 133.98 26.4813 133.643C19.3665 130.938 17.8548 139.128 21.6877 142.576C24.5781 145.176 27.4909 146.368 31.4153 146.715C31.7618 146.745 32.1104 146.65 32.385 146.435C34.4302 144.831 36.1591 142.279 37.0918 140.299" stroke="#033348" stroke-width="1.51515" stroke-linecap="round"/>
<path d="M38.5708 40.369L37.9339 36.6905C37.6169 34.8596 38.67 33.0678 40.424 32.454C40.7994 32.3227 41.1931 32.251 41.5908 32.2418L59.2624 31.8296C59.7492 31.8183 60.2337 31.76 60.7092 31.6557L84.8039 26.3695L103.861 20.4833C104.306 20.346 104.736 20.1681 105.148 19.9517L110.183 17.3069C110.513 17.1336 110.876 17.0305 111.248 17.0043C112.586 16.91 113.79 17.8143 114.073 19.1261L115.239 24.5382C115.561 26.0327 115.262 27.5939 114.411 28.8637C113.889 29.6422 113.181 30.2782 112.351 30.714L107.461 33.2828L95.9335 38.1259L70.3424 45.1916L45.7031 49.3333C45.3112 49.3992 44.9118 49.4071 44.5176 49.3567C43.4514 49.2205 42.4829 48.6663 41.8252 47.816L41.3793 47.2395C41.0489 46.8123 40.7796 46.3412 40.5793 45.8396L39.0003 41.8868C38.8047 41.3972 38.6608 40.8885 38.5708 40.369Z" fill="#2E8698"/>
<path d="M113.86 15.2875C110.822 12.2471 105.947 12.3211 101.668 12.7206C80.7824 14.6753 60.1755 19.5488 40.6021 27.0909C39.6735 27.4491 38.7238 27.827 38.0161 28.5262C37.6752 28.8626 37.4091 29.2831 37.2649 29.7415C37.1101 30.2246 37.0967 30.7667 37.3053 31.2329C37.5491 31.7744 38.0498 32.0246 38.5879 32.1864C39.4561 32.4463 40.2731 32.3495 41.1644 32.3703C46.8585 32.4979 52.5316 32.3808 58.2042 31.8315C64.0009 31.2719 69.7574 30.3273 75.4311 29.0108C86.717 26.3922 97.6664 22.2966 107.876 16.8176C109.484 15.9539 111.326 15.0309 113.048 15.6345C115.188 16.3809 115.902 18.9864 116.31 21.214C116.859 24.2082 117.363 27.4983 115.841 30.1386C114.554 32.3694 112.1 33.6167 109.752 34.6763C90.27 43.4557 69.0183 47.4571 47.9113 50.7916C46.2346 51.0579 44.4809 51.3145 42.8691 50.7808C40.081 49.8621 38.5326 46.8781 37.8157 44.0337C37.0988 41.1894 36.8912 38.1494 35.4765 35.5773" stroke="#033348" stroke-width="1.51515" stroke-miterlimit="10" stroke-linecap="round"/>
<path d="M47.578 25.6332L44.3836 26.751C44.1128 26.8457 43.8678 27.0022 43.668 27.2081C42.821 28.0806 43.033 29.5193 44.0958 30.1103L44.1714 30.1524C44.4959 30.3329 44.866 30.4151 45.2364 30.389L50.4624 30.0208L62.6252 29.378C62.994 29.3585 63.3603 29.3053 63.7194 29.2191L80.3565 25.2272L92.3768 21.0211L100.863 17.512L104.448 15.8258C105.143 15.4989 104.888 14.454 104.121 14.4832L97.075 14.6636C96.7803 14.6711 96.4866 14.7002 96.1961 14.7505L88.9996 15.9965L80.2369 17.1738L70.2001 19.3366L58.3241 22.4127L47.578 25.6332Z" fill="#AFE5F0"/>
<path d="M50.8335 120.591C50.9509 120.466 51.0684 120.344 51.1898 120.227C51.4207 120.012 51.2328 120.169 51.1193 120.223C51.1584 120.212 51.1976 120.2 51.2367 120.188C51.0919 120.235 50.947 120.235 50.8022 120.188C50.5007 120.09 50.4224 119.887 50.3011 119.602C50.1171 119.161 50.1406 119.239 50.2972 118.872C50.3872 118.77 50.3794 118.774 50.2697 118.891C50.3206 118.852 50.3715 118.817 50.4224 118.778C50.0074 118.829 50.7983 118.762 50.3676 118.809C50.8492 118.758 50.1836 118.711 50.6612 118.817C50.72 118.848 50.7787 118.876 50.8374 118.907C50.673 118.809 50.6847 118.825 50.8766 118.961C50.6965 118.692 50.9979 119.137 50.8766 118.958C50.7669 118.793 50.9666 119.262 50.8961 118.954C50.9235 119.204 50.9353 119.231 50.9353 119.036C50.9314 119.106 50.9235 119.176 50.9196 119.247C50.8257 119.442 50.81 119.481 50.8766 119.372C50.9431 119.262 50.9196 119.297 50.8022 119.477C50.6299 119.598 50.5947 119.622 50.7043 119.555C50.8178 119.493 50.7748 119.504 50.579 119.594C50.9353 119.544 50.2306 119.532 50.6221 119.579C50.3402 119.547 50.4459 119.547 50.6534 119.63C51.5029 119.969 52.6109 119.258 52.8027 118.411C53.0337 117.403 52.4934 116.629 51.5812 116.266C49.8469 115.571 47.729 116.868 47.4862 118.68C47.2396 120.52 48.6372 122.352 50.5829 122.282C52.6657 122.212 54.3452 120.012 53.3351 118.036C52.8888 117.161 51.8396 116.7 50.8922 116.743C49.8665 116.789 49.0365 117.403 48.3593 118.122C47.7329 118.786 47.6507 119.938 48.3593 120.587C49.0444 121.216 50.164 121.302 50.8335 120.591Z" fill="#033348"/>
<path d="M87.2436 130.748C87.3611 130.622 87.4785 130.501 87.5999 130.384C87.8309 130.169 87.643 130.326 87.5294 130.38C87.5686 130.369 87.6077 130.357 87.6469 130.345C87.502 130.392 87.3572 130.392 87.2123 130.345C86.9109 130.247 86.8326 130.044 86.7112 129.759C86.5272 129.318 86.5507 129.396 86.7073 129.029C86.7973 128.927 86.7895 128.931 86.6799 129.048C86.7308 129.009 86.7817 128.974 86.8326 128.935C86.4176 128.986 87.2084 128.919 86.7778 128.966C87.2593 128.915 86.5938 128.868 87.0714 128.974C87.1301 129.005 87.1888 129.033 87.2476 129.064C87.0831 128.966 87.0949 128.982 87.2867 129.118C87.1066 128.849 87.4081 129.294 87.2867 129.115C87.1771 128.95 87.3768 129.419 87.3063 129.111C87.3337 129.361 87.3454 129.388 87.3454 129.193C87.3415 129.263 87.3337 129.333 87.3298 129.404C87.2358 129.599 87.2202 129.638 87.2867 129.529C87.3533 129.419 87.3298 129.454 87.2123 129.634C87.0401 129.755 87.0048 129.779 87.1145 129.712C87.228 129.65 87.1849 129.661 86.9892 129.751C87.3454 129.701 86.6408 129.689 87.0322 129.736C86.7504 129.704 86.8561 129.704 87.0636 129.786C87.9131 130.126 89.021 129.415 89.2129 128.568C89.4438 127.56 88.9036 126.786 87.9914 126.423C86.2571 125.728 84.1391 127.025 83.8964 128.837C83.6498 130.677 85.0474 132.509 86.9931 132.439C89.0758 132.369 90.7553 130.169 89.7453 128.193C89.299 127.318 88.2498 126.857 87.3024 126.9C86.2767 126.946 85.4467 127.56 84.7694 128.279C84.143 128.943 84.0608 130.095 84.7694 130.744C85.4545 131.373 86.5742 131.459 87.2436 130.748Z" fill="#033348"/>
<path d="M59.0327 134.99C61.4247 133.998 64.0829 133.896 66.518 134.795C68.6243 135.572 70.4212 137.112 71.5722 139.022C72.1164 139.924 73.5414 139.1 72.9933 138.194C70.061 133.334 63.8755 131.216 58.5942 133.408C58.1832 133.576 57.8934 133.951 58.0187 134.416C58.1283 134.807 58.6177 135.162 59.0327 134.99Z" fill="#033348"/>
</svg>
