<svg width="24" height="25" viewBox="0 0 24 25" fill="none" xmlns="http://www.w3.org/2000/svg">
<path fill-rule="evenodd" clip-rule="evenodd" d="M6.46608 9.66322L3.74274 11.2973C3.59214 11.3877 3.5 11.5505 3.5 11.7261V20.7551C3.5 21.0313 3.72386 21.2551 4 21.2551H7.22334V10.092C7.22334 9.70331 6.79934 9.46325 6.46608 9.66322ZM2.97095 10.0111C2.36857 10.3726 2 11.0236 2 11.7261V20.7551C2 21.8597 2.89543 22.7551 4 22.7551H8.72334V10.092C8.72334 8.53734 7.02734 7.57712 5.6943 8.37701L2.97095 10.0111Z" fill="white"/>
<path fill-rule="evenodd" clip-rule="evenodd" d="M8.75684 13.5265L10.5927 14.3451C10.7729 14.4254 10.889 14.6043 10.889 14.8017V20.7551C10.889 21.0312 10.6652 21.2551 10.389 21.2551H8.75684V13.5265ZM11.2035 12.9751C11.9246 13.2966 12.3891 14.0122 12.3891 14.8017V20.7551C12.3891 21.8596 11.4936 22.7551 10.389 22.7551H7.25684V11.2153L11.2035 12.9751Z" fill="white"/>
<path d="M14.7462 5.88703C14.7462 6.35103 14.37 6.72717 13.906 6.72717C13.442 6.72717 13.0659 6.35103 13.0659 5.88703C13.0659 5.42303 13.442 5.04688 13.906 5.04688C14.37 5.04688 14.7462 5.42303 14.7462 5.88703Z" fill="white"/>
<path d="M15.6447 8.52466C15.6447 9.16489 14.5461 9.29749 13.9058 9.29749C13.2656 9.29749 12.167 9.16489 12.167 8.52466C12.167 7.88443 12.7466 6.979 13.9058 6.979C15.0651 6.979 15.6447 7.88443 15.6447 8.52466Z" fill="white"/>
<path fill-rule="evenodd" clip-rule="evenodd" d="M13.9058 10.7126C15.7534 10.7126 17.2511 9.21484 17.2511 7.36728C17.2511 5.51971 15.7534 4.02197 13.9058 4.02197C12.0583 4.02197 10.5605 5.51971 10.5605 7.36728C10.5605 9.21484 12.0583 10.7126 13.9058 10.7126ZM13.9058 12.2126C16.5818 12.2126 18.7511 10.0433 18.7511 7.36728C18.7511 4.69129 16.5818 2.52197 13.9058 2.52197C11.2299 2.52197 9.06055 4.69129 9.06055 7.36728C9.06055 10.0433 11.2299 12.2126 13.9058 12.2126Z" fill="white"/>
<path fill-rule="evenodd" clip-rule="evenodd" d="M20.0379 15.3544C20.4677 15.0678 20.4997 14.8366 20.4997 14.7841C20.4997 14.7316 20.4677 14.5004 20.0379 14.2139C19.6185 13.9343 18.9528 13.7126 18.1425 13.7126C17.3321 13.7126 16.6664 13.9343 16.247 14.2139C15.8172 14.5004 15.7852 14.7316 15.7852 14.7841C15.7852 14.8366 15.8172 15.0678 16.247 15.3544C16.6664 15.6339 17.3321 15.8556 18.1425 15.8556C18.9528 15.8556 19.6185 15.6339 20.0379 15.3544ZM18.1425 17.3556C20.2728 17.3556 21.9997 16.2043 21.9997 14.7841C21.9997 13.3639 20.2728 12.2126 18.1425 12.2126C16.0122 12.2126 14.2852 13.3639 14.2852 14.7841C14.2852 16.2043 16.0122 17.3556 18.1425 17.3556Z" fill="white"/>
<path fill-rule="evenodd" clip-rule="evenodd" d="M21.4869 17.4609C21.8258 17.6991 21.9074 18.1669 21.6692 18.5058L21.0731 18.0868C21.6692 18.5058 21.6695 18.5054 21.6692 18.5058L21.6681 18.5075L21.6669 18.5092L21.6642 18.5129L21.6579 18.5216C21.6532 18.5279 21.6478 18.5352 21.6414 18.5435C21.6287 18.56 21.6125 18.5803 21.5927 18.6038C21.5531 18.6508 21.4987 18.7108 21.4283 18.7791C21.2873 18.9158 21.0821 19.0858 20.8024 19.2516C20.2375 19.5863 19.3948 19.8881 18.2137 19.8881C17.0333 19.8881 16.1639 19.5869 15.5755 19.2637C15.2835 19.1032 15.0645 18.9395 14.9133 18.8096C14.8377 18.7446 14.7788 18.688 14.7361 18.6442C14.7147 18.6223 14.6973 18.6036 14.6838 18.5886L14.6665 18.569L14.66 18.5615L14.6573 18.5583L14.6561 18.5568C14.6558 18.5565 14.655 18.5555 15.2305 18.0745L14.655 18.5555C14.3893 18.2376 14.4317 17.7646 14.7495 17.499C15.0646 17.2357 15.5321 17.275 15.7989 17.5853C15.8005 17.587 15.804 17.5908 15.8094 17.5963C15.8234 17.6107 15.8504 17.6371 15.8908 17.6719C15.9717 17.7413 16.1059 17.8436 16.2978 17.949C16.6774 18.1576 17.2997 18.3881 18.2137 18.3881C19.1269 18.3881 19.7052 18.1582 20.0377 17.9611C20.2067 17.861 20.3193 17.7651 20.384 17.7023C20.4163 17.6709 20.4367 17.6478 20.4462 17.6367C20.4484 17.634 20.45 17.6321 20.451 17.6308C20.6918 17.3024 21.1522 17.2257 21.4869 17.4609Z" fill="white"/>
<path fill-rule="evenodd" clip-rule="evenodd" d="M21.4869 19.9438C21.8258 20.182 21.9074 20.6498 21.6692 20.9887L21.0731 20.5697C21.6692 20.9887 21.6695 20.9883 21.6692 20.9887L21.6681 20.9903L21.6669 20.9921L21.6642 20.9958L21.6579 21.0045C21.6532 21.0108 21.6478 21.0181 21.6414 21.0264C21.6287 21.0429 21.6125 21.0632 21.5927 21.0867C21.5531 21.1337 21.4987 21.1937 21.4283 21.262C21.2873 21.3987 21.0821 21.5687 20.8024 21.7344C20.2375 22.0692 19.3948 22.371 18.2137 22.371C17.0333 22.371 16.1639 22.0698 15.5755 21.7466C15.2835 21.5861 15.0645 21.4224 14.9133 21.2925C14.8377 21.2275 14.7788 21.1708 14.7361 21.1271C14.7147 21.1052 14.6973 21.0865 14.6838 21.0715L14.6665 21.0519L14.66 21.0444L14.6573 21.0412L14.6561 21.0397C14.6558 21.0394 14.655 21.0383 15.2305 20.5574L14.655 21.0383C14.3893 20.7205 14.4317 20.2475 14.7495 19.9819C15.0646 19.7186 15.5321 19.7579 15.7989 20.0682C15.8005 20.0699 15.804 20.0736 15.8094 20.0792C15.8234 20.0936 15.8504 20.12 15.8908 20.1548C15.9717 20.2242 16.1059 20.3265 16.2978 20.4319C16.6774 20.6404 17.2997 20.871 18.2137 20.871C19.1269 20.871 19.7052 20.641 20.0377 20.444C20.2067 20.3438 20.3193 20.2479 20.384 20.1852C20.4163 20.1538 20.4367 20.1307 20.4462 20.1195C20.4484 20.1169 20.45 20.1149 20.451 20.1137C20.6918 19.7853 21.1522 19.7086 21.4869 19.9438Z" fill="white"/>
</svg>
