<svg width="24" height="25" viewBox="0 0 24 25" fill="none" xmlns="http://www.w3.org/2000/svg">
<path d="M14.5 12.5215C14.5 13.9022 13.3807 15.0215 12 15.0215C10.6193 15.0215 9.5 13.9022 9.5 12.5215C9.5 11.1408 10.6193 10.0215 12 10.0215C13.3807 10.0215 14.5 11.1408 14.5 12.5215Z" stroke="white" stroke-width="1.5"/>
<path d="M19 11.663C18.6749 11.6159 18.341 11.5801 18 11.5562M6 13.4868C5.65897 13.463 5.32511 13.4271 5 13.38" stroke="white" stroke-width="1.5" stroke-linecap="round" stroke-linejoin="round"/>
<path d="M12 20.0215C10.6675 20.6438 8.91707 21.0215 7 21.0215C5.93408 21.0215 4.91969 20.9047 4 20.6941C2.49957 20.3504 2 19.4479 2 17.9075V7.13545C2 6.15063 3.04003 5.47421 4 5.69409C4.91969 5.90474 5.93408 6.02148 7 6.02148C8.91707 6.02148 10.6675 5.64385 12 5.02148C13.3325 4.39912 15.0829 4.02148 17 4.02148C18.0659 4.02148 19.0803 4.13823 20 4.34888C21.5817 4.71117 22 5.64185 22 7.13546V17.9075C22 18.8923 20.96 19.5688 20 19.3489C19.0803 19.1382 18.0659 19.0215 17 19.0215C15.0829 19.0215 13.3325 19.3991 12 20.0215Z" stroke="white" stroke-width="1.5"/>
</svg>