<svg width="22" height="22" viewBox="0 0 22 22" fill="none" xmlns="http://www.w3.org/2000/svg">
<rect width="22" height="22" rx="11" fill="#C2F0F0"/>
<g clip-path="url(#clip0_1736_3461)">
<path d="M16.8337 10.7087V6.98348C16.8337 6.52207 16.8337 6.29137 16.7204 6.05346C16.6558 5.91777 16.5088 5.7332 16.3909 5.63995C16.1843 5.47646 16.0119 5.43696 15.667 5.35797C15.1305 5.2351 14.5388 5.16699 13.917 5.16699C12.7987 5.16699 11.7776 5.38728 11.0003 5.75033C10.223 6.11337 9.20195 6.33366 8.08366 6.33366C7.46187 6.33366 6.87014 6.26556 6.33366 6.14268C5.77368 6.01442 5.16699 6.40899 5.16699 6.98347V13.2672C5.16699 13.7286 5.16699 13.9593 5.28023 14.1972C5.34481 14.3329 5.49189 14.5175 5.60973 14.6107C5.81636 14.7742 5.98879 14.8137 6.33366 14.8927C6.87014 15.0156 7.46187 15.0837 8.08366 15.0837C8.94048 15.0837 9.74023 14.9543 10.417 14.7306" stroke="#141B34" stroke-width="0.8" stroke-linecap="round"/>
<path d="M12.4587 10.1253C12.4587 10.9307 11.8057 11.5837 11.0003 11.5837C10.1949 11.5837 9.54199 10.9307 9.54199 10.1253C9.54199 9.31991 10.1949 8.66699 11.0003 8.66699C11.8057 8.66699 12.4587 9.31991 12.4587 10.1253Z" stroke="#141B34" stroke-width="0.8"/>
<path d="M7.20801 10.708L7.20801 10.7132" stroke="#141B34" stroke-width="0.8" stroke-linecap="round" stroke-linejoin="round"/>
<path d="M14.792 9.53711L14.792 9.54235" stroke="#141B34" stroke-width="0.8" stroke-linecap="round" stroke-linejoin="round"/>
<path d="M15.2781 12.167L15.7583 12.6091C15.8628 12.7118 15.9151 12.7632 15.8967 12.8068C15.8783 12.8505 15.8044 12.8505 15.6565 12.8505H13.8456C12.9186 12.8505 12.167 13.5891 12.167 14.5003C12.167 14.7057 12.2052 14.9023 12.2749 15.0837M13.7225 16.8337L13.2424 16.3916C13.1378 16.2888 13.0856 16.2375 13.104 16.1938C13.1224 16.1502 13.1963 16.1502 13.3441 16.1502H15.155C16.0821 16.1502 16.8337 15.4115 16.8337 14.5003C16.8337 14.295 16.7955 14.0984 16.7257 13.917" stroke="#141B34" stroke-width="0.8" stroke-linecap="round" stroke-linejoin="round"/>
</g>
<defs>
<clipPath id="clip0_1736_3461">
<rect width="14" height="14" fill="white" transform="translate(4 4)"/>
</clipPath>
</defs>
</svg>