<svg width="12" height="12" viewBox="0 0 12 12" fill="none" xmlns="http://www.w3.org/2000/svg">
<path fill-rule="evenodd" clip-rule="evenodd" d="M6 1.875C3.72183 1.875 1.875 3.72183 1.875 6C1.875 8.27817 3.72183 10.125 6 10.125C8.27817 10.125 10.125 8.27817 10.125 6C10.125 3.72183 8.27817 1.875 6 1.875ZM1.125 6C1.125 3.30761 3.30761 1.125 6 1.125C8.69239 1.125 10.875 3.30761 10.875 6C10.875 8.69239 8.69239 10.875 6 10.875C3.30761 10.875 1.125 8.69239 1.125 6ZM6 3.625C6.20711 3.625 6.375 3.79289 6.375 4V5.625H8C8.20711 5.625 8.375 5.79289 8.375 6C8.375 6.20711 8.20711 6.375 8 6.375H6.375V8C6.375 8.20711 6.20711 8.375 6 8.375C5.79289 8.375 5.625 8.20711 5.625 8V6.375H4C3.79289 6.375 3.625 6.20711 3.625 6C3.625 5.79289 3.79289 5.625 4 5.625H5.625V4C5.625 3.79289 5.79289 3.625 6 3.625Z" fill="white"/>
</svg>
