<svg width="22" height="21" viewBox="0 0 22 21" fill="none" xmlns="http://www.w3.org/2000/svg">
<path id="Vector" d="M21.9796 2.61981C21.9791 3.29633 21.7103 3.94503 21.2321 4.42355C20.7539 4.90206 20.1053 5.17129 19.4288 5.17213H18.6287V18.4492C18.6278 19.1255 18.3588 19.7738 17.8806 20.2519C17.4025 20.7301 16.7542 20.9991 16.0779 20.9999H2.57154C2.23647 20.9999 1.90468 20.9339 1.59512 20.8057C1.28555 20.6775 1.00427 20.4896 0.767343 20.2526C0.530412 20.0157 0.342469 19.7344 0.214243 19.4248C0.0860166 19.1153 0.0200195 18.7835 0.0200195 18.4484C0.0200195 18.1134 0.0860166 17.7816 0.214243 17.472C0.342469 17.1624 0.530412 16.8812 0.767343 16.6442C1.00427 16.4073 1.28555 16.2194 1.59512 16.0911C1.90468 15.9629 2.23647 15.8969 2.57154 15.8969H3.37013V2.61981C3.37013 1.94275 3.63898 1.2934 4.11759 0.814495C4.59619 0.335593 5.24538 0.0663372 5.92244 0.065918H19.4272C20.104 0.0663369 20.753 0.335375 21.2315 0.813936C21.7101 1.2925 21.9791 1.94144 21.9796 2.61823V2.61981ZM2.57154 19.2478H13.6521C13.481 18.7292 13.481 18.1693 13.6521 17.6506H2.5747C2.36291 17.6506 2.15978 17.7348 2.01002 17.8845C1.86026 18.0343 1.77612 18.2374 1.77612 18.4492C1.77612 18.661 1.86026 18.8641 2.01002 19.0139C2.15978 19.1637 2.36291 19.2478 2.5747 19.2478H2.57154ZM16.8749 2.61981C16.8746 2.3486 16.9173 2.07905 17.0014 1.82123H5.92402C5.74624 1.82091 5.57354 1.88052 5.4338 1.99043L5.43064 1.99201C5.33511 2.06632 5.25792 2.16156 5.20501 2.27041C5.15209 2.37925 5.12487 2.49879 5.12544 2.61981V15.8969H15.1465C15.3649 15.8944 15.5777 15.9661 15.75 16.1002C15.9224 16.2344 16.0441 16.4231 16.0953 16.6354C16.1554 16.8386 16.1493 17.0557 16.078 17.2552C16.0066 17.4548 15.8737 17.6265 15.6984 17.7455C15.5745 17.8128 15.4706 17.9117 15.3973 18.0321C15.324 18.1525 15.2839 18.2902 15.2811 18.4312C15.2782 18.5721 15.3128 18.7113 15.3811 18.8346C15.4495 18.9579 15.5493 19.0609 15.6704 19.1331C15.7915 19.2053 15.9295 19.2442 16.0705 19.2458C16.2115 19.2474 16.3503 19.2117 16.473 19.1422C16.5957 19.0727 16.6978 18.972 16.769 18.8503C16.8401 18.7286 16.8778 18.5902 16.8781 18.4492L16.8749 2.61981ZM15.515 4.89381H6.40634V6.64437H15.515V4.89381ZM15.515 8.46768H6.40634V10.2182H15.515V8.46768ZM15.515 12.0415H6.40634V13.7937H15.515V12.0415ZM20.2258 2.61981C20.2254 2.40814 20.1411 2.20526 19.9915 2.05559C19.8418 1.90591 19.6389 1.82164 19.4272 1.82123C19.2494 1.82041 19.0765 1.88008 18.937 1.99043H18.9339C18.8379 2.06482 18.7604 2.16027 18.7072 2.26939C18.654 2.37852 18.6266 2.49841 18.6271 2.61981V3.4184H19.4272C19.6389 3.41798 19.8418 3.33371 19.9915 3.18404C20.1411 3.03436 20.2254 2.83148 20.2258 2.61981Z" fill="white"/>
</svg>
