<svg width="51" height="43" viewBox="0 0 51 43" fill="none" xmlns="http://www.w3.org/2000/svg">
<path d="M9.93945 21.4862C13.3419 8.25447 35.2687 5.98621 40.1834 21.4862" stroke="#525252" stroke-width="4" stroke-linecap="round"/>
<path d="M9.93945 21.8309C13.3419 35.0627 35.2687 37.3309 40.1834 21.8309" stroke="#525252" stroke-width="4" stroke-linecap="round"/>
<circle cx="25.0612" cy="21.2805" r="3.29268" stroke="#525252" stroke-width="4"/>
<path d="M2 10.6951V5C2 3.34314 3.34315 2 5 2H10.6951" stroke="#525252" stroke-width="4" stroke-linecap="round"/>
<path d="M48.5 10.6951V5C48.5 3.34314 47.1569 2 45.5 2H39.8049" stroke="#525252" stroke-width="4" stroke-linecap="round"/>
<path d="M2 32.2438V37.939C2 39.5958 3.34315 40.939 5 40.939H10.6951" stroke="#525252" stroke-width="4" stroke-linecap="round"/>
<path d="M48.5 32.2438V37.939C48.5 39.5958 47.1569 40.939 45.5 40.939H39.8049" stroke="#525252" stroke-width="4" stroke-linecap="round"/>
</svg>
