<svg width="16" height="16" viewBox="0 0 16 16" fill="none" xmlns="http://www.w3.org/2000/svg">
<path fill-rule="evenodd" clip-rule="evenodd" d="M4.45885 14.2364C5.30633 14.3319 6.41286 14.3334 7.99984 14.3334C9.58681 14.3334 10.6933 14.3319 11.5408 14.2364C12.3682 14.1431 12.8239 13.9709 13.1595 13.7135C13.3675 13.5539 13.5536 13.3677 13.7132 13.1597C13.9707 12.8242 14.1429 12.3684 14.2361 11.5411C14.3317 10.6936 14.3332 9.58706 14.3332 8.00008C14.3332 6.41311 14.3317 5.30657 14.2361 4.45909C14.1429 3.63176 13.9707 3.17598 13.7132 2.84046C13.5536 2.63247 13.3675 2.44629 13.1595 2.28669C12.8239 2.02924 12.3682 1.85705 11.5408 1.76378C10.6933 1.66824 9.58681 1.66675 7.99984 1.66675C6.41286 1.66675 5.30633 1.66824 4.45885 1.76378C3.63152 1.85705 3.17574 2.02924 2.84022 2.28669C2.63222 2.44629 2.44605 2.63247 2.28644 2.84046C2.02899 3.17598 1.8568 3.63176 1.76353 4.45909C1.66799 5.30657 1.6665 6.41311 1.6665 8.00008C1.6665 9.58706 1.66799 10.6936 1.76353 11.5411C1.8568 12.3684 2.02899 12.8242 2.28644 13.1597C2.44605 13.3677 2.63222 13.5539 2.84022 13.7135C3.17574 13.9709 3.63152 14.1431 4.45885 14.2364ZM1.49309 2.2317C0.666504 3.30893 0.666504 4.87265 0.666504 8.00008C0.666504 11.1275 0.666504 12.6912 1.49309 13.7685C1.70589 14.0458 1.95413 14.294 2.23146 14.5068C3.30869 15.3334 4.8724 15.3334 7.99984 15.3334C11.1273 15.3334 12.691 15.3334 13.7682 14.5068C14.0455 14.294 14.2938 14.0458 14.5066 13.7685C15.3332 12.6912 15.3332 11.1275 15.3332 8.00008C15.3332 4.87265 15.3332 3.30893 14.5066 2.2317C14.2938 1.95437 14.0455 1.70614 13.7682 1.49333C12.691 0.666748 11.1273 0.666748 7.99984 0.666748C4.8724 0.666748 3.30869 0.666748 2.23146 1.49333C1.95413 1.70614 1.70589 1.95437 1.49309 2.2317Z" fill="#033348"/>
</svg>
