<svg width="14" height="14" viewBox="0 0 14 14" fill="none" xmlns="http://www.w3.org/2000/svg">
<path fill-rule="evenodd" clip-rule="evenodd" d="M0 3.83333C0 1.71624 1.71624 0 3.83333 0H8.83333C9.10948 0 9.33333 0.223858 9.33333 0.5C9.33333 0.776142 9.10948 1 8.83333 1H3.83333C2.26853 1 1 2.26853 1 3.83333V9.83333C1 11.3981 2.26853 12.6667 3.83333 12.6667H9.83333C11.3981 12.6667 12.6667 11.3981 12.6667 9.83333V5.5C12.6667 5.22386 12.8905 5 13.1667 5C13.4428 5 13.6667 5.22386 13.6667 5.5V9.83333C13.6667 11.9504 11.9504 13.6667 9.83333 13.6667H3.83333C1.71624 13.6667 0 11.9504 0 9.83333V3.83333Z" fill="#2E3038"/>
<path fill-rule="evenodd" clip-rule="evenodd" d="M13.168 0.795023C13.3732 0.979755 13.3898 1.2959 13.2051 1.50115L7.20498 8.16782C7.11321 8.26977 6.9836 8.32955 6.84647 8.33316C6.70935 8.33677 6.57677 8.28388 6.47978 8.18689L4.14645 5.85355C3.95118 5.65829 3.95118 5.34171 4.14645 5.14645C4.34171 4.95118 4.65829 4.95118 4.85355 5.14645L6.81424 7.10713L12.4618 0.83218C12.6466 0.626927 12.9627 0.610291 13.168 0.795023Z" fill="#2E3038"/>
</svg>
