<svg width="18" height="18" viewBox="0 0 18 18" fill="none" xmlns="http://www.w3.org/2000/svg">
    <path fill-rule="evenodd" clip-rule="evenodd" d="M2.58883 4.00824C4.07493 2.10229 6.39396 0.875 9 0.875C13.4873 0.875 17.125 4.51269 17.125 9C17.125 13.4873 13.4873 17.125 9 17.125C4.51269 17.125 0.875 13.4873 0.875 9C0.875 8.65482 1.15482 8.375 1.5 8.375C1.84518 8.375 2.125 8.65482 2.125 9C2.125 12.797 5.20304 15.875 9 15.875C12.797 15.875 15.875 12.797 15.875 9C15.875 5.20304 12.797 2.125 9 2.125C6.67722 2.125 4.62299 3.27651 3.37761 5.04234C3.65725 5.04142 4.02522 5.00479 4.56038 4.94989L6.26405 4.77514C6.60743 4.73992 6.91434 4.98973 6.94956 5.3331C6.98478 5.67648 6.73497 5.98339 6.3916 6.01861L4.68794 6.19336L4.64549 6.19772C4.08925 6.25481 3.60795 6.30422 3.21732 6.28967C2.79628 6.27399 2.38652 6.18277 2.0365 5.88093C1.69007 5.5822 1.53352 5.19013 1.44358 4.77442C1.35888 4.38295 1.31729 3.88658 1.26854 3.30479C1.26742 3.29134 1.26629 3.27785 1.26515 3.26431L1.12168 1.55284C1.09284 1.20887 1.34831 0.906654 1.69228 0.877818C2.03625 0.848982 2.33847 1.10445 2.36731 1.44842L2.51078 3.15989C2.51078 3.15989 2.51078 3.15989 2.51078 3.15989C2.53934 3.50048 2.56294 3.7777 2.58883 4.00824Z" fill="#2E3038"/>
    </svg>
    