<svg width="37" height="18" viewBox="0 0 37 18" fill="none" xmlns="http://www.w3.org/2000/svg">
<path d="M16.7364 8.19082C17.3994 8.57642 17.3993 9.53409 16.7363 9.91969L6.78847 15.7053C6.1218 16.0931 5.28572 15.6121 5.28572 14.8409L5.28572 3.26959C5.28572 2.49838 6.12181 2.01743 6.78847 2.40516L16.7364 8.19082Z" fill="#022737"/>
<path d="M26.0254 8.19082C26.6884 8.57642 26.6884 9.53409 26.0254 9.91969L16.0775 15.7053C15.4109 16.0931 14.5748 15.6121 14.5748 14.8409L14.5748 3.26959C14.5748 2.49838 15.4109 2.01743 16.0775 2.40516L26.0254 8.19082Z" fill="#022737"/>
<path d="M35.3106 8.19082C35.9736 8.57642 35.9736 9.53409 35.3106 9.91969L25.3627 15.7053C24.696 16.0931 23.8599 15.6121 23.8599 14.8409L23.8599 3.26959C23.8599 2.49838 24.696 2.01743 25.3627 2.40516L35.3106 8.19082Z" fill="#022737"/>
</svg>
