<svg width="10" height="17" viewBox="0 0 10 17" fill="none" xmlns="http://www.w3.org/2000/svg">
<path fill-rule="evenodd" clip-rule="evenodd" d="M1.38179 1.5981C1.64606 1.33384 2.07452 1.33384 2.33878 1.5981L8.71902 7.97831C8.84593 8.10522 8.91722 8.27734 8.91722 8.45681C8.91722 8.63628 8.84593 8.8084 8.71902 8.93531L2.33878 15.3155C2.07452 15.5798 1.64606 15.5798 1.38179 15.3155C1.11753 15.0513 1.11753 14.6228 1.38179 14.3586L7.28354 8.45681L1.38179 2.55509C1.11753 2.29083 1.11753 1.86237 1.38179 1.5981Z" fill="#033348"/>
<path fill-rule="evenodd" clip-rule="evenodd" d="M1.02824 1.24455C1.48776 0.785021 2.23281 0.78502 2.69234 1.24455L9.07258 7.62476C9.29325 7.84543 9.41722 8.14473 9.41722 8.45681C9.41722 8.76889 9.29325 9.06818 9.07258 9.28886L2.69234 15.6691C2.23281 16.1286 1.48777 16.1286 1.02824 15.6691C0.568712 15.2096 0.568712 14.4645 1.02824 14.005L6.57643 8.45681L1.02824 2.90865C0.568713 2.44912 0.568711 1.70408 1.02824 1.24455ZM1.98523 1.95165C1.91623 1.88265 1.80435 1.88265 1.73535 1.95166C1.66634 2.02066 1.66634 2.13254 1.73535 2.20154L7.63709 8.10326C7.73086 8.19702 7.78354 8.3242 7.78354 8.45681C7.78354 8.58942 7.73086 8.7166 7.63709 8.81036L1.73535 14.7121C1.66634 14.7811 1.66634 14.893 1.73535 14.962L1.38355 15.3138L1.73535 14.962C1.80435 15.031 1.91623 15.031 1.98523 14.962L8.36547 8.58175C8.39861 8.54862 8.41722 8.50367 8.41722 8.45681C8.41722 8.40995 8.39861 8.36501 8.36547 8.33187L1.98523 1.95165Z" fill="#033348"/>
</svg>
