<svg width="457" height="245" viewBox="0 0 457 245" fill="none" xmlns="http://www.w3.org/2000/svg">
<path d="M226.531 12.5054C229.255 16.3965 225.546 27.9974 221.862 27.4862C219.47 27.1544 218.428 22.1097 218.428 21.1758C218.428 20.0085 213.885 19.3149 202.211 19.1203C199.229 19.0706 197.398 18.7815 196.356 18.3708L194.235 29.4318C191.446 28.1996 185.363 25.6963 183.34 25.5406C180.81 25.3461 180.616 33.712 185.869 40.716C191.122 47.72 182.95 50.8329 178.281 47.3309C173.612 43.8289 174.889 31.6411 175.278 23.2752C175.667 14.9093 189.176 12.5054 190.733 12.5054C192.289 12.5054 192.417 5.85877 195.529 5.85877C198.642 5.85877 207.03 6.83155 210.921 5.85877C214.812 4.88599 219.332 -0.918963 220.5 2.97215C221.667 6.86327 223.807 8.61428 226.531 12.5054Z" fill="#4FA8CF"/>
<path d="M225.151 118.268C224.72 112.867 224.238 102.358 225.754 103.53C227.271 104.702 234.483 108.79 237.9 110.688" stroke="#454754" stroke-width="2.04594" stroke-linecap="round" stroke-linejoin="round"/>
<path d="M182.798 64.3392C183.146 67.6181 185.734 74.2206 193.305 74.3995C202.769 74.623 206.272 68.2143 206.272 66.2768C206.272 64.7268 206.272 63.7928 206.272 63.5195" stroke="#454754" stroke-width="2.04594" stroke-linecap="round" stroke-linejoin="round"/>
<path d="M217.876 19.043C217.876 19.2113 219.504 23.2621 220.026 27.3889M220.026 27.3889C221.302 37.4704 222.127 53.5922 221.187 55.2953C219.863 57.6956 196.936 59.5165 195.281 56.123C193.625 52.7295 192.053 34.9344 190.811 31.872C189.57 28.8096 180.548 26.6577 180.797 29.9684C180.995 32.6169 184.797 36.3691 186.673 37.9141C187.142 41.5283 187.799 48.7401 186.673 48.6739C185.266 48.5911 178.148 47.0185 178.148 40.2316C178.148 33.4446 175.334 16.8083 178.893 12.7527C182.452 8.69704 188.825 10.0213 190.066 7.37274C191.308 4.72416 192.384 1.0824 195.198 1.91008C198.012 2.73775 197.35 5.71735 199.999 3.81371C202.647 1.91008 203.889 0.585741 206.62 1.24791C209.351 1.91008 214.566 1.91008 215.642 1.91008C216.718 1.91008 221.022 6.87614 221.104 8.20043C221.187 9.52471 225.491 11.925 225.657 14.9874C225.789 17.4373 222.37 24.6507 220.026 27.3889Z" stroke="#454754" stroke-width="2.04594" stroke-linecap="round" stroke-linejoin="round"/>
<path d="M217.545 18.7118C212.717 19.5395 202.349 20.9465 199.502 19.9533C195.943 18.7118 193.626 16.3116 193.626 18.1325C193.626 19.9533 192.715 35.8448 196.936 37.6657C200.313 39.1224 212.8 37.8312 218.622 37.0035" stroke="#454754" stroke-width="2.04594" stroke-linecap="round" stroke-linejoin="round"/>
<path d="M207.263 42.583C210.569 42.3247 217.274 41.8185 217.646 41.8598C217.319 43.7195 215.859 47.5113 212.635 47.8006C209.412 48.0899 207.71 44.4428 207.263 42.583Z" stroke="#454754" stroke-width="2.04594" stroke-linecap="round" stroke-linejoin="round"/>
<path d="M204.865 59.0923C204.81 60.2067 204.962 62.7127 206.006 63.8217C207.311 65.2079 218.482 63.2509 221.988 65.7786C224.793 67.8008 234.464 75.482 238.949 79.0697M185.808 49.3291C185.629 53.8999 185.111 63.1975 184.468 63.8217C183.664 64.6019 169.329 62.9942 164.372 66.4775C159.415 69.9608 122.573 107.339 120.429 111.358C118.715 114.573 125.054 121.719 128.438 124.89" stroke="#454754" stroke-width="2.04594" stroke-linecap="round" stroke-linejoin="round"/>
<path d="M151.09 106.227C164.81 107.494 192.251 110.544 192.251 112.602C192.251 114.66 191.431 120.096 191.021 122.557" stroke="#454754" stroke-width="2.04594" stroke-linecap="round" stroke-linejoin="round"/>
<path d="M192.475 115.846C193.481 115.734 196.166 115.175 200.416 113.609C204.666 112.043 209.812 109.806 211.154 113.609C212.228 116.651 209.215 121.737 207.575 123.899" stroke="#454754" stroke-width="2.04594" stroke-linecap="round" stroke-linejoin="round"/>
<path d="M210.518 119.795C211.297 119.795 228.546 119.795 237.073 119.795" stroke="#454754" stroke-width="2.04594" stroke-linecap="round" stroke-linejoin="round"/>
<path d="M280.437 100.108C280.437 103.503 277.448 105.362 274.052 105.362C270.657 105.362 268.142 103.503 268.142 100.108C268.142 96.7125 271.616 93.083 275.012 93.083C278.407 93.083 280.437 96.7125 280.437 100.108Z" fill="#4FA8CF"/>
<path d="M237.316 125.154C236.95 124.18 239.752 69.1204 240.605 69.364C241.457 69.6076 316.373 68.3895 316.738 70.5821C317.03 72.3362 315.073 107.695 314.058 125.154" stroke="#454754" stroke-width="2.04594" stroke-linecap="round" stroke-linejoin="round"/>
<path d="M277.748 92.1836C279.035 92.1836 280.107 92.8584 280.896 93.9854C281.694 95.1268 282.15 96.6734 282.15 98.1846C282.15 99.5443 281.567 100.564 280.636 101.271C279.678 101.997 278.313 102.416 276.789 102.416C275.269 102.416 274.045 102 273.22 101.304C272.417 100.626 271.901 99.6078 271.901 98.1846C271.901 96.8203 272.613 95.3073 273.773 94.1123C274.935 92.9164 276.403 92.1836 277.748 92.1836Z" stroke="#454754" stroke-width="2.04594"/>
<path d="M153.032 125.666C156.755 125.666 182.506 124.517 198.329 125.666C214.152 126.814 206.706 126.814 225.321 126.814C243.936 126.814 300.402 125.666 306.297 125.666C312.191 125.666 324.448 125.666 336.858 125.666" stroke="#454754" stroke-width="2.04594" stroke-linecap="round" stroke-linejoin="round"/>
<path d="M315.907 125.832L320.013 156.924M304.216 125.832L308.367 156.924" stroke="#454754" stroke-width="2.04594" stroke-linecap="round" stroke-linejoin="round"/>
<path d="M173.299 125.832L169.193 156.924M184.99 125.832L180.84 156.924" stroke="#454754" stroke-width="2.04594" stroke-linecap="round" stroke-linejoin="round"/>
<path d="M33.2246 200.188C32.1832 200.188 31.2372 199.99 30.3866 199.594C29.5359 199.198 28.8172 198.67 28.2306 198.01C27.6439 197.335 27.2259 196.594 26.9766 195.788L28.5606 195.194C28.9419 196.308 29.5359 197.159 30.3426 197.746C31.1492 198.318 32.1099 198.604 33.2246 198.604C33.9286 198.604 34.5446 198.494 35.0726 198.274C35.6152 198.039 36.0332 197.716 36.3266 197.306C36.6199 196.895 36.7666 196.418 36.7666 195.876C36.7666 195.069 36.5466 194.446 36.1066 194.006C35.6666 193.566 35.0359 193.228 34.2146 192.994L31.2666 192.114C30.1079 191.776 29.2132 191.212 28.5826 190.42C27.9666 189.628 27.6586 188.726 27.6586 187.714C27.6586 186.848 27.8712 186.086 28.2966 185.426C28.7219 184.751 29.3012 184.223 30.0346 183.842C30.7826 183.46 31.6259 183.27 32.5646 183.27C33.5472 183.27 34.4272 183.453 35.2046 183.82C35.9966 184.172 36.6639 184.641 37.2066 185.228C37.7492 185.814 38.1379 186.467 38.3726 187.186L36.8326 187.802C36.4806 186.834 35.9306 186.1 35.1826 185.602C34.4492 185.103 33.5839 184.854 32.5866 184.854C31.9559 184.854 31.3986 184.964 30.9146 185.184C30.4452 185.404 30.0786 185.719 29.8146 186.13C29.5506 186.54 29.4186 187.024 29.4186 187.582C29.4186 188.256 29.6312 188.865 30.0566 189.408C30.4819 189.936 31.1346 190.332 32.0146 190.596L34.6106 191.366C35.9012 191.747 36.8766 192.297 37.5366 193.016C38.1966 193.734 38.5266 194.636 38.5266 195.722C38.5266 196.602 38.2992 197.379 37.8446 198.054C37.4046 198.714 36.7812 199.234 35.9746 199.616C35.1826 199.997 34.2659 200.188 33.2246 200.188ZM47.2712 200.188C46.1712 200.188 45.1739 199.924 44.2792 199.396C43.3992 198.853 42.7025 198.112 42.1892 197.174C41.6759 196.235 41.4192 195.172 41.4192 193.984C41.4192 192.796 41.6685 191.747 42.1672 190.838C42.6659 189.914 43.3405 189.188 44.1912 188.66C45.0565 188.132 46.0245 187.868 47.0952 187.868C47.9459 187.868 48.7012 188.029 49.3612 188.352C50.0359 188.66 50.6079 189.085 51.0772 189.628C51.5465 190.156 51.9059 190.757 52.1552 191.432C52.4045 192.092 52.5292 192.774 52.5292 193.478C52.5292 193.624 52.5219 193.793 52.5072 193.984C52.4925 194.16 52.4705 194.343 52.4412 194.534H42.4752V192.994H51.4952L50.7032 193.654C50.8352 192.847 50.7399 192.128 50.4172 191.498C50.1092 190.852 49.6619 190.346 49.0752 189.98C48.4885 189.598 47.8285 189.408 47.0952 189.408C46.3619 189.408 45.6799 189.598 45.0492 189.98C44.4332 190.361 43.9492 190.896 43.5972 191.586C43.2452 192.26 43.1059 193.067 43.1792 194.006C43.1059 194.944 43.2525 195.766 43.6192 196.47C44.0005 197.159 44.5139 197.694 45.1592 198.076C45.8192 198.457 46.5232 198.648 47.2712 198.648C48.1365 198.648 48.8625 198.442 49.4492 198.032C50.0359 197.621 50.5125 197.108 50.8792 196.492L52.2872 197.24C52.0525 197.768 51.6932 198.259 51.2092 198.714C50.7252 199.154 50.1459 199.513 49.4712 199.792C48.8112 200.056 48.0779 200.188 47.2712 200.188ZM55.6584 199.924V183.27H57.3084V199.924H55.6584ZM66.2737 200.188C65.1737 200.188 64.1764 199.924 63.2817 199.396C62.4017 198.853 61.705 198.112 61.1917 197.174C60.6784 196.235 60.4217 195.172 60.4217 193.984C60.4217 192.796 60.671 191.747 61.1697 190.838C61.6684 189.914 62.343 189.188 63.1937 188.66C64.059 188.132 65.027 187.868 66.0977 187.868C66.9484 187.868 67.7037 188.029 68.3637 188.352C69.0384 188.66 69.6104 189.085 70.0797 189.628C70.549 190.156 70.9084 190.757 71.1577 191.432C71.407 192.092 71.5317 192.774 71.5317 193.478C71.5317 193.624 71.5244 193.793 71.5097 193.984C71.495 194.16 71.473 194.343 71.4437 194.534H61.4777V192.994H70.4977L69.7057 193.654C69.8377 192.847 69.7424 192.128 69.4197 191.498C69.1117 190.852 68.6644 190.346 68.0777 189.98C67.491 189.598 66.831 189.408 66.0977 189.408C65.3644 189.408 64.6824 189.598 64.0517 189.98C63.4357 190.361 62.9517 190.896 62.5997 191.586C62.2477 192.26 62.1084 193.067 62.1817 194.006C62.1084 194.944 62.255 195.766 62.6217 196.47C63.003 197.159 63.5164 197.694 64.1617 198.076C64.8217 198.457 65.5257 198.648 66.2737 198.648C67.139 198.648 67.865 198.442 68.4517 198.032C69.0384 197.621 69.515 197.108 69.8817 196.492L71.2897 197.24C71.055 197.768 70.6957 198.259 70.2117 198.714C69.7277 199.154 69.1484 199.513 68.4737 199.792C67.8137 200.056 67.0804 200.188 66.2737 200.188ZM80.0509 200.188C78.8922 200.188 77.8729 199.916 76.9929 199.374C76.1129 198.831 75.4235 198.098 74.9249 197.174C74.4262 196.235 74.1769 195.179 74.1769 194.006C74.1769 192.832 74.4262 191.784 74.9249 190.86C75.4235 189.936 76.1129 189.21 76.9929 188.682C77.8729 188.139 78.8922 187.868 80.0509 187.868C80.7842 187.868 81.4735 188 82.1189 188.264C82.7642 188.528 83.3362 188.887 83.8349 189.342C84.3335 189.782 84.7075 190.295 84.9569 190.882L83.4609 191.652C83.1675 191.021 82.7202 190.508 82.1189 190.112C81.5175 189.716 80.8282 189.518 80.0509 189.518C79.2735 189.518 78.5695 189.716 77.9389 190.112C77.3229 190.493 76.8315 191.028 76.4649 191.718C76.1129 192.392 75.9369 193.162 75.9369 194.028C75.9369 194.878 76.1129 195.648 76.4649 196.338C76.8315 197.012 77.3229 197.548 77.9389 197.944C78.5695 198.34 79.2735 198.538 80.0509 198.538C80.8282 198.538 81.5102 198.34 82.0969 197.944C82.6982 197.548 83.1529 197.02 83.4609 196.36L84.9569 197.174C84.7075 197.746 84.3335 198.259 83.8349 198.714C83.3362 199.168 82.7642 199.528 82.1189 199.792C81.4735 200.056 80.7842 200.188 80.0509 200.188ZM92.5823 200.056C91.5263 200.056 90.7123 199.748 90.1403 199.132C89.5683 198.516 89.2823 197.636 89.2823 196.492V189.782H87.1043V188.132H87.6543C88.1529 188.132 88.5489 187.97 88.8423 187.648C89.1356 187.31 89.2823 186.892 89.2823 186.394V185.404H90.9323V188.132H93.5283V189.782H90.9323V196.492C90.9323 196.888 90.9909 197.24 91.1083 197.548C91.2256 197.841 91.4236 198.076 91.7023 198.252C91.9956 198.428 92.3843 198.516 92.8683 198.516C92.9856 198.516 93.1249 198.508 93.2863 198.494C93.4476 198.479 93.5869 198.464 93.7043 198.45V199.924C93.5283 199.968 93.3303 199.997 93.1103 200.012C92.8903 200.041 92.7143 200.056 92.5823 200.056ZM101.022 199.924V183.534H111.582V185.184H102.782V190.882H111.142V192.532H102.782V198.274H111.582V199.924H101.022ZM114.471 199.924V188.132H116.121V190.376L115.857 190.046C116.179 189.356 116.656 188.821 117.287 188.44C117.932 188.058 118.636 187.868 119.399 187.868C120.308 187.868 121.129 188.124 121.863 188.638C122.596 189.151 123.117 189.818 123.425 190.64L122.963 190.662C123.256 189.752 123.762 189.063 124.481 188.594C125.214 188.11 126.021 187.868 126.901 187.868C127.693 187.868 128.419 188.058 129.079 188.44C129.753 188.821 130.289 189.349 130.685 190.024C131.095 190.684 131.301 191.432 131.301 192.268V199.924H129.651V192.906C129.651 192.187 129.519 191.578 129.255 191.08C129.005 190.581 128.661 190.2 128.221 189.936C127.781 189.657 127.275 189.518 126.703 189.518C126.145 189.518 125.639 189.657 125.185 189.936C124.73 190.2 124.371 190.588 124.107 191.102C123.843 191.6 123.711 192.202 123.711 192.906V199.924H122.061V192.906C122.061 192.187 121.929 191.578 121.665 191.08C121.415 190.581 121.071 190.2 120.631 189.936C120.191 189.657 119.685 189.518 119.113 189.518C118.541 189.518 118.027 189.657 117.573 189.936C117.133 190.2 116.781 190.588 116.517 191.102C116.253 191.6 116.121 192.202 116.121 192.906V199.924H114.471ZM134.671 204.324V188.132H136.321V190.772L136.057 190.31C136.526 189.562 137.15 188.968 137.927 188.528C138.719 188.088 139.621 187.868 140.633 187.868C141.748 187.868 142.738 188.139 143.603 188.682C144.483 189.21 145.172 189.936 145.671 190.86C146.184 191.784 146.441 192.84 146.441 194.028C146.441 195.201 146.184 196.257 145.671 197.196C145.172 198.12 144.483 198.853 143.603 199.396C142.738 199.924 141.748 200.188 140.633 200.188C139.621 200.188 138.704 199.96 137.883 199.506C137.076 199.036 136.468 198.376 136.057 197.526L136.321 197.284V204.324H134.671ZM140.545 198.538C141.337 198.538 142.041 198.34 142.657 197.944C143.288 197.548 143.779 197.012 144.131 196.338C144.498 195.648 144.681 194.878 144.681 194.028C144.681 193.162 144.498 192.392 144.131 191.718C143.779 191.043 143.288 190.508 142.657 190.112C142.041 189.716 141.337 189.518 140.545 189.518C139.753 189.518 139.034 189.716 138.389 190.112C137.758 190.508 137.252 191.05 136.871 191.74C136.504 192.414 136.321 193.177 136.321 194.028C136.321 194.878 136.504 195.648 136.871 196.338C137.252 197.012 137.758 197.548 138.389 197.944C139.034 198.34 139.753 198.538 140.545 198.538ZM149.565 199.924V183.27H151.215V199.924H149.565ZM160.334 200.188C159.22 200.188 158.208 199.924 157.298 199.396C156.389 198.853 155.663 198.12 155.12 197.196C154.592 196.257 154.328 195.194 154.328 194.006C154.328 192.832 154.592 191.784 155.12 190.86C155.648 189.936 156.36 189.21 157.254 188.682C158.164 188.139 159.19 187.868 160.334 187.868C161.478 187.868 162.498 188.132 163.392 188.66C164.302 189.188 165.013 189.914 165.526 190.838C166.054 191.762 166.318 192.818 166.318 194.006C166.318 195.208 166.047 196.279 165.504 197.218C164.962 198.142 164.236 198.868 163.326 199.396C162.432 199.924 161.434 200.188 160.334 200.188ZM160.334 198.538C161.126 198.538 161.838 198.34 162.468 197.944C163.114 197.548 163.62 197.005 163.986 196.316C164.368 195.626 164.558 194.856 164.558 194.006C164.558 193.155 164.368 192.392 163.986 191.718C163.62 191.043 163.114 190.508 162.468 190.112C161.838 189.716 161.126 189.518 160.334 189.518C159.542 189.518 158.824 189.716 158.178 190.112C157.548 190.508 157.042 191.043 156.66 191.718C156.279 192.392 156.088 193.155 156.088 194.006C156.088 194.856 156.279 195.626 156.66 196.316C157.042 197.005 157.548 197.548 158.178 197.944C158.824 198.34 159.542 198.538 160.334 198.538ZM169.475 204.764C169.241 204.764 168.999 204.742 168.749 204.698C168.515 204.668 168.28 204.61 168.045 204.522V202.982C168.192 202.996 168.375 203.018 168.595 203.048C168.83 203.092 169.065 203.114 169.299 203.114C170.018 203.114 170.568 202.96 170.949 202.652C171.331 202.358 171.705 201.786 172.071 200.936L172.819 199.176L172.775 200.628L167.781 188.132H169.563L173.655 198.45H173.193L177.263 188.132H179.089L173.699 201.42C173.465 201.992 173.164 202.534 172.797 203.048C172.445 203.561 171.998 203.972 171.455 204.28C170.913 204.602 170.253 204.764 169.475 204.764ZM186.401 200.188C185.301 200.188 184.304 199.924 183.409 199.396C182.529 198.853 181.833 198.112 181.319 197.174C180.806 196.235 180.549 195.172 180.549 193.984C180.549 192.796 180.799 191.747 181.297 190.838C181.796 189.914 182.471 189.188 183.321 188.66C184.187 188.132 185.155 187.868 186.225 187.868C187.076 187.868 187.831 188.029 188.491 188.352C189.166 188.66 189.738 189.085 190.207 189.628C190.677 190.156 191.036 190.757 191.285 191.432C191.535 192.092 191.659 192.774 191.659 193.478C191.659 193.624 191.652 193.793 191.637 193.984C191.623 194.16 191.601 194.343 191.571 194.534H181.605V192.994H190.625L189.833 193.654C189.965 192.847 189.87 192.128 189.547 191.498C189.239 190.852 188.792 190.346 188.205 189.98C187.619 189.598 186.959 189.408 186.225 189.408C185.492 189.408 184.81 189.598 184.179 189.98C183.563 190.361 183.079 190.896 182.727 191.586C182.375 192.26 182.236 193.067 182.309 194.006C182.236 194.944 182.383 195.766 182.749 196.47C183.131 197.159 183.644 197.694 184.289 198.076C184.949 198.457 185.653 198.648 186.401 198.648C187.267 198.648 187.993 198.442 188.579 198.032C189.166 197.621 189.643 197.108 190.009 196.492L191.417 197.24C191.183 197.768 190.823 198.259 190.339 198.714C189.855 199.154 189.276 199.513 188.601 199.792C187.941 200.056 187.208 200.188 186.401 200.188ZM200.157 200.188C199.057 200.188 198.059 199.924 197.165 199.396C196.285 198.853 195.588 198.112 195.075 197.174C194.561 196.235 194.305 195.172 194.305 193.984C194.305 192.796 194.554 191.747 195.053 190.838C195.551 189.914 196.226 189.188 197.077 188.66C197.942 188.132 198.91 187.868 199.981 187.868C200.831 187.868 201.587 188.029 202.247 188.352C202.921 188.66 203.493 189.085 203.963 189.628C204.432 190.156 204.791 190.757 205.041 191.432C205.29 192.092 205.415 192.774 205.415 193.478C205.415 193.624 205.407 193.793 205.393 193.984C205.378 194.16 205.356 194.343 205.327 194.534H195.361V192.994H204.381L203.589 193.654C203.721 192.847 203.625 192.128 203.303 191.498C202.995 190.852 202.547 190.346 201.961 189.98C201.374 189.598 200.714 189.408 199.981 189.408C199.247 189.408 198.565 189.598 197.935 189.98C197.319 190.361 196.835 190.896 196.483 191.586C196.131 192.26 195.991 193.067 196.065 194.006C195.991 194.944 196.138 195.766 196.505 196.47C196.886 197.159 197.399 197.694 198.045 198.076C198.705 198.457 199.409 198.648 200.157 198.648C201.022 198.648 201.748 198.442 202.335 198.032C202.921 197.621 203.398 197.108 203.765 196.492L205.173 197.24C204.938 197.768 204.579 198.259 204.095 198.714C203.611 199.154 203.031 199.513 202.357 199.792C201.697 200.056 200.963 200.188 200.157 200.188ZM215.582 199.924V185.184H211.05V183.534H221.83V185.184H217.342V199.924H215.582ZM223.341 204.764C223.106 204.764 222.864 204.742 222.615 204.698C222.38 204.668 222.146 204.61 221.911 204.522V202.982C222.058 202.996 222.241 203.018 222.461 203.048C222.696 203.092 222.93 203.114 223.165 203.114C223.884 203.114 224.434 202.96 224.815 202.652C225.196 202.358 225.57 201.786 225.937 200.936L226.685 199.176L226.641 200.628L221.647 188.132H223.429L227.521 198.45H227.059L231.129 188.132H232.955L227.565 201.42C227.33 201.992 227.03 202.534 226.663 203.048C226.311 203.561 225.864 203.972 225.321 204.28C224.778 204.602 224.118 204.764 223.341 204.764ZM235.114 204.324V188.132H236.764V190.772L236.5 190.31C236.969 189.562 237.593 188.968 238.37 188.528C239.162 188.088 240.064 187.868 241.076 187.868C242.191 187.868 243.181 188.139 244.046 188.682C244.926 189.21 245.615 189.936 246.114 190.86C246.627 191.784 246.884 192.84 246.884 194.028C246.884 195.201 246.627 196.257 246.114 197.196C245.615 198.12 244.926 198.853 244.046 199.396C243.181 199.924 242.191 200.188 241.076 200.188C240.064 200.188 239.147 199.96 238.326 199.506C237.519 199.036 236.911 198.376 236.5 197.526L236.764 197.284V204.324H235.114ZM240.988 198.538C241.78 198.538 242.484 198.34 243.1 197.944C243.731 197.548 244.222 197.012 244.574 196.338C244.941 195.648 245.124 194.878 245.124 194.028C245.124 193.162 244.941 192.392 244.574 191.718C244.222 191.043 243.731 190.508 243.1 190.112C242.484 189.716 241.78 189.518 240.988 189.518C240.196 189.518 239.477 189.716 238.832 190.112C238.201 190.508 237.695 191.05 237.314 191.74C236.947 192.414 236.764 193.177 236.764 194.028C236.764 194.878 236.947 195.648 237.314 196.338C237.695 197.012 238.201 197.548 238.832 197.944C239.477 198.34 240.196 198.538 240.988 198.538ZM255.376 200.188C254.276 200.188 253.278 199.924 252.384 199.396C251.504 198.853 250.807 198.112 250.294 197.174C249.78 196.235 249.524 195.172 249.524 193.984C249.524 192.796 249.773 191.747 250.272 190.838C250.77 189.914 251.445 189.188 252.296 188.66C253.161 188.132 254.129 187.868 255.2 187.868C256.05 187.868 256.806 188.029 257.466 188.352C258.14 188.66 258.712 189.085 259.182 189.628C259.651 190.156 260.01 190.757 260.26 191.432C260.509 192.092 260.634 192.774 260.634 193.478C260.634 193.624 260.626 193.793 260.612 193.984C260.597 194.16 260.575 194.343 260.546 194.534H250.58V192.994H259.6L258.808 193.654C258.94 192.847 258.844 192.128 258.522 191.498C258.214 190.852 257.766 190.346 257.18 189.98C256.593 189.598 255.933 189.408 255.2 189.408C254.466 189.408 253.784 189.598 253.154 189.98C252.538 190.361 252.054 190.896 251.702 191.586C251.35 192.26 251.21 193.067 251.284 194.006C251.21 194.944 251.357 195.766 251.724 196.47C252.105 197.159 252.618 197.694 253.264 198.076C253.924 198.457 254.628 198.648 255.376 198.648C256.241 198.648 256.967 198.442 257.554 198.032C258.14 197.621 258.617 197.108 258.984 196.492L260.392 197.24C260.157 197.768 259.798 198.259 259.314 198.714C258.83 199.154 258.25 199.513 257.576 199.792C256.916 200.056 256.182 200.188 255.376 200.188ZM271.131 200.188C270.383 200.188 269.716 200.048 269.129 199.77C268.542 199.476 268.08 199.08 267.743 198.582C267.406 198.083 267.237 197.511 267.237 196.866C267.237 196.25 267.369 195.692 267.633 195.194C267.897 194.68 268.308 194.248 268.865 193.896C269.422 193.544 270.134 193.294 270.999 193.148L275.619 192.378V193.874L271.395 194.578C270.544 194.724 269.928 194.996 269.547 195.392C269.18 195.788 268.997 196.257 268.997 196.8C268.997 197.328 269.202 197.775 269.613 198.142C270.038 198.508 270.581 198.692 271.241 198.692C272.048 198.692 272.752 198.523 273.353 198.186C273.954 197.834 274.424 197.364 274.761 196.778C275.098 196.191 275.267 195.538 275.267 194.82V191.828C275.267 191.124 275.01 190.552 274.497 190.112C273.984 189.672 273.316 189.452 272.495 189.452C271.776 189.452 271.146 189.635 270.603 190.002C270.06 190.354 269.657 190.816 269.393 191.388L267.897 190.574C268.117 190.075 268.462 189.62 268.931 189.21C269.415 188.799 269.965 188.476 270.581 188.242C271.197 187.992 271.835 187.868 272.495 187.868C273.36 187.868 274.123 188.036 274.783 188.374C275.458 188.711 275.978 189.18 276.345 189.782C276.726 190.368 276.917 191.05 276.917 191.828V199.924H275.267V197.57L275.509 197.812C275.304 198.252 274.981 198.655 274.541 199.022C274.116 199.374 273.61 199.66 273.023 199.88C272.451 200.085 271.82 200.188 271.131 200.188ZM280.531 199.924V188.132H282.181V190.42L281.807 190.332C282.1 189.569 282.577 188.968 283.237 188.528C283.912 188.088 284.689 187.868 285.569 187.868C286.405 187.868 287.153 188.058 287.813 188.44C288.488 188.821 289.016 189.349 289.397 190.024C289.793 190.684 289.991 191.432 289.991 192.268V199.924H288.341V192.906C288.341 192.187 288.209 191.578 287.945 191.08C287.696 190.581 287.336 190.2 286.867 189.936C286.412 189.657 285.884 189.518 285.283 189.518C284.682 189.518 284.146 189.657 283.677 189.936C283.208 190.2 282.841 190.588 282.577 191.102C282.313 191.6 282.181 192.202 282.181 192.906V199.924H280.531ZM298.686 200.188C297.586 200.188 296.596 199.924 295.716 199.396C294.836 198.853 294.14 198.12 293.626 197.196C293.128 196.257 292.878 195.201 292.878 194.028C292.878 192.84 293.128 191.784 293.626 190.86C294.14 189.936 294.829 189.21 295.694 188.682C296.574 188.139 297.572 187.868 298.686 187.868C299.698 187.868 300.6 188.088 301.392 188.528C302.184 188.968 302.808 189.562 303.262 190.31L302.998 190.772V183.27H304.648V199.924H302.998V197.284L303.262 197.526C302.852 198.376 302.236 199.036 301.414 199.506C300.608 199.96 299.698 200.188 298.686 200.188ZM298.774 198.538C299.566 198.538 300.278 198.34 300.908 197.944C301.554 197.548 302.06 197.012 302.426 196.338C302.808 195.648 302.998 194.878 302.998 194.028C302.998 193.177 302.808 192.414 302.426 191.74C302.06 191.05 301.554 190.508 300.908 190.112C300.278 189.716 299.566 189.518 298.774 189.518C297.997 189.518 297.293 189.716 296.662 190.112C296.032 190.508 295.533 191.043 295.166 191.718C294.814 192.392 294.638 193.162 294.638 194.028C294.638 194.878 294.814 195.648 295.166 196.338C295.533 197.012 296.024 197.548 296.64 197.944C297.271 198.34 297.982 198.538 298.774 198.538ZM312.456 199.924V183.534H314.216V198.274H321.476V199.924H312.456ZM329.644 200.188C328.529 200.188 327.517 199.924 326.608 199.396C325.699 198.853 324.973 198.12 324.43 197.196C323.902 196.257 323.638 195.194 323.638 194.006C323.638 192.832 323.902 191.784 324.43 190.86C324.958 189.936 325.669 189.21 326.564 188.682C327.473 188.139 328.5 187.868 329.644 187.868C330.788 187.868 331.807 188.132 332.702 188.66C333.611 189.188 334.323 189.914 334.836 190.838C335.364 191.762 335.628 192.818 335.628 194.006C335.628 195.208 335.357 196.279 334.814 197.218C334.271 198.142 333.545 198.868 332.636 199.396C331.741 199.924 330.744 200.188 329.644 200.188ZM329.644 198.538C330.436 198.538 331.147 198.34 331.778 197.944C332.423 197.548 332.929 197.005 333.296 196.316C333.677 195.626 333.868 194.856 333.868 194.006C333.868 193.155 333.677 192.392 333.296 191.718C332.929 191.043 332.423 190.508 331.778 190.112C331.147 189.716 330.436 189.518 329.644 189.518C328.852 189.518 328.133 189.716 327.488 190.112C326.857 190.508 326.351 191.043 325.97 191.718C325.589 192.392 325.398 193.155 325.398 194.006C325.398 194.856 325.589 195.626 325.97 196.316C326.351 197.005 326.857 197.548 327.488 197.944C328.133 198.34 328.852 198.538 329.644 198.538ZM344.148 200.188C342.989 200.188 341.97 199.916 341.09 199.374C340.21 198.831 339.521 198.098 339.022 197.174C338.523 196.235 338.274 195.179 338.274 194.006C338.274 192.832 338.523 191.784 339.022 190.86C339.521 189.936 340.21 189.21 341.09 188.682C341.97 188.139 342.989 187.868 344.148 187.868C344.881 187.868 345.571 188 346.216 188.264C346.861 188.528 347.433 188.887 347.932 189.342C348.431 189.782 348.805 190.295 349.054 190.882L347.558 191.652C347.265 191.021 346.817 190.508 346.216 190.112C345.615 189.716 344.925 189.518 344.148 189.518C343.371 189.518 342.667 189.716 342.036 190.112C341.42 190.493 340.929 191.028 340.562 191.718C340.21 192.392 340.034 193.162 340.034 194.028C340.034 194.878 340.21 195.648 340.562 196.338C340.929 197.012 341.42 197.548 342.036 197.944C342.667 198.34 343.371 198.538 344.148 198.538C344.925 198.538 345.607 198.34 346.194 197.944C346.795 197.548 347.25 197.02 347.558 196.36L349.054 197.174C348.805 197.746 348.431 198.259 347.932 198.714C347.433 199.168 346.861 199.528 346.216 199.792C345.571 200.056 344.881 200.188 344.148 200.188ZM355.365 200.188C354.617 200.188 353.949 200.048 353.363 199.77C352.776 199.476 352.314 199.08 351.977 198.582C351.639 198.083 351.471 197.511 351.471 196.866C351.471 196.25 351.603 195.692 351.867 195.194C352.131 194.68 352.541 194.248 353.099 193.896C353.656 193.544 354.367 193.294 355.233 193.148L359.853 192.378V193.874L355.629 194.578C354.778 194.724 354.162 194.996 353.781 195.392C353.414 195.788 353.231 196.257 353.231 196.8C353.231 197.328 353.436 197.775 353.847 198.142C354.272 198.508 354.815 198.692 355.475 198.692C356.281 198.692 356.985 198.523 357.587 198.186C358.188 197.834 358.657 197.364 358.995 196.778C359.332 196.191 359.501 195.538 359.501 194.82V191.828C359.501 191.124 359.244 190.552 358.731 190.112C358.217 189.672 357.55 189.452 356.729 189.452C356.01 189.452 355.379 189.635 354.837 190.002C354.294 190.354 353.891 190.816 353.627 191.388L352.131 190.574C352.351 190.075 352.695 189.62 353.165 189.21C353.649 188.799 354.199 188.476 354.815 188.242C355.431 187.992 356.069 187.868 356.729 187.868C357.594 187.868 358.357 188.036 359.017 188.374C359.691 188.711 360.212 189.18 360.579 189.782C360.96 190.368 361.151 191.05 361.151 191.828V199.924H359.501V197.57L359.743 197.812C359.537 198.252 359.215 198.655 358.775 199.022C358.349 199.374 357.843 199.66 357.257 199.88C356.685 200.085 356.054 200.188 355.365 200.188ZM369.06 200.056C368.004 200.056 367.19 199.748 366.618 199.132C366.046 198.516 365.76 197.636 365.76 196.492V189.782H363.582V188.132H364.132C364.63 188.132 365.026 187.97 365.32 187.648C365.613 187.31 365.76 186.892 365.76 186.394V185.404H367.41V188.132H370.006V189.782H367.41V196.492C367.41 196.888 367.468 197.24 367.586 197.548C367.703 197.841 367.901 198.076 368.18 198.252C368.473 198.428 368.862 198.516 369.346 198.516C369.463 198.516 369.602 198.508 369.764 198.494C369.925 198.479 370.064 198.464 370.182 198.45V199.924C370.006 199.968 369.808 199.997 369.588 200.012C369.368 200.041 369.192 200.056 369.06 200.056ZM373.299 199.924V188.132H374.949V199.924H373.299ZM373.299 185.954V183.534H374.949V185.954H373.299ZM384.068 200.188C382.954 200.188 381.942 199.924 381.032 199.396C380.123 198.853 379.397 198.12 378.854 197.196C378.326 196.257 378.062 195.194 378.062 194.006C378.062 192.832 378.326 191.784 378.854 190.86C379.382 189.936 380.094 189.21 380.988 188.682C381.898 188.139 382.924 187.868 384.068 187.868C385.212 187.868 386.232 188.132 387.126 188.66C388.036 189.188 388.747 189.914 389.26 190.838C389.788 191.762 390.052 192.818 390.052 194.006C390.052 195.208 389.781 196.279 389.238 197.218C388.696 198.142 387.97 198.868 387.06 199.396C386.166 199.924 385.168 200.188 384.068 200.188ZM384.068 198.538C384.86 198.538 385.572 198.34 386.202 197.944C386.848 197.548 387.354 197.005 387.72 196.316C388.102 195.626 388.292 194.856 388.292 194.006C388.292 193.155 388.102 192.392 387.72 191.718C387.354 191.043 386.848 190.508 386.202 190.112C385.572 189.716 384.86 189.518 384.068 189.518C383.276 189.518 382.558 189.716 381.912 190.112C381.282 190.508 380.776 191.043 380.394 191.718C380.013 192.392 379.822 193.155 379.822 194.006C379.822 194.856 380.013 195.626 380.394 196.316C380.776 197.005 381.282 197.548 381.912 197.944C382.558 198.34 383.276 198.538 384.068 198.538ZM393.182 199.924V188.132H394.832V190.42L394.458 190.332C394.752 189.569 395.228 188.968 395.888 188.528C396.563 188.088 397.34 187.868 398.22 187.868C399.056 187.868 399.804 188.058 400.464 188.44C401.139 188.821 401.667 189.349 402.048 190.024C402.444 190.684 402.642 191.432 402.642 192.268V199.924H400.992V192.906C400.992 192.187 400.86 191.578 400.596 191.08C400.347 190.581 399.988 190.2 399.518 189.936C399.064 189.657 398.536 189.518 397.934 189.518C397.333 189.518 396.798 189.657 396.328 189.936C395.859 190.2 395.492 190.588 395.228 191.102C394.964 191.6 394.832 192.202 394.832 192.906V199.924H393.182ZM414.482 200.056C413.426 200.056 412.612 199.748 412.04 199.132C411.468 198.516 411.182 197.636 411.182 196.492V189.782H409.004V188.132H409.554C410.052 188.132 410.448 187.97 410.742 187.648C411.035 187.31 411.182 186.892 411.182 186.394V185.404H412.832V188.132H415.428V189.782H412.832V196.492C412.832 196.888 412.89 197.24 413.008 197.548C413.125 197.841 413.323 198.076 413.602 198.252C413.895 198.428 414.284 198.516 414.768 198.516C414.885 198.516 415.024 198.508 415.186 198.494C415.347 198.479 415.486 198.464 415.604 198.45V199.924C415.428 199.968 415.23 199.997 415.01 200.012C414.79 200.041 414.614 200.056 414.482 200.056ZM423.813 200.188C422.699 200.188 421.687 199.924 420.777 199.396C419.868 198.853 419.142 198.12 418.599 197.196C418.071 196.257 417.807 195.194 417.807 194.006C417.807 192.832 418.071 191.784 418.599 190.86C419.127 189.936 419.839 189.21 420.733 188.682C421.643 188.139 422.669 187.868 423.813 187.868C424.957 187.868 425.977 188.132 426.871 188.66C427.781 189.188 428.492 189.914 429.005 190.838C429.533 191.762 429.797 192.818 429.797 194.006C429.797 195.208 429.526 196.279 428.983 197.218C428.441 198.142 427.715 198.868 426.805 199.396C425.911 199.924 424.913 200.188 423.813 200.188ZM423.813 198.538C424.605 198.538 425.317 198.34 425.947 197.944C426.593 197.548 427.099 197.005 427.465 196.316C427.847 195.626 428.037 194.856 428.037 194.006C428.037 193.155 427.847 192.392 427.465 191.718C427.099 191.043 426.593 190.508 425.947 190.112C425.317 189.716 424.605 189.518 423.813 189.518C423.021 189.518 422.303 189.716 421.657 190.112C421.027 190.508 420.521 191.043 420.139 191.718C419.758 192.392 419.567 193.155 419.567 194.006C419.567 194.856 419.758 195.626 420.139 196.316C420.521 197.005 421.027 197.548 421.657 197.944C422.303 198.34 423.021 198.538 423.813 198.538ZM98.9594 236.188C97.9474 236.188 97.0307 235.96 96.2094 235.506C95.4027 235.036 94.794 234.376 94.3834 233.526L94.6474 233.284V235.924H92.9974V219.27H94.6474V226.772L94.3834 226.31C94.8527 225.562 95.476 224.968 96.2534 224.528C97.0454 224.088 97.9474 223.868 98.9594 223.868C100.074 223.868 101.064 224.139 101.929 224.682C102.809 225.21 103.499 225.936 103.997 226.86C104.511 227.784 104.767 228.84 104.767 230.028C104.767 231.201 104.511 232.257 103.997 233.196C103.499 234.12 102.809 234.853 101.929 235.396C101.064 235.924 100.074 236.188 98.9594 236.188ZM98.8714 234.538C99.6634 234.538 100.367 234.34 100.983 233.944C101.614 233.548 102.105 233.012 102.457 232.338C102.824 231.648 103.007 230.878 103.007 230.028C103.007 229.162 102.824 228.392 102.457 227.718C102.105 227.043 101.614 226.508 100.983 226.112C100.367 225.716 99.6634 225.518 98.8714 225.518C98.0794 225.518 97.3607 225.716 96.7154 226.112C96.0847 226.508 95.5787 227.05 95.1974 227.74C94.8307 228.414 94.6474 229.177 94.6474 230.028C94.6474 230.878 94.8307 231.648 95.1974 232.338C95.5787 233.012 96.0847 233.548 96.7154 233.944C97.3607 234.34 98.0794 234.538 98.8714 234.538ZM113.259 236.188C112.159 236.188 111.162 235.924 110.267 235.396C109.387 234.853 108.691 234.112 108.177 233.174C107.664 232.235 107.407 231.172 107.407 229.984C107.407 228.796 107.657 227.747 108.155 226.838C108.654 225.914 109.329 225.188 110.179 224.66C111.045 224.132 112.013 223.868 113.083 223.868C113.934 223.868 114.689 224.029 115.349 224.352C116.024 224.66 116.596 225.085 117.065 225.628C117.535 226.156 117.894 226.757 118.143 227.432C118.393 228.092 118.517 228.774 118.517 229.478C118.517 229.624 118.51 229.793 118.495 229.984C118.481 230.16 118.459 230.343 118.429 230.534H108.463V228.994H117.483L116.691 229.654C116.823 228.847 116.728 228.128 116.405 227.498C116.097 226.852 115.65 226.346 115.063 225.98C114.477 225.598 113.817 225.408 113.083 225.408C112.35 225.408 111.668 225.598 111.037 225.98C110.421 226.361 109.937 226.896 109.585 227.586C109.233 228.26 109.094 229.067 109.167 230.006C109.094 230.944 109.241 231.766 109.607 232.47C109.989 233.159 110.502 233.694 111.147 234.076C111.807 234.457 112.511 234.648 113.259 234.648C114.125 234.648 114.851 234.442 115.437 234.032C116.024 233.621 116.501 233.108 116.867 232.492L118.275 233.24C118.041 233.768 117.681 234.259 117.197 234.714C116.713 235.154 116.134 235.513 115.459 235.792C114.799 236.056 114.066 236.188 113.259 236.188ZM127.234 240.764C126.428 240.764 125.68 240.639 124.99 240.39C124.316 240.14 123.729 239.796 123.23 239.356C122.746 238.93 122.372 238.432 122.108 237.86L123.626 237.046C123.861 237.603 124.279 238.087 124.88 238.498C125.482 238.908 126.252 239.114 127.19 239.114C127.909 239.114 128.569 238.974 129.17 238.696C129.772 238.417 130.256 238.006 130.622 237.464C130.989 236.921 131.172 236.254 131.172 235.462V232.844L131.436 233.086C131.026 233.936 130.417 234.596 129.61 235.066C128.804 235.52 127.924 235.748 126.97 235.748C125.87 235.748 124.88 235.484 124 234.956C123.12 234.428 122.424 233.716 121.91 232.822C121.412 231.912 121.162 230.908 121.162 229.808C121.162 228.693 121.412 227.688 121.91 226.794C122.424 225.899 123.113 225.188 123.978 224.66C124.858 224.132 125.856 223.868 126.97 223.868C127.924 223.868 128.789 224.088 129.566 224.528C130.358 224.968 130.982 225.562 131.436 226.31L131.172 226.772V224.132H132.822V235.462C132.822 236.474 132.58 237.376 132.096 238.168C131.627 238.974 130.967 239.605 130.116 240.06C129.28 240.529 128.32 240.764 127.234 240.764ZM127.058 234.098C127.821 234.098 128.51 233.907 129.126 233.526C129.742 233.13 130.234 232.609 130.6 231.964C130.982 231.304 131.172 230.585 131.172 229.808C131.172 229.03 130.982 228.319 130.6 227.674C130.234 227.014 129.742 226.493 129.126 226.112C128.51 225.716 127.821 225.518 127.058 225.518C126.281 225.518 125.577 225.716 124.946 226.112C124.316 226.493 123.817 227.006 123.45 227.652C123.098 228.297 122.922 229.016 122.922 229.808C122.922 230.585 123.098 231.304 123.45 231.964C123.817 232.609 124.308 233.13 124.924 233.526C125.555 233.907 126.266 234.098 127.058 234.098ZM136.433 235.924V224.132H138.083V235.924H136.433ZM136.433 221.954V219.534H138.083V221.954H136.433ZM141.68 235.924V224.132H143.33V226.42L142.956 226.332C143.249 225.569 143.726 224.968 144.386 224.528C145.061 224.088 145.838 223.868 146.718 223.868C147.554 223.868 148.302 224.058 148.962 224.44C149.637 224.821 150.165 225.349 150.546 226.024C150.942 226.684 151.14 227.432 151.14 228.268V235.924H149.49V228.906C149.49 228.187 149.358 227.578 149.094 227.08C148.845 226.581 148.485 226.2 148.016 225.936C147.561 225.657 147.033 225.518 146.432 225.518C145.831 225.518 145.295 225.657 144.826 225.936C144.357 226.2 143.99 226.588 143.726 227.102C143.462 227.6 143.33 228.202 143.33 228.906V235.924H141.68ZM162.562 236.188C161.432 236.188 160.442 235.902 159.592 235.33C158.741 234.758 158.125 233.98 157.744 232.998L159.13 232.338C159.467 233.056 159.936 233.628 160.538 234.054C161.154 234.479 161.828 234.692 162.562 234.692C163.266 234.692 163.86 234.523 164.344 234.186C164.828 233.834 165.07 233.379 165.07 232.822C165.07 232.411 164.952 232.088 164.718 231.854C164.483 231.604 164.212 231.414 163.904 231.282C163.596 231.15 163.324 231.054 163.09 230.996L161.396 230.512C160.31 230.204 159.526 229.771 159.042 229.214C158.558 228.656 158.316 228.011 158.316 227.278C158.316 226.588 158.492 225.987 158.844 225.474C159.196 224.96 159.672 224.564 160.274 224.286C160.875 224.007 161.542 223.868 162.276 223.868C163.273 223.868 164.175 224.132 164.982 224.66C165.803 225.173 166.382 225.892 166.72 226.816L165.312 227.476C165.018 226.816 164.593 226.302 164.036 225.936C163.493 225.554 162.884 225.364 162.21 225.364C161.55 225.364 161.022 225.532 160.626 225.87C160.23 226.207 160.032 226.632 160.032 227.146C160.032 227.542 160.134 227.857 160.34 228.092C160.545 228.326 160.78 228.502 161.044 228.62C161.322 228.737 161.564 228.825 161.77 228.884L163.728 229.456C164.681 229.734 165.422 230.167 165.95 230.754C166.492 231.34 166.764 232.03 166.764 232.822C166.764 233.467 166.58 234.046 166.214 234.56C165.862 235.073 165.37 235.476 164.74 235.77C164.109 236.048 163.383 236.188 162.562 236.188ZM173.293 236.188C172.545 236.188 171.878 236.048 171.291 235.77C170.704 235.476 170.242 235.08 169.905 234.582C169.568 234.083 169.399 233.511 169.399 232.866C169.399 232.25 169.531 231.692 169.795 231.194C170.059 230.68 170.47 230.248 171.027 229.896C171.584 229.544 172.296 229.294 173.161 229.148L177.781 228.378V229.874L173.557 230.578C172.706 230.724 172.09 230.996 171.709 231.392C171.342 231.788 171.159 232.257 171.159 232.8C171.159 233.328 171.364 233.775 171.775 234.142C172.2 234.508 172.743 234.692 173.403 234.692C174.21 234.692 174.914 234.523 175.515 234.186C176.116 233.834 176.586 233.364 176.923 232.778C177.26 232.191 177.429 231.538 177.429 230.82V227.828C177.429 227.124 177.172 226.552 176.659 226.112C176.146 225.672 175.478 225.452 174.657 225.452C173.938 225.452 173.308 225.635 172.765 226.002C172.222 226.354 171.819 226.816 171.555 227.388L170.059 226.574C170.279 226.075 170.624 225.62 171.093 225.21C171.577 224.799 172.127 224.476 172.743 224.242C173.359 223.992 173.997 223.868 174.657 223.868C175.522 223.868 176.285 224.036 176.945 224.374C177.62 224.711 178.14 225.18 178.507 225.782C178.888 226.368 179.079 227.05 179.079 227.828V235.924H177.429V233.57L177.671 233.812C177.466 234.252 177.143 234.655 176.703 235.022C176.278 235.374 175.772 235.66 175.185 235.88C174.613 236.085 173.982 236.188 173.293 236.188ZM182.693 235.924V219.27H184.343V235.924H182.693ZM191.35 236.188C190.602 236.188 189.935 236.048 189.348 235.77C188.762 235.476 188.3 235.08 187.962 234.582C187.625 234.083 187.456 233.511 187.456 232.866C187.456 232.25 187.588 231.692 187.852 231.194C188.116 230.68 188.527 230.248 189.084 229.896C189.642 229.544 190.353 229.294 191.218 229.148L195.838 228.378V229.874L191.614 230.578C190.764 230.724 190.148 230.996 189.766 231.392C189.4 231.788 189.216 232.257 189.216 232.8C189.216 233.328 189.422 233.775 189.832 234.142C190.258 234.508 190.8 234.692 191.46 234.692C192.267 234.692 192.971 234.523 193.572 234.186C194.174 233.834 194.643 233.364 194.98 232.778C195.318 232.191 195.486 231.538 195.486 230.82V227.828C195.486 227.124 195.23 226.552 194.716 226.112C194.203 225.672 193.536 225.452 192.714 225.452C191.996 225.452 191.365 225.635 190.822 226.002C190.28 226.354 189.876 226.816 189.612 227.388L188.116 226.574C188.336 226.075 188.681 225.62 189.15 225.21C189.634 224.799 190.184 224.476 190.8 224.242C191.416 223.992 192.054 223.868 192.714 223.868C193.58 223.868 194.342 224.036 195.002 224.374C195.677 224.711 196.198 225.18 196.564 225.782C196.946 226.368 197.136 227.05 197.136 227.828V235.924H195.486V233.57L195.728 233.812C195.523 234.252 195.2 234.655 194.76 235.022C194.335 235.374 193.829 235.66 193.242 235.88C192.67 236.085 192.04 236.188 191.35 236.188ZM200.75 235.924V224.132H202.4V226.068L202.18 225.782C202.459 225.224 202.877 224.784 203.434 224.462C204.006 224.139 204.695 223.978 205.502 223.978H206.25V225.628H205.216C204.365 225.628 203.683 225.892 203.17 226.42C202.657 226.948 202.4 227.696 202.4 228.664V235.924H200.75ZM208.646 240.764C208.411 240.764 208.169 240.742 207.92 240.698C207.685 240.668 207.45 240.61 207.216 240.522V238.982C207.362 238.996 207.546 239.018 207.766 239.048C208 239.092 208.235 239.114 208.47 239.114C209.188 239.114 209.738 238.96 210.12 238.652C210.501 238.358 210.875 237.786 211.242 236.936L211.99 235.176L211.946 236.628L206.952 224.132H208.734L212.826 234.45H212.364L216.434 224.132H218.26L212.87 237.42C212.635 237.992 212.334 238.534 211.968 239.048C211.616 239.561 211.168 239.972 210.626 240.28C210.083 240.602 209.423 240.764 208.646 240.764ZM229.767 236.188C228.608 236.188 227.589 235.916 226.709 235.374C225.829 234.831 225.14 234.098 224.641 233.174C224.142 232.235 223.893 231.179 223.893 230.006C223.893 228.832 224.142 227.784 224.641 226.86C225.14 225.936 225.829 225.21 226.709 224.682C227.589 224.139 228.608 223.868 229.767 223.868C230.5 223.868 231.19 224 231.835 224.264C232.48 224.528 233.052 224.887 233.551 225.342C234.05 225.782 234.424 226.295 234.673 226.882L233.177 227.652C232.884 227.021 232.436 226.508 231.835 226.112C231.234 225.716 230.544 225.518 229.767 225.518C228.99 225.518 228.286 225.716 227.655 226.112C227.039 226.493 226.548 227.028 226.181 227.718C225.829 228.392 225.653 229.162 225.653 230.028C225.653 230.878 225.829 231.648 226.181 232.338C226.548 233.012 227.039 233.548 227.655 233.944C228.286 234.34 228.99 234.538 229.767 234.538C230.544 234.538 231.226 234.34 231.813 233.944C232.414 233.548 232.869 233.02 233.177 232.36L234.673 233.174C234.424 233.746 234.05 234.259 233.551 234.714C233.052 235.168 232.48 235.528 231.835 235.792C231.19 236.056 230.5 236.188 229.767 236.188ZM243.31 236.188C242.196 236.188 241.184 235.924 240.274 235.396C239.365 234.853 238.639 234.12 238.096 233.196C237.568 232.257 237.304 231.194 237.304 230.006C237.304 228.832 237.568 227.784 238.096 226.86C238.624 225.936 239.336 225.21 240.23 224.682C241.14 224.139 242.166 223.868 243.31 223.868C244.454 223.868 245.474 224.132 246.368 224.66C247.278 225.188 247.989 225.914 248.502 226.838C249.03 227.762 249.294 228.818 249.294 230.006C249.294 231.208 249.023 232.279 248.48 233.218C247.938 234.142 247.212 234.868 246.302 235.396C245.408 235.924 244.41 236.188 243.31 236.188ZM243.31 234.538C244.102 234.538 244.814 234.34 245.444 233.944C246.09 233.548 246.596 233.005 246.962 232.316C247.344 231.626 247.534 230.856 247.534 230.006C247.534 229.155 247.344 228.392 246.962 227.718C246.596 227.043 246.09 226.508 245.444 226.112C244.814 225.716 244.102 225.518 243.31 225.518C242.518 225.518 241.8 225.716 241.154 226.112C240.524 226.508 240.018 227.043 239.636 227.718C239.255 228.392 239.064 229.155 239.064 230.006C239.064 230.856 239.255 231.626 239.636 232.316C240.018 233.005 240.524 233.548 241.154 233.944C241.8 234.34 242.518 234.538 243.31 234.538ZM252.424 235.924V224.132H254.074V226.42L253.7 226.332C253.994 225.569 254.47 224.968 255.13 224.528C255.805 224.088 256.582 223.868 257.462 223.868C258.298 223.868 259.046 224.058 259.706 224.44C260.381 224.821 260.909 225.349 261.29 226.024C261.686 226.684 261.884 227.432 261.884 228.268V235.924H260.234V228.906C260.234 228.187 260.102 227.578 259.838 227.08C259.589 226.581 259.23 226.2 258.76 225.936C258.306 225.657 257.778 225.518 257.176 225.518C256.575 225.518 256.04 225.657 255.57 225.936C255.101 226.2 254.734 226.588 254.47 227.102C254.206 227.6 254.074 228.202 254.074 228.906V235.924H252.424ZM266.466 235.924V225.782H264.112V224.132H266.466V223.076C266.466 222.254 266.649 221.565 267.016 221.008C267.382 220.436 267.866 220.003 268.468 219.71C269.069 219.416 269.714 219.27 270.404 219.27C270.55 219.27 270.719 219.284 270.91 219.314C271.1 219.328 271.254 219.35 271.372 219.38V220.876C271.269 220.846 271.13 220.832 270.954 220.832C270.778 220.817 270.653 220.81 270.58 220.81C269.876 220.81 269.289 220.978 268.82 221.316C268.35 221.653 268.116 222.24 268.116 223.076V224.132H274.738V225.782H268.116V235.924H266.466ZM273.352 235.924V224.132H275.002V235.924H273.352ZM283.868 240.764C283.062 240.764 282.314 240.639 281.624 240.39C280.95 240.14 280.363 239.796 279.864 239.356C279.38 238.93 279.006 238.432 278.742 237.86L280.26 237.046C280.495 237.603 280.913 238.087 281.514 238.498C282.116 238.908 282.886 239.114 283.824 239.114C284.543 239.114 285.203 238.974 285.804 238.696C286.406 238.417 286.89 238.006 287.256 237.464C287.623 236.921 287.806 236.254 287.806 235.462V232.844L288.07 233.086C287.66 233.936 287.051 234.596 286.244 235.066C285.438 235.52 284.558 235.748 283.604 235.748C282.504 235.748 281.514 235.484 280.634 234.956C279.754 234.428 279.058 233.716 278.544 232.822C278.046 231.912 277.796 230.908 277.796 229.808C277.796 228.693 278.046 227.688 278.544 226.794C279.058 225.899 279.747 225.188 280.612 224.66C281.492 224.132 282.49 223.868 283.604 223.868C284.558 223.868 285.423 224.088 286.2 224.528C286.992 224.968 287.616 225.562 288.07 226.31L287.806 226.772V224.132H289.456V235.462C289.456 236.474 289.214 237.376 288.73 238.168C288.261 238.974 287.601 239.605 286.75 240.06C285.914 240.529 284.954 240.764 283.868 240.764ZM283.692 234.098C284.455 234.098 285.144 233.907 285.76 233.526C286.376 233.13 286.868 232.609 287.234 231.964C287.616 231.304 287.806 230.585 287.806 229.808C287.806 229.03 287.616 228.319 287.234 227.674C286.868 227.014 286.376 226.493 285.76 226.112C285.144 225.716 284.455 225.518 283.692 225.518C282.915 225.518 282.211 225.716 281.58 226.112C280.95 226.493 280.451 227.006 280.084 227.652C279.732 228.297 279.556 229.016 279.556 229.808C279.556 230.585 279.732 231.304 280.084 231.964C280.451 232.609 280.942 233.13 281.558 233.526C282.189 233.907 282.9 234.098 283.692 234.098ZM297.247 236.188C296.425 236.188 295.677 235.997 295.003 235.616C294.328 235.22 293.793 234.677 293.397 233.988C293.015 233.284 292.825 232.477 292.825 231.568V224.132H294.475V231.37C294.475 232 294.599 232.558 294.849 233.042C295.113 233.511 295.472 233.878 295.927 234.142C296.396 234.406 296.931 234.538 297.533 234.538C298.134 234.538 298.669 234.406 299.139 234.142C299.608 233.863 299.975 233.474 300.239 232.976C300.503 232.462 300.635 231.854 300.635 231.15V224.132H302.285V235.924H300.635V233.636L301.009 233.724C300.73 234.486 300.253 235.088 299.579 235.528C298.904 235.968 298.127 236.188 297.247 236.188ZM305.898 235.924V224.132H307.548V226.068L307.328 225.782C307.607 225.224 308.025 224.784 308.582 224.462C309.154 224.139 309.843 223.978 310.65 223.978H311.398V225.628H310.364C309.513 225.628 308.831 225.892 308.318 226.42C307.805 226.948 307.548 227.696 307.548 228.664V235.924H305.898ZM316.962 236.188C316.214 236.188 315.546 236.048 314.96 235.77C314.373 235.476 313.911 235.08 313.574 234.582C313.236 234.083 313.068 233.511 313.068 232.866C313.068 232.25 313.2 231.692 313.464 231.194C313.728 230.68 314.138 230.248 314.696 229.896C315.253 229.544 315.964 229.294 316.83 229.148L321.45 228.378V229.874L317.226 230.578C316.375 230.724 315.759 230.996 315.378 231.392C315.011 231.788 314.828 232.257 314.828 232.8C314.828 233.328 315.033 233.775 315.444 234.142C315.869 234.508 316.412 234.692 317.072 234.692C317.878 234.692 318.582 234.523 319.184 234.186C319.785 233.834 320.254 233.364 320.592 232.778C320.929 232.191 321.098 231.538 321.098 230.82V227.828C321.098 227.124 320.841 226.552 320.328 226.112C319.814 225.672 319.147 225.452 318.326 225.452C317.607 225.452 316.976 225.635 316.434 226.002C315.891 226.354 315.488 226.816 315.224 227.388L313.728 226.574C313.948 226.075 314.292 225.62 314.762 225.21C315.246 224.799 315.796 224.476 316.412 224.242C317.028 223.992 317.666 223.868 318.326 223.868C319.191 223.868 319.954 224.036 320.614 224.374C321.288 224.711 321.809 225.18 322.176 225.782C322.557 226.368 322.748 227.05 322.748 227.828V235.924H321.098V233.57L321.34 233.812C321.134 234.252 320.812 234.655 320.372 235.022C319.946 235.374 319.44 235.66 318.854 235.88C318.282 236.085 317.651 236.188 316.962 236.188ZM330.657 236.056C329.601 236.056 328.787 235.748 328.215 235.132C327.643 234.516 327.357 233.636 327.357 232.492V225.782H325.179V224.132H325.729C326.227 224.132 326.623 223.97 326.917 223.648C327.21 223.31 327.357 222.892 327.357 222.394V221.404H329.007V224.132H331.603V225.782H329.007V232.492C329.007 232.888 329.065 233.24 329.183 233.548C329.3 233.841 329.498 234.076 329.777 234.252C330.07 234.428 330.459 234.516 330.943 234.516C331.06 234.516 331.199 234.508 331.361 234.494C331.522 234.479 331.661 234.464 331.779 234.45V235.924C331.603 235.968 331.405 235.997 331.185 236.012C330.965 236.041 330.789 236.056 330.657 236.056ZM334.896 235.924V224.132H336.546V235.924H334.896ZM334.896 221.954V219.534H336.546V221.954H334.896ZM345.665 236.188C344.551 236.188 343.539 235.924 342.629 235.396C341.72 234.853 340.994 234.12 340.451 233.196C339.923 232.257 339.659 231.194 339.659 230.006C339.659 228.832 339.923 227.784 340.451 226.86C340.979 225.936 341.691 225.21 342.585 224.682C343.495 224.139 344.521 223.868 345.665 223.868C346.809 223.868 347.829 224.132 348.723 224.66C349.633 225.188 350.344 225.914 350.857 226.838C351.385 227.762 351.649 228.818 351.649 230.006C351.649 231.208 351.378 232.279 350.835 233.218C350.293 234.142 349.567 234.868 348.657 235.396C347.763 235.924 346.765 236.188 345.665 236.188ZM345.665 234.538C346.457 234.538 347.169 234.34 347.799 233.944C348.445 233.548 348.951 233.005 349.317 232.316C349.699 231.626 349.889 230.856 349.889 230.006C349.889 229.155 349.699 228.392 349.317 227.718C348.951 227.043 348.445 226.508 347.799 226.112C347.169 225.716 346.457 225.518 345.665 225.518C344.873 225.518 344.155 225.716 343.509 226.112C342.879 226.508 342.373 227.043 341.991 227.718C341.61 228.392 341.419 229.155 341.419 230.006C341.419 230.856 341.61 231.626 341.991 232.316C342.373 233.005 342.879 233.548 343.509 233.944C344.155 234.34 344.873 234.538 345.665 234.538ZM354.779 235.924V224.132H356.429V226.42L356.055 226.332C356.349 225.569 356.825 224.968 357.485 224.528C358.16 224.088 358.937 223.868 359.817 223.868C360.653 223.868 361.401 224.058 362.061 224.44C362.736 224.821 363.264 225.349 363.645 226.024C364.041 226.684 364.239 227.432 364.239 228.268V235.924H362.589V228.906C362.589 228.187 362.457 227.578 362.193 227.08C361.944 226.581 361.585 226.2 361.115 225.936C360.661 225.657 360.133 225.518 359.531 225.518C358.93 225.518 358.395 225.657 357.925 225.936C357.456 226.2 357.089 226.588 356.825 227.102C356.561 227.6 356.429 228.202 356.429 228.906V235.924H354.779Z" fill="#033348"/>
</svg>