<svg width="20" height="20" viewBox="0 0 20 20" fill="none" xmlns="http://www.w3.org/2000/svg">
<path fill-rule="evenodd" clip-rule="evenodd" d="M10.3133 2.31319C10.5085 2.11793 10.8251 2.11793 11.0204 2.31319L13.0204 4.31319C13.2156 4.50846 13.2156 4.82504 13.0204 5.0203C12.8251 5.21556 12.5085 5.21556 12.3133 5.0203L11.1668 3.87385V9.33341C11.1668 9.60956 10.943 9.83341 10.6668 9.83341C10.3907 9.83341 10.1668 9.60956 10.1668 9.33341V3.87385L9.02038 5.0203C8.82512 5.21556 8.50854 5.21556 8.31328 5.0203C8.11801 4.82504 8.11801 4.50846 8.31328 4.31319L10.3133 2.31319ZM5.3335 6.16675C5.60964 6.16675 5.8335 6.39061 5.8335 6.66675V12.1263L6.97994 10.9799C7.17521 10.7846 7.49179 10.7846 7.68705 10.9799C7.88231 11.1751 7.88231 11.4917 7.68705 11.687L5.68705 13.687C5.49179 13.8822 5.1752 13.8822 4.97994 13.687L2.97994 11.687C2.78468 11.4917 2.78468 11.1751 2.97994 10.9799C3.1752 10.7846 3.49179 10.7846 3.68705 10.9799L4.8335 12.1263V6.66675C4.8335 6.39061 5.05735 6.16675 5.3335 6.16675Z" stroke="#033348" stroke-linecap="round" stroke-linejoin="round"/>
</svg>
