<svg width="20" height="20" viewBox="0 0 20 20" fill="none" xmlns="http://www.w3.org/2000/svg">
<path fill-rule="evenodd" clip-rule="evenodd" d="M12.8912 2.89155C13.1353 2.64748 13.531 2.64748 13.7751 2.89155L16.2751 5.39155C16.5192 5.63563 16.5192 6.03136 16.2751 6.27544C16.031 6.51952 15.6353 6.51952 15.3912 6.27544L13.9582 4.84238V11.6668C13.9582 12.012 13.6783 12.2918 13.3332 12.2918C12.988 12.2918 12.7082 12.012 12.7082 11.6668V4.84238L11.2751 6.27544C11.031 6.51952 10.6353 6.51952 10.3912 6.27544C10.1472 6.03136 10.1472 5.63563 10.3912 5.39155L12.8912 2.89155ZM6.6665 7.7085C7.01168 7.7085 7.2915 7.98832 7.2915 8.3335V15.1579L8.72456 13.7249C8.96864 13.4808 9.36437 13.4808 9.60845 13.7249C9.85252 13.969 9.85252 14.3647 9.60845 14.6088L7.10845 17.1088C6.86437 17.3528 6.46864 17.3528 6.22456 17.1088L3.72456 14.6088C3.48048 14.3647 3.48048 13.969 3.72456 13.7249C3.96864 13.4808 4.36437 13.4808 4.60845 13.7249L6.0415 15.1579V8.3335C6.0415 7.98832 6.32133 7.7085 6.6665 7.7085Z" fill="#2E3038"/>
</svg>
