<svg width="24" height="25" viewBox="0 0 24 25" fill="none" xmlns="http://www.w3.org/2000/svg">
<g clip-path="url(#clip0_676_3154)">
<path fill-rule="evenodd" clip-rule="evenodd" d="M23.6605 3.91902C24.1326 4.41966 24.1093 5.20813 23.6087 5.68016L10.0577 18.4568C9.39699 19.0797 8.35853 19.0568 7.7261 18.4051L2.02323 12.5293C1.54402 12.0356 1.5558 11.2468 2.04954 10.7676C2.54329 10.2884 3.33204 10.3002 3.81126 10.7939L7.80366 14.9074C8.43609 15.559 9.47455 15.5821 10.1352 14.9591L21.8993 3.86721C22.4 3.3952 23.1886 3.41839 23.6605 3.91902Z" fill="#054A68"/>
<path fill-rule="evenodd" clip-rule="evenodd" d="M18.5386 4.11183H3.32228C2.86358 4.11183 2.49171 4.48368 2.49171 4.9424V8.78494C1.9093 8.87064 1.3474 9.13349 0.892717 9.57479C-0.259367 10.693 -0.286859 12.5334 0.831304 13.6855L2.49171 15.3962V20.1587C2.49171 20.6175 2.86358 20.9892 3.32228 20.9892H18.5386C18.9973 20.9892 19.3692 20.6175 19.3692 20.1587V11.9598L21.8609 9.61052V20.1587C21.8609 21.9936 20.3734 23.4809 18.5386 23.4809H3.32228C1.48744 23.4809 0 21.9936 0 20.1587V4.9424C0 3.10755 1.48744 1.62012 3.32228 1.62012H18.5386C19.4425 1.62012 20.2621 1.98109 20.8611 2.56675C20.8268 2.59616 20.7931 2.62651 20.7599 2.65778L19.0396 4.27986C18.9003 4.17439 18.7267 4.11183 18.5386 4.11183Z" fill="#054A68"/>
</g>
<defs>
<clipPath id="clip0_676_3154">
<rect width="24" height="24" fill="white" transform="translate(0 0.620117)"/>
</clipPath>
</defs>
</svg>
