<svg width="41" height="37" viewBox="0 0 41 37" fill="none" xmlns="http://www.w3.org/2000/svg">
<path d="M17.6935 10.1451L18.0964 10.4412L17.6935 10.1451C17.6936 10.1449 17.6937 10.1447 17.6939 10.1446L17.6935 10.1451ZM17.8542 9.92646L10.2398 9.48783C8.14043 9.3669 6.83877 11.734 8.06537 13.442L12.5144 19.637L9.74424 26.7432C8.9805 28.7024 10.8295 30.6719 12.8329 30.0331L20.0996 27.7162L26.002 32.5467C27.6293 33.8785 30.0737 32.7285 30.0853 30.6258L30.1273 22.9988L36.5453 18.878C38.3148 17.7419 37.9765 15.0618 35.9802 14.401L28.7396 12.0042L26.8037 4.62688L25.3529 5.0076L26.8037 4.62688C26.27 2.59295 23.6165 2.08646 22.3712 3.78083L17.8542 9.92646Z" stroke="#033348" stroke-width="3"/>
<path d="M34.5157 6.32778C35.2896 5.81595 35.7783 4.91375 36.3207 4.18674" stroke="#033348" stroke-width="3" stroke-linecap="round"/>
<path d="M3.86938 24.6408C4.66181 24.2446 5.35834 23.7292 6.08186 23.2185" stroke="#033348" stroke-width="3" stroke-linecap="round"/>
<path d="M2.33215 18.4564C1.53499 18.4564 3.91634 18.2714 4.70266 18.1404" stroke="#033348" stroke-width="3" stroke-linecap="round"/>
<path d="M13.1067 14.3132C13.2928 14.3339 13.3975 14.4721 13.5245 14.5991C14.5438 15.6184 15.7615 16.4417 16.911 17.3039C17.5708 17.7987 16.8269 18.7742 16.6105 19.371C16.4526 19.8061 14.6703 24.2088 15.6356 24.2088C17.0998 24.2088 18.4138 23.6663 19.7038 23.0214" stroke="#FDA94D" stroke-width="3" stroke-linecap="round"/>
<path d="M26.9604 16.0286C27.1116 16.0286 27.2319 16.0397 27.3709 16.1092C28.5635 16.7055 29.9144 16.9651 31.1826 17.348" stroke="#FDA94D" stroke-width="3" stroke-linecap="round"/>
<path d="M35.4182 26.4563C36.2411 26.5311 37.1544 26.9295 37.9447 27.1365" stroke="#033348" stroke-width="3" stroke-linecap="round"/>
</svg>
