<svg width="14" height="14" viewBox="0 0 14 14" fill="none" xmlns="http://www.w3.org/2000/svg">
<path d="M1.6875 6.75C1.6875 6.42306 1.6875 6.25959 1.71984 6.12546C1.80762 5.7615 2.06347 5.47721 2.39104 5.37969C2.51175 5.34375 2.65888 5.34375 2.95312 5.34375H10.5469C10.8411 5.34375 10.9882 5.34375 11.109 5.37969C11.4365 5.47721 11.6924 5.7615 11.7802 6.12546C11.8125 6.25959 11.8125 6.42306 11.8125 6.75C11.8125 7.07694 11.8125 7.24041 11.7802 7.37454C11.6924 7.7385 11.4365 8.02279 11.109 8.12031C10.9882 8.15625 10.8411 8.15625 10.5469 8.15625H2.95312C2.65888 8.15625 2.51175 8.15625 2.39104 8.12031C2.06347 8.02279 1.80762 7.7385 1.71984 7.37454C1.6875 7.24041 1.6875 7.07694 1.6875 6.75Z" fill="#676B7E" stroke="#676B7E" stroke-width="0.84375"/>
</svg>
