<svg width="12" height="12" viewBox="0 0 12 12" fill="none" xmlns="http://www.w3.org/2000/svg">
<path d="M2.84082 7.28174C3.99196 6.67232 5.31524 6.48756 6.56982 6.72559L6.8374 6.78271L6.87451 6.79395C7.0537 6.85679 7.15988 7.04622 7.11474 7.23486C7.06944 7.42367 6.88855 7.54499 6.70019 7.51953L6.6626 7.51221L6.42969 7.4624C5.33842 7.25541 4.18885 7.41666 3.19189 7.94434L2.98047 8.06299C2.58609 8.2978 2.01444 8.58125 1.64599 8.94189C1.46593 9.11814 1.38923 9.26364 1.37695 9.37598C1.36723 9.46518 1.38999 9.61207 1.61523 9.82666L1.80957 10.0029C2.26598 10.3918 2.7387 10.625 3.29541 10.625H6.5L6.53857 10.627C6.72756 10.6463 6.875 10.8059 6.875 11C6.875 11.1941 6.72756 11.3537 6.53857 11.373L6.5 11.375H3.29541C2.44314 11.375 1.77213 10.982 1.20898 10.4731L1.09765 10.3696C0.758221 10.0462 0.588967 9.68231 0.631346 9.29443C0.671218 8.92966 0.890746 8.63171 1.12158 8.40576C1.5749 7.96214 2.2842 7.6048 2.59717 7.41846L2.84082 7.28174ZM10.625 9.25C10.625 8.49061 10.0094 7.875 9.25 7.875C9.00662 7.875 8.77838 7.93888 8.58008 8.0498L10.4497 9.91943C10.5606 9.72117 10.625 9.49331 10.625 9.25ZM7.875 3.25C7.875 2.21447 7.03554 1.375 6 1.375C4.96446 1.375 4.125 2.21447 4.125 3.25C4.125 4.28553 4.96446 5.125 6 5.125C7.03554 5.125 7.875 4.28553 7.875 3.25ZM7.875 9.25C7.875 10.0094 8.4906 10.625 9.25 10.625C9.4933 10.625 9.72116 10.5606 9.91943 10.4497L8.0498 8.58008C7.93888 8.77838 7.875 9.00663 7.875 9.25ZM11.375 9.25C11.375 10.4236 10.4236 11.375 9.25 11.375C8.07639 11.375 7.125 10.4236 7.125 9.25C7.125 8.07639 8.07639 7.125 9.25 7.125C10.4236 7.125 11.375 8.07639 11.375 9.25ZM8.625 3.25C8.625 4.69975 7.44976 5.875 6 5.875C4.55025 5.875 3.375 4.69975 3.375 3.25C3.375 1.80025 4.55025 0.625 6 0.625C7.44976 0.625 8.625 1.80025 8.625 3.25Z" fill="#C73D45"/>
</svg>
