<svg width="19" height="19" viewBox="0 0 19 19" fill="none" xmlns="http://www.w3.org/2000/svg">
<path fill-rule="evenodd" clip-rule="evenodd" d="M9.2124 16.9065C13.3545 16.9065 16.7124 13.5486 16.7124 9.40649C16.7124 5.26439 13.3545 1.90649 9.2124 1.90649C5.0703 1.90649 1.7124 5.26439 1.7124 9.40649C1.7124 13.5486 5.0703 16.9065 9.2124 16.9065ZM9.2124 18.4065C14.183 18.4065 18.2124 14.3771 18.2124 9.40649C18.2124 4.43589 14.183 0.406494 9.2124 0.406494C4.2418 0.406494 0.212402 4.43589 0.212402 9.40649C0.212402 14.3771 4.2418 18.4065 9.2124 18.4065ZM10.2124 5.40649C10.2124 5.95879 9.7647 6.40649 9.2124 6.40649C8.6601 6.40649 8.2124 5.95879 8.2124 5.40649C8.2124 4.85419 8.6601 4.40649 9.2124 4.40649C9.7647 4.40649 10.2124 4.85419 10.2124 5.40649ZM9.9624 8.40649C9.9624 7.99229 9.6266 7.65649 9.2124 7.65649C8.7982 7.65649 8.4624 7.99229 8.4624 8.40649V13.4065C8.4624 13.8207 8.7982 14.1565 9.2124 14.1565C9.6266 14.1565 9.9624 13.8207 9.9624 13.4065V8.40649Z" fill="#033348"/>
</svg>
