<svg width="34" height="34" viewBox="0 0 34 34" fill="none" xmlns="http://www.w3.org/2000/svg">
<path d="M1 21.7477C1 18.4359 3.66053 15.7454 6.96088 15.6971L11.1241 16.4859C13.0922 16.8588 15.1129 16.8588 17.0811 16.4859L21.2443 15.6971C24.5446 15.7454 27.2051 18.4359 27.2051 21.7477V22.5383C27.2051 24.2959 25.7803 25.7207 24.0228 25.7207H4.18236C2.42479 25.7207 1 24.2959 1 22.5383V21.7477Z" stroke="#033348" stroke-width="2"/>
<path d="M20.1538 6.68016C20.1538 9.76697 17.4962 12.3603 14.1026 12.3603C10.7089 12.3603 8.05127 9.76697 8.05127 6.68016C8.05127 3.59335 10.7089 1 14.1026 1C17.4962 1 20.1538 3.59335 20.1538 6.68016Z" stroke="#033348" stroke-width="2"/>
<path fill-rule="evenodd" clip-rule="evenodd" d="M23.0936 18.4589C23.0936 17.8565 23.5819 17.3682 24.1843 17.3682H25.3044C25.9059 17.3682 26.3936 17.8558 26.3936 18.4574C26.3936 18.9569 26.7374 19.3835 27.2023 19.566C27.2107 19.5693 27.219 19.5726 27.2273 19.5759C27.6819 19.7565 28.2105 19.6978 28.5656 19.3614L28.6028 19.3261C29.0633 18.8899 29.7844 18.8899 30.2449 19.3261L30.9336 19.9786C31.3812 20.4026 31.3812 21.1153 30.9336 21.5392L30.9087 21.5629C30.5546 21.8983 30.4919 22.43 30.6858 22.8775C30.8697 23.302 31.2681 23.6166 31.7308 23.6166H31.8329C32.4775 23.6166 33 24.1391 33 24.7837V25.578C33 26.2213 32.4785 26.7429 31.8351 26.7429H31.7405C31.2737 26.7429 30.8719 27.0606 30.6865 27.489C30.4912 27.9402 30.5542 28.4764 30.9111 28.8145L30.9269 28.8295C31.3712 29.2504 31.3712 29.958 30.9269 30.3789L30.228 31.041C29.7699 31.475 29.0525 31.475 28.5944 31.041L28.5589 31.0074C28.2051 30.6721 27.6782 30.6133 27.2252 30.7932C27.2175 30.7962 27.2099 30.7992 27.2022 30.8023C26.7373 30.9848 26.3936 31.4113 26.3936 31.9107C26.3936 32.5122 25.906 32.9997 25.3046 32.9997H24.1841C23.5818 32.9997 23.0936 32.5115 23.0936 31.9092C23.0936 31.4095 22.7499 30.9826 22.285 30.7995C22.2791 30.7972 22.2733 30.7949 22.2675 30.7925C21.817 30.6136 21.2932 30.6722 20.9414 31.0056L20.9045 31.0405C20.4478 31.4732 19.7323 31.4732 19.2755 31.0405L18.571 30.3731C18.1285 29.9538 18.1356 29.2424 18.5781 28.8232C18.9357 28.4844 19.004 27.9421 18.8082 27.4901C18.6225 27.0611 18.2201 26.7429 17.7526 26.7429H17.6616C17.0201 26.7429 16.5 26.2228 16.5 25.5812V24.7804C16.5 24.1376 17.0211 23.6166 17.6639 23.6166H17.7623C18.2256 23.6166 18.6247 23.3015 18.809 22.8764C19.0033 22.4281 18.9406 21.8953 18.5859 21.5592L18.5644 21.5388C18.1186 21.1166 18.1186 20.4067 18.5644 19.9844L19.2586 19.3266C19.7178 18.8916 20.437 18.8916 20.8962 19.3266L20.9347 19.3632C21.2878 19.6977 21.8134 19.7563 22.2653 19.5766C22.2718 19.574 22.2783 19.5714 22.2849 19.5688C22.7498 19.3856 23.0936 18.9587 23.0936 18.4589Z" fill="white"/>
<path d="M20.9347 19.3632L20.247 20.0892L20.9347 19.3632ZM19.2586 19.3266L19.9464 20.0526L19.2586 19.3266ZM18.809 22.8764L19.7265 23.2741L18.809 22.8764ZM18.8082 27.4901L17.8906 27.8875L18.8082 27.4901ZM18.571 30.3731L17.8833 31.099L18.571 30.3731ZM22.2675 30.7925L21.8982 31.7219L22.2675 30.7925ZM20.9414 31.0056L20.2536 30.2796L20.9414 31.0056ZM22.285 30.7995L22.6515 29.8691H22.6515L22.285 30.7995ZM27.2022 30.8023L26.8367 29.8714L27.2022 30.8023ZM28.5589 31.0074L29.2467 30.2814L28.5589 31.0074ZM30.228 31.041L30.9157 31.767L30.228 31.041ZM30.9111 28.8145L31.5989 28.0886L30.9111 28.8145ZM30.6858 22.8775L31.6033 22.48L30.6858 22.8775ZM30.9336 21.5392L30.2459 20.8133L30.9336 21.5392ZM30.2449 19.3261L29.5572 20.0521L30.2449 19.3261ZM28.5656 19.3614L27.8778 18.6354L28.5656 19.3614ZM25.3044 16.3682H24.1843V18.3682H25.3044V16.3682ZM26.8368 20.4969C26.8439 20.4996 26.851 20.5024 26.858 20.5052L27.5966 18.6466C27.587 18.6428 27.5774 18.639 27.5678 18.6352L26.8368 20.4969ZM27.915 18.6002L27.8778 18.6354L29.2533 20.0873L29.2905 20.0521L27.915 18.6002ZM31.6214 19.2526L30.9327 18.6002L29.5572 20.0521L30.2459 20.7045L31.6214 19.2526ZM31.5964 22.2888L31.6214 22.2652L30.2459 20.8133L30.2209 20.8369L31.5964 22.2888ZM31.8329 22.6166H31.7308V24.6166H31.8329V22.6166ZM34 25.578V24.7837H32V25.578H34ZM31.7405 27.7429H31.8351V25.7429H31.7405V27.7429ZM31.6147 28.1036L31.5989 28.0886L30.2234 29.5405L30.2392 29.5555L31.6147 28.1036ZM30.9157 31.767L31.6147 31.1048L30.2392 29.6529L29.5403 30.3151L30.9157 31.767ZM27.8712 31.7333L27.9067 31.767L29.2822 30.3151L29.2467 30.2814L27.8712 31.7333ZM26.8562 29.8637C26.8497 29.8663 26.8432 29.8689 26.8367 29.8714L27.5677 31.7331C27.5765 31.7296 27.5853 31.7261 27.5941 31.7226L26.8562 29.8637ZM24.1841 33.9997H25.3046V31.9997H24.1841V33.9997ZM22.6515 29.8691C22.6466 29.8671 22.6416 29.8652 22.6367 29.8632L21.8982 31.7219C21.905 31.7245 21.9117 31.7272 21.9184 31.7299L22.6515 29.8691ZM21.5923 31.7664L21.6291 31.7315L20.2536 30.2796L20.2168 30.3145L21.5923 31.7664ZM17.8833 31.099L18.5878 31.7664L19.9633 30.3145L19.2588 29.6471L17.8833 31.099ZM17.6616 27.7429H17.7526V25.7429H17.6616V27.7429ZM15.5 24.7804V25.5812H17.5V24.7804H15.5ZM17.7623 22.6166H17.6639V24.6166H17.7623V22.6166ZM17.8766 22.2648L17.8981 22.2852L19.2736 20.8333L19.2521 20.8129L17.8766 22.2648ZM18.5709 18.6007L17.8766 19.2584L19.2521 20.7103L19.9464 20.0526L18.5709 18.6007ZM21.6225 18.6373L21.5839 18.6007L20.2084 20.0526L20.247 20.0892L21.6225 18.6373ZM22.6348 20.5058C22.6404 20.5036 22.6459 20.5014 22.6514 20.4992L21.9183 18.6384C21.9108 18.6414 21.9033 18.6444 21.8958 18.6474L22.6348 20.5058ZM22.6514 20.4992C23.4278 20.1933 24.0936 19.4407 24.0936 18.4589H22.0936C22.0936 18.4732 22.0899 18.4975 22.0635 18.5327C22.0349 18.5708 21.9854 18.612 21.9183 18.6384L22.6514 20.4992ZM20.247 20.0892C20.932 20.7381 21.8886 20.8026 22.6348 20.5058L21.8958 18.6474C21.8255 18.6753 21.7583 18.6806 21.7079 18.6733C21.6609 18.6664 21.6363 18.6504 21.6225 18.6373L20.247 20.0892ZM19.9464 20.0526C20.0199 19.983 20.1349 19.983 20.2084 20.0526L21.5839 18.6007C20.739 17.8003 19.4158 17.8003 18.5709 18.6007L19.9464 20.0526ZM19.2521 20.8129C19.2227 20.785 19.2227 20.7382 19.2521 20.7103L17.8766 19.2584C17.0145 20.0752 17.0145 21.4481 17.8766 22.2648L19.2521 20.8129ZM19.7265 23.2741C20.0556 22.5149 19.9886 21.5107 19.2736 20.8333L17.8981 22.2852C17.9001 22.287 17.91 22.2957 17.9151 22.3284C17.9208 22.3653 17.9169 22.4201 17.8915 22.4787L19.7265 23.2741ZM17.7623 24.6166C18.7002 24.6166 19.4163 23.9897 19.7265 23.2741L17.8915 22.4787C17.8669 22.5355 17.8309 22.5761 17.8008 22.5981C17.7867 22.6084 17.7763 22.6129 17.7709 22.6148C17.7661 22.6165 17.7637 22.6166 17.7623 22.6166V24.6166ZM17.5 24.7804C17.5 24.6899 17.5734 24.6166 17.6639 24.6166V22.6166C16.4688 22.6166 15.5 23.5854 15.5 24.7804H17.5ZM17.6616 25.7429C17.5724 25.7429 17.5 25.6705 17.5 25.5812H15.5C15.5 26.7751 16.4678 27.7429 17.6616 27.7429V25.7429ZM19.7259 27.0927C19.4146 26.3739 18.6954 25.7429 17.7526 25.7429V27.7429C17.7532 27.7429 17.7673 27.742 17.796 27.763C17.8278 27.7862 17.8651 27.8286 17.8906 27.8875L19.7259 27.0927ZM19.2658 29.5491C19.9789 28.8736 20.0593 27.8625 19.7259 27.0927L17.8906 27.8875C17.915 27.9438 17.9197 28.0003 17.9131 28.042C17.907 28.0802 17.8944 28.0934 17.8904 28.0972L19.2658 29.5491ZM19.2588 29.6471C19.25 29.6388 19.2425 29.6266 19.2427 29.6044C19.2428 29.5812 19.2515 29.5627 19.2658 29.5491L17.8904 28.0972C17.0403 28.9025 17.0157 30.277 17.8833 31.099L19.2588 29.6471ZM20.2168 30.3145C20.1457 30.3819 20.0344 30.3819 19.9633 30.3145L18.5878 31.7664C19.4303 32.5646 20.7498 32.5646 21.5923 31.7664L20.2168 30.3145ZM22.6367 29.8632C21.8917 29.5672 20.9372 29.632 20.2536 30.2796L21.6291 31.7315C21.6425 31.7189 21.6664 31.7031 21.7128 31.6963C21.7624 31.689 21.8288 31.6943 21.8982 31.7219L22.6367 29.8632ZM24.0936 31.9092C24.0936 30.9275 23.4278 30.1749 22.6515 29.8691L21.9184 31.7299C21.9855 31.7563 22.035 31.7975 22.0636 31.8356C22.0899 31.8707 22.0936 31.895 22.0936 31.9092H24.0936ZM24.1841 31.9997C24.1341 31.9997 24.0936 31.9592 24.0936 31.9092H22.0936C22.0936 33.0638 23.0295 33.9997 24.1841 33.9997V31.9997ZM25.3936 31.9107C25.3936 31.9599 25.3537 31.9997 25.3046 31.9997V33.9997C26.4583 33.9997 27.3936 33.0645 27.3936 31.9107H25.3936ZM26.8367 29.8714C26.0599 30.1764 25.3936 30.9289 25.3936 31.9107H27.3936C27.3936 31.8969 27.3971 31.8729 27.4233 31.838C27.4516 31.8002 27.5009 31.7593 27.5677 31.7331L26.8367 29.8714ZM29.2467 30.2814C28.5609 29.6317 27.6034 29.5671 26.8562 29.8637L27.5941 31.7226C27.6651 31.6944 27.7331 31.689 27.7841 31.6965C27.8318 31.7035 27.8569 31.7198 27.8712 31.7333L29.2467 30.2814ZM29.5403 30.3151C29.4679 30.3836 29.3545 30.3836 29.2822 30.3151L27.9067 31.767C28.7504 32.5663 30.072 32.5663 30.9157 31.767L29.5403 30.3151ZM30.2392 29.5555C30.2671 29.5819 30.2671 29.6264 30.2392 29.6529L31.6147 31.1048C32.4753 30.2895 32.4753 28.9189 31.6147 28.1036L30.2392 29.5555ZM29.7688 27.0918C29.4392 27.8533 29.506 28.8608 30.2234 29.5405L31.5989 28.0886C31.5959 28.0858 31.5853 28.0757 31.58 28.0415C31.5741 28.0031 31.5782 27.9464 31.6042 27.8862L29.7688 27.0918ZM31.7405 25.7429C30.7984 25.7429 30.0797 26.3734 29.7688 27.0918L31.6042 27.8862C31.6296 27.8277 31.6666 27.7857 31.698 27.7627C31.7265 27.7419 31.7402 27.7429 31.7405 27.7429V25.7429ZM32 25.578C32 25.669 31.9262 25.7429 31.8351 25.7429V27.7429C33.0307 27.7429 34 26.7736 34 25.578H32ZM31.8329 24.6166C31.9252 24.6166 32 24.6914 32 24.7837H34C34 23.5868 33.0297 22.6166 31.8329 22.6166V24.6166ZM29.7682 23.275C30.078 23.9902 30.7936 24.6166 31.7308 24.6166V22.6166C31.7295 22.6166 31.7274 22.6165 31.7227 22.6149C31.7174 22.6131 31.7072 22.6086 31.6933 22.5985C31.6634 22.5767 31.6278 22.5364 31.6033 22.48L29.7682 23.275ZM30.2209 20.8369C29.5068 21.5135 29.4396 22.5165 29.7682 23.275L31.6033 22.48C31.5782 22.4219 31.5744 22.3675 31.58 22.3311C31.585 22.2988 31.5948 22.2904 31.5964 22.2888L30.2209 20.8369ZM30.2459 20.7045C30.2771 20.7341 30.2771 20.7837 30.2459 20.8133L31.6214 22.2652C32.4852 21.4468 32.4852 20.071 31.6214 19.2526L30.2459 20.7045ZM29.2905 20.0521C29.3653 19.9812 29.4824 19.9812 29.5572 20.0521L30.9327 18.6002C30.0865 17.7985 28.7612 17.7985 27.915 18.6002L29.2905 20.0521ZM26.858 20.5052C27.6065 20.8027 28.5661 20.7384 29.2533 20.0873L27.8778 18.6354C27.8631 18.6494 27.8373 18.666 27.7889 18.6731C27.7372 18.6806 27.6684 18.6751 27.5966 18.6466L26.858 20.5052ZM25.3936 18.4574C25.3936 19.4393 26.06 20.1918 26.8368 20.4969L27.5678 18.6352C27.501 18.609 27.4517 18.568 27.4233 18.5302C27.3971 18.4953 27.3936 18.4713 27.3936 18.4574H25.3936ZM24.1843 16.3682C23.0296 16.3682 22.0936 17.3042 22.0936 18.4589H24.0936C24.0936 18.4088 24.1342 18.3682 24.1843 18.3682V16.3682ZM25.3044 18.3682C25.3536 18.3682 25.3936 18.4081 25.3936 18.4574H27.3936C27.3936 17.3035 26.4582 16.3682 25.3044 16.3682V18.3682Z" fill="#033348"/>
<path d="M27.416 25.1838C27.416 26.4997 26.2737 27.6575 24.7493 27.6575C23.2249 27.6575 22.0826 26.4997 22.0826 25.1838C22.0826 23.8678 23.2249 22.7101 24.7493 22.7101C26.2737 22.7101 27.416 23.8678 27.416 25.1838Z" stroke="#033348" stroke-width="2"/>
</svg>
