<svg width="18" height="16" viewBox="0 0 18 16" fill="none" xmlns="http://www.w3.org/2000/svg">
<path fill-rule="evenodd" clip-rule="evenodd" d="M7.01402 0.785144C8.19799 0.570992 9.42082 0.808614 10.4351 1.45122C11.2853 1.9899 11.9364 2.77998 12.2994 3.70306C12.7184 3.66042 13.1424 3.67765 13.5582 3.75507C14.1644 3.86792 14.74 4.10619 15.2471 4.45466C15.7541 4.80314 16.1813 5.25404 16.4999 5.7781C16.8185 6.30219 17.0213 6.88737 17.0944 7.49515C17.1675 8.10294 17.1093 8.71904 16.9236 9.30276C16.7379 9.88645 16.4292 10.4241 16.0183 10.8806C15.6075 11.3371 15.1037 11.7019 14.5407 11.9518C13.9776 12.2016 13.3677 12.3308 12.7509 12.3312C12.4057 12.3314 12.1257 12.0518 12.1255 11.7066C12.1252 11.3614 12.4049 11.0814 12.75 11.0812C13.1929 11.0809 13.6304 10.9881 14.0337 10.8092C14.437 10.6302 14.7967 10.3694 15.0893 10.0443C15.3819 9.71927 15.6009 9.33734 15.7324 8.92388C15.8639 8.51044 15.9051 8.07444 15.8533 7.64444C15.8016 7.21444 15.6581 6.79968 15.4318 6.42748C15.2055 6.05525 14.9014 5.73384 14.5391 5.48483C14.1767 5.2358 13.7645 5.06494 13.3295 4.98395C12.8973 4.90351 12.4529 4.91363 12.0251 5.01359L11.0364 5.27898C10.7031 5.36846 10.3603 5.17075 10.2708 4.83738C10.1813 4.504 10.379 4.1612 10.7124 4.07171L11.0585 3.9788C10.7824 3.38103 10.3361 2.86825 9.76609 2.50713C9.01768 2.03297 8.11322 1.85661 7.23651 2.01518C6.3599 2.17374 5.57938 2.65473 5.05187 3.35787C4.54749 4.03017 4.22159 5.00457 4.40295 5.84878C4.45458 6.08911 4.5146 6.35139 4.64731 6.56047C4.83229 6.8519 4.746 7.2381 4.45457 7.42308C4.16314 7.60806 3.77694 7.52177 3.59196 7.23034C3.48732 7.06548 3.40651 6.87628 3.34552 6.70324C3.02546 6.87852 2.74889 7.12525 2.53967 7.4261C2.21327 7.89545 2.07261 8.46489 2.14254 9.0277C2.21248 9.5906 2.48862 10.1108 2.92157 10.4896C3.35452 10.8685 3.91429 11.0796 4.49602 11.0813H5.24567C5.59084 11.0813 5.87067 11.3612 5.87067 11.7063C5.87067 12.0515 5.59084 12.3313 5.24567 12.3313H4.49525L4.49361 12.3313C3.61192 12.329 2.7601 12.0094 2.09839 11.4303C1.43647 10.8511 1.01017 10.0518 0.902078 9.18183C0.793973 8.31179 1.01193 7.43355 1.51343 6.71242C1.914 6.13643 2.47301 5.69277 3.11792 5.42939C3.11216 4.41784 3.43735 3.42699 4.05198 2.60773C4.77057 1.64988 5.82994 0.999315 7.01402 0.785144ZM8.61064 7.51522C8.83765 7.33611 9.15789 7.33611 9.3849 7.51522L11.261 8.9954C11.5319 9.20921 11.5783 9.60221 11.3645 9.8732C11.1507 10.1442 10.7577 10.1905 10.4867 9.97674L9.62277 9.29512V14.6667C9.62277 15.0119 9.34295 15.2917 8.99777 15.2917C8.65259 15.2917 8.37277 15.0119 8.37277 14.6667V9.29512L7.50885 9.97674C7.23786 10.1905 6.84486 10.1442 6.63105 9.8732C6.41724 9.60221 6.4636 9.20921 6.73459 8.9954L8.61064 7.51522Z" fill="white"/>
</svg>
