<svg width="21" height="17" viewBox="0 0 21 17" fill="none" xmlns="http://www.w3.org/2000/svg">
<g id="Group 4654">
<g id="Group 4541">
<circle id="Ellipse 32" cx="7.72656" cy="4.03516" r="3" stroke="#D2D9DF" stroke-width="2"/>
<path id="Subtract" fill-rule="evenodd" clip-rule="evenodd" d="M12.7718 16.0353C12.7884 15.8695 12.7969 15.7014 12.7969 15.5312C12.7969 12.7698 10.5583 10.5312 7.79688 10.5312C5.03545 10.5312 2.79688 12.7698 2.79688 15.5312C2.79688 15.7014 2.80537 15.8695 2.82196 16.0353H0.814742C0.802898 15.8688 0.796875 15.7007 0.796875 15.5312C0.796875 11.6653 3.93088 8.53125 7.79688 8.53125C11.6629 8.53125 14.7969 11.6653 14.7969 15.5312C14.7969 15.7007 14.7909 15.8688 14.779 16.0353H12.7718Z" fill="#D2D9DF"/>
</g>
<g id="Group 4542">
<circle id="Ellipse 32_2" cx="14.7969" cy="5.94434" r="2.15" stroke="#D2D9DF" stroke-width="1.7"/>
<path id="Subtract_2" fill-rule="evenodd" clip-rule="evenodd" d="M18.7721 16.035C18.7874 15.8917 18.7953 15.7461 18.7953 15.5987C18.7953 13.3566 16.9777 11.5391 14.7356 11.5391C13.9006 11.5391 13.1245 11.7912 12.4792 12.2234L11.7305 10.3355C12.6162 9.82874 13.6421 9.53906 14.7356 9.53906C18.0823 9.53906 20.7953 12.2521 20.7953 15.5987C20.7953 15.7454 20.7901 15.8909 20.7798 16.035H18.7721Z" fill="#D2D9DF"/>
</g>
</g>
</svg>
