<svg width="21" height="21" viewBox="0 0 21 21" fill="none" xmlns="http://www.w3.org/2000/svg">
<mask id="path-1-inside-1_289_2152" fill="white">
<path fill-rule="evenodd" clip-rule="evenodd" d="M10.8933 20.5C16.4162 20.5 20.8933 16.0228 20.8933 10.5C20.8933 4.97715 16.4162 0.5 10.8933 0.5C5.37046 0.5 0.893311 4.97715 0.893311 10.5C0.893311 16.0228 5.37046 20.5 10.8933 20.5ZM16.1706 8.68621C16.4635 8.39332 16.4635 7.91845 16.1706 7.62555C15.8777 7.33266 15.4028 7.33266 15.1099 7.62555L9.61905 13.1164L6.67669 10.1741C6.3838 9.88122 5.90892 9.88122 5.61603 10.1741C5.32314 10.467 5.32314 10.9419 5.61603 11.2348L8.73517 14.3539C9.22332 14.842 10.0148 14.842 10.5029 14.3539L16.1706 8.68621Z"/>
</mask>
<path fill-rule="evenodd" clip-rule="evenodd" d="M10.8933 20.5C16.4162 20.5 20.8933 16.0228 20.8933 10.5C20.8933 4.97715 16.4162 0.5 10.8933 0.5C5.37046 0.5 0.893311 4.97715 0.893311 10.5C0.893311 16.0228 5.37046 20.5 10.8933 20.5ZM16.1706 8.68621C16.4635 8.39332 16.4635 7.91845 16.1706 7.62555C15.8777 7.33266 15.4028 7.33266 15.1099 7.62555L9.61905 13.1164L6.67669 10.1741C6.3838 9.88122 5.90892 9.88122 5.61603 10.1741C5.32314 10.467 5.32314 10.9419 5.61603 11.2348L8.73517 14.3539C9.22332 14.842 10.0148 14.842 10.5029 14.3539L16.1706 8.68621Z" fill="#C7C9D1"/>
<path d="M16.1706 7.62555L15.1099 8.68621L15.1099 8.68621L16.1706 7.62555ZM16.1706 8.68621L15.1099 7.62555L15.1099 7.62555L16.1706 8.68621ZM15.1099 7.62555L16.1706 8.68621L16.1706 8.68621L15.1099 7.62555ZM9.61905 13.1164L8.55839 14.1771L9.61905 15.2378L10.6797 14.1771L9.61905 13.1164ZM6.67669 10.1741L5.61603 11.2348L5.61603 11.2348L6.67669 10.1741ZM5.61603 10.1741L6.67669 11.2348L6.6767 11.2348L5.61603 10.1741ZM5.61603 11.2348L6.67669 10.1741H6.67669L5.61603 11.2348ZM8.73517 14.3539L9.79582 13.2932V13.2932L8.73517 14.3539ZM10.5029 14.3539L11.5636 15.4145L10.5029 14.3539ZM19.3933 10.5C19.3933 15.1944 15.5877 19 10.8933 19V22C17.2446 22 22.3933 16.8513 22.3933 10.5H19.3933ZM10.8933 2C15.5877 2 19.3933 5.80558 19.3933 10.5H22.3933C22.3933 4.14873 17.2446 -1 10.8933 -1V2ZM2.39331 10.5C2.39331 5.80558 6.19889 2 10.8933 2V-1C4.54204 -1 -0.606689 4.14873 -0.606689 10.5H2.39331ZM10.8933 19C6.19889 19 2.39331 15.1944 2.39331 10.5H-0.606689C-0.606689 16.8513 4.54204 22 10.8933 22V19ZM15.1099 8.68621C14.817 8.39332 14.817 7.91845 15.1099 7.62555L17.2313 9.74687C18.1099 8.86819 18.1099 7.44357 17.2313 6.56489L15.1099 8.68621ZM16.1706 8.68621C15.8777 8.97911 15.4028 8.97911 15.1099 8.68621L17.2313 6.56489C16.3526 5.68621 14.928 5.68621 14.0493 6.56489L16.1706 8.68621ZM10.6797 14.1771L16.1706 8.68621L14.0493 6.56489L8.55839 12.0558L10.6797 14.1771ZM5.61603 11.2348L8.55839 14.1771L10.6797 12.0558L7.73735 9.11345L5.61603 11.2348ZM6.6767 11.2348C6.3838 11.5277 5.90893 11.5277 5.61603 11.2348L7.73735 9.11345C6.85866 8.23477 5.43404 8.23478 4.55536 9.11347L6.6767 11.2348ZM6.67669 10.1741C6.96958 10.467 6.96959 10.9419 6.67669 11.2348L4.55537 9.11346C3.67669 9.99215 3.6767 11.4168 4.55538 12.2954L6.67669 10.1741ZM9.79582 13.2932L6.67669 10.1741L4.55538 12.2954L7.67451 15.4146L9.79582 13.2932ZM9.44227 13.2932C9.5399 13.1956 9.69819 13.1956 9.79582 13.2932L7.67451 15.4145C8.74846 16.4885 10.4897 16.4885 11.5636 15.4145L9.44227 13.2932ZM15.1099 7.62555L9.44227 13.2932L11.5636 15.4145L17.2313 9.74687L15.1099 7.62555Z" fill="#C7C9D1" mask="url(#path-1-inside-1_289_2152)"/>
</svg>
