<svg width="37" height="36" viewBox="0 0 37 36" fill="none" xmlns="http://www.w3.org/2000/svg">
<rect x="1" y="1" width="26.155" height="27.1376" rx="3" stroke="#033348" stroke-width="2"/>
<path d="M14.5912 27.106L15.5253 27.4544L14.5912 27.106L12.5901 32.5375L13.5283 32.8874L12.5901 32.5375C12.1887 33.6269 13.1269 34.7449 14.2697 34.5391L20.1524 33.48L19.9709 32.4955L20.1525 33.48C20.4244 33.431 20.6772 33.3077 20.8828 33.1237L22.1982 31.9464L32.3901 22.8242L35.0379 20.4544C35.6394 19.9159 35.7034 18.9951 35.1825 18.3733L31.6759 14.1877C31.1312 13.5377 30.1595 13.4641 29.529 14.0252L27.749 15.6092L26.7565 16.4575L16.5062 25.2189L15.0214 26.4881C14.8275 26.6538 14.6795 26.8665 14.5912 27.106Z" fill="white" stroke="white" stroke-width="2" stroke-linecap="round"/>
<path d="M13.5283 32.8874L15.5294 27.4559C15.5588 27.3761 15.6082 27.3052 15.6728 27.2499L17.1577 25.9808L27.4079 17.2194L28.408 16.3646L30.1954 14.774C30.4055 14.587 30.7294 14.6115 30.911 14.8282L34.4176 19.0137C34.5913 19.221 34.5699 19.528 34.3694 19.7074L31.7216 22.0773L21.5297 31.1994L20.2143 32.3767C20.1458 32.4381 20.0615 32.4792 19.9709 32.4955L14.0881 33.5546C13.7072 33.6232 13.3945 33.2505 13.5283 32.8874Z" fill="white"/>
<path d="M27.4079 17.2194L28.408 16.3646L30.1954 14.774C30.4055 14.587 30.7294 14.6115 30.911 14.8282L34.4176 19.0137C34.5913 19.221 34.5699 19.528 34.3694 19.7074L31.7216 22.0773M27.4079 17.2194L31.7216 22.0773M27.4079 17.2194L17.1577 25.9808M31.7216 22.0773L21.5297 31.1994M17.1577 25.9808L15.6728 27.2499C15.6082 27.3052 15.5588 27.3761 15.5294 27.4559L13.5283 32.8874C13.3945 33.2505 13.7072 33.6232 14.0881 33.5546L19.9709 32.4955C20.0615 32.4792 20.1458 32.4381 20.2143 32.3767L21.5297 31.1994M17.1577 25.9808L21.5297 31.1994" stroke="#033348" stroke-width="2" stroke-linecap="round"/>
<path d="M2 8.60034L26.749 8.60034" stroke="#033348" stroke-width="2" stroke-linecap="round"/>
<ellipse cx="13.1359" cy="4.88762" rx="1.23745" ry="1.23748" fill="#033348"/>
<ellipse cx="18.089" cy="4.88762" rx="1.23745" ry="1.23748" fill="#033348"/>
<ellipse cx="23.0382" cy="4.88762" rx="1.23745" ry="1.23748" fill="#033348"/>
</svg>
